<?xml version="1.0" encoding="UTF-8"?>
<svg id="Layer_2" data-name="Layer 2" xmlns="http://www.w3.org/2000/svg" viewBox="0 0 348.55 60.75">
  <defs>
    <style>
      .cls-1 {
        fill: #fff;
      }

      .cls-2 {
        fill: #4f2a7c;
      }
    </style>
  </defs>
  <g id="Connect_Wallet_Button" data-name="Connect Wallet Button">
    <g>
      <rect class="cls-2" width="348.55" height="60.75"/>
      <g>
        <path class="cls-1" d="M59.62,39.95c-1.1-.68-1.96-1.64-2.58-2.87-.62-1.23-.93-2.63-.93-4.21s.31-3.01.93-4.23c.62-1.22,1.48-2.17,2.58-2.85,1.1-.68,2.35-1.02,3.75-1.02.96,0,1.82.1,2.59.31s1.46.52,2.05.94c.26.18.43.41.51.69.08.28.05.54-.09.78-.14.24-.33.4-.57.48-.24.08-.5.06-.78-.06-.54-.22-1.09-.39-1.65-.51-.56-.12-1.11-.18-1.65-.18-.9,0-1.7.22-2.38.65-.69.43-1.23,1.06-1.61,1.9-.38.84-.57,1.85-.57,3.03s.2,2.17.6,3.02.95,1.5,1.65,1.93c.7.44,1.51.66,2.43.66s2.06-.29,3.36-.87c.28-.12.54-.14.78-.07.24.07.43.23.57.46.14.24.17.5.1.77s-.24.51-.52.71c-.66.48-1.38.86-2.15,1.14s-1.68.42-2.74.42c-1.36,0-2.59-.34-3.69-1.02Z"/>
        <path class="cls-1" d="M74.06,40.43c-.27-.2-.4-.52-.4-.96v-19.92c0-.44.13-.76.4-.96.27-.2.62-.3,1.04-.3h.27c.42,0,.76.1,1.02.3.26.2.39.52.39.96v19.92c0,.44-.13.76-.39.96-.26.2-.6.3-1.02.3h-.27c-.42,0-.76-.1-1.04-.3Z"/>
        <path class="cls-1" d="M83.18,21.82c-.29-.31-.44-.77-.44-1.36s.14-1.05.44-1.37c.29-.31.72-.46,1.3-.46s1.02.16,1.32.48c.3.32.45.77.45,1.35s-.15,1.03-.45,1.35c-.3.32-.74.48-1.32.48s-1.02-.15-1.3-.46ZM83.33,40.43c-.27-.2-.4-.52-.4-.96v-13.2c0-.44.13-.76.4-.96.27-.2.62-.3,1.04-.3h.27c.42,0,.76.1,1.02.3.26.2.39.52.39.96v13.2c0,.44-.13.76-.39.96-.26.2-.6.3-1.02.3h-.27c-.42,0-.76-.1-1.04-.3Z"/>
        <path class="cls-1" d="M94.93,39.95c-1.1-.68-1.96-1.64-2.58-2.87-.62-1.23-.93-2.63-.93-4.21s.31-3.01.93-4.23c.62-1.22,1.48-2.17,2.58-2.85,1.1-.68,2.35-1.02,3.75-1.02.96,0,1.83.1,2.6.31s1.46.52,2.05.94c.26.18.43.41.51.69s.05.54-.09.78c-.14.24-.33.4-.57.48-.24.08-.5.06-.78-.06-.54-.22-1.09-.39-1.65-.51-.56-.12-1.11-.18-1.65-.18-.9,0-1.7.22-2.38.65-.69.43-1.22,1.06-1.61,1.9-.38.84-.57,1.85-.57,3.03s.2,2.17.6,3.02c.4.85.95,1.5,1.65,1.93.7.44,1.51.66,2.43.66s2.06-.29,3.36-.87c.28-.12.54-.14.78-.07.24.07.43.23.57.46.14.24.18.5.11.77s-.25.51-.53.71c-.66.48-1.38.86-2.14,1.14s-1.69.42-2.75.42c-1.36,0-2.59-.34-3.69-1.02Z"/>
        <path class="cls-1" d="M109.37,40.43c-.27-.2-.41-.52-.41-.96v-19.92c0-.44.14-.76.41-.96.27-.2.62-.3,1.04-.3h.27c.42,0,.76.1,1.02.3.26.2.39.52.39.96v19.92c0,.44-.13.76-.39.96-.26.2-.6.3-1.02.3h-.27c-.42,0-.77-.1-1.04-.3ZM118.82,40.52c-.31-.14-.63-.41-.97-.81l-6.06-7.14-.06-.6,6.03-5.97c.4-.4.72-.66.96-.79.24-.13.54-.2.9-.2h.27c.34,0,.62.08.83.24.21.16.31.36.31.6s-.13.48-.39.72l-6.36,6.06.03-1.44,6.69,7.71c.28.3.42.6.42.89s-.12.52-.35.69-.54.25-.91.25h-.27c-.4,0-.75-.07-1.06-.21Z"/>
        <path class="cls-1" d="M136.49,39.77c-.75-.8-1.12-1.94-1.12-3.42v-9.99l1.05,1.02h-2.37c-.4,0-.7-.1-.9-.3-.2-.2-.3-.45-.3-.75,0-.28.07-.51.22-.69.15-.18.35-.29.59-.33.56-.1.99-.25,1.29-.46.3-.21.54-.56.72-1.04s.3-1.18.36-2.1c.02-.38.14-.65.36-.83.22-.17.5-.25.84-.25h.12c.34,0,.62.09.82.27.21.18.32.46.32.84v4.02l-1.26-.75h4.41c.44,0,.76.1.96.32.2.21.3.49.3.85,0,.8-.42,1.2-1.26,1.2h-4.38l1.23-1.05v9.93c0,.76.18,1.35.54,1.76.36.41.88.61,1.56.61.28,0,.62-.04,1.02-.12.22-.02.44-.04.66-.06.2,0,.38.04.53.1.15.07.25.19.31.34.1.22.12.45.07.68-.05.23-.17.42-.38.58-.32.26-.76.46-1.32.6s-1.2.21-1.92.21c-1.3,0-2.32-.4-3.07-1.2Z"/>
        <path class="cls-1" d="M149.92,39.97c-1.12-.67-1.98-1.61-2.58-2.83-.6-1.22-.9-2.64-.9-4.26s.3-3.04.9-4.26c.6-1.22,1.46-2.16,2.58-2.83,1.12-.67,2.44-1,3.96-1s2.81.33,3.93,1c1.12.67,1.98,1.62,2.58,2.83.6,1.22.9,2.64.9,4.26s-.3,3.04-.9,4.26c-.6,1.22-1.46,2.17-2.58,2.83-1.12.67-2.44,1.01-3.96,1.01s-2.81-.33-3.93-1.01ZM156.16,37.85c.64-.46,1.12-1.11,1.46-1.97.33-.85.49-1.85.49-3.01,0-1.76-.38-3.15-1.12-4.16-.75-1.01-1.79-1.51-3.11-1.51-.88,0-1.64.23-2.28.69s-1.13,1.12-1.47,1.96c-.34.85-.51,1.86-.51,3.02,0,1.76.38,3.15,1.12,4.15.75,1.01,1.79,1.52,3.13,1.52.88,0,1.64-.23,2.28-.69Z"/>
        <path class="cls-1" d="M178.39,39.95c-1.1-.68-1.96-1.64-2.58-2.87-.62-1.23-.93-2.63-.93-4.21s.31-3.01.93-4.23c.62-1.22,1.48-2.17,2.58-2.85,1.1-.68,2.35-1.02,3.75-1.02.96,0,1.83.1,2.6.31s1.46.52,2.05.94c.26.18.43.41.51.69s.05.54-.09.78c-.14.24-.33.4-.57.48-.24.08-.5.06-.78-.06-.54-.22-1.09-.39-1.65-.51-.56-.12-1.11-.18-1.65-.18-.9,0-1.7.22-2.38.65-.69.43-1.22,1.06-1.61,1.9-.38.84-.57,1.85-.57,3.03s.2,2.17.6,3.02c.4.85.95,1.5,1.65,1.93.7.44,1.51.66,2.43.66s2.06-.29,3.36-.87c.28-.12.54-.14.78-.07.24.07.43.23.57.46.14.24.18.5.11.77s-.25.51-.53.71c-.66.48-1.38.86-2.14,1.14s-1.69.42-2.75.42c-1.36,0-2.59-.34-3.69-1.02Z"/>
        <path class="cls-1" d="M194.8,39.97c-1.12-.67-1.98-1.61-2.58-2.83-.6-1.22-.9-2.64-.9-4.26s.3-3.04.9-4.26c.6-1.22,1.46-2.16,2.58-2.83,1.12-.67,2.44-1,3.96-1s2.81.33,3.93,1c1.12.67,1.98,1.62,2.58,2.83.6,1.22.9,2.64.9,4.26s-.3,3.04-.9,4.26c-.6,1.22-1.46,2.17-2.58,2.83-1.12.67-2.44,1.01-3.96,1.01s-2.81-.33-3.93-1.01ZM201.04,37.85c.64-.46,1.12-1.11,1.46-1.97.33-.85.49-1.85.49-3.01,0-1.76-.38-3.15-1.12-4.16-.75-1.01-1.79-1.51-3.11-1.51-.88,0-1.64.23-2.28.69s-1.13,1.12-1.47,1.96c-.34.85-.51,1.86-.51,3.02,0,1.76.38,3.15,1.12,4.15.75,1.01,1.79,1.52,3.13,1.52.88,0,1.64-.23,2.28-.69Z"/>
        <path class="cls-1" d="M211.94,40.43c-.27-.2-.4-.52-.4-.96v-13.2c0-.44.13-.76.39-.96.26-.2.59-.3.99-.3h.18c.38,0,.7.1.95.3.25.2.38.52.38.96v1.92l-.93-.15c.68-1.06,1.46-1.87,2.36-2.43.89-.56,1.96-.84,3.22-.84,1.66,0,2.96.46,3.91,1.4.95.93,1.43,2.4,1.43,4.4v8.91c0,.44-.13.76-.39.96-.26.2-.6.3-1.02.3h-.27c-.42,0-.77-.1-1.04-.3-.27-.2-.4-.52-.4-.96v-8.52c0-1.3-.27-2.24-.79-2.81-.53-.57-1.33-.85-2.39-.85-.8,0-1.51.16-2.13.48-.62.32-1.19.79-1.71,1.41l.39-.9v11.19c0,.44-.13.76-.39.96-.26.2-.6.3-1.02.3h-.27c-.42,0-.77-.1-1.04-.3Z"/>
        <path class="cls-1" d="M230.84,40.43c-.27-.2-.4-.52-.4-.96v-13.2c0-.44.13-.76.39-.96.26-.2.59-.3.99-.3h.18c.38,0,.69.1.95.3.25.2.38.52.38.96v1.92l-.93-.15c.68-1.06,1.46-1.87,2.36-2.43.89-.56,1.96-.84,3.22-.84,1.66,0,2.96.46,3.92,1.4.95.93,1.43,2.4,1.43,4.4v8.91c0,.44-.13.76-.39.96-.26.2-.6.3-1.02.3h-.27c-.42,0-.76-.1-1.04-.3-.27-.2-.4-.52-.4-.96v-8.52c0-1.3-.27-2.24-.79-2.81s-1.32-.85-2.38-.85c-.8,0-1.51.16-2.13.48-.62.32-1.19.79-1.71,1.41l.39-.9v11.19c0,.44-.13.76-.39.96-.26.2-.6.3-1.02.3h-.27c-.42,0-.76-.1-1.04-.3Z"/>
        <path class="cls-1" d="M252.08,39.95c-1.11-.68-1.97-1.64-2.58-2.87s-.91-2.64-.91-4.25.3-3.01.91-4.23c.61-1.22,1.49-2.16,2.64-2.83,1.15-.67,2.48-1,4-1,1.32,0,2.45.23,3.39.69.94.46,1.65,1.06,2.13,1.81.48.75.72,1.56.72,2.42,0,1.24-.48,2.18-1.46,2.82-.97.64-2.39.96-4.28.96h-5.67v-2.04h5.13c1.16,0,2.01-.16,2.56-.48s.83-.8.83-1.44c0-.74-.31-1.35-.92-1.84-.61-.49-1.44-.73-2.47-.73-.94,0-1.74.22-2.4.66-.66.44-1.16,1.08-1.5,1.91-.34.83-.51,1.83-.51,2.98,0,1.94.43,3.42,1.29,4.42.86,1.01,2.05,1.52,3.57,1.52.7,0,1.38-.09,2.04-.27.66-.18,1.35-.42,2.07-.72.28-.12.54-.15.78-.08.24.07.43.23.57.46.14.24.17.5.11.77-.07.27-.25.51-.53.71-.68.5-1.49.91-2.42,1.21-.93.31-2.04.47-3.31.47-1.42,0-2.69-.34-3.79-1.02Z"/>
        <path class="cls-1" d="M270.4,39.95c-1.1-.68-1.96-1.64-2.58-2.87-.62-1.23-.93-2.63-.93-4.21s.31-3.01.93-4.23c.62-1.22,1.48-2.17,2.58-2.85,1.1-.68,2.35-1.02,3.75-1.02.96,0,1.82.1,2.59.31s1.46.52,2.05.94c.26.18.43.41.51.69.08.28.05.54-.09.78-.14.24-.33.4-.57.48-.24.08-.5.06-.78-.06-.54-.22-1.09-.39-1.65-.51-.56-.12-1.11-.18-1.65-.18-.9,0-1.7.22-2.38.65-.69.43-1.23,1.06-1.61,1.9-.38.84-.57,1.85-.57,3.03s.2,2.17.6,3.02.95,1.5,1.65,1.93c.7.44,1.51.66,2.43.66s2.06-.29,3.36-.87c.28-.12.54-.14.78-.07.24.07.43.23.57.46.14.24.17.5.1.77s-.24.51-.52.71c-.66.48-1.38.86-2.15,1.14s-1.68.42-2.74.42c-1.36,0-2.59-.34-3.69-1.02Z"/>
        <path class="cls-1" d="M286.49,39.77c-.75-.8-1.12-1.94-1.12-3.42v-9.99l1.05,1.02h-2.37c-.4,0-.7-.1-.9-.3-.2-.2-.3-.45-.3-.75,0-.28.07-.51.22-.69.15-.18.35-.29.59-.33.56-.1.99-.25,1.29-.46.3-.21.54-.56.72-1.04s.3-1.18.36-2.1c.02-.38.14-.65.36-.83.22-.17.5-.25.84-.25h.12c.34,0,.62.09.82.27.21.18.32.46.32.84v4.02l-1.26-.75h4.41c.44,0,.76.1.96.32.2.21.3.49.3.85,0,.8-.42,1.2-1.26,1.2h-4.38l1.23-1.05v9.93c0,.76.18,1.35.54,1.76.36.41.88.61,1.56.61.28,0,.62-.04,1.02-.12.22-.02.44-.04.66-.06.2,0,.38.04.53.1.15.07.25.19.31.34.1.22.12.45.07.68-.05.23-.17.42-.38.58-.32.26-.76.46-1.32.6s-1.2.21-1.92.21c-1.3,0-2.32-.4-3.07-1.2Z"/>
      </g>
    </g>
  </g>
</svg>