<?xml version="1.0" encoding="UTF-8"?>
<svg id="Layer_2" data-name="Layer 2" xmlns="http://www.w3.org/2000/svg" xmlns:xlink="http://www.w3.org/1999/xlink" viewBox="0 0 971.85 135.93">
  <defs>
    <style>
      .cls-1 {
        fill: none;
        filter: url(#outer-glow-1);
        stroke: #ff0092;
        stroke-miterlimit: 10;
        stroke-width: 4px;
      }

      .cls-2 {
        fill: #fdfbe2;
      }
    </style>
    <filter id="outer-glow-1" x="0" y="0" width="971.85" height="135.93" filterUnits="userSpaceOnUse">
      <feOffset dx="0" dy="0"/>
      <feGaussianBlur result="blur" stdDeviation="2.67"/>
      <feFlood flood-color="#a4509f" flood-opacity="1"/>
      <feComposite in2="blur" operator="in"/>
      <feComposite in="SourceGraphic"/>
    </filter>
  </defs>
  <g id="Telegram_Button" data-name="Telegram Button">
    <g>
      <rect class="cls-1" x="2" y="2" width="967.85" height="131.93" rx="65.96" ry="65.96"/>
      <g>
        <path class="cls-2" d="M287.78,43.45h4.54v-2.27h22.68v2.27h2.27v2.27h2.27v9.07h-2.27v2.27h-4.54v-2.27h-13.61v2.27h-2.27v18.14h2.27v2.27h13.61v-2.27h4.54v2.27h2.27v9.07h-2.27v2.27h-2.27v2.27h-22.68v-2.27h-4.54v-2.27h-2.27v-2.27h-2.27v-4.54h-2.27v-27.22h2.27v-4.54h2.27v-2.27h2.27v-2.27ZM287.78,50.25h-2.27v4.54h-2.27v15.88h2.27v2.27h2.27v2.27h2.27v-2.27h-2.27v-2.27h-2.27v-2.27h2.27v2.27h2.27v2.27h2.27v2.27h2.27v-2.27h-2.27v-2.27h-2.27v-2.27h2.27v2.27h2.27v-15.88h2.27v-2.27h20.41v-4.54h-2.27v-2.27h-2.27v-2.27h-18.14v2.27h-4.54v2.27h-2.27v2.27ZM283.24,75.2h2.27v-2.27h-2.27v2.27Z"/>
        <path class="cls-2" d="M337.59,43.45h4.54v-2.27h22.68v2.27h4.54v2.27h2.27v2.27h2.27v4.54h2.27v27.22h-2.27v4.54h-2.27v2.27h-2.27v2.27h-4.54v2.27h-22.68v-2.27h-4.54v-2.27h-2.27v-2.27h-2.27v-4.54h-2.27v-27.22h2.27v-4.54h2.27v-2.27h2.27v-2.27ZM339.86,47.98h-2.27v2.27h-2.27v4.54h-2.27v15.88h2.27v2.27h2.27v2.27h2.27v-2.27h-2.27v-2.27h-2.27v-2.27h2.27v2.27h2.27v2.27h2.27v2.27h2.27v-2.27h-2.27v-2.27h-2.27v-2.27h2.27v2.27h2.27v-15.88h2.27v-2.27h13.61v2.27h2.27v15.88h2.27v2.27h2.27v2.27h2.27v-2.27h-2.27v-2.27h-2.27v-2.27h2.27v2.27h2.27v2.27h2.27v2.27h2.27v-2.27h-2.27v-2.27h-2.27v-2.27h2.27v2.27h2.27v-15.88h-2.27v-4.54h-2.27v-2.27h-2.27v-2.27h-4.54v-2.27h-18.14v2.27h-4.54v2.27ZM333.05,75.2h2.27v-2.27h-2.27v2.27ZM358,54.79h-9.07v2.27h-2.27v18.14h2.27v2.27h9.07v-2.27h2.27v-18.14h-2.27v-2.27ZM362.54,75.2h2.27v-2.27h-2.27v2.27Z"/>
        <path class="cls-2" d="M389.67,43.45v-2.27h13.61v2.27h2.27v2.27h2.27v4.54h2.27v4.54h2.27v4.54h2.27v4.54h2.27v-20.41h2.27v-2.27h11.34v2.27h2.27v45.36h-2.27v2.27h-13.61v-2.27h-2.27v-2.27h-2.27v-4.54h-2.27v-4.54h-2.27v-4.54h-2.27v-4.54h-2.27v20.41h-2.27v2.27h-11.34v-2.27h-2.27v-45.36h2.27ZM389.67,45.72v24.95h2.27v2.27h2.27v2.27h2.27v-2.27h-2.27v-2.27h-2.27v-2.27h2.27v2.27h2.27v2.27h2.27v2.27h2.27v-2.27h-2.27v-2.27h-2.27v-2.27h2.27v2.27h2.27v-4.54h6.8v4.54h2.27v2.27h2.27v2.27h2.27v-2.27h-2.27v-2.27h-2.27v-2.27h2.27v2.27h2.27v2.27h2.27v2.27h2.27v-2.27h-2.27v-2.27h-2.27v-2.27h2.27v2.27h2.27v2.27h2.27v2.27h2.27v-2.27h-2.27v-2.27h-2.27v-2.27h2.27v2.27h2.27v2.27h2.27v2.27h2.27v-2.27h-2.27v-2.27h-2.27v-2.27h2.27v2.27h2.27v2.27h2.27v-2.27h-2.27v-2.27h2.27v-22.68h-2.27v-2.27h-6.8v2.27h-2.27v20.41h-6.8v-4.54h-2.27v-4.54h-2.27v-4.54h-2.27v-4.54h-2.27v-2.27h-2.27v-2.27h-9.07v2.27h-2.27ZM389.67,75.2h2.27v-2.27h-2.27v2.27Z"/>
        <path class="cls-2" d="M441.75,43.45h2.27v-2.27h38.56v2.27h2.27v9.07h-2.27v2.27h-11.34v34.02h-2.27v2.27h-11.34v-2.27h-2.27v-34.02h-11.34v-2.27h-2.27v-9.07ZM444.01,45.72v4.54h2.27v2.27h11.34v18.14h2.27v2.27h2.27v2.27h2.27v-2.27h-2.27v-2.27h-2.27v-2.27h2.27v2.27h2.27v2.27h2.27v2.27h2.27v-2.27h-2.27v-2.27h-2.27v-2.27h2.27v2.27h2.27v-18.14h11.34v-2.27h2.27v-4.54h-2.27v-2.27h-34.02v2.27h-2.27ZM457.62,75.2h2.27v-2.27h-2.27v2.27Z"/>
        <path class="cls-2" d="M496.09,43.45v-2.27h29.48v2.27h4.54v2.27h2.27v2.27h2.27v4.54h2.27v11.34h-2.27v4.54h-2.27v2.27h-2.27v4.54h2.27v4.54h2.27v2.27h2.27v6.8h-2.27v2.27h-13.61v-2.27h-2.27v-4.54h-2.27v-4.54h-2.27v-4.54h-4.54v13.61h-2.27v2.27h-11.34v-2.27h-2.27v-45.36h2.27ZM496.09,45.72v24.95h2.27v2.27h2.27v2.27h2.27v-2.27h-2.27v-2.27h-2.27v-2.27h2.27v2.27h2.27v2.27h2.27v2.27h2.27v-2.27h-2.27v-2.27h-2.27v-2.27h2.27v2.27h2.27v2.27h2.27v-2.27h-2.27v-2.27h2.27v2.27h2.27v2.27h2.27v-2.27h-2.27v-2.27h2.27v2.27h2.27v2.27h2.27v2.27h2.27v-2.27h-2.27v-2.27h-2.27v-2.27h2.27v2.27h2.27v2.27h2.27v2.27h2.27v-2.27h-2.27v-2.27h-2.27v-2.27h2.27v2.27h2.27v2.27h2.27v-2.27h-2.27v-2.27h4.54v-2.27h2.27v-4.54h2.27v-6.8h-2.27v-4.54h-2.27v-2.27h-2.27v-2.27h-4.54v-2.27h-24.95v2.27h-2.27ZM496.09,75.2h2.27v-2.27h-2.27v2.27ZM521.04,54.79h2.27v9.07h-2.27v2.27h-13.61v-13.61h13.61v2.27ZM518.77,54.79h-9.07v9.07h9.07v-2.27h2.27v-4.54h-2.27v-2.27Z"/>
        <path class="cls-2" d="M559.51,43.45h2.27v-2.27h15.88v2.27h2.27v2.27h2.27v4.54h2.27v4.54h2.27v6.8h2.27v6.8h2.27v9.07h2.27v11.34h-2.27v2.27h-11.34v-2.27h-2.27v-6.8h-15.88v6.8h-2.27v2.27h-11.34v-2.27h-2.27v-11.34h2.27v-9.07h2.27v-6.8h2.27v-6.8h2.27v-4.54h2.27v-4.54h2.27v-2.27ZM550.44,75.2h2.27v-2.27h-2.27v2.27ZM561.78,47.98h-2.27v4.54h-2.27v4.54h-2.27v6.8h-2.27v4.54h2.27v2.27h2.27v2.27h2.27v2.27h2.27v-2.27h-2.27v-2.27h-2.27v-2.27h2.27v2.27h2.27v2.27h2.27v2.27h2.27v-2.27h-2.27v-2.27h-2.27v-6.8h2.27v-6.8h2.27v-4.54h6.8v4.54h2.27v6.8h2.27v6.8h2.27v2.27h2.27v2.27h2.27v-2.27h-2.27v-2.27h-2.27v-2.27h2.27v2.27h2.27v2.27h2.27v-2.27h-2.27v-2.27h2.27v-4.54h-2.27v-6.8h-2.27v-4.54h-2.27v-4.54h-2.27v-2.27h-2.27v-2.27h-11.34v2.27h-2.27v2.27ZM552.71,72.93h2.27v2.27h2.27v-2.27h-2.27v-2.27h-2.27v2.27ZM570.85,54.79h-2.27v4.54h-2.27v6.8h-2.27v2.27h11.34v-2.27h-2.27v-6.8h-2.27v-4.54ZM566.32,72.93h2.27v2.27h2.27v-2.27h-2.27v-2.27h-2.27v2.27ZM570.85,72.93h2.27v2.27h2.27v-2.27h-2.27v-2.27h-2.27v2.27ZM575.39,72.93h2.27v2.27h2.27v-2.27h-2.27v-2.27h-2.27v2.27ZM586.73,75.2h2.27v-2.27h-2.27v2.27Z"/>
        <path class="cls-2" d="M609.32,43.45h4.54v-2.27h22.68v2.27h2.27v2.27h2.27v9.07h-2.27v2.27h-4.54v-2.27h-13.61v2.27h-2.27v18.14h2.27v2.27h13.61v-2.27h4.54v2.27h2.27v9.07h-2.27v2.27h-2.27v2.27h-22.68v-2.27h-4.54v-2.27h-2.27v-2.27h-2.27v-4.54h-2.27v-27.22h2.27v-4.54h2.27v-2.27h2.27v-2.27ZM609.32,50.25h-2.27v4.54h-2.27v15.88h2.27v2.27h2.27v2.27h2.27v-2.27h-2.27v-2.27h-2.27v-2.27h2.27v2.27h2.27v2.27h2.27v2.27h2.27v-2.27h-2.27v-2.27h-2.27v-2.27h2.27v2.27h2.27v-15.88h2.27v-2.27h20.41v-4.54h-2.27v-2.27h-2.27v-2.27h-18.14v2.27h-4.54v2.27h-2.27v2.27ZM604.79,75.2h2.27v-2.27h-2.27v2.27Z"/>
        <path class="cls-2" d="M650.06,43.45h2.27v-2.27h38.56v2.27h2.27v9.07h-2.27v2.27h-11.34v34.02h-2.27v2.27h-11.34v-2.27h-2.27v-34.02h-11.34v-2.27h-2.27v-9.07ZM652.33,45.72v4.54h2.27v2.27h11.34v18.14h2.27v2.27h2.27v2.27h2.27v-2.27h-2.27v-2.27h-2.27v-2.27h2.27v2.27h2.27v2.27h2.27v2.27h2.27v-2.27h-2.27v-2.27h-2.27v-2.27h2.27v2.27h2.27v-18.14h11.34v-2.27h2.27v-4.54h-2.27v-2.27h-34.02v2.27h-2.27ZM665.94,75.2h2.27v-2.27h-2.27v2.27Z"/>
      </g>
    </g>
  </g>
</svg>