<?xml version="1.0" encoding="UTF-8"?>
<svg id="Layer_2" data-name="Layer 2" xmlns="http://www.w3.org/2000/svg" xmlns:xlink="http://www.w3.org/1999/xlink" viewBox="0 0 971.85 135.93">
  <defs>
    <style>
      .cls-1 {
        fill: none;
        filter: url(#outer-glow-1);
        stroke: #ff0092;
        stroke-miterlimit: 10;
        stroke-width: 4px;
      }

      .cls-2 {
        fill: #fdfbe2;
      }
    </style>
    <filter id="outer-glow-1" x="0" y="0" width="971.85" height="135.93" filterUnits="userSpaceOnUse">
      <feOffset dx="0" dy="0"/>
      <feGaussianBlur result="blur" stdDeviation="2.67"/>
      <feFlood flood-color="#a4509f" flood-opacity="1"/>
      <feComposite in2="blur" operator="in"/>
      <feComposite in="SourceGraphic"/>
    </filter>
  </defs>
  <g id="Telegram_Button" data-name="Telegram Button">
    <g>
      <rect class="cls-1" x="2" y="2" width="967.85" height="131.93" rx="65.96" ry="65.96"/>
      <g>
        <path class="cls-2" d="M135.02,44.45v-2.27h24.95v2.27h2.27v36.29h-2.27v4.54h-2.27v2.27h-2.27v2.27h-4.54v2.27h-18.14v-2.27h-2.27v-2.27h-2.27v-9.07h2.27v-2.27h4.54v2.27h9.07v-2.27h2.27v-20.41h-11.34v-2.27h-2.27v-9.07h2.27ZM135.02,46.72v4.54h2.27v2.27h11.34v18.14h2.27v2.27h2.27v2.27h2.27v-2.27h-2.27v-2.27h-2.27v-2.27h2.27v2.27h2.27v2.27h2.27v2.27h2.27v-2.27h-2.27v-2.27h-2.27v-2.27h2.27v2.27h2.27v-24.95h-2.27v-2.27h-20.41v2.27h-2.27ZM148.63,76.2h2.27v-2.27h-2.27v2.27Z"/>
        <path class="cls-2" d="M180.3,44.45h4.54v-2.27h22.68v2.27h4.54v2.27h2.27v2.27h2.27v4.54h2.27v27.22h-2.27v4.54h-2.27v2.27h-2.27v2.27h-4.54v2.27h-22.68v-2.27h-4.54v-2.27h-2.27v-2.27h-2.27v-4.54h-2.27v-27.22h2.27v-4.54h2.27v-2.27h2.27v-2.27ZM182.57,48.98h-2.27v2.27h-2.27v4.54h-2.27v15.88h2.27v2.27h2.27v2.27h2.27v-2.27h-2.27v-2.27h-2.27v-2.27h2.27v2.27h2.27v2.27h2.27v2.27h2.27v-2.27h-2.27v-2.27h-2.27v-2.27h2.27v2.27h2.27v-15.88h2.27v-2.27h13.61v2.27h2.27v15.88h2.27v2.27h2.27v2.27h2.27v-2.27h-2.27v-2.27h-2.27v-2.27h2.27v2.27h2.27v2.27h2.27v2.27h2.27v-2.27h-2.27v-2.27h-2.27v-2.27h2.27v2.27h2.27v-15.88h-2.27v-4.54h-2.27v-2.27h-2.27v-2.27h-4.54v-2.27h-18.14v2.27h-4.54v2.27ZM175.76,76.2h2.27v-2.27h-2.27v2.27ZM200.71,55.79h-9.07v2.27h-2.27v18.14h2.27v2.27h9.07v-2.27h2.27v-18.14h-2.27v-2.27ZM205.25,76.2h2.27v-2.27h-2.27v2.27Z"/>
        <path class="cls-2" d="M232.38,44.45v-2.27h11.34v2.27h2.27v45.36h-2.27v2.27h-11.34v-2.27h-2.27v-45.36h2.27ZM232.38,46.72v24.95h2.27v2.27h2.27v2.27h2.27v-2.27h-2.27v-2.27h-2.27v-2.27h2.27v2.27h2.27v2.27h2.27v2.27h2.27v-2.27h-2.27v-2.27h-2.27v-2.27h2.27v2.27h2.27v-24.95h-2.27v-2.27h-6.8v2.27h-2.27ZM232.38,76.2h2.27v-2.27h-2.27v2.27Z"/>
        <path class="cls-2" d="M259.51,44.45v-2.27h13.61v2.27h2.27v2.27h2.27v4.54h2.27v4.54h2.27v4.54h2.27v4.54h2.27v-20.41h2.27v-2.27h11.34v2.27h2.27v45.36h-2.27v2.27h-13.61v-2.27h-2.27v-2.27h-2.27v-4.54h-2.27v-4.54h-2.27v-4.54h-2.27v-4.54h-2.27v20.41h-2.27v2.27h-11.34v-2.27h-2.27v-45.36h2.27ZM259.51,46.72v24.95h2.27v2.27h2.27v2.27h2.27v-2.27h-2.27v-2.27h-2.27v-2.27h2.27v2.27h2.27v2.27h2.27v2.27h2.27v-2.27h-2.27v-2.27h-2.27v-2.27h2.27v2.27h2.27v-4.54h6.8v4.54h2.27v2.27h2.27v2.27h2.27v-2.27h-2.27v-2.27h-2.27v-2.27h2.27v2.27h2.27v2.27h2.27v2.27h2.27v-2.27h-2.27v-2.27h-2.27v-2.27h2.27v2.27h2.27v2.27h2.27v2.27h2.27v-2.27h-2.27v-2.27h-2.27v-2.27h2.27v2.27h2.27v2.27h2.27v2.27h2.27v-2.27h-2.27v-2.27h-2.27v-2.27h2.27v2.27h2.27v2.27h2.27v-2.27h-2.27v-2.27h2.27v-22.68h-2.27v-2.27h-6.8v2.27h-2.27v20.41h-6.8v-4.54h-2.27v-4.54h-2.27v-4.54h-2.27v-4.54h-2.27v-2.27h-2.27v-2.27h-9.07v2.27h-2.27ZM259.51,76.2h2.27v-2.27h-2.27v2.27Z"/>
        <path class="cls-2" d="M334.19,44.45h2.27v-2.27h38.56v2.27h2.27v9.07h-2.27v2.27h-11.34v34.02h-2.27v2.27h-11.34v-2.27h-2.27v-34.02h-11.34v-2.27h-2.27v-9.07ZM336.45,46.72v4.54h2.27v2.27h11.34v18.14h2.27v2.27h2.27v2.27h2.27v-2.27h-2.27v-2.27h-2.27v-2.27h2.27v2.27h2.27v2.27h2.27v2.27h2.27v-2.27h-2.27v-2.27h-2.27v-2.27h2.27v2.27h2.27v-18.14h11.34v-2.27h2.27v-4.54h-2.27v-2.27h-34.02v2.27h-2.27ZM350.06,76.2h2.27v-2.27h-2.27v2.27Z"/>
        <path class="cls-2" d="M388.53,44.45v-2.27h11.34v2.27h2.27v15.88h11.34v-15.88h2.27v-2.27h11.34v2.27h2.27v45.36h-2.27v2.27h-11.34v-2.27h-2.27v-15.88h-11.34v15.88h-2.27v2.27h-11.34v-2.27h-2.27v-45.36h2.27ZM388.53,46.72v24.95h2.27v2.27h2.27v2.27h2.27v-2.27h-2.27v-2.27h-2.27v-2.27h2.27v2.27h2.27v2.27h2.27v2.27h2.27v-2.27h-2.27v-2.27h-2.27v-2.27h2.27v2.27h2.27v-2.27h2.27v2.27h2.27v-2.27h2.27v2.27h2.27v-2.27h2.27v2.27h2.27v-2.27h2.27v2.27h2.27v2.27h2.27v2.27h2.27v-2.27h-2.27v-2.27h-2.27v-2.27h2.27v2.27h2.27v2.27h2.27v2.27h2.27v-2.27h-2.27v-2.27h-2.27v-2.27h2.27v2.27h2.27v-24.95h-2.27v-2.27h-6.8v2.27h-2.27v15.88h-15.88v-15.88h-2.27v-2.27h-6.8v2.27h-2.27ZM388.53,76.2h2.27v-2.27h-2.27v2.27ZM418.02,76.2v-2.27h-2.27v2.27h2.27Z"/>
        <path class="cls-2" d="M442.88,44.45v-2.27h31.75v2.27h2.27v9.07h-2.27v2.27h-18.14v4.54h13.61v2.27h2.27v9.07h-2.27v2.27h-13.61v4.54h18.14v2.27h2.27v9.07h-2.27v2.27h-31.75v-2.27h-2.27v-45.36h2.27ZM442.88,46.72v24.95h2.27v2.27h2.27v2.27h2.27v-2.27h-2.27v-2.27h-2.27v-2.27h2.27v2.27h2.27v2.27h2.27v2.27h2.27v-2.27h-2.27v-2.27h-2.27v-2.27h2.27v2.27h2.27v-2.27h2.27v2.27h2.27v-2.27h2.27v2.27h2.27v-2.27h2.27v2.27h2.27v-2.27h2.27v-4.54h-2.27v-2.27h-13.61v-9.07h18.14v-2.27h2.27v-4.54h-2.27v-2.27h-27.22v2.27h-2.27ZM442.88,76.2h2.27v-2.27h-2.27v2.27Z"/>
        <path class="cls-2" d="M513.02,44.45v-2.27h29.48v2.27h4.54v2.27h2.27v2.27h2.27v4.54h2.27v13.61h-2.27v4.54h-2.27v2.27h-2.27v2.27h-4.54v2.27h-15.88v11.34h-2.27v2.27h-11.34v-2.27h-2.27v-45.36h2.27ZM513.02,46.72v24.95h2.27v2.27h2.27v2.27h2.27v-2.27h-2.27v-2.27h-2.27v-2.27h2.27v2.27h2.27v2.27h2.27v2.27h2.27v-2.27h-2.27v-2.27h-2.27v-2.27h2.27v2.27h2.27v2.27h2.27v2.27h2.27v-2.27h-2.27v-2.27h-2.27v-2.27h2.27v2.27h2.27v2.27h2.27v2.27h2.27v-2.27h-2.27v-2.27h-2.27v-2.27h2.27v2.27h2.27v2.27h2.27v2.27h2.27v-2.27h-2.27v-2.27h-2.27v-2.27h2.27v2.27h2.27v2.27h2.27v-2.27h-2.27v-2.27h2.27v2.27h2.27v2.27h2.27v-2.27h-2.27v-2.27h2.27v2.27h2.27v-2.27h2.27v-4.54h2.27v-9.07h-2.27v-4.54h-2.27v-2.27h-2.27v-2.27h-4.54v-2.27h-24.95v2.27h-2.27ZM513.02,76.2h2.27v-2.27h-2.27v2.27ZM537.96,55.79h2.27v9.07h-2.27v2.27h-13.61v-13.61h13.61v2.27ZM535.7,55.79h-9.07v9.07h9.07v-2.27h2.27v-4.54h-2.27v-2.27Z"/>
        <path class="cls-2" d="M565.1,44.45v-2.27h29.48v2.27h4.54v2.27h2.27v2.27h2.27v4.54h2.27v11.34h-2.27v4.54h-2.27v2.27h-2.27v4.54h2.27v4.54h2.27v2.27h2.27v6.8h-2.27v2.27h-13.61v-2.27h-2.27v-4.54h-2.27v-4.54h-2.27v-4.54h-4.54v13.61h-2.27v2.27h-11.34v-2.27h-2.27v-45.36h2.27ZM565.1,46.72v24.95h2.27v2.27h2.27v2.27h2.27v-2.27h-2.27v-2.27h-2.27v-2.27h2.27v2.27h2.27v2.27h2.27v2.27h2.27v-2.27h-2.27v-2.27h-2.27v-2.27h2.27v2.27h2.27v2.27h2.27v-2.27h-2.27v-2.27h2.27v2.27h2.27v2.27h2.27v-2.27h-2.27v-2.27h2.27v2.27h2.27v2.27h2.27v2.27h2.27v-2.27h-2.27v-2.27h-2.27v-2.27h2.27v2.27h2.27v2.27h2.27v2.27h2.27v-2.27h-2.27v-2.27h-2.27v-2.27h2.27v2.27h2.27v2.27h2.27v-2.27h-2.27v-2.27h4.54v-2.27h2.27v-4.54h2.27v-6.8h-2.27v-4.54h-2.27v-2.27h-2.27v-2.27h-4.54v-2.27h-24.95v2.27h-2.27ZM565.1,76.2h2.27v-2.27h-2.27v2.27ZM590.05,55.79h2.27v9.07h-2.27v2.27h-13.61v-13.61h13.61v2.27ZM587.78,55.79h-9.07v9.07h9.07v-2.27h2.27v-4.54h-2.27v-2.27Z"/>
        <path class="cls-2" d="M617.18,44.45v-2.27h31.75v2.27h2.27v9.07h-2.27v2.27h-18.14v4.54h13.61v2.27h2.27v9.07h-2.27v2.27h-13.61v4.54h18.14v2.27h2.27v9.07h-2.27v2.27h-31.75v-2.27h-2.27v-45.36h2.27ZM617.18,46.72v24.95h2.27v2.27h2.27v2.27h2.27v-2.27h-2.27v-2.27h-2.27v-2.27h2.27v2.27h2.27v2.27h2.27v2.27h2.27v-2.27h-2.27v-2.27h-2.27v-2.27h2.27v2.27h2.27v-2.27h2.27v2.27h2.27v-2.27h2.27v2.27h2.27v-2.27h2.27v2.27h2.27v-2.27h2.27v-4.54h-2.27v-2.27h-13.61v-9.07h18.14v-2.27h2.27v-4.54h-2.27v-2.27h-27.22v2.27h-2.27ZM617.18,76.2h2.27v-2.27h-2.27v2.27Z"/>
        <path class="cls-2" d="M664.72,44.45h4.54v-2.27h24.95v2.27h2.27v2.27h2.27v9.07h-2.27v2.27h-4.54v-2.27h-13.61v2.27h2.27v2.27h4.54v2.27h4.54v2.27h4.54v2.27h2.27v4.54h2.27v11.34h-2.27v4.54h-2.27v2.27h-4.54v2.27h-24.95v-2.27h-2.27v-2.27h-2.27v-9.07h2.27v-2.27h4.54v2.27h13.61v-2.27h-2.27v-2.27h-4.54v-2.27h-4.54v-2.27h-4.54v-2.27h-2.27v-4.54h-2.27v-11.34h2.27v-4.54h2.27v-2.27ZM666.99,48.98h-2.27v4.54h-2.27v6.8h2.27v4.54h2.27v2.27h4.54v2.27h4.54v2.27h2.27v-2.27h2.27v2.27h2.27v2.27h2.27v2.27h2.27v-2.27h-2.27v-2.27h-2.27v-2.27h2.27v2.27h2.27v2.27h2.27v2.27h2.27v-2.27h-2.27v-2.27h-2.27v-2.27h2.27v2.27h2.27v2.27h2.27v2.27h2.27v-2.27h-2.27v-2.27h-2.27v-4.54h-4.54v-2.27h-4.54v-2.27h-4.54v-2.27h-2.27v-6.8h20.41v-4.54h-2.27v-2.27h-2.27v-2.27h-20.41v2.27h-4.54v2.27Z"/>
        <path class="cls-2" d="M721.34,44.45h2.27v-2.27h15.88v2.27h2.27v2.27h2.27v4.54h2.27v4.54h2.27v6.8h2.27v6.8h2.27v9.07h2.27v11.34h-2.27v2.27h-11.34v-2.27h-2.27v-6.8h-15.88v6.8h-2.27v2.27h-11.34v-2.27h-2.27v-11.34h2.27v-9.07h2.27v-6.8h2.27v-6.8h2.27v-4.54h2.27v-4.54h2.27v-2.27ZM712.26,76.2h2.27v-2.27h-2.27v2.27ZM723.6,48.98h-2.27v4.54h-2.27v4.54h-2.27v6.8h-2.27v4.54h2.27v2.27h2.27v2.27h2.27v2.27h2.27v-2.27h-2.27v-2.27h-2.27v-2.27h2.27v2.27h2.27v2.27h2.27v2.27h2.27v-2.27h-2.27v-2.27h-2.27v-6.8h2.27v-6.8h2.27v-4.54h6.8v4.54h2.27v6.8h2.27v6.8h2.27v2.27h2.27v2.27h2.27v-2.27h-2.27v-2.27h-2.27v-2.27h2.27v2.27h2.27v2.27h2.27v-2.27h-2.27v-2.27h2.27v-4.54h-2.27v-6.8h-2.27v-4.54h-2.27v-4.54h-2.27v-2.27h-2.27v-2.27h-11.34v2.27h-2.27v2.27ZM714.53,73.93h2.27v2.27h2.27v-2.27h-2.27v-2.27h-2.27v2.27ZM732.68,55.79h-2.27v4.54h-2.27v6.8h-2.27v2.27h11.34v-2.27h-2.27v-6.8h-2.27v-4.54ZM728.14,73.93h2.27v2.27h2.27v-2.27h-2.27v-2.27h-2.27v2.27ZM732.68,73.93h2.27v2.27h2.27v-2.27h-2.27v-2.27h-2.27v2.27ZM737.21,73.93h2.27v2.27h2.27v-2.27h-2.27v-2.27h-2.27v2.27ZM748.55,76.2h2.27v-2.27h-2.27v2.27Z"/>
        <path class="cls-2" d="M766.61,44.45v-2.27h11.34v2.27h2.27v34.02h13.61v2.27h2.27v9.07h-2.27v2.27h-27.22v-2.27h-2.27v-45.36h2.27ZM766.61,46.72v24.95h2.27v2.27h2.27v2.27h2.27v-2.27h-2.27v-2.27h-2.27v-2.27h2.27v2.27h2.27v2.27h2.27v2.27h2.27v-2.27h-2.27v-2.27h-2.27v-2.27h2.27v2.27h2.27v-24.95h-2.27v-2.27h-6.8v2.27h-2.27ZM766.61,76.2h2.27v-2.27h-2.27v2.27Z"/>
        <path class="cls-2" d="M807.35,44.45v-2.27h31.75v2.27h2.27v9.07h-2.27v2.27h-18.14v4.54h13.61v2.27h2.27v9.07h-2.27v2.27h-13.61v4.54h18.14v2.27h2.27v9.07h-2.27v2.27h-31.75v-2.27h-2.27v-45.36h2.27ZM807.35,46.72v24.95h2.27v2.27h2.27v2.27h2.27v-2.27h-2.27v-2.27h-2.27v-2.27h2.27v2.27h2.27v2.27h2.27v2.27h2.27v-2.27h-2.27v-2.27h-2.27v-2.27h2.27v2.27h2.27v-2.27h2.27v2.27h2.27v-2.27h2.27v2.27h2.27v-2.27h2.27v2.27h2.27v-2.27h2.27v-4.54h-2.27v-2.27h-13.61v-9.07h18.14v-2.27h2.27v-4.54h-2.27v-2.27h-27.22v2.27h-2.27ZM807.35,76.2h2.27v-2.27h-2.27v2.27Z"/>
      </g>
    </g>
  </g>
</svg>