<?xml version="1.0" encoding="UTF-8"?>
<svg id="Layer_2" data-name="Layer 2" xmlns="http://www.w3.org/2000/svg" viewBox="0 0 376.6 39.9">
  <defs>
    <style>
      .cls-1 {
        fill: #eaeaea;
      }

      .cls-2 {
        fill: #ff008c;
      }

      .cls-3 {
        fill: #ff0092;
      }

      .cls-4 {
        fill: #4f2a7c;
      }

      .cls-5 {
        fill: #fdfbe2;
      }
    </style>
  </defs>
  <g id="_1" data-name="1">
    <g>
      <g>
        <path class="cls-2" d="M71.93,1.81V0h10.88v1.81h1.81v1.81h1.81v3.63h1.81v3.63h1.81v3.63h1.81v3.63h1.81V1.81h1.81V0h9.07v1.81h1.81v36.27h-1.81v1.81h-10.88v-1.81h-1.81v-1.81h-1.81v-3.63h-1.81v-3.63h-1.81v-3.63h-1.81v-3.63h-1.81v16.32h-1.81v1.81h-9.07v-1.81h-1.81V1.81h1.81ZM71.93,3.63v19.95h1.81v1.81h1.81v1.81h1.81v-1.81h-1.81v-1.81h-1.81v-1.81h1.81v1.81h1.81v1.81h1.81v1.81h1.81v-1.81h-1.81v-1.81h-1.81v-1.81h1.81v1.81h1.81v-3.63h5.44v3.63h1.81v1.81h1.81v1.81h1.81v-1.81h-1.81v-1.81h-1.81v-1.81h1.81v1.81h1.81v1.81h1.81v1.81h1.81v-1.81h-1.81v-1.81h-1.81v-1.81h1.81v1.81h1.81v1.81h1.81v1.81h1.81v-1.81h-1.81v-1.81h-1.81v-1.81h1.81v1.81h1.81v1.81h1.81v1.81h1.81v-1.81h-1.81v-1.81h-1.81v-1.81h1.81v1.81h1.81v1.81h1.81v-1.81h-1.81v-1.81h1.81V3.63h-1.81v-1.81h-5.44v1.81h-1.81v16.32h-5.44v-3.63h-1.81v-3.63h-1.81v-3.63h-1.81v-3.63h-1.81v-1.81h-1.81v-1.81h-7.25v1.81h-1.81ZM71.93,27.2h1.81v-1.81h-1.81v1.81Z"/>
        <path class="cls-2" d="M111.83,1.81V0h9.07v1.81h1.81v36.27h-1.81v1.81h-9.07v-1.81h-1.81V1.81h1.81ZM111.83,3.63v19.95h1.81v1.81h1.81v1.81h1.81v-1.81h-1.81v-1.81h-1.81v-1.81h1.81v1.81h1.81v1.81h1.81v1.81h1.81v-1.81h-1.81v-1.81h-1.81v-1.81h1.81v1.81h1.81V3.63h-1.81v-1.81h-5.44v1.81h-1.81ZM111.83,27.2h1.81v-1.81h-1.81v1.81Z"/>
        <path class="cls-2" d="M128.15,1.81V0h23.58v1.81h3.63v1.81h1.81v1.81h1.81v3.63h1.81v10.88h-1.81v3.63h-1.81v1.81h-1.81v1.81h-3.63v1.81h-12.7v9.07h-1.81v1.81h-9.07v-1.81h-1.81V1.81h1.81ZM128.15,3.63v19.95h1.81v1.81h1.81v1.81h1.81v-1.81h-1.81v-1.81h-1.81v-1.81h1.81v1.81h1.81v1.81h1.81v1.81h1.81v-1.81h-1.81v-1.81h-1.81v-1.81h1.81v1.81h1.81v1.81h1.81v1.81h1.81v-1.81h-1.81v-1.81h-1.81v-1.81h1.81v1.81h1.81v1.81h1.81v1.81h1.81v-1.81h-1.81v-1.81h-1.81v-1.81h1.81v1.81h1.81v1.81h1.81v1.81h1.81v-1.81h-1.81v-1.81h-1.81v-1.81h1.81v1.81h1.81v1.81h1.81v-1.81h-1.81v-1.81h1.81v1.81h1.81v1.81h1.81v-1.81h-1.81v-1.81h1.81v1.81h1.81v-1.81h1.81v-3.63h1.81v-7.25h-1.81v-3.63h-1.81v-1.81h-1.81v-1.81h-3.63v-1.81h-19.95v1.81h-1.81ZM128.15,27.2h1.81v-1.81h-1.81v1.81ZM148.1,10.88h1.81v7.25h-1.81v1.81h-10.88v-10.88h10.88v1.81ZM146.29,10.88h-7.26v7.25h7.26v-1.81h1.81v-3.63h-1.81v-1.81Z"/>
        <path class="cls-2" d="M164.42,1.81V0h23.58v1.81h3.63v1.81h1.81v1.81h1.81v3.63h1.81v10.88h-1.81v3.63h-1.81v1.81h-1.81v1.81h-3.63v1.81h-12.7v9.07h-1.81v1.81h-9.07v-1.81h-1.81V1.81h1.81ZM164.42,3.63v19.95h1.81v1.81h1.81v1.81h1.81v-1.81h-1.81v-1.81h-1.81v-1.81h1.81v1.81h1.81v1.81h1.81v1.81h1.81v-1.81h-1.81v-1.81h-1.81v-1.81h1.81v1.81h1.81v1.81h1.81v1.81h1.81v-1.81h-1.81v-1.81h-1.81v-1.81h1.81v1.81h1.81v1.81h1.81v1.81h1.81v-1.81h-1.81v-1.81h-1.81v-1.81h1.81v1.81h1.81v1.81h1.81v1.81h1.81v-1.81h-1.81v-1.81h-1.81v-1.81h1.81v1.81h1.81v1.81h1.81v-1.81h-1.81v-1.81h1.81v1.81h1.81v1.81h1.81v-1.81h-1.81v-1.81h1.81v1.81h1.81v-1.81h1.81v-3.63h1.81v-7.25h-1.81v-3.63h-1.81v-1.81h-1.81v-1.81h-3.63v-1.81h-19.95v1.81h-1.81ZM164.42,27.2h1.81v-1.81h-1.81v1.81ZM184.37,10.88h1.81v7.25h-1.81v1.81h-10.88v-10.88h10.88v1.81ZM182.56,10.88h-7.26v7.25h7.26v-1.81h1.81v-3.63h-1.81v-1.81Z"/>
        <path class="cls-2" d="M200.69,1.81V0h9.07v1.81h1.81v27.2h10.88v1.81h1.81v7.25h-1.81v1.81h-21.76v-1.81h-1.81V1.81h1.81ZM200.69,3.63v19.95h1.81v1.81h1.81v1.81h1.81v-1.81h-1.81v-1.81h-1.81v-1.81h1.81v1.81h1.81v1.81h1.81v1.81h1.81v-1.81h-1.81v-1.81h-1.81v-1.81h1.81v1.81h1.81V3.63h-1.81v-1.81h-5.44v1.81h-1.81ZM200.69,27.2h1.81v-1.81h-1.81v1.81Z"/>
        <path class="cls-2" d="M227.89,1.81V0h25.39v1.81h1.81v7.25h-1.81v1.81h-14.51v3.63h10.88v1.81h1.81v7.25h-1.81v1.81h-10.88v3.63h14.51v1.81h1.81v7.25h-1.81v1.81h-25.39v-1.81h-1.81V1.81h1.81ZM227.89,3.63v19.95h1.81v1.81h1.81v1.81h1.81v-1.81h-1.81v-1.81h-1.81v-1.81h1.81v1.81h1.81v1.81h1.81v1.81h1.81v-1.81h-1.81v-1.81h-1.81v-1.81h1.81v1.81h1.81v-1.81h1.81v1.81h1.81v-1.81h1.81v1.81h1.81v-1.81h1.81v1.81h1.81v-1.81h1.81v-3.63h-1.81v-1.81h-10.88v-7.25h14.51v-1.81h1.81v-3.63h-1.81v-1.81h-21.76v1.81h-1.81ZM227.89,27.2h1.81v-1.81h-1.81v1.81Z"/>
        <path class="cls-2" d="M256.91,1.81h1.81V0h30.83v1.81h1.81v7.25h-1.81v1.81h-9.07v27.2h-1.81v1.81h-9.07v-1.81h-1.81V10.88h-9.07v-1.81h-1.81V1.81ZM258.73,3.63v3.63h1.81v1.81h9.07v14.51h1.81v1.81h1.81v1.81h1.81v-1.81h-1.81v-1.81h-1.81v-1.81h1.81v1.81h1.81v1.81h1.81v1.81h1.81v-1.81h-1.81v-1.81h-1.81v-1.81h1.81v1.81h1.81v-14.51h9.07v-1.81h1.81v-3.63h-1.81v-1.81h-27.21v1.81h-1.81ZM269.61,27.2h1.81v-1.81h-1.81v1.81Z"/>
        <path class="cls-2" d="M294.99,1.81V0h9.07v1.81h1.81v36.27h-1.81v1.81h-9.07v-1.81h-1.81V1.81h1.81ZM294.99,3.63v19.95h1.81v1.81h1.81v1.81h1.81v-1.81h-1.81v-1.81h-1.81v-1.81h1.81v1.81h1.81v1.81h1.81v1.81h1.81v-1.81h-1.81v-1.81h-1.81v-1.81h1.81v1.81h1.81V3.63h-1.81v-1.81h-5.44v1.81h-1.81ZM294.99,27.2h1.81v-1.81h-1.81v1.81Z"/>
        <path class="cls-2" d="M311.31,1.81V0h23.58v1.81h3.63v1.81h1.81v1.81h1.81v3.63h1.81v10.88h-1.81v3.63h-1.81v1.81h-1.81v1.81h-3.63v1.81h-12.7v9.07h-1.81v1.81h-9.07v-1.81h-1.81V1.81h1.81ZM311.31,3.63v19.95h1.81v1.81h1.81v1.81h1.81v-1.81h-1.81v-1.81h-1.81v-1.81h1.81v1.81h1.81v1.81h1.81v1.81h1.81v-1.81h-1.81v-1.81h-1.81v-1.81h1.81v1.81h1.81v1.81h1.81v1.81h1.81v-1.81h-1.81v-1.81h-1.81v-1.81h1.81v1.81h1.81v1.81h1.81v1.81h1.81v-1.81h-1.81v-1.81h-1.81v-1.81h1.81v1.81h1.81v1.81h1.81v1.81h1.81v-1.81h-1.81v-1.81h-1.81v-1.81h1.81v1.81h1.81v1.81h1.81v-1.81h-1.81v-1.81h1.81v1.81h1.81v1.81h1.81v-1.81h-1.81v-1.81h1.81v1.81h1.81v-1.81h1.81v-3.63h1.81v-7.25h-1.81v-3.63h-1.81v-1.81h-1.81v-1.81h-3.63v-1.81h-19.95v1.81h-1.81ZM311.31,27.2h1.81v-1.81h-1.81v1.81ZM331.26,10.88h1.81v7.25h-1.81v1.81h-10.88v-10.88h10.88v1.81ZM329.45,10.88h-7.26v7.25h7.26v-1.81h1.81v-3.63h-1.81v-1.81Z"/>
        <path class="cls-2" d="M349.4,1.81h3.63V0h19.95v1.81h1.81v1.81h1.81v7.26h-1.81v1.81h-3.63v-1.81h-10.88v1.81h1.81v1.81h3.63v1.81h3.63v1.81h3.63v1.81h1.81v3.63h1.81v9.07h-1.81v3.63h-1.81v1.81h-3.63v1.81h-19.95v-1.81h-1.81v-1.81h-1.81v-7.25h1.81v-1.81h3.63v1.81h10.88v-1.81h-1.81v-1.81h-3.63v-1.81h-3.63v-1.81h-3.63v-1.81h-1.81v-3.63h-1.81V7.25h1.81v-3.63h1.81v-1.81ZM351.21,5.44h-1.81v3.63h-1.81v5.44h1.81v3.63h1.81v1.81h3.63v1.81h3.63v1.81h1.81v-1.81h1.81v1.81h1.81v1.81h1.81v1.81h1.81v-1.81h-1.81v-1.81h-1.81v-1.81h1.81v1.81h1.81v1.81h1.81v1.81h1.81v-1.81h-1.81v-1.81h-1.81v-1.81h1.81v1.81h1.81v1.81h1.81v1.81h1.81v-1.81h-1.81v-1.81h-1.81v-3.63h-3.63v-1.81h-3.63v-1.81h-3.63v-1.81h-1.81v-5.44h16.32v-3.63h-1.81v-1.81h-1.81v-1.81h-16.32v1.81h-3.63v1.81Z"/>
      </g>
      <g>
        <rect class="cls-1" x="27.62" y="28" width="11.79" height="11.79"/>
        <rect class="cls-5" x="27.62" y="14.03" width="11.79" height="11.79"/>
        <rect x="13.88" y=".05" width="11.79" height="11.79"/>
        <rect class="cls-3" x="0" y="14.03" width="11.79" height="11.79"/>
        <rect class="cls-4" y="28" width="11.79" height="11.79"/>
      </g>
    </g>
  </g>
</svg>