<?xml version="1.0" encoding="UTF-8"?>
<svg id="Layer_2" data-name="Layer 2" xmlns="http://www.w3.org/2000/svg" viewBox="0 0 345.27 67.37">
  <defs>
    <style>
      .cls-1 {
        fill: #fff;
        fill-rule: evenodd;
      }

      .cls-2 {
        fill: #6210eb;
      }
    </style>
  </defs>
  <g id="Layer_1-2" data-name="Layer 1">
    <g>
      <path class="cls-2" d="M53.75,0l-21.04,12.09v37.72l-11.61,6.73-11.68-6.74v-13.47l11.68-6.67,7.51,4.36v-10.9l-7.58-4.3L0,31.04v24.18l21.11,12.16,21.04-12.16V17.51l11.68-6.74,11.68,6.74v13.41l-11.68,6.8-7.58-4.39v10.84l7.51,4.33,21.24-12.08V12.09L53.75,0Z"/>
      <path class="cls-1" d="M177.21,52.36h9.43V.66h-9.43v51.7ZM116.57,15.61c4.47,0,8.18,1.8,11.11,5.38,2.94,3.59,4.4,8.03,4.4,13.35s-1.47,9.76-4.4,13.35c-2.94,3.59-6.64,5.38-11.11,5.38-3.17,0-5.92-.98-8.24-2.94-2.28-2-3.96-4.71-5.03-8.11v24.31h-9.43V16.31h9.43v10.34c1.07-3.4,2.75-6.08,5.03-8.03,2.33-2,5.08-3,8.24-3ZM113.14,44.47c2.56,0,4.73-.96,6.5-2.87,1.77-1.95,2.65-4.38,2.65-7.27s-.88-5.22-2.65-7.13c-1.77-1.95-3.94-2.94-6.5-2.94-2.84,0-5.19.96-7.06,2.87-1.86,1.91-2.79,4.31-2.79,7.19s.93,5.31,2.79,7.27c1.86,1.91,4.21,2.87,7.06,2.87h0ZM134.58,34.34c0,5.31,1.84,9.76,5.52,13.35,3.68,3.59,8.27,5.38,13.77,5.38s10.09-1.8,13.77-5.38c3.68-3.59,5.52-8.03,5.52-13.35s-1.84-9.76-5.52-13.35c-3.68-3.59-8.27-5.38-13.77-5.38s-10.09,1.8-13.77,5.38c-3.68,3.59-5.52,8.03-5.52,13.35ZM147.09,41.6c-1.82-1.95-2.72-4.38-2.72-7.27s.91-5.22,2.72-7.13c1.82-1.95,4.08-2.94,6.78-2.94s4.96.96,6.78,2.87c1.82,1.91,2.72,4.31,2.72,7.19s-.91,5.31-2.72,7.27c-1.82,1.91-4.08,2.87-6.78,2.87s-4.96-.96-6.78-2.87h0ZM273.78,47.69c-3.68-3.59-5.52-8.03-5.52-13.35s1.84-9.76,5.52-13.35c3.68-3.59,8.27-5.38,13.77-5.38s10.09,1.8,13.77,5.38c3.68,3.59,5.52,8.03,5.52,13.35s-1.84,9.76-5.52,13.35c-3.68,3.59-8.27,5.38-13.77,5.38s-10.08-1.8-13.77-5.38ZM278.04,34.34c0,2.89.91,5.31,2.72,7.27,1.82,1.91,4.08,2.87,6.78,2.87s4.96-.96,6.78-2.87c1.82-1.95,2.72-4.38,2.72-7.27s-.91-5.29-2.72-7.19c-1.82-1.91-4.08-2.87-6.78-2.87s-4.96.98-6.78,2.94c-1.82,1.91-2.72,4.28-2.72,7.13h0ZM331.93,15.61c4.01,0,7.22,1.4,9.64,4.19,2.47,2.79,3.7,6.36,3.7,10.69v21.87h-9.43v-20.19c0-2.33-.74-4.24-2.24-5.73-1.49-1.49-3.35-2.24-5.59-2.24-2.52,0-4.56.75-6.15,2.24-1.58,1.49-2.37,3.4-2.37,5.73v20.19h-9.43V16.31h9.43v9.22c.93-3.07,2.49-5.5,4.68-7.27,2.24-1.77,4.82-2.65,7.76-2.65h0ZM209.3,42.75l9.64-26.41h9.57l-19.84,50.03h-9.57l5.03-12.72-14.74-37.31h10.2l9.71,26.41ZM255.34,16.31v9.03c-1.97-5.9-6.82-9.03-13.27-9.03-9.75,0-15.51,8.52-15.51,17.47s5.72,18.17,15.51,18.17c6.46,0,11.31-4.66,13.27-10.55v6.92c0,2.94-.96,5.35-2.87,7.27-1.91,1.91-4.24,2.87-6.99,2.87-3.73,0-6.5-1.86-8.31-5.59l-8.46,4.47c1.58,2.94,3.84,5.28,6.78,7.06,2.94,1.77,6.27,2.65,9.99,2.65,5.5,0,10.09-1.79,13.77-5.38,3.68-3.59,5.52-8.03,5.52-13.35v-31.99h-9.43ZM252.61,40.63c-1.82,1.82-4.1,2.72-6.84,2.72s-4.89-.91-6.71-2.72c-1.82-1.86-2.72-4.14-2.72-6.84s.91-4.96,2.72-6.78c1.82-1.82,4.05-2.72,6.71-2.72s5.03.91,6.84,2.72c1.82,1.77,2.72,4.03,2.72,6.78s-.91,5.03-2.72,6.84Z"/>
    </g>
  </g>
</svg>