<?xml version="1.0" encoding="UTF-8"?>
<svg id="Layer_2" data-name="Layer 2" xmlns="http://www.w3.org/2000/svg" xmlns:xlink="http://www.w3.org/1999/xlink" viewBox="0 0 971.85 135.93">
  <defs>
    <style>
      .cls-1 {
        fill: none;
        filter: url(#outer-glow-1);
        stroke: #ff0092;
        stroke-miterlimit: 10;
        stroke-width: 4px;
      }

      .cls-2 {
        fill: #fdfbe2;
      }
    </style>
    <filter id="outer-glow-1" x="0" y="0" width="971.85" height="135.93" filterUnits="userSpaceOnUse">
      <feOffset dx="0" dy="0"/>
      <feGaussianBlur result="blur" stdDeviation="2.67"/>
      <feFlood flood-color="#a4509f" flood-opacity="1"/>
      <feComposite in2="blur" operator="in"/>
      <feComposite in="SourceGraphic"/>
    </filter>
  </defs>
  <g id="Telegram_Button" data-name="Telegram Button">
    <g>
      <rect class="cls-1" x="2" y="2" width="967.85" height="131.93" rx="65.96" ry="65.96"/>
      <g>
        <path class="cls-2" d="M311.55,41.45h4.54v-2.27h24.95v2.27h2.27v2.27h2.27v9.07h-2.27v2.27h-4.54v-2.27h-13.61v2.27h2.27v2.27h4.54v2.27h4.54v2.27h4.54v2.27h2.27v4.54h2.27v11.34h-2.27v4.54h-2.27v2.27h-4.54v2.27h-24.95v-2.27h-2.27v-2.27h-2.27v-9.07h2.27v-2.27h4.54v2.27h13.61v-2.27h-2.27v-2.27h-4.54v-2.27h-4.54v-2.27h-4.54v-2.27h-2.27v-4.54h-2.27v-11.34h2.27v-4.54h2.27v-2.27ZM313.82,45.98h-2.27v4.54h-2.27v6.8h2.27v4.54h2.27v2.27h4.54v2.27h4.54v2.27h2.27v-2.27h2.27v2.27h2.27v2.27h2.27v2.27h2.27v-2.27h-2.27v-2.27h-2.27v-2.27h2.27v2.27h2.27v2.27h2.27v2.27h2.27v-2.27h-2.27v-2.27h-2.27v-2.27h2.27v2.27h2.27v2.27h2.27v2.27h2.27v-2.27h-2.27v-2.27h-2.27v-4.54h-4.54v-2.27h-4.54v-2.27h-4.54v-2.27h-2.27v-6.8h20.41v-4.54h-2.27v-2.27h-2.27v-2.27h-20.41v2.27h-4.54v2.27Z"/>
        <path class="cls-2" d="M359.09,41.45v-2.27h11.34v2.27h2.27v31.75h2.27v2.27h6.8v-2.27h2.27v-31.75h2.27v-2.27h11.34v2.27h2.27v36.29h-2.27v4.54h-2.27v2.27h-2.27v2.27h-4.54v2.27h-20.41v-2.27h-4.54v-2.27h-2.27v-2.27h-2.27v-4.54h-2.27v-36.29h2.27ZM359.09,43.72v24.95h2.27v2.27h2.27v2.27h2.27v-2.27h-2.27v-2.27h-2.27v-2.27h2.27v2.27h2.27v2.27h2.27v2.27h2.27v-2.27h-2.27v-2.27h-2.27v-2.27h2.27v2.27h2.27v-24.95h-2.27v-2.27h-6.8v2.27h-2.27ZM359.09,73.2h2.27v-2.27h-2.27v2.27ZM386.31,43.72v24.95h2.27v2.27h2.27v2.27h2.27v-2.27h-2.27v-2.27h-2.27v-2.27h2.27v2.27h2.27v2.27h2.27v2.27h2.27v-2.27h-2.27v-2.27h-2.27v-2.27h2.27v2.27h2.27v-24.95h-2.27v-2.27h-6.8v2.27h-2.27ZM386.31,73.2h2.27v-2.27h-2.27v2.27Z"/>
        <path class="cls-2" d="M413.44,41.45v-2.27h29.48v2.27h4.54v2.27h2.27v2.27h2.27v4.54h2.27v13.61h-2.27v4.54h-2.27v2.27h-2.27v2.27h-4.54v2.27h-15.88v11.34h-2.27v2.27h-11.34v-2.27h-2.27v-45.36h2.27ZM413.44,43.72v24.95h2.27v2.27h2.27v2.27h2.27v-2.27h-2.27v-2.27h-2.27v-2.27h2.27v2.27h2.27v2.27h2.27v2.27h2.27v-2.27h-2.27v-2.27h-2.27v-2.27h2.27v2.27h2.27v2.27h2.27v2.27h2.27v-2.27h-2.27v-2.27h-2.27v-2.27h2.27v2.27h2.27v2.27h2.27v2.27h2.27v-2.27h-2.27v-2.27h-2.27v-2.27h2.27v2.27h2.27v2.27h2.27v2.27h2.27v-2.27h-2.27v-2.27h-2.27v-2.27h2.27v2.27h2.27v2.27h2.27v-2.27h-2.27v-2.27h2.27v2.27h2.27v2.27h2.27v-2.27h-2.27v-2.27h2.27v2.27h2.27v-2.27h2.27v-4.54h2.27v-9.07h-2.27v-4.54h-2.27v-2.27h-2.27v-2.27h-4.54v-2.27h-24.95v2.27h-2.27ZM413.44,73.2h2.27v-2.27h-2.27v2.27ZM438.38,52.79h2.27v9.07h-2.27v2.27h-13.61v-13.61h13.61v2.27ZM436.12,52.79h-9.07v9.07h9.07v-2.27h2.27v-4.54h-2.27v-2.27Z"/>
        <path class="cls-2" d="M465.52,41.45v-2.27h29.48v2.27h4.54v2.27h2.27v2.27h2.27v4.54h2.27v13.61h-2.27v4.54h-2.27v2.27h-2.27v2.27h-4.54v2.27h-15.88v11.34h-2.27v2.27h-11.34v-2.27h-2.27v-45.36h2.27ZM465.52,43.72v24.95h2.27v2.27h2.27v2.27h2.27v-2.27h-2.27v-2.27h-2.27v-2.27h2.27v2.27h2.27v2.27h2.27v2.27h2.27v-2.27h-2.27v-2.27h-2.27v-2.27h2.27v2.27h2.27v2.27h2.27v2.27h2.27v-2.27h-2.27v-2.27h-2.27v-2.27h2.27v2.27h2.27v2.27h2.27v2.27h2.27v-2.27h-2.27v-2.27h-2.27v-2.27h2.27v2.27h2.27v2.27h2.27v2.27h2.27v-2.27h-2.27v-2.27h-2.27v-2.27h2.27v2.27h2.27v2.27h2.27v-2.27h-2.27v-2.27h2.27v2.27h2.27v2.27h2.27v-2.27h-2.27v-2.27h2.27v2.27h2.27v-2.27h2.27v-4.54h2.27v-9.07h-2.27v-4.54h-2.27v-2.27h-2.27v-2.27h-4.54v-2.27h-24.95v2.27h-2.27ZM465.52,73.2h2.27v-2.27h-2.27v2.27ZM490.46,52.79h2.27v9.07h-2.27v2.27h-13.61v-13.61h13.61v2.27ZM488.2,52.79h-9.07v9.07h9.07v-2.27h2.27v-4.54h-2.27v-2.27Z"/>
        <path class="cls-2" d="M522.13,41.45h4.54v-2.27h22.68v2.27h4.54v2.27h2.27v2.27h2.27v4.54h2.27v27.22h-2.27v4.54h-2.27v2.27h-2.27v2.27h-4.54v2.27h-22.68v-2.27h-4.54v-2.27h-2.27v-2.27h-2.27v-4.54h-2.27v-27.22h2.27v-4.54h2.27v-2.27h2.27v-2.27ZM524.4,45.98h-2.27v2.27h-2.27v4.54h-2.27v15.88h2.27v2.27h2.27v2.27h2.27v-2.27h-2.27v-2.27h-2.27v-2.27h2.27v2.27h2.27v2.27h2.27v2.27h2.27v-2.27h-2.27v-2.27h-2.27v-2.27h2.27v2.27h2.27v-15.88h2.27v-2.27h13.61v2.27h2.27v15.88h2.27v2.27h2.27v2.27h2.27v-2.27h-2.27v-2.27h-2.27v-2.27h2.27v2.27h2.27v2.27h2.27v2.27h2.27v-2.27h-2.27v-2.27h-2.27v-2.27h2.27v2.27h2.27v-15.88h-2.27v-4.54h-2.27v-2.27h-2.27v-2.27h-4.54v-2.27h-18.14v2.27h-4.54v2.27ZM517.6,73.2h2.27v-2.27h-2.27v2.27ZM542.54,52.79h-9.07v2.27h-2.27v18.14h2.27v2.27h9.07v-2.27h2.27v-18.14h-2.27v-2.27ZM547.08,73.2h2.27v-2.27h-2.27v2.27Z"/>
        <path class="cls-2" d="M574.21,41.45v-2.27h29.48v2.27h4.54v2.27h2.27v2.27h2.27v4.54h2.27v11.34h-2.27v4.54h-2.27v2.27h-2.27v4.54h2.27v4.54h2.27v2.27h2.27v6.8h-2.27v2.27h-13.61v-2.27h-2.27v-4.54h-2.27v-4.54h-2.27v-4.54h-4.54v13.61h-2.27v2.27h-11.34v-2.27h-2.27v-45.36h2.27ZM574.21,43.72v24.95h2.27v2.27h2.27v2.27h2.27v-2.27h-2.27v-2.27h-2.27v-2.27h2.27v2.27h2.27v2.27h2.27v2.27h2.27v-2.27h-2.27v-2.27h-2.27v-2.27h2.27v2.27h2.27v2.27h2.27v-2.27h-2.27v-2.27h2.27v2.27h2.27v2.27h2.27v-2.27h-2.27v-2.27h2.27v2.27h2.27v2.27h2.27v2.27h2.27v-2.27h-2.27v-2.27h-2.27v-2.27h2.27v2.27h2.27v2.27h2.27v2.27h2.27v-2.27h-2.27v-2.27h-2.27v-2.27h2.27v2.27h2.27v2.27h2.27v-2.27h-2.27v-2.27h4.54v-2.27h2.27v-4.54h2.27v-6.8h-2.27v-4.54h-2.27v-2.27h-2.27v-2.27h-4.54v-2.27h-24.95v2.27h-2.27ZM574.21,73.2h2.27v-2.27h-2.27v2.27ZM599.16,52.79h2.27v9.07h-2.27v2.27h-13.61v-13.61h13.61v2.27ZM596.89,52.79h-9.07v9.07h9.07v-2.27h2.27v-4.54h-2.27v-2.27Z"/>
        <path class="cls-2" d="M624.02,41.45h2.27v-2.27h38.56v2.27h2.27v9.07h-2.27v2.27h-11.34v34.02h-2.27v2.27h-11.34v-2.27h-2.27v-34.02h-11.34v-2.27h-2.27v-9.07ZM626.29,43.72v4.54h2.27v2.27h11.34v18.14h2.27v2.27h2.27v2.27h2.27v-2.27h-2.27v-2.27h-2.27v-2.27h2.27v2.27h2.27v2.27h2.27v2.27h2.27v-2.27h-2.27v-2.27h-2.27v-2.27h2.27v2.27h2.27v-18.14h11.34v-2.27h2.27v-4.54h-2.27v-2.27h-34.02v2.27h-2.27ZM639.9,73.2h2.27v-2.27h-2.27v2.27Z"/>
      </g>
    </g>
  </g>
</svg>