<?xml version="1.0" encoding="UTF-8"?>
<svg id="Layer_2" data-name="Layer 2" xmlns="http://www.w3.org/2000/svg" viewBox="0 0 818.72 131.38">
  <defs>
    <style>
      .cls-1 {
        fill: #fff;
      }
    </style>
  </defs>
  <g id="Layer_28" data-name="Layer 28">
    <g>
      <path class="cls-1" d="M68.76,33.19c-.25-.31-.2-.79.16-1.42L84.94,2.48c.54-1.05,1.31-1.58,2.29-1.58h.27c.96,0,1.53.54,1.71,1.62l5.76,29.29c.15.63.05,1.09-.29,1.39-.35.3-.8.45-1.37.45h-.45c-.57,0-1-.13-1.3-.38-.3-.25-.5-.64-.58-1.15l-5.13-27.54,1.8-.5-15.08,28.04c-.33.54-.68.93-1.06,1.17-.38.24-.79.36-1.24.36h-.4c-.48,0-.85-.16-1.1-.47ZM76.26,22.05h14.31l-.58,2.83h-14.26l.54-2.83Z"/>
      <path class="cls-1" d="M111.87,33.25c-.29-.27-.38-.64-.29-1.12l3.55-20.52c.09-.54.33-.93.72-1.17.39-.24.81-.36,1.26-.36h.22c.51,0,.88.13,1.12.38s.32.64.23,1.15l-.5,2.75h-1.3c1.29-1.44,2.64-2.57,4.05-3.4,1.41-.83,2.98-1.24,4.72-1.24s3.21.37,4.23,1.1c1.02.74,1.69,1.75,2.02,3.04l-.99.45c1.26-1.44,2.62-2.57,4.09-3.38,1.47-.81,3.09-1.22,4.86-1.22,2.88,0,4.79.86,5.72,2.57.93,1.71,1.14,3.96.63,6.75l-2.29,13.09c-.09.51-.32.89-.68,1.15-.36.26-.79.38-1.3.38h-.41c-.51,0-.89-.13-1.15-.41-.25-.27-.34-.64-.25-1.12l2.25-12.96c.33-1.95.26-3.49-.2-4.63-.47-1.14-1.72-1.71-3.76-1.71-1.2,0-2.33.27-3.38.81-1.05.54-2.12,1.31-3.2,2.29l.27-1.03c.18,1.11.15,2.37-.09,3.78l-2.39,13.46c-.09.51-.32.89-.7,1.15-.38.26-.82.38-1.33.38h-.32c-.54,0-.95-.13-1.21-.41-.27-.27-.36-.64-.27-1.12l2.25-12.96c.33-1.98.27-3.53-.18-4.66s-1.71-1.69-3.78-1.69c-1.14,0-2.21.26-3.22.79-1.01.53-2.05,1.28-3.13,2.27l.63-1.21-3.01,17.46c-.09.51-.32.89-.67,1.15-.36.26-.8.38-1.31.38h-.4c-.48,0-.86-.13-1.15-.41Z"/>
      <path class="cls-1" d="M156.58,32.78c-1.47-.82-2.59-1.99-3.35-3.51-.76-1.51-1.15-3.32-1.15-5.42,0-2.46.47-4.77,1.42-6.93.94-2.16,2.34-3.9,4.18-5.22,1.84-1.32,4.06-1.98,6.64-1.98,1.65,0,3.15.27,4.5.81,1.35.54,2.41,1.32,3.19,2.34.78,1.02,1.17,2.19,1.17,3.51,0,2.19-.89,3.76-2.68,4.7-1.79.94-4.19,1.42-7.22,1.42h-8.24l.41-2.61h7.56c2.13,0,3.75-.26,4.86-.79,1.11-.52,1.67-1.43,1.67-2.72,0-1.17-.47-2.12-1.42-2.86-.95-.73-2.24-1.1-3.89-1.1-1.83,0-3.37.55-4.61,1.64-1.25,1.1-2.17,2.5-2.77,4.21-.6,1.71-.9,3.45-.9,5.22,0,2.46.59,4.3,1.78,5.54,1.18,1.23,2.92,1.84,5.2,1.84.9,0,1.84-.14,2.81-.43.97-.28,1.96-.62,2.95-1.01.36-.15.7-.19,1.01-.11.32.08.58.28.79.61.15.3.18.62.09.97-.09.35-.32.65-.67.92-.93.6-2.1,1.12-3.51,1.55-1.41.43-2.89.65-4.45.65-2.1,0-3.89-.41-5.36-1.24Z"/>
      <path class="cls-1" d="M177.26,33.25c-.29-.27-.38-.64-.29-1.12l3.55-20.52c.09-.54.33-.93.72-1.17.39-.24.81-.36,1.26-.36h.22c.51,0,.88.13,1.12.38s.32.64.23,1.15l-.5,2.75h-1.3c1.29-1.44,2.64-2.57,4.05-3.4,1.41-.83,2.98-1.24,4.72-1.24s3.21.37,4.23,1.1c1.02.74,1.69,1.75,2.02,3.04l-.99.45c1.26-1.44,2.62-2.57,4.09-3.38,1.47-.81,3.09-1.22,4.86-1.22,2.88,0,4.79.86,5.72,2.57.93,1.71,1.14,3.96.63,6.75l-2.29,13.09c-.09.51-.32.89-.68,1.15-.36.26-.79.38-1.3.38h-.41c-.51,0-.89-.13-1.15-.41-.25-.27-.34-.64-.25-1.12l2.25-12.96c.33-1.95.26-3.49-.2-4.63-.47-1.14-1.72-1.71-3.76-1.71-1.2,0-2.33.27-3.38.81-1.05.54-2.12,1.31-3.2,2.29l.27-1.03c.18,1.11.15,2.37-.09,3.78l-2.39,13.46c-.09.51-.32.89-.7,1.15-.38.26-.82.38-1.33.38h-.32c-.54,0-.95-.13-1.21-.41-.27-.27-.36-.64-.27-1.12l2.25-12.96c.33-1.98.27-3.53-.18-4.66s-1.71-1.69-3.78-1.69c-1.14,0-2.21.26-3.22.79-1.01.53-2.05,1.28-3.13,2.27l.63-1.21-3.01,17.46c-.09.51-.32.89-.67,1.15-.36.26-.8.38-1.31.38h-.4c-.48,0-.86-.13-1.15-.41Z"/>
      <path class="cls-1" d="M221.96,32.78c-1.47-.82-2.59-1.99-3.35-3.51-.76-1.51-1.15-3.32-1.15-5.42,0-2.46.47-4.77,1.42-6.93.94-2.16,2.34-3.9,4.18-5.22,1.84-1.32,4.06-1.98,6.64-1.98,1.65,0,3.15.27,4.5.81,1.35.54,2.41,1.32,3.19,2.34.78,1.02,1.17,2.19,1.17,3.51,0,2.19-.89,3.76-2.68,4.7-1.79.94-4.19,1.42-7.22,1.42h-8.24l.41-2.61h7.56c2.13,0,3.75-.26,4.86-.79,1.11-.52,1.67-1.43,1.67-2.72,0-1.17-.47-2.12-1.42-2.86-.95-.73-2.24-1.1-3.89-1.1-1.83,0-3.37.55-4.61,1.64-1.25,1.1-2.17,2.5-2.77,4.21-.6,1.71-.9,3.45-.9,5.22,0,2.46.59,4.3,1.78,5.54,1.18,1.23,2.92,1.84,5.2,1.84.9,0,1.84-.14,2.81-.43.97-.28,1.96-.62,2.95-1.01.36-.15.7-.19,1.01-.11.32.08.58.28.79.61.15.3.18.62.09.97-.09.35-.32.65-.67.92-.93.6-2.1,1.12-3.51,1.55-1.41.43-2.89.65-4.45.65-2.1,0-3.89-.41-5.36-1.24Z"/>
      <path class="cls-1" d="M256.73,32.11c-.79-1.27-1-3.02-.61-5.24l2.61-15.12,1.08,1.26h-3.65c-.48,0-.83-.11-1.04-.34-.21-.23-.29-.55-.22-.97.06-.33.21-.61.45-.86s.51-.37.81-.4c.99-.09,1.74-.29,2.25-.58.51-.3.95-.82,1.3-1.55.36-.73.71-1.84,1.04-3.31.12-.51.33-.86.63-1.06.3-.19.66-.29,1.08-.29h.14c.42,0,.73.12.94.36.21.24.27.58.18,1.04l-1.04,5.99-1.31-.95h6.75c.51,0,.87.13,1.08.41.21.27.27.62.18,1.04-.12.99-.71,1.48-1.75,1.48h-6.8l1.71-1.26-2.7,15.34c-.18,1.17-.08,2.14.29,2.9.38.77,1.22,1.15,2.54,1.15.18,0,.66-.06,1.44-.18.36-.12.66-.18.9-.18.27,0,.5.04.7.11.2.08.35.23.47.47.12.3.14.58.07.83-.08.26-.26.5-.56.74-.51.33-1.15.59-1.91.79-.77.2-1.63.29-2.59.29-2.19,0-3.68-.64-4.48-1.91Z"/>
      <path class="cls-1" d="M275.87,32.78c-1.53-.82-2.69-2.01-3.49-3.55-.79-1.54-1.19-3.35-1.19-5.42,0-2.43.46-4.72,1.37-6.88.91-2.16,2.27-3.9,4.07-5.22,1.8-1.32,3.94-1.98,6.43-1.98,2.01,0,3.76.41,5.27,1.22,1.5.81,2.66,1.99,3.49,3.53.82,1.54,1.24,3.35,1.24,5.42,0,2.4-.47,4.69-1.39,6.86-.93,2.17-2.29,3.93-4.07,5.26-1.79,1.33-3.92,2-6.41,2-2.01,0-3.78-.41-5.31-1.24ZM285.59,29.34c1.23-1.11,2.14-2.53,2.72-4.25.58-1.72.88-3.46.88-5.2,0-2.22-.53-3.97-1.58-5.24-1.05-1.27-2.58-1.91-4.59-1.91-1.74,0-3.21.56-4.41,1.69s-2.09,2.54-2.68,4.25-.88,3.44-.88,5.18c0,2.22.52,3.97,1.58,5.24,1.05,1.28,2.56,1.91,4.54,1.91,1.71,0,3.18-.55,4.41-1.67Z"/>
      <path class="cls-1" d="M298.1,33.25c-.27-.27-.36-.64-.27-1.12l5.31-30.6c.12-.54.37-.93.76-1.17.39-.24.84-.36,1.35-.36h.32c.54,0,.94.12,1.19.36s.32.63.2,1.17l-5.31,30.6c-.09.51-.32.89-.7,1.15-.38.26-.82.38-1.33.38h-.31c-.54,0-.95-.13-1.21-.41ZM312.35,33.34c-.34-.21-.68-.55-1.01-1.03l-7.96-10.98-.36-.76,11.3-9.36c.6-.48,1.08-.79,1.44-.92.36-.13.78-.2,1.26-.2h.36c.42,0,.74.11.97.32.22.21.31.48.25.81-.06.33-.29.65-.67.95l-11.57,9.27.23-1.8,8.59,11.83c.27.45.38.84.34,1.17-.04.33-.23.58-.54.77-.32.18-.68.27-1.1.27h-.32c-.45,0-.85-.1-1.19-.32Z"/>
      <path class="cls-1" d="M324.47,32.78c-1.47-.82-2.59-1.99-3.35-3.51-.76-1.51-1.15-3.32-1.15-5.42,0-2.46.47-4.77,1.42-6.93.94-2.16,2.34-3.9,4.18-5.22,1.84-1.32,4.06-1.98,6.64-1.98,1.65,0,3.15.27,4.5.81,1.35.54,2.41,1.32,3.19,2.34.78,1.02,1.17,2.19,1.17,3.51,0,2.19-.89,3.76-2.68,4.7-1.79.94-4.19,1.42-7.22,1.42h-8.24l.41-2.61h7.56c2.13,0,3.75-.26,4.86-.79,1.11-.52,1.67-1.43,1.67-2.72,0-1.17-.47-2.12-1.42-2.86-.95-.73-2.24-1.1-3.89-1.1-1.83,0-3.37.55-4.61,1.64-1.25,1.1-2.17,2.5-2.77,4.21-.6,1.71-.9,3.45-.9,5.22,0,2.46.59,4.3,1.78,5.54,1.18,1.23,2.92,1.84,5.2,1.84.9,0,1.84-.14,2.81-.43.97-.28,1.96-.62,2.95-1.01.36-.15.7-.19,1.01-.11.32.08.58.28.79.61.15.3.18.62.09.97-.09.35-.32.65-.67.92-.93.6-2.1,1.12-3.51,1.55-1.41.43-2.89.65-4.45.65-2.1,0-3.89-.41-5.36-1.24Z"/>
      <path class="cls-1" d="M345.15,33.25c-.29-.27-.38-.64-.29-1.12l3.55-20.52c.09-.54.33-.93.72-1.17.39-.24.81-.36,1.26-.36h.22c.51,0,.88.13,1.12.38s.32.64.23,1.15l-.5,2.75h-1.3c1.29-1.47,2.63-2.61,4.03-3.42,1.39-.81,2.96-1.22,4.7-1.22,2.88,0,4.86.86,5.94,2.59,1.08,1.73,1.35,3.97.81,6.73l-2.25,13.09c-.09.51-.32.89-.7,1.15-.38.26-.82.38-1.33.38h-.32c-.54,0-.95-.13-1.21-.41-.27-.27-.36-.64-.27-1.12l2.25-12.96c.33-1.89.2-3.42-.4-4.59-.6-1.17-1.91-1.75-3.92-1.75-1.23,0-2.34.26-3.33.79-.99.53-2.03,1.28-3.11,2.27l.63-1.21-3.01,17.46c-.09.51-.32.89-.67,1.15-.36.26-.8.38-1.31.38h-.4c-.48,0-.86-.13-1.15-.41Z"/>
      <path class="cls-1" d="M387.31,33.32c-.29-.22-.46-.56-.52-1.01l-2.83-20.52c-.15-.6-.07-1.04.25-1.3.31-.27.76-.41,1.33-.41h.32c.54,0,.94.08,1.19.25.25.17.44.55.56,1.15l2.11,18.18-.76-.13,8.33-18.27c.24-.36.5-.64.76-.85.27-.21.62-.32,1.04-.32.45,0,.76.09.95.27s.3.48.36.9l1.85,18.27-.68-.14,8.51-18.04c.18-.42.45-.73.81-.94s.76-.32,1.21-.32h.27c.51,0,.88.13,1.1.41.22.27.19.72-.11,1.35l-9.9,20.52c-.51.87-1.2,1.3-2.07,1.3-.48,0-.87-.12-1.17-.36-.3-.24-.45-.57-.45-.99l-1.93-18.09h.95l-8.28,18.14c-.18.42-.45.74-.81.97-.36.23-.76.34-1.21.34-.48,0-.86-.11-1.15-.34Z"/>
      <path class="cls-1" d="M416.07,33.25c-.29-.27-.38-.64-.29-1.12l3.55-20.52c.09-.54.34-.93.77-1.17.42-.24.85-.36,1.3-.36h.41c.54,0,.92.13,1.15.41.22.27.29.65.2,1.12l-3.55,20.52c-.09.51-.32.89-.67,1.15-.36.26-.8.38-1.31.38h-.4c-.48,0-.86-.13-1.15-.41ZM421,5.02c-.36-.31-.54-.79-.54-1.42,0-.87.23-1.54.7-2.03.46-.48,1.09-.72,1.87-.72.69,0,1.18.16,1.49.47.3.31.45.8.45,1.46,0,.84-.2,1.5-.61,1.98-.4.48-1.01.72-1.82.72-.66,0-1.17-.16-1.53-.47Z"/>
      <path class="cls-1" d="M430.15,32.11c-.79-1.27-1-3.02-.61-5.24l2.61-15.12,1.08,1.26h-3.65c-.48,0-.83-.11-1.04-.34-.21-.23-.29-.55-.22-.97.06-.33.21-.61.45-.86s.51-.37.81-.4c.99-.09,1.74-.29,2.25-.58.51-.3.95-.82,1.3-1.55.36-.73.71-1.84,1.04-3.31.12-.51.33-.86.63-1.06.3-.19.66-.29,1.08-.29h.14c.42,0,.73.12.94.36.21.24.27.58.18,1.04l-1.04,5.99-1.31-.95h6.75c.51,0,.87.13,1.08.41.21.27.27.62.18,1.04-.12.99-.71,1.48-1.75,1.48h-6.8l1.71-1.26-2.7,15.34c-.18,1.17-.08,2.14.29,2.9.38.77,1.22,1.15,2.54,1.15.18,0,.66-.06,1.44-.18.36-.12.66-.18.9-.18.27,0,.5.04.7.11.2.08.35.23.47.47.12.3.14.58.07.83-.08.26-.26.5-.56.74-.51.33-1.15.59-1.91.79-.77.2-1.63.29-2.59.29-2.19,0-3.68-.64-4.48-1.91Z"/>
      <path class="cls-1" d="M445.39,33.25c-.27-.27-.36-.64-.27-1.12l5.31-30.6c.12-.54.37-.93.76-1.17.39-.24.84-.36,1.35-.36h.32c.54,0,.94.12,1.19.36s.32.63.2,1.17l-2.2,12.55-1.58.27c1.23-1.47,2.55-2.61,3.96-3.42,1.41-.81,2.98-1.22,4.72-1.22,2.91,0,4.9.86,5.96,2.59,1.06,1.73,1.33,3.97.79,6.73l-2.29,13.09c-.09.51-.31.89-.67,1.15-.36.26-.79.38-1.3.38h-.36c-.54,0-.94-.13-1.19-.41-.26-.27-.34-.64-.25-1.12l2.25-12.96c.33-1.89.2-3.42-.4-4.59-.6-1.17-1.92-1.75-3.96-1.75-1.17,0-2.27.26-3.29.79-1.02.53-2.07,1.28-3.15,2.27l.67-1.21-3.01,17.46c-.09.51-.32.89-.7,1.15-.38.26-.82.38-1.33.38h-.31c-.54,0-.95-.13-1.21-.41Z"/>
      <path class="cls-1" d="M483.57,33.25c-.29-.27-.38-.64-.29-1.12l3.55-20.52c.09-.54.33-.93.72-1.17.39-.24.81-.36,1.26-.36h.22c.51,0,.88.13,1.12.38s.32.64.23,1.15l-1.08,6.21-.54-.45c.48-1.5,1.18-2.82,2.09-3.96.91-1.14,1.96-2,3.13-2.59s2.4-.88,3.69-.88c.51.06.87.23,1.08.52.21.29.27.7.18,1.24-.12.63-.34,1.09-.65,1.37-.32.29-.77.43-1.37.43-1.29,0-2.48.29-3.58.88-1.1.58-2.02,1.42-2.77,2.52-.75,1.1-1.26,2.39-1.53,3.89l-1.93,11.34c-.09.51-.32.89-.67,1.15-.36.26-.8.38-1.31.38h-.4c-.48,0-.86-.13-1.15-.41Z"/>
      <path class="cls-1" d="M504.47,32.78c-1.47-.82-2.59-1.99-3.35-3.51-.76-1.51-1.15-3.32-1.15-5.42,0-2.46.47-4.77,1.42-6.93.94-2.16,2.34-3.9,4.18-5.22,1.84-1.32,4.06-1.98,6.64-1.98,1.65,0,3.15.27,4.5.81,1.35.54,2.41,1.32,3.19,2.34.78,1.02,1.17,2.19,1.17,3.51,0,2.19-.89,3.76-2.68,4.7-1.79.94-4.19,1.42-7.22,1.42h-8.24l.41-2.61h7.56c2.13,0,3.75-.26,4.86-.79,1.11-.52,1.67-1.43,1.67-2.72,0-1.17-.47-2.12-1.42-2.86-.95-.73-2.24-1.1-3.89-1.1-1.83,0-3.37.55-4.61,1.64-1.25,1.1-2.17,2.5-2.77,4.21-.6,1.71-.9,3.45-.9,5.22,0,2.46.59,4.3,1.78,5.54,1.18,1.23,2.92,1.84,5.2,1.84.9,0,1.84-.14,2.81-.43.97-.28,1.96-.62,2.95-1.01.36-.15.7-.19,1.01-.11.32.08.58.28.79.61.15.3.18.62.09.97-.09.35-.32.65-.67.92-.93.6-2.1,1.12-3.51,1.55-1.41.43-2.89.65-4.45.65-2.1,0-3.89-.41-5.36-1.24Z"/>
      <path class="cls-1" d="M526.05,32.49c-1.25-1.02-1.87-2.46-1.87-4.32,0-2.34.85-4.22,2.54-5.65,1.7-1.42,3.98-2.14,6.86-2.14h6.34l-.5,2.7h-5.22c-2.07,0-3.65.41-4.75,1.24-1.09.83-1.64,1.99-1.64,3.49,0,1.17.37,2.05,1.1,2.63s1.78.88,3.13.88c1.23,0,2.29-.24,3.17-.72.88-.48,1.93-1.25,3.13-2.3l-.63,1.22,1.84-10.8c.36-1.95.13-3.43-.7-4.45s-2.36-1.53-4.61-1.53c-.81,0-1.58.12-2.29.36-.72.24-1.53.56-2.43.95-.42.18-.79.24-1.12.18-.33-.06-.6-.24-.81-.54-.15-.36-.18-.7-.09-1.03s.33-.63.72-.9c.99-.66,2.08-1.16,3.26-1.51,1.18-.34,2.44-.52,3.76-.52,2.16,0,3.9.37,5.22,1.1,1.32.74,2.21,1.79,2.68,3.17.46,1.38.55,3.03.25,4.95l-2.25,13.18c-.12.48-.35.86-.7,1.12-.35.27-.74.41-1.19.41-.57,0-1.01-.12-1.31-.36-.3-.24-.43-.61-.4-1.12l.22-2.43,1.4.13c-1.2,1.41-2.48,2.45-3.83,3.13-1.35.67-2.83,1.01-4.46,1.01-1.98,0-3.59-.51-4.84-1.53Z"/>
      <path class="cls-1" d="M549.02,33.25c-.27-.27-.36-.64-.27-1.12l5.31-30.6c.12-.54.37-.93.76-1.17.39-.24.84-.36,1.35-.36h.32c.54,0,.94.12,1.19.36s.32.63.2,1.17l-5.31,30.6c-.09.51-.32.89-.7,1.15-.38.26-.82.38-1.33.38h-.31c-.54,0-.95-.13-1.21-.41Z"/>
      <path class="cls-1" d="M571.02,42.64c-.27-.25-.36-.64-.27-1.15l5.17-29.88c.09-.54.34-.93.74-1.17s.83-.36,1.28-.36h.27c.48,0,.84.13,1.08.38s.3.64.18,1.15l-.41,2.47-.76-.63c1.14-1.23,2.32-2.16,3.53-2.79s2.56-.95,4.03-.95c1.8,0,3.37.4,4.7,1.19,1.33.79,2.34,1.93,3.01,3.42.67,1.48,1.01,3.2,1.01,5.15,0,2.43-.45,4.76-1.35,7-.9,2.24-2.21,4.05-3.92,5.45-1.71,1.39-3.73,2.09-6.07,2.09-1.92,0-3.53-.44-4.84-1.33-1.3-.88-2.36-2.08-3.17-3.58l1.49-.09-2.16,12.46c-.09.54-.32.93-.7,1.17-.38.24-.82.36-1.33.36h-.31c-.54,0-.95-.13-1.21-.38ZM587.09,29.27c1.2-1.09,2.1-2.49,2.7-4.18.6-1.69.9-3.41.9-5.15,0-2.19-.53-3.92-1.6-5.2-1.07-1.27-2.57-1.91-4.52-1.91-1.02,0-1.99.22-2.9.67-.92.45-1.87,1.1-2.86,1.94l.49-1.22-2.52,14.54-.18-1.21c.75,1.11,1.62,1.95,2.61,2.52.99.57,2.14.85,3.46.85,1.74,0,3.21-.55,4.41-1.64Z"/>
      <path class="cls-1" d="M601.26,31.41c-1.05-1.74-1.32-3.99-.81-6.75l2.25-13.05c.09-.54.33-.93.72-1.17.39-.24.84-.36,1.35-.36h.31c.54,0,.93.13,1.17.38.24.25.31.64.22,1.15l-2.25,12.92c-.33,1.92-.2,3.46.41,4.63.6,1.17,1.93,1.75,4,1.75,1.2,0,2.29-.26,3.29-.79.99-.52,2.01-1.28,3.06-2.27l-.63,1.21,3.01-17.46c.09-.51.33-.89.72-1.15.39-.25.84-.38,1.35-.38h.36c.54,0,.94.12,1.19.36.25.24.34.63.25,1.17l-3.55,20.52c-.09.51-.32.89-.7,1.15-.38.26-.79.38-1.24.38h-.27c-.45,0-.82-.13-1.1-.41-.29-.27-.38-.64-.29-1.12l.5-2.79h1.31c-1.2,1.47-2.52,2.62-3.96,3.44-1.44.83-3.02,1.24-4.73,1.24-2.91,0-4.89-.87-5.94-2.61Z"/>
      <path class="cls-1" d="M625.77,33.25c-.29-.27-.38-.64-.29-1.12l3.55-20.52c.09-.54.33-.93.72-1.17.39-.24.81-.36,1.26-.36h.22c.51,0,.88.13,1.12.38s.32.64.23,1.15l-1.08,6.21-.54-.45c.48-1.5,1.18-2.82,2.09-3.96.91-1.14,1.96-2,3.13-2.59s2.4-.88,3.69-.88c.51.06.87.23,1.08.52.21.29.27.7.18,1.24-.12.63-.34,1.09-.65,1.37-.32.29-.77.43-1.37.43-1.29,0-2.48.29-3.58.88-1.1.58-2.02,1.42-2.77,2.52-.75,1.1-1.26,2.39-1.53,3.89l-1.93,11.34c-.09.51-.32.89-.67,1.15-.36.26-.8.38-1.31.38h-.4c-.48,0-.86-.13-1.15-.41Z"/>
      <path class="cls-1" d="M641.45,42.64c-.27-.25-.36-.64-.27-1.15l5.17-29.88c.09-.54.34-.93.74-1.17s.83-.36,1.28-.36h.27c.48,0,.84.13,1.08.38s.3.64.18,1.15l-.41,2.47-.76-.63c1.14-1.23,2.32-2.16,3.53-2.79s2.56-.95,4.03-.95c1.8,0,3.37.4,4.7,1.19,1.33.79,2.34,1.93,3.01,3.42.67,1.48,1.01,3.2,1.01,5.15,0,2.43-.45,4.76-1.35,7-.9,2.24-2.21,4.05-3.92,5.45-1.71,1.39-3.73,2.09-6.07,2.09-1.92,0-3.53-.44-4.84-1.33-1.3-.88-2.36-2.08-3.17-3.58l1.49-.09-2.16,12.46c-.09.54-.32.93-.7,1.17-.38.24-.82.36-1.33.36h-.31c-.54,0-.95-.13-1.21-.38ZM657.51,29.27c1.2-1.09,2.1-2.49,2.7-4.18.6-1.69.9-3.41.9-5.15,0-2.19-.53-3.92-1.6-5.2-1.07-1.27-2.57-1.91-4.52-1.91-1.02,0-1.99.22-2.9.67-.92.45-1.87,1.1-2.86,1.94l.49-1.22-2.52,14.54-.18-1.21c.75,1.11,1.62,1.95,2.61,2.52.99.57,2.14.85,3.46.85,1.74,0,3.21-.55,4.41-1.64Z"/>
      <path class="cls-1" d="M674.93,32.78c-1.53-.82-2.69-2.01-3.49-3.55-.79-1.54-1.19-3.35-1.19-5.42,0-2.43.46-4.72,1.37-6.88.91-2.16,2.27-3.9,4.07-5.22,1.8-1.32,3.94-1.98,6.43-1.98,2.01,0,3.76.41,5.27,1.22,1.5.81,2.66,1.99,3.49,3.53.82,1.54,1.24,3.35,1.24,5.42,0,2.4-.47,4.69-1.39,6.86-.93,2.17-2.29,3.93-4.07,5.26-1.79,1.33-3.92,2-6.41,2-2.01,0-3.78-.41-5.31-1.24ZM684.65,29.34c1.23-1.11,2.14-2.53,2.72-4.25.58-1.72.88-3.46.88-5.2,0-2.22-.53-3.97-1.58-5.24-1.05-1.27-2.58-1.91-4.59-1.91-1.74,0-3.21.56-4.41,1.69s-2.09,2.54-2.68,4.25-.88,3.44-.88,5.18c0,2.22.52,3.97,1.58,5.24,1.05,1.28,2.56,1.91,4.54,1.91,1.71,0,3.18-.55,4.41-1.67Z"/>
      <path class="cls-1" d="M699.83,33.5c-1.25-.34-2.23-.85-2.95-1.51-.39-.27-.63-.56-.72-.88-.09-.31-.06-.65.09-1.01.18-.3.44-.48.79-.54.34-.06.73,0,1.15.18.15.09.34.2.58.32.81.36,1.63.64,2.45.83.83.2,1.72.29,2.68.29,1.41,0,2.59-.39,3.53-1.17s1.42-1.76,1.42-2.93c0-.63-.17-1.17-.52-1.62-.35-.45-.79-.82-1.33-1.12-.54-.3-1.28-.63-2.21-.99l-.76-.32c-1.23-.51-2.24-1-3.01-1.46-.78-.46-1.43-1.12-1.96-1.96-.53-.84-.79-1.93-.79-3.29s.35-2.52,1.06-3.51c.7-.99,1.66-1.75,2.86-2.29,1.2-.54,2.55-.81,4.05-.81s2.78.17,3.94.5c1.15.33,2.09.81,2.81,1.44.36.27.58.56.67.88.09.32.03.64-.18.97-.18.33-.43.52-.74.56-.31.04-.67-.02-1.06-.2-.12-.03-.26-.09-.41-.18-.78-.36-1.56-.64-2.34-.83-.78-.19-1.62-.29-2.52-.29-1.29,0-2.37.33-3.24.99-.87.66-1.3,1.52-1.3,2.57,0,.69.15,1.26.45,1.71.3.45.7.81,1.19,1.08.5.27,1.18.58,2.05.94l.76.27c1.29.48,2.35.98,3.17,1.49.82.51,1.52,1.21,2.09,2.09.57.89.86,1.99.86,3.31,0,1.41-.37,2.65-1.1,3.71-.74,1.07-1.73,1.88-2.99,2.45-1.26.57-2.7.86-4.32.86s-2.96-.17-4.21-.52Z"/>
      <path class="cls-1" d="M723.03,32.78c-1.47-.82-2.59-1.99-3.35-3.51-.76-1.51-1.15-3.32-1.15-5.42,0-2.46.47-4.77,1.42-6.93.94-2.16,2.34-3.9,4.18-5.22,1.84-1.32,4.06-1.98,6.64-1.98,1.65,0,3.15.27,4.5.81,1.35.54,2.41,1.32,3.19,2.34.78,1.02,1.17,2.19,1.17,3.51,0,2.19-.89,3.76-2.68,4.7-1.79.94-4.19,1.42-7.22,1.42h-8.24l.41-2.61h7.56c2.13,0,3.75-.26,4.86-.79,1.11-.52,1.67-1.43,1.67-2.72,0-1.17-.47-2.12-1.42-2.86-.95-.73-2.24-1.1-3.89-1.1-1.83,0-3.37.55-4.61,1.64-1.25,1.1-2.17,2.5-2.77,4.21-.6,1.71-.9,3.45-.9,5.22,0,2.46.59,4.3,1.78,5.54,1.18,1.23,2.92,1.84,5.2,1.84.9,0,1.84-.14,2.81-.43.97-.28,1.96-.62,2.95-1.01.36-.15.7-.19,1.01-.11.32.08.58.28.79.61.15.3.18.62.09.97-.09.35-.32.65-.67.92-.93.6-2.1,1.12-3.51,1.55-1.41.43-2.89.65-4.45.65-2.1,0-3.89-.41-5.36-1.24Z"/>
      <path class="cls-1" d="M740.47,38.86c-.01-.29.08-.58.29-.88.72-1.05,1.28-2.1,1.67-3.15.39-1.05.58-2.13.58-3.24,0-.27-.01-.69-.04-1.26,0-.21-.01-.51-.04-.9-.03-.48.11-.82.41-1.01s.73-.31,1.3-.34c.54,0,.95.12,1.21.36.27.24.45.6.54,1.08.12.9.18,1.56.18,1.98,0,1.59-.36,3.11-1.08,4.57s-1.65,2.66-2.79,3.62c-.33.24-.65.37-.97.38-.31.02-.62-.11-.92-.38-.21-.27-.32-.55-.34-.83Z"/>
      <path class="cls-1" d="M3.72,77.5c-1.25-.34-2.23-.85-2.95-1.51-.39-.27-.63-.56-.72-.88-.09-.31-.06-.65.09-1.01.18-.3.44-.48.79-.54.34-.06.73,0,1.15.18.15.09.34.2.58.32.81.36,1.63.64,2.45.83.83.2,1.72.29,2.68.29,1.41,0,2.59-.39,3.53-1.17s1.42-1.76,1.42-2.93c0-.63-.17-1.17-.52-1.62-.35-.45-.79-.82-1.33-1.12-.54-.3-1.28-.63-2.21-.99l-.76-.32c-1.23-.51-2.24-1-3.01-1.46-.78-.46-1.43-1.12-1.96-1.96-.53-.84-.79-1.93-.79-3.29s.35-2.52,1.06-3.51c.7-.99,1.66-1.75,2.86-2.29,1.2-.54,2.55-.81,4.05-.81s2.78.17,3.94.5c1.15.33,2.09.81,2.81,1.44.36.27.58.56.67.88.09.32.03.64-.18.97-.18.33-.43.52-.74.56-.31.04-.67-.02-1.06-.2-.12-.03-.26-.09-.41-.18-.78-.36-1.56-.64-2.34-.83-.78-.19-1.62-.29-2.52-.29-1.29,0-2.37.33-3.24.99-.87.66-1.3,1.52-1.3,2.57,0,.69.15,1.26.45,1.71.3.45.7.81,1.19,1.08.5.27,1.18.58,2.05.94l.76.27c1.29.48,2.35.98,3.17,1.49.82.51,1.52,1.21,2.09,2.09.57.89.86,1.99.86,3.31,0,1.41-.37,2.65-1.1,3.71-.74,1.07-1.73,1.88-2.99,2.45-1.26.57-2.7.86-4.32.86s-2.96-.17-4.21-.52Z"/>
      <path class="cls-1" d="M23.9,75.41c-1.05-1.74-1.32-3.99-.81-6.75l2.25-13.05c.09-.54.33-.93.72-1.17.39-.24.84-.36,1.35-.36h.31c.54,0,.93.13,1.17.38.24.25.31.64.22,1.15l-2.25,12.92c-.33,1.92-.2,3.46.41,4.63.6,1.17,1.93,1.75,4,1.75,1.2,0,2.29-.26,3.29-.79.99-.52,2.01-1.28,3.06-2.27l-.63,1.21,3.01-17.46c.09-.51.33-.89.72-1.15.39-.25.84-.38,1.35-.38h.36c.54,0,.94.12,1.19.36.25.24.34.63.25,1.17l-3.55,20.52c-.09.51-.32.89-.7,1.15-.38.26-.79.38-1.24.38h-.27c-.45,0-.82-.13-1.1-.41-.29-.27-.38-.64-.29-1.12l.5-2.79h1.31c-1.2,1.47-2.52,2.62-3.96,3.44-1.44.83-3.02,1.24-4.73,1.24-2.91,0-4.89-.87-5.94-2.61Z"/>
      <path class="cls-1" d="M46.76,86.64c-.27-.25-.36-.64-.27-1.15l5.17-29.88c.09-.54.34-.93.74-1.17s.83-.36,1.28-.36h.27c.48,0,.84.13,1.08.38s.3.64.18,1.15l-.41,2.47-.76-.63c1.14-1.23,2.32-2.16,3.53-2.79s2.56-.95,4.03-.95c1.8,0,3.37.4,4.7,1.19,1.33.79,2.34,1.93,3.01,3.42.67,1.48,1.01,3.2,1.01,5.15,0,2.43-.45,4.76-1.35,7-.9,2.24-2.21,4.05-3.92,5.45-1.71,1.39-3.73,2.09-6.07,2.09-1.92,0-3.53-.44-4.84-1.33-1.3-.88-2.36-2.08-3.17-3.58l1.49-.09-2.16,12.46c-.09.54-.32.93-.7,1.17-.38.24-.82.36-1.33.36h-.31c-.54,0-.95-.13-1.21-.38ZM62.83,73.27c1.2-1.09,2.1-2.49,2.7-4.18.6-1.69.9-3.41.9-5.15,0-2.19-.53-3.92-1.6-5.2-1.07-1.27-2.57-1.91-4.52-1.91-1.02,0-1.99.22-2.9.67-.92.45-1.87,1.1-2.86,1.94l.49-1.22-2.52,14.54-.18-1.21c.75,1.11,1.62,1.95,2.61,2.52.99.57,2.14.85,3.46.85,1.74,0,3.21-.55,4.41-1.64Z"/>
      <path class="cls-1" d="M73.67,86.64c-.27-.25-.36-.64-.27-1.15l5.17-29.88c.09-.54.34-.93.74-1.17s.83-.36,1.28-.36h.27c.48,0,.84.13,1.08.38s.3.64.18,1.15l-.41,2.47-.76-.63c1.14-1.23,2.32-2.16,3.53-2.79s2.56-.95,4.03-.95c1.8,0,3.37.4,4.7,1.19,1.33.79,2.34,1.93,3.01,3.42.67,1.48,1.01,3.2,1.01,5.15,0,2.43-.45,4.76-1.35,7-.9,2.24-2.21,4.05-3.92,5.45-1.71,1.39-3.73,2.09-6.07,2.09-1.92,0-3.53-.44-4.84-1.33-1.3-.88-2.36-2.08-3.17-3.58l1.49-.09-2.16,12.46c-.09.54-.32.93-.7,1.17-.38.24-.82.36-1.33.36h-.31c-.54,0-.95-.13-1.21-.38ZM89.74,73.27c1.2-1.09,2.1-2.49,2.7-4.18.6-1.69.9-3.41.9-5.15,0-2.19-.53-3.92-1.6-5.2-1.07-1.27-2.57-1.91-4.52-1.91-1.02,0-1.99.22-2.9.67-.92.45-1.87,1.1-2.86,1.94l.49-1.22-2.52,14.54-.18-1.21c.75,1.11,1.62,1.95,2.61,2.52.99.57,2.14.85,3.46.85,1.74,0,3.21-.55,4.41-1.64Z"/>
      <path class="cls-1" d="M107.15,76.78c-1.53-.82-2.69-2.01-3.49-3.55-.79-1.54-1.19-3.35-1.19-5.42,0-2.43.46-4.72,1.37-6.88.91-2.16,2.27-3.9,4.07-5.22,1.8-1.32,3.94-1.98,6.43-1.98,2.01,0,3.76.41,5.27,1.22,1.5.81,2.66,1.99,3.49,3.53.82,1.54,1.24,3.35,1.24,5.42,0,2.4-.47,4.69-1.39,6.86-.93,2.17-2.29,3.93-4.07,5.26-1.79,1.33-3.92,2-6.41,2-2.01,0-3.78-.41-5.31-1.24ZM116.87,73.34c1.23-1.11,2.14-2.53,2.72-4.25.58-1.72.88-3.46.88-5.2,0-2.22-.53-3.97-1.58-5.24-1.05-1.27-2.58-1.91-4.59-1.91-1.74,0-3.21.56-4.41,1.69s-2.09,2.54-2.68,4.25-.88,3.44-.88,5.18c0,2.22.52,3.97,1.58,5.24,1.05,1.28,2.56,1.91,4.54,1.91,1.71,0,3.18-.55,4.41-1.67Z"/>
      <path class="cls-1" d="M129.36,77.25c-.29-.27-.38-.64-.29-1.12l3.55-20.52c.09-.54.33-.93.72-1.17.39-.24.81-.36,1.26-.36h.22c.51,0,.88.13,1.12.38s.32.64.23,1.15l-1.08,6.21-.54-.45c.48-1.5,1.18-2.82,2.09-3.96.91-1.14,1.96-2,3.13-2.59s2.4-.88,3.69-.88c.51.06.87.23,1.08.52.21.29.27.7.18,1.24-.12.63-.34,1.09-.65,1.37-.32.29-.77.43-1.37.43-1.29,0-2.48.29-3.58.88-1.1.58-2.02,1.42-2.77,2.52-.75,1.1-1.26,2.39-1.53,3.89l-1.93,11.34c-.09.51-.32.89-.67,1.15-.36.26-.8.38-1.31.38h-.4c-.48,0-.86-.13-1.15-.41Z"/>
      <path class="cls-1" d="M149.34,76.11c-.79-1.27-1-3.02-.61-5.24l2.61-15.12,1.08,1.26h-3.65c-.48,0-.83-.11-1.04-.34-.21-.23-.29-.55-.22-.97.06-.33.21-.61.45-.86s.51-.37.81-.4c.99-.09,1.74-.29,2.25-.58.51-.3.95-.82,1.3-1.55.36-.73.71-1.84,1.04-3.31.12-.51.33-.86.63-1.06.3-.19.66-.29,1.08-.29h.14c.42,0,.73.12.94.36.21.24.27.58.18,1.04l-1.04,5.99-1.31-.95h6.75c.51,0,.87.13,1.08.41.21.27.27.62.18,1.04-.12.99-.71,1.48-1.75,1.48h-6.8l1.71-1.26-2.7,15.34c-.18,1.17-.08,2.14.29,2.9.38.77,1.22,1.15,2.54,1.15.18,0,.66-.06,1.44-.18.36-.12.66-.18.9-.18.27,0,.5.04.7.11.2.08.35.23.47.47.12.3.14.58.07.83-.08.26-.26.5-.56.74-.51.33-1.15.59-1.91.79-.77.2-1.63.29-2.59.29-2.19,0-3.68-.64-4.48-1.91Z"/>
      <path class="cls-1" d="M164.55,77.25c-.29-.27-.38-.64-.29-1.12l3.55-20.52c.09-.54.34-.93.77-1.17.42-.24.85-.36,1.3-.36h.41c.54,0,.92.13,1.15.41.22.27.29.65.2,1.12l-3.55,20.52c-.09.51-.32.89-.67,1.15-.36.26-.8.38-1.31.38h-.4c-.48,0-.86-.13-1.15-.41ZM169.47,49.02c-.36-.31-.54-.79-.54-1.42,0-.87.23-1.54.7-2.03.46-.48,1.09-.72,1.87-.72.69,0,1.18.16,1.49.47.3.31.45.8.45,1.46,0,.84-.2,1.5-.61,1.98-.4.48-1.01.72-1.82.72-.66,0-1.17-.16-1.53-.47Z"/>
      <path class="cls-1" d="M176.11,77.25c-.29-.27-.38-.64-.29-1.12l3.55-20.52c.09-.54.33-.93.72-1.17.39-.24.81-.36,1.26-.36h.22c.51,0,.88.13,1.12.38s.32.64.23,1.15l-.5,2.75h-1.3c1.29-1.47,2.63-2.61,4.03-3.42,1.39-.81,2.96-1.22,4.7-1.22,2.88,0,4.86.86,5.94,2.59,1.08,1.73,1.35,3.97.81,6.73l-2.25,13.09c-.09.51-.32.89-.7,1.15-.38.26-.82.38-1.33.38h-.32c-.54,0-.95-.13-1.21-.41-.27-.27-.36-.64-.27-1.12l2.25-12.96c.33-1.89.2-3.42-.4-4.59-.6-1.17-1.91-1.75-3.92-1.75-1.23,0-2.34.26-3.33.79-.99.53-2.03,1.28-3.11,2.27l.63-1.21-3.01,17.46c-.09.51-.32.89-.67,1.15-.36.26-.8.38-1.31.38h-.4c-.48,0-.86-.13-1.15-.41Z"/>
      <path class="cls-1" d="M204.78,86.53c-1.58-.57-2.75-1.25-3.53-2.03-.27-.27-.44-.56-.52-.85-.07-.3,0-.6.25-.9.21-.3.5-.47.86-.52.36-.04.73.04,1.12.25.84.51,1.83.94,2.97,1.28,1.14.34,2.29.52,3.46.52,2.01,0,3.69-.62,5.04-1.85,1.35-1.23,2.22-2.99,2.61-5.26l.67-3.69,1.26-.14c-1.11,1.2-2.29,2.13-3.53,2.79-1.25.66-2.62.99-4.12.99-1.8,0-3.36-.39-4.68-1.17s-2.33-1.89-3.01-3.33c-.69-1.44-1.04-3.12-1.04-5.04,0-2.37.45-4.61,1.35-6.73.9-2.12,2.19-3.83,3.87-5.15,1.68-1.32,3.66-1.98,5.94-1.98,2.01,0,3.66.44,4.95,1.31,1.29.87,2.32,2.08,3.1,3.64l-1.3.45.58-3.51c.09-.54.33-.93.72-1.17s.83-.36,1.31-.36h.27c.45,0,.8.13,1.06.38s.34.64.25,1.15l-3.87,22.14c-.33,1.98-1.03,3.7-2.09,5.15-1.07,1.46-2.38,2.57-3.96,3.33-1.58.77-3.26,1.15-5.06,1.15s-3.35-.29-4.93-.85ZM215.64,73.52c.9-.42,1.85-1.05,2.83-1.89l-.63,1.08,2.39-13.72.27,1.21c-.78-1.11-1.65-1.96-2.61-2.54s-2.11-.88-3.46-.88c-1.71,0-3.16.53-4.34,1.58-1.19,1.05-2.08,2.38-2.68,3.98-.6,1.61-.9,3.23-.9,4.88,0,2.13.54,3.82,1.62,5.06,1.08,1.25,2.62,1.87,4.63,1.87,1.02,0,1.98-.21,2.88-.63Z"/>
      <path class="cls-1" d="M246.98,76.69c-1.3-.88-2.36-2.08-3.17-3.58l1.26-.27-.59,3.29c-.06.51-.28.89-.65,1.15-.38.26-.8.38-1.28.38h-.27c-.48,0-.85-.13-1.1-.41-.26-.27-.34-.64-.25-1.12l5.36-30.6c.09-.54.32-.93.7-1.17.38-.24.82-.36,1.33-.36h.36c.54,0,.94.12,1.19.36s.34.63.25,1.17l-2.2,12.46-1.04-.54c1.14-1.23,2.32-2.16,3.53-2.79s2.56-.95,4.03-.95c1.8,0,3.37.4,4.7,1.19,1.33.79,2.34,1.93,3.01,3.42.67,1.48,1.01,3.2,1.01,5.15,0,2.43-.44,4.76-1.33,7-.88,2.24-2.19,4.05-3.92,5.45-1.73,1.39-3.76,2.09-6.1,2.09-1.92,0-3.53-.44-4.84-1.33ZM255.65,73.27c1.2-1.09,2.1-2.49,2.7-4.18.6-1.69.9-3.41.9-5.15,0-2.19-.53-3.92-1.6-5.2-1.07-1.27-2.57-1.91-4.52-1.91-1.02,0-1.99.22-2.9.67-.92.45-1.87,1.1-2.86,1.94l.49-1.17-2.52,14.49-.18-1.21c.75,1.11,1.62,1.95,2.61,2.52.99.57,2.14.85,3.46.85,1.74,0,3.21-.55,4.41-1.64Z"/>
      <path class="cls-1" d="M268.13,77.25c-.29-.27-.38-.64-.29-1.12l3.55-20.52c.09-.54.33-.93.72-1.17.39-.24.81-.36,1.26-.36h.22c.51,0,.88.13,1.12.38s.32.64.23,1.15l-1.08,6.21-.54-.45c.48-1.5,1.18-2.82,2.09-3.96.91-1.14,1.96-2,3.13-2.59s2.4-.88,3.69-.88c.51.06.87.23,1.08.52.21.29.27.7.18,1.24-.12.63-.34,1.09-.65,1.37-.32.29-.77.43-1.37.43-1.29,0-2.48.29-3.58.88-1.1.58-2.02,1.42-2.77,2.52-.75,1.1-1.26,2.39-1.53,3.89l-1.93,11.34c-.09.51-.32.89-.67,1.15-.36.26-.8.38-1.31.38h-.4c-.48,0-.86-.13-1.15-.41Z"/>
      <path class="cls-1" d="M289.04,76.78c-1.47-.82-2.59-1.99-3.35-3.51-.76-1.51-1.15-3.32-1.15-5.42,0-2.46.47-4.77,1.42-6.93.94-2.16,2.34-3.9,4.18-5.22,1.84-1.32,4.06-1.98,6.64-1.98,1.65,0,3.15.27,4.5.81,1.35.54,2.41,1.32,3.19,2.34.78,1.02,1.17,2.19,1.17,3.51,0,2.19-.89,3.76-2.68,4.7-1.79.94-4.19,1.42-7.22,1.42h-8.24l.41-2.61h7.56c2.13,0,3.75-.26,4.86-.79,1.11-.52,1.67-1.43,1.67-2.72,0-1.17-.47-2.12-1.42-2.86-.95-.73-2.24-1.1-3.89-1.1-1.83,0-3.37.55-4.61,1.64-1.25,1.1-2.17,2.5-2.77,4.21-.6,1.71-.9,3.45-.9,5.22,0,2.46.59,4.3,1.78,5.54,1.18,1.23,2.92,1.84,5.2,1.84.9,0,1.84-.14,2.81-.43.97-.28,1.96-.62,2.95-1.01.36-.15.7-.19,1.01-.11.32.08.58.28.79.61.15.3.18.62.09.97-.09.35-.32.65-.67.92-.93.6-2.1,1.12-3.51,1.55-1.41.43-2.89.65-4.45.65-2.1,0-3.89-.41-5.36-1.24Z"/>
      <path class="cls-1" d="M310.61,76.49c-1.25-1.02-1.87-2.46-1.87-4.32,0-2.34.85-4.22,2.54-5.65,1.7-1.42,3.98-2.14,6.86-2.14h6.34l-.5,2.7h-5.22c-2.07,0-3.65.41-4.75,1.24-1.09.83-1.64,1.99-1.64,3.49,0,1.17.37,2.05,1.1,2.63s1.78.88,3.13.88c1.23,0,2.29-.24,3.17-.72.88-.48,1.93-1.25,3.13-2.3l-.63,1.22,1.84-10.8c.36-1.95.13-3.43-.7-4.45s-2.36-1.53-4.61-1.53c-.81,0-1.58.12-2.29.36-.72.24-1.53.56-2.43.95-.42.18-.79.24-1.12.18-.33-.06-.6-.24-.81-.54-.15-.36-.18-.7-.09-1.03s.33-.63.72-.9c.99-.66,2.08-1.16,3.26-1.51,1.18-.34,2.44-.52,3.76-.52,2.16,0,3.9.37,5.22,1.1,1.32.74,2.21,1.79,2.68,3.17.46,1.38.55,3.03.25,4.95l-2.25,13.18c-.12.48-.35.86-.7,1.12-.35.27-.74.41-1.19.41-.57,0-1.01-.12-1.31-.36-.3-.24-.43-.61-.4-1.12l.22-2.43,1.4.13c-1.2,1.41-2.48,2.45-3.83,3.13-1.35.67-2.83,1.01-4.46,1.01-1.98,0-3.59-.51-4.84-1.53Z"/>
      <path class="cls-1" d="M336.26,77.5c-1.25-.34-2.23-.85-2.95-1.51-.39-.27-.63-.56-.72-.88-.09-.31-.06-.65.09-1.01.18-.3.44-.48.79-.54.34-.06.73,0,1.15.18.15.09.34.2.58.32.81.36,1.63.64,2.45.83.83.2,1.72.29,2.68.29,1.41,0,2.59-.39,3.53-1.17s1.42-1.76,1.42-2.93c0-.63-.17-1.17-.52-1.62-.35-.45-.79-.82-1.33-1.12-.54-.3-1.28-.63-2.21-.99l-.76-.32c-1.23-.51-2.24-1-3.01-1.46-.78-.46-1.43-1.12-1.96-1.96-.53-.84-.79-1.93-.79-3.29s.35-2.52,1.06-3.51c.7-.99,1.66-1.75,2.86-2.29,1.2-.54,2.55-.81,4.05-.81s2.78.17,3.94.5c1.15.33,2.09.81,2.81,1.44.36.27.58.56.67.88.09.32.03.64-.18.97-.18.33-.43.52-.74.56-.31.04-.67-.02-1.06-.2-.12-.03-.26-.09-.41-.18-.78-.36-1.56-.64-2.34-.83-.78-.19-1.62-.29-2.52-.29-1.29,0-2.37.33-3.24.99-.87.66-1.3,1.52-1.3,2.57,0,.69.15,1.26.45,1.71.3.45.7.81,1.19,1.08.5.27,1.18.58,2.05.94l.76.27c1.29.48,2.35.98,3.17,1.49.82.51,1.52,1.21,2.09,2.09.57.89.86,1.99.86,3.31,0,1.41-.37,2.65-1.1,3.71-.74,1.07-1.73,1.88-2.99,2.45-1.26.57-2.7.86-4.32.86s-2.96-.17-4.21-.52Z"/>
      <path class="cls-1" d="M357.28,76.11c-.79-1.27-1-3.02-.61-5.24l2.61-15.12,1.08,1.26h-3.65c-.48,0-.83-.11-1.04-.34-.21-.23-.29-.55-.22-.97.06-.33.21-.61.45-.86s.51-.37.81-.4c.99-.09,1.74-.29,2.25-.58.51-.3.95-.82,1.3-1.55.36-.73.71-1.84,1.04-3.31.12-.51.33-.86.63-1.06.3-.19.66-.29,1.08-.29h.14c.42,0,.73.12.94.36.21.24.27.58.18,1.04l-1.04,5.99-1.31-.95h6.75c.51,0,.87.13,1.08.41.21.27.27.62.18,1.04-.12.99-.71,1.48-1.75,1.48h-6.8l1.71-1.26-2.7,15.34c-.18,1.17-.08,2.14.29,2.9.38.77,1.22,1.15,2.54,1.15.18,0,.66-.06,1.44-.18.36-.12.66-.18.9-.18.27,0,.5.04.7.11.2.08.35.23.47.47.12.3.14.58.07.83-.08.26-.26.5-.56.74-.51.33-1.15.59-1.91.79-.77.2-1.63.29-2.59.29-2.19,0-3.68-.64-4.48-1.91Z"/>
      <path class="cls-1" d="M384.52,77.25c-.27-.27-.36-.64-.27-1.12l5.31-30.6c.12-.54.37-.93.76-1.17.39-.24.84-.36,1.35-.36h.32c.54,0,.94.12,1.19.36s.32.63.2,1.17l-2.2,12.55-1.58.27c1.23-1.47,2.55-2.61,3.96-3.42,1.41-.81,2.98-1.22,4.72-1.22,2.91,0,4.9.86,5.96,2.59,1.06,1.73,1.33,3.97.79,6.73l-2.29,13.09c-.09.51-.31.89-.67,1.15-.36.26-.79.38-1.3.38h-.36c-.54,0-.94-.13-1.19-.41-.26-.27-.34-.64-.25-1.12l2.25-12.96c.33-1.89.2-3.42-.4-4.59-.6-1.17-1.92-1.75-3.96-1.75-1.17,0-2.27.26-3.29.79-1.02.53-2.07,1.28-3.15,2.27l.67-1.21-3.01,17.46c-.09.51-.32.89-.7,1.15-.38.26-.82.38-1.33.38h-.31c-.54,0-.95-.13-1.21-.41Z"/>
      <path class="cls-1" d="M415.39,76.78c-1.47-.82-2.59-1.99-3.35-3.51-.76-1.51-1.15-3.32-1.15-5.42,0-2.46.47-4.77,1.42-6.93.94-2.16,2.34-3.9,4.18-5.22,1.84-1.32,4.06-1.98,6.64-1.98,1.65,0,3.15.27,4.5.81,1.35.54,2.41,1.32,3.19,2.34.78,1.02,1.17,2.19,1.17,3.51,0,2.19-.89,3.76-2.68,4.7-1.79.94-4.19,1.42-7.22,1.42h-8.24l.41-2.61h7.56c2.13,0,3.75-.26,4.86-.79,1.11-.52,1.67-1.43,1.67-2.72,0-1.17-.47-2.12-1.42-2.86-.95-.73-2.24-1.1-3.89-1.1-1.83,0-3.37.55-4.61,1.64-1.25,1.1-2.17,2.5-2.77,4.21-.6,1.71-.9,3.45-.9,5.22,0,2.46.59,4.3,1.78,5.54,1.18,1.23,2.92,1.84,5.2,1.84.9,0,1.84-.14,2.81-.43.97-.28,1.96-.62,2.95-1.01.36-.15.7-.19,1.01-.11.32.08.58.28.79.61.15.3.18.62.09.97-.09.35-.32.65-.67.92-.93.6-2.1,1.12-3.51,1.55-1.41.43-2.89.65-4.45.65-2.1,0-3.89-.41-5.36-1.24Z"/>
      <path class="cls-1" d="M436.97,76.49c-1.25-1.02-1.87-2.46-1.87-4.32,0-2.34.85-4.22,2.54-5.65,1.7-1.42,3.98-2.14,6.86-2.14h6.34l-.5,2.7h-5.22c-2.07,0-3.65.41-4.75,1.24-1.09.83-1.64,1.99-1.64,3.49,0,1.17.37,2.05,1.1,2.63s1.78.88,3.13.88c1.23,0,2.29-.24,3.17-.72.88-.48,1.93-1.25,3.13-2.3l-.63,1.22,1.84-10.8c.36-1.95.13-3.43-.7-4.45s-2.36-1.53-4.61-1.53c-.81,0-1.58.12-2.29.36-.72.24-1.53.56-2.43.95-.42.18-.79.24-1.12.18-.33-.06-.6-.24-.81-.54-.15-.36-.18-.7-.09-1.03s.33-.63.72-.9c.99-.66,2.08-1.16,3.26-1.51,1.18-.34,2.44-.52,3.76-.52,2.16,0,3.9.37,5.22,1.1,1.32.74,2.21,1.79,2.68,3.17.46,1.38.55,3.03.25,4.95l-2.25,13.18c-.12.48-.35.86-.7,1.12-.35.27-.74.41-1.19.41-.57,0-1.01-.12-1.31-.36-.3-.24-.43-.61-.4-1.12l.22-2.43,1.4.13c-1.2,1.41-2.48,2.45-3.83,3.13-1.35.67-2.83,1.01-4.46,1.01-1.98,0-3.59-.51-4.84-1.53Z"/>
      <path class="cls-1" d="M459.94,77.25c-.27-.27-.36-.64-.27-1.12l5.31-30.6c.12-.54.37-.93.76-1.17.39-.24.84-.36,1.35-.36h.32c.54,0,.94.12,1.19.36s.32.63.2,1.17l-5.31,30.6c-.09.51-.32.89-.7,1.15-.38.26-.82.38-1.33.38h-.31c-.54,0-.95-.13-1.21-.41Z"/>
      <path class="cls-1" d="M474.1,76.11c-.79-1.27-1-3.02-.61-5.24l2.61-15.12,1.08,1.26h-3.65c-.48,0-.83-.11-1.04-.34-.21-.23-.29-.55-.22-.97.06-.33.21-.61.45-.86s.51-.37.81-.4c.99-.09,1.74-.29,2.25-.58.51-.3.95-.82,1.3-1.55.36-.73.71-1.84,1.04-3.31.12-.51.33-.86.63-1.06.3-.19.66-.29,1.08-.29h.14c.42,0,.73.12.94.36.21.24.27.58.18,1.04l-1.04,5.99-1.31-.95h6.75c.51,0,.87.13,1.08.41.21.27.27.62.18,1.04-.12.99-.71,1.48-1.75,1.48h-6.8l1.71-1.26-2.7,15.34c-.18,1.17-.08,2.14.29,2.9.38.77,1.22,1.15,2.54,1.15.18,0,.66-.06,1.44-.18.36-.12.66-.18.9-.18.27,0,.5.04.7.11.2.08.35.23.47.47.12.3.14.58.07.83-.08.26-.26.5-.56.74-.51.33-1.15.59-1.91.79-.77.2-1.63.29-2.59.29-2.19,0-3.68-.64-4.48-1.91Z"/>
      <path class="cls-1" d="M489.33,77.25c-.27-.27-.36-.64-.27-1.12l5.31-30.6c.12-.54.37-.93.76-1.17.39-.24.84-.36,1.35-.36h.32c.54,0,.94.12,1.19.36s.32.63.2,1.17l-2.2,12.55-1.58.27c1.23-1.47,2.55-2.61,3.96-3.42,1.41-.81,2.98-1.22,4.72-1.22,2.91,0,4.9.86,5.96,2.59,1.06,1.73,1.33,3.97.79,6.73l-2.29,13.09c-.09.51-.31.89-.67,1.15-.36.26-.79.38-1.3.38h-.36c-.54,0-.94-.13-1.19-.41-.26-.27-.34-.64-.25-1.12l2.25-12.96c.33-1.89.2-3.42-.4-4.59-.6-1.17-1.92-1.75-3.96-1.75-1.17,0-2.27.26-3.29.79-1.02.53-2.07,1.28-3.15,2.27l.67-1.21-3.01,17.46c-.09.51-.32.89-.7,1.15-.38.26-.82.38-1.33.38h-.31c-.54,0-.95-.13-1.21-.41Z"/>
      <path class="cls-1" d="M528.41,76.49c-1.25-1.02-1.87-2.46-1.87-4.32,0-2.34.85-4.22,2.54-5.65,1.7-1.42,3.98-2.14,6.86-2.14h6.34l-.5,2.7h-5.22c-2.07,0-3.65.41-4.75,1.24-1.09.83-1.64,1.99-1.64,3.49,0,1.17.37,2.05,1.1,2.63s1.78.88,3.13.88c1.23,0,2.29-.24,3.17-.72.88-.48,1.93-1.25,3.13-2.3l-.63,1.22,1.84-10.8c.36-1.95.13-3.43-.7-4.45s-2.36-1.53-4.61-1.53c-.81,0-1.58.12-2.29.36-.72.24-1.53.56-2.43.95-.42.18-.79.24-1.12.18-.33-.06-.6-.24-.81-.54-.15-.36-.18-.7-.09-1.03s.33-.63.72-.9c.99-.66,2.08-1.16,3.26-1.51,1.18-.34,2.44-.52,3.76-.52,2.16,0,3.9.37,5.22,1.1,1.32.74,2.21,1.79,2.68,3.17.46,1.38.55,3.03.25,4.95l-2.25,13.18c-.12.48-.35.86-.7,1.12-.35.27-.74.41-1.19.41-.57,0-1.01-.12-1.31-.36-.3-.24-.43-.61-.4-1.12l.22-2.43,1.4.13c-1.2,1.41-2.48,2.45-3.83,3.13-1.35.67-2.83,1.01-4.46,1.01-1.98,0-3.59-.51-4.84-1.53Z"/>
      <path class="cls-1" d="M551.36,77.25c-.29-.27-.38-.64-.29-1.12l3.55-20.52c.09-.54.33-.93.72-1.17.39-.24.81-.36,1.26-.36h.22c.51,0,.88.13,1.12.38s.32.64.23,1.15l-.5,2.75h-1.3c1.29-1.47,2.63-2.61,4.03-3.42,1.39-.81,2.96-1.22,4.7-1.22,2.88,0,4.86.86,5.94,2.59,1.08,1.73,1.35,3.97.81,6.73l-2.25,13.09c-.09.51-.32.89-.7,1.15-.38.26-.82.38-1.33.38h-.32c-.54,0-.95-.13-1.21-.41-.27-.27-.36-.64-.27-1.12l2.25-12.96c.33-1.89.2-3.42-.4-4.59-.6-1.17-1.91-1.75-3.92-1.75-1.23,0-2.34.26-3.33.79-.99.53-2.03,1.28-3.11,2.27l.63-1.21-3.01,17.46c-.09.51-.32.89-.67,1.15-.36.26-.8.38-1.31.38h-.4c-.48,0-.86-.13-1.15-.41Z"/>
      <path class="cls-1" d="M581.73,76.83c-1.3-.79-2.29-1.94-2.97-3.42-.67-1.48-1.01-3.2-1.01-5.15,0-2.46.45-4.8,1.35-7.02.9-2.22,2.21-4.03,3.92-5.42,1.71-1.39,3.74-2.09,6.08-2.09,1.95,0,3.58.44,4.88,1.31s2.35,2.05,3.13,3.55l-1.62.18,2.38-13.23c.09-.51.33-.89.72-1.15.39-.25.84-.38,1.35-.38h.36c.54,0,.94.12,1.19.36s.34.63.25,1.17l-5.36,30.6c-.09.51-.31.89-.65,1.15-.35.26-.74.38-1.19.38-.6,0-1.04-.13-1.33-.38-.29-.25-.43-.64-.43-1.15l.22-2.79.99.95c-1.11,1.23-2.27,2.16-3.49,2.79s-2.56.95-4.03.95c-1.86,0-3.44-.4-4.75-1.19ZM590.69,74.24c.88-.45,1.84-1.09,2.86-1.94l-.54,1.12,2.48-14.53.27,1.3c-.78-1.11-1.65-1.95-2.61-2.52-.96-.57-2.11-.85-3.46-.85-1.74,0-3.21.55-4.41,1.64-1.2,1.1-2.1,2.49-2.7,4.18-.6,1.7-.9,3.4-.9,5.11,0,2.19.52,3.93,1.58,5.22,1.05,1.29,2.56,1.93,4.54,1.93,1.05,0,2.02-.22,2.9-.67Z"/>
      <path class="cls-1" d="M621.17,76.78c-1.47-.82-2.59-1.99-3.35-3.51-.76-1.51-1.15-3.32-1.15-5.42,0-2.46.47-4.77,1.42-6.93.94-2.16,2.34-3.9,4.18-5.22,1.84-1.32,4.06-1.98,6.64-1.98,1.65,0,3.15.27,4.5.81,1.35.54,2.41,1.32,3.19,2.34.78,1.02,1.17,2.19,1.17,3.51,0,2.19-.89,3.76-2.68,4.7-1.79.94-4.19,1.42-7.22,1.42h-8.24l.41-2.61h7.56c2.13,0,3.75-.26,4.86-.79,1.11-.52,1.67-1.43,1.67-2.72,0-1.17-.47-2.12-1.42-2.86-.95-.73-2.24-1.1-3.89-1.1-1.83,0-3.37.55-4.61,1.64-1.25,1.1-2.17,2.5-2.77,4.21-.6,1.71-.9,3.45-.9,5.22,0,2.46.59,4.3,1.78,5.54,1.18,1.23,2.92,1.84,5.2,1.84.9,0,1.84-.14,2.81-.43.97-.28,1.96-.62,2.95-1.01.36-.15.7-.19,1.01-.11.32.08.58.28.79.61.15.3.18.62.09.97-.09.35-.32.65-.67.92-.93.6-2.1,1.12-3.51,1.55-1.41.43-2.89.65-4.45.65-2.1,0-3.89-.41-5.36-1.24Z"/>
      <path class="cls-1" d="M646.04,76.83c-1.3-.79-2.29-1.94-2.97-3.42-.67-1.48-1.01-3.2-1.01-5.15,0-2.46.45-4.8,1.35-7.02.9-2.22,2.21-4.03,3.92-5.42,1.71-1.39,3.74-2.09,6.08-2.09,1.95,0,3.58.44,4.88,1.31s2.35,2.05,3.13,3.55l-1.62.18,2.38-13.23c.09-.51.33-.89.72-1.15.39-.25.84-.38,1.35-.38h.36c.54,0,.94.12,1.19.36s.34.63.25,1.17l-5.36,30.6c-.09.51-.31.89-.65,1.15-.35.26-.74.38-1.19.38-.6,0-1.04-.13-1.33-.38-.29-.25-.43-.64-.43-1.15l.22-2.79.99.95c-1.11,1.23-2.27,2.16-3.49,2.79s-2.56.95-4.03.95c-1.86,0-3.44-.4-4.75-1.19ZM654.99,74.24c.88-.45,1.84-1.09,2.86-1.94l-.54,1.12,2.48-14.53.27,1.3c-.78-1.11-1.65-1.95-2.61-2.52-.96-.57-2.11-.85-3.46-.85-1.74,0-3.21.55-4.41,1.64-1.2,1.1-2.1,2.49-2.7,4.18-.6,1.7-.9,3.4-.9,5.11,0,2.19.52,3.93,1.58,5.22,1.05,1.29,2.56,1.93,4.54,1.93,1.05,0,2.02-.22,2.9-.67Z"/>
      <path class="cls-1" d="M670.45,75.41c-1.05-1.74-1.32-3.99-.81-6.75l2.25-13.05c.09-.54.33-.93.72-1.17.39-.24.84-.36,1.35-.36h.31c.54,0,.93.13,1.17.38.24.25.31.64.22,1.15l-2.25,12.92c-.33,1.92-.2,3.46.41,4.63.6,1.17,1.93,1.75,4,1.75,1.2,0,2.29-.26,3.29-.79.99-.52,2.01-1.28,3.06-2.27l-.63,1.21,3.01-17.46c.09-.51.33-.89.72-1.15.39-.25.84-.38,1.35-.38h.36c.54,0,.94.12,1.19.36.25.24.34.63.25,1.17l-3.55,20.52c-.09.51-.32.89-.7,1.15-.38.26-.79.38-1.24.38h-.27c-.45,0-.82-.13-1.1-.41-.29-.27-.38-.64-.29-1.12l.5-2.79h1.31c-1.2,1.47-2.52,2.62-3.96,3.44-1.44.83-3.02,1.24-4.73,1.24-2.91,0-4.89-.87-5.94-2.61Z"/>
      <path class="cls-1" d="M699.72,76.74c-1.46-.85-2.58-2.05-3.38-3.58s-1.19-3.31-1.19-5.36c0-2.4.49-4.68,1.46-6.84.97-2.16,2.36-3.91,4.16-5.24s3.88-2,6.25-2c1.47,0,2.83.22,4.07.65s2.33,1.01,3.26,1.73c.33.27.5.58.5.94s-.09.68-.27.95c-.27.33-.56.52-.88.56s-.64-.02-.97-.2c-.9-.45-1.8-.83-2.7-1.12-.9-.3-1.83-.45-2.79-.45-1.77,0-3.28.51-4.52,1.53-1.25,1.02-2.18,2.38-2.81,4.07-.63,1.7-.95,3.43-.95,5.2,0,1.53.26,2.84.79,3.94.52,1.1,1.29,1.94,2.29,2.54,1,.6,2.21.9,3.62.9,1.26,0,2.79-.33,4.59-.99.39-.09.73-.07,1.01.05.28.12.49.34.61.67.15.3.14.62-.02.97-.17.35-.46.64-.88.88-.84.45-1.79.81-2.83,1.08-1.05.27-2.16.41-3.33.41-1.95,0-3.65-.43-5.11-1.28Z"/>
      <path class="cls-1" d="M718.85,76.49c-1.25-1.02-1.87-2.46-1.87-4.32,0-2.34.85-4.22,2.54-5.65,1.7-1.42,3.98-2.14,6.86-2.14h6.34l-.5,2.7h-5.22c-2.07,0-3.65.41-4.75,1.24-1.09.83-1.64,1.99-1.64,3.49,0,1.17.37,2.05,1.1,2.63s1.78.88,3.13.88c1.23,0,2.29-.24,3.17-.72.88-.48,1.93-1.25,3.13-2.3l-.63,1.22,1.84-10.8c.36-1.95.13-3.43-.7-4.45s-2.36-1.53-4.61-1.53c-.81,0-1.58.12-2.29.36-.72.24-1.53.56-2.43.95-.42.18-.79.24-1.12.18-.33-.06-.6-.24-.81-.54-.15-.36-.18-.7-.09-1.03s.33-.63.72-.9c.99-.66,2.08-1.16,3.26-1.51,1.18-.34,2.44-.52,3.76-.52,2.16,0,3.9.37,5.22,1.1,1.32.74,2.21,1.79,2.68,3.17.46,1.38.55,3.03.25,4.95l-2.25,13.18c-.12.48-.35.86-.7,1.12-.35.27-.74.41-1.19.41-.57,0-1.01-.12-1.31-.36-.3-.24-.43-.61-.4-1.12l.22-2.43,1.4.13c-1.2,1.41-2.48,2.45-3.83,3.13-1.35.67-2.83,1.01-4.46,1.01-1.98,0-3.59-.51-4.84-1.53Z"/>
      <path class="cls-1" d="M744.05,76.11c-.79-1.27-1-3.02-.61-5.24l2.61-15.12,1.08,1.26h-3.65c-.48,0-.83-.11-1.04-.34-.21-.23-.29-.55-.22-.97.06-.33.21-.61.45-.86s.51-.37.81-.4c.99-.09,1.74-.29,2.25-.58.51-.3.95-.82,1.3-1.55.36-.73.71-1.84,1.04-3.31.12-.51.33-.86.63-1.06.3-.19.66-.29,1.08-.29h.14c.42,0,.73.12.94.36.21.24.27.58.18,1.04l-1.04,5.99-1.31-.95h6.75c.51,0,.87.13,1.08.41.21.27.27.62.18,1.04-.12.99-.71,1.48-1.75,1.48h-6.8l1.71-1.26-2.7,15.34c-.18,1.17-.08,2.14.29,2.9.38.77,1.22,1.15,2.54,1.15.18,0,.66-.06,1.44-.18.36-.12.66-.18.9-.18.27,0,.5.04.7.11.2.08.35.23.47.47.12.3.14.58.07.83-.08.26-.26.5-.56.74-.51.33-1.15.59-1.91.79-.77.2-1.63.29-2.59.29-2.19,0-3.68-.64-4.48-1.91Z"/>
      <path class="cls-1" d="M759.26,77.25c-.29-.27-.38-.64-.29-1.12l3.55-20.52c.09-.54.34-.93.77-1.17.42-.24.85-.36,1.3-.36h.41c.54,0,.92.13,1.15.41.22.27.29.65.2,1.12l-3.55,20.52c-.09.51-.32.89-.67,1.15-.36.26-.8.38-1.31.38h-.4c-.48,0-.86-.13-1.15-.41ZM764.18,49.02c-.36-.31-.54-.79-.54-1.42,0-.87.23-1.54.7-2.03.46-.48,1.09-.72,1.87-.72.69,0,1.18.16,1.49.47.3.31.45.8.45,1.46,0,.84-.2,1.5-.61,1.98-.4.48-1.01.72-1.82.72-.66,0-1.17-.16-1.53-.47Z"/>
      <path class="cls-1" d="M775.75,76.78c-1.53-.82-2.69-2.01-3.49-3.55-.79-1.54-1.19-3.35-1.19-5.42,0-2.43.46-4.72,1.37-6.88.91-2.16,2.27-3.9,4.07-5.22,1.8-1.32,3.94-1.98,6.43-1.98,2.01,0,3.76.41,5.27,1.22,1.5.81,2.66,1.99,3.49,3.53.82,1.54,1.24,3.35,1.24,5.42,0,2.4-.47,4.69-1.39,6.86-.93,2.17-2.29,3.93-4.07,5.26-1.79,1.33-3.92,2-6.41,2-2.01,0-3.78-.41-5.31-1.24ZM785.47,73.34c1.23-1.11,2.14-2.53,2.72-4.25.58-1.72.88-3.46.88-5.2,0-2.22-.53-3.97-1.58-5.24-1.05-1.27-2.58-1.91-4.59-1.91-1.74,0-3.21.56-4.41,1.69s-2.09,2.54-2.68,4.25-.88,3.44-.88,5.18c0,2.22.52,3.97,1.58,5.24,1.05,1.28,2.56,1.91,4.54,1.91,1.71,0,3.18-.55,4.41-1.67Z"/>
      <path class="cls-1" d="M797.96,77.25c-.29-.27-.38-.64-.29-1.12l3.55-20.52c.09-.54.33-.93.72-1.17.39-.24.81-.36,1.26-.36h.22c.51,0,.88.13,1.12.38s.32.64.23,1.15l-.5,2.75h-1.3c1.29-1.47,2.63-2.61,4.03-3.42,1.39-.81,2.96-1.22,4.7-1.22,2.88,0,4.86.86,5.94,2.59,1.08,1.73,1.35,3.97.81,6.73l-2.25,13.09c-.09.51-.32.89-.7,1.15-.38.26-.82.38-1.33.38h-.32c-.54,0-.95-.13-1.21-.41-.27-.27-.36-.64-.27-1.12l2.25-12.96c.33-1.89.2-3.42-.4-4.59-.6-1.17-1.91-1.75-3.92-1.75-1.23,0-2.34.26-3.33.79-.99.53-2.03,1.28-3.11,2.27l.63-1.21-3.01,17.46c-.09.51-.32.89-.67,1.15-.36.26-.8.38-1.31.38h-.4c-.48,0-.86-.13-1.15-.41Z"/>
      <path class="cls-1" d="M110.14,120.11c-.79-1.27-1-3.02-.61-5.24l2.61-15.12,1.08,1.26h-3.65c-.48,0-.83-.11-1.04-.34-.21-.23-.29-.55-.22-.97.06-.33.21-.61.45-.86s.51-.37.81-.4c.99-.09,1.74-.29,2.25-.58.51-.3.95-.82,1.3-1.55.36-.73.71-1.84,1.04-3.31.12-.51.33-.86.63-1.06.3-.19.66-.29,1.08-.29h.14c.42,0,.73.12.94.36.21.24.27.58.18,1.04l-1.04,5.99-1.31-.95h6.75c.51,0,.87.13,1.08.41.21.27.27.62.18,1.04-.12.99-.71,1.48-1.75,1.48h-6.8l1.71-1.26-2.7,15.34c-.18,1.17-.08,2.14.29,2.9.38.77,1.22,1.15,2.54,1.15.18,0,.66-.06,1.44-.18.36-.12.66-.18.9-.18.27,0,.5.04.7.11.2.08.35.23.47.47.12.3.14.58.07.83-.08.26-.26.5-.56.74-.51.33-1.15.59-1.91.79-.77.2-1.63.29-2.59.29-2.19,0-3.68-.64-4.48-1.91Z"/>
      <path class="cls-1" d="M125.37,121.25c-.27-.27-.36-.64-.27-1.12l5.31-30.6c.12-.54.37-.93.76-1.17.39-.24.84-.36,1.35-.36h.32c.54,0,.94.12,1.19.36s.32.63.2,1.17l-2.2,12.55-1.58.27c1.23-1.47,2.55-2.61,3.96-3.42,1.41-.81,2.98-1.22,4.72-1.22,2.91,0,4.9.86,5.96,2.59,1.06,1.73,1.33,3.97.79,6.73l-2.29,13.09c-.09.51-.31.89-.67,1.15-.36.26-.79.38-1.3.38h-.36c-.54,0-.94-.13-1.19-.41-.26-.27-.34-.64-.25-1.12l2.25-12.96c.33-1.89.2-3.42-.4-4.59-.6-1.17-1.92-1.75-3.96-1.75-1.17,0-2.27.26-3.29.79-1.02.53-2.07,1.28-3.15,2.27l.67-1.21-3.01,17.46c-.09.51-.32.89-.7,1.15-.38.26-.82.38-1.33.38h-.31c-.54,0-.95-.13-1.21-.41Z"/>
      <path class="cls-1" d="M151.54,121.25c-.29-.27-.38-.64-.29-1.12l3.55-20.52c.09-.54.33-.93.72-1.17.39-.24.81-.36,1.26-.36h.22c.51,0,.88.13,1.12.38s.32.64.23,1.15l-1.08,6.21-.54-.45c.48-1.5,1.18-2.82,2.09-3.96.91-1.14,1.96-2,3.13-2.59s2.4-.88,3.69-.88c.51.06.87.23,1.08.52.21.29.27.7.18,1.24-.12.63-.34,1.09-.65,1.37-.32.29-.77.43-1.37.43-1.29,0-2.48.29-3.58.88-1.1.58-2.02,1.42-2.77,2.52-.75,1.1-1.26,2.39-1.53,3.89l-1.93,11.34c-.09.51-.32.89-.67,1.15-.36.26-.8.38-1.31.38h-.4c-.48,0-.86-.13-1.15-.41Z"/>
      <path class="cls-1" d="M172.67,120.78c-1.53-.82-2.69-2.01-3.49-3.55-.79-1.54-1.19-3.35-1.19-5.42,0-2.43.46-4.72,1.37-6.88.91-2.16,2.27-3.9,4.07-5.22,1.8-1.32,3.94-1.98,6.43-1.98,2.01,0,3.76.41,5.27,1.22,1.5.81,2.66,1.99,3.49,3.53.82,1.54,1.24,3.35,1.24,5.42,0,2.4-.47,4.69-1.39,6.86-.93,2.17-2.29,3.93-4.07,5.26-1.79,1.33-3.92,2-6.41,2-2.01,0-3.78-.41-5.31-1.24ZM182.39,117.34c1.23-1.11,2.14-2.53,2.72-4.25.58-1.72.88-3.46.88-5.2,0-2.22-.53-3.97-1.58-5.24-1.05-1.27-2.58-1.91-4.59-1.91-1.74,0-3.21.56-4.41,1.69s-2.09,2.54-2.68,4.25-.88,3.44-.88,5.18c0,2.22.52,3.97,1.58,5.24,1.05,1.28,2.56,1.91,4.54,1.91,1.71,0,3.18-.55,4.41-1.67Z"/>
      <path class="cls-1" d="M196.56,119.41c-1.05-1.74-1.32-3.99-.81-6.75l2.25-13.05c.09-.54.33-.93.72-1.17.39-.24.84-.36,1.35-.36h.31c.54,0,.93.13,1.17.38.24.25.31.64.22,1.15l-2.25,12.92c-.33,1.92-.2,3.46.41,4.63.6,1.17,1.93,1.75,4,1.75,1.2,0,2.29-.26,3.29-.79.99-.52,2.01-1.28,3.06-2.27l-.63,1.21,3.01-17.46c.09-.51.33-.89.72-1.15.39-.25.84-.38,1.35-.38h.36c.54,0,.94.12,1.19.36.25.24.34.63.25,1.17l-3.55,20.52c-.09.51-.32.89-.7,1.15-.38.26-.79.38-1.24.38h-.27c-.45,0-.82-.13-1.1-.41-.29-.27-.38-.64-.29-1.12l.5-2.79h1.31c-1.2,1.47-2.52,2.62-3.96,3.44-1.44.83-3.02,1.24-4.73,1.24-2.91,0-4.89-.87-5.94-2.61Z"/>
      <path class="cls-1" d="M223.54,130.53c-1.58-.57-2.75-1.25-3.53-2.03-.27-.27-.44-.56-.52-.85-.07-.3,0-.6.25-.9.21-.3.5-.47.86-.52.36-.04.73.04,1.12.25.84.51,1.83.94,2.97,1.28,1.14.34,2.29.52,3.46.52,2.01,0,3.69-.62,5.04-1.85,1.35-1.23,2.22-2.99,2.61-5.26l.67-3.69,1.26-.14c-1.11,1.2-2.29,2.13-3.53,2.79-1.25.66-2.62.99-4.12.99-1.8,0-3.36-.39-4.68-1.17s-2.33-1.89-3.01-3.33c-.69-1.44-1.04-3.12-1.04-5.04,0-2.37.45-4.61,1.35-6.73.9-2.12,2.19-3.83,3.87-5.15,1.68-1.32,3.66-1.98,5.94-1.98,2.01,0,3.66.44,4.95,1.31,1.29.87,2.32,2.08,3.1,3.64l-1.3.45.58-3.51c.09-.54.33-.93.72-1.17s.83-.36,1.31-.36h.27c.45,0,.8.13,1.06.38s.34.64.25,1.15l-3.87,22.14c-.33,1.98-1.03,3.7-2.09,5.15-1.07,1.46-2.38,2.57-3.96,3.33-1.58.77-3.26,1.15-5.06,1.15s-3.35-.29-4.93-.85ZM234.41,117.52c.9-.42,1.85-1.05,2.83-1.89l-.63,1.08,2.39-13.72.27,1.21c-.78-1.11-1.65-1.96-2.61-2.54s-2.11-.88-3.46-.88c-1.71,0-3.16.53-4.34,1.58-1.19,1.05-2.08,2.38-2.68,3.98-.6,1.61-.9,3.23-.9,4.88,0,2.13.54,3.82,1.62,5.06,1.08,1.25,2.62,1.87,4.63,1.87,1.02,0,1.98-.21,2.88-.63Z"/>
      <path class="cls-1" d="M248,121.25c-.27-.27-.36-.64-.27-1.12l5.31-30.6c.12-.54.37-.93.76-1.17.39-.24.84-.36,1.35-.36h.32c.54,0,.94.12,1.19.36s.32.63.2,1.17l-2.2,12.55-1.58.27c1.23-1.47,2.55-2.61,3.96-3.42,1.41-.81,2.98-1.22,4.72-1.22,2.91,0,4.9.86,5.96,2.59,1.06,1.73,1.33,3.97.79,6.73l-2.29,13.09c-.09.51-.31.89-.67,1.15-.36.26-.79.38-1.3.38h-.36c-.54,0-.94-.13-1.19-.41-.26-.27-.34-.64-.25-1.12l2.25-12.96c.33-1.89.2-3.42-.4-4.59-.6-1.17-1.92-1.75-3.96-1.75-1.17,0-2.27.26-3.29.79-1.02.53-2.07,1.28-3.15,2.27l.67-1.21-3.01,17.46c-.09.51-.32.89-.7,1.15-.38.26-.82.38-1.33.38h-.31c-.54,0-.95-.13-1.21-.41Z"/>
      <path class="cls-1" d="M290.95,120.74c-1.46-.85-2.58-2.05-3.38-3.58s-1.19-3.31-1.19-5.36c0-2.4.49-4.68,1.46-6.84.97-2.16,2.36-3.91,4.16-5.24s3.88-2,6.25-2c1.47,0,2.83.22,4.07.65s2.33,1.01,3.26,1.73c.33.27.5.58.5.94s-.09.68-.27.95c-.27.33-.56.52-.88.56s-.64-.02-.97-.2c-.9-.45-1.8-.83-2.7-1.12-.9-.3-1.83-.45-2.79-.45-1.77,0-3.28.51-4.52,1.53-1.25,1.02-2.18,2.38-2.81,4.07-.63,1.7-.95,3.43-.95,5.2,0,1.53.26,2.84.79,3.94.52,1.1,1.29,1.94,2.29,2.54,1,.6,2.21.9,3.62.9,1.26,0,2.79-.33,4.59-.99.39-.09.73-.07,1.01.05.28.12.49.34.61.67.15.3.14.62-.02.97-.17.35-.46.64-.88.88-.84.45-1.79.81-2.83,1.08-1.05.27-2.16.41-3.33.41-1.95,0-3.65-.43-5.11-1.28Z"/>
      <path class="cls-1" d="M309.17,121.25c-.29-.27-.38-.64-.29-1.12l3.55-20.52c.09-.54.33-.93.72-1.17.39-.24.81-.36,1.26-.36h.22c.51,0,.88.13,1.12.38s.32.64.23,1.15l-1.08,6.21-.54-.45c.48-1.5,1.18-2.82,2.09-3.96.91-1.14,1.96-2,3.13-2.59s2.4-.88,3.69-.88c.51.06.87.23,1.08.52.21.29.27.7.18,1.24-.12.63-.34,1.09-.65,1.37-.32.29-.77.43-1.37.43-1.29,0-2.48.29-3.58.88-1.1.58-2.02,1.42-2.77,2.52-.75,1.1-1.26,2.39-1.53,3.89l-1.93,11.34c-.09.51-.32.89-.67,1.15-.36.26-.8.38-1.31.38h-.4c-.48,0-.86-.13-1.15-.41Z"/>
      <path class="cls-1" d="M323.14,130.64c-.3-.25-.46-.59-.5-1.01,0-.3.11-.56.34-.79s.55-.35.97-.38c1.62-.24,3.07-.92,4.34-2.03,1.27-1.11,2.18-2.56,2.72-4.36.24-.63.37-1.26.38-1.89.02-.63-.04-1.38-.16-2.25-.03-.18-.06-.34-.09-.5l-3.24-17.64c-.09-.54.01-.96.32-1.26.3-.3.72-.45,1.26-.45h.41c.51,0,.9.1,1.17.29.27.2.45.52.54.97l3.01,18.58h-.63l9.18-18.67c.18-.39.45-.68.81-.88.36-.2.75-.29,1.17-.29h.31c.51,0,.88.15,1.1.45.23.3.17.74-.16,1.3l-11.56,22.95c-.9,1.74-1.9,3.23-2.99,4.48-1.1,1.24-2.25,2.18-3.46,2.81s-2.47.95-3.76.95c-.69,0-1.18-.13-1.48-.38Z"/>
      <path class="cls-1" d="M347.44,130.64c-.27-.25-.36-.64-.27-1.15l5.17-29.88c.09-.54.34-.93.74-1.17s.83-.36,1.28-.36h.27c.48,0,.84.13,1.08.38s.3.64.18,1.15l-.41,2.47-.76-.63c1.14-1.23,2.32-2.16,3.53-2.79s2.56-.95,4.03-.95c1.8,0,3.37.4,4.7,1.19,1.33.79,2.34,1.93,3.01,3.42.67,1.48,1.01,3.2,1.01,5.15,0,2.43-.45,4.76-1.35,7-.9,2.24-2.21,4.05-3.92,5.45-1.71,1.39-3.73,2.09-6.07,2.09-1.92,0-3.53-.44-4.84-1.33-1.3-.88-2.36-2.08-3.17-3.58l1.49-.09-2.16,12.46c-.09.54-.32.93-.7,1.17-.38.24-.82.36-1.33.36h-.31c-.54,0-.95-.13-1.21-.38ZM363.51,117.27c1.2-1.09,2.1-2.49,2.7-4.18.6-1.69.9-3.41.9-5.15,0-2.19-.53-3.92-1.6-5.2-1.07-1.27-2.57-1.91-4.52-1.91-1.02,0-1.99.22-2.9.67-.92.45-1.87,1.1-2.86,1.94l.49-1.22-2.52,14.54-.18-1.21c.75,1.11,1.62,1.95,2.61,2.52.99.57,2.14.85,3.46.85,1.74,0,3.21-.55,4.41-1.64Z"/>
      <path class="cls-1" d="M378.16,120.11c-.79-1.27-1-3.02-.61-5.24l2.61-15.12,1.08,1.26h-3.65c-.48,0-.83-.11-1.04-.34-.21-.23-.29-.55-.22-.97.06-.33.21-.61.45-.86s.51-.37.81-.4c.99-.09,1.74-.29,2.25-.58.51-.3.95-.82,1.3-1.55.36-.73.71-1.84,1.04-3.31.12-.51.33-.86.63-1.06.3-.19.66-.29,1.08-.29h.14c.42,0,.73.12.94.36.21.24.27.58.18,1.04l-1.04,5.99-1.31-.95h6.75c.51,0,.87.13,1.08.41.21.27.27.62.18,1.04-.12.99-.71,1.48-1.75,1.48h-6.8l1.71-1.26-2.7,15.34c-.18,1.17-.08,2.14.29,2.9.38.77,1.22,1.15,2.54,1.15.18,0,.66-.06,1.44-.18.36-.12.66-.18.9-.18.27,0,.5.04.7.11.2.08.35.23.47.47.12.3.14.58.07.83-.08.26-.26.5-.56.74-.51.33-1.15.59-1.91.79-.77.2-1.63.29-2.59.29-2.19,0-3.68-.64-4.48-1.91Z"/>
      <path class="cls-1" d="M397.3,120.78c-1.53-.82-2.69-2.01-3.49-3.55-.79-1.54-1.19-3.35-1.19-5.42,0-2.43.46-4.72,1.37-6.88.91-2.16,2.27-3.9,4.07-5.22,1.8-1.32,3.94-1.98,6.43-1.98,2.01,0,3.76.41,5.27,1.22,1.5.81,2.66,1.99,3.49,3.53.82,1.54,1.24,3.35,1.24,5.42,0,2.4-.47,4.69-1.39,6.86-.93,2.17-2.29,3.93-4.07,5.26-1.79,1.33-3.92,2-6.41,2-2.01,0-3.78-.41-5.31-1.24ZM407.02,117.34c1.23-1.11,2.14-2.53,2.72-4.25.58-1.72.88-3.46.88-5.2,0-2.22-.53-3.97-1.58-5.24-1.05-1.27-2.58-1.91-4.59-1.91-1.74,0-3.21.56-4.41,1.69s-2.09,2.54-2.68,4.25-.88,3.44-.88,5.18c0,2.22.52,3.97,1.58,5.24,1.05,1.28,2.56,1.91,4.54,1.91,1.71,0,3.18-.55,4.41-1.67Z"/>
      <path class="cls-1" d="M436.38,120.94c-1.6-.72-2.87-1.75-3.8-3.11-.93-1.35-1.4-2.89-1.4-4.63,0-2.01.45-3.67,1.35-5,.9-1.32,2.15-2.4,3.76-3.24,1.6-.84,3.65-1.67,6.14-2.47,1.77-.54,3.26-1.1,4.48-1.69s2.18-1.31,2.9-2.18,1.08-1.93,1.08-3.2-.41-2.2-1.21-2.99-1.88-1.19-3.2-1.19c-1.5,0-2.75.49-3.76,1.46-1.01.97-1.51,2.26-1.51,3.85,0,.96.26,1.94.79,2.93.52.99,1.34,2.22,2.45,3.69l12.55,16.38c.3.42.44.8.43,1.12-.02.33-.17.58-.45.74s-.7.25-1.24.25h-.45c-.48,0-.92-.12-1.3-.36-.39-.24-.8-.66-1.22-1.26l-11.47-15.08c-1.17-1.5-2.07-2.94-2.7-4.32s-.94-2.76-.94-4.14c0-1.5.38-2.86,1.15-4.07.76-1.21,1.81-2.17,3.15-2.86,1.33-.69,2.8-1.04,4.39-1.04s2.95.29,4.16.88c1.22.58,2.14,1.39,2.77,2.41.63,1.02.95,2.16.95,3.42,0,1.83-.47,3.35-1.42,4.54-.95,1.2-2.15,2.16-3.62,2.88-1.47.72-3.36,1.46-5.67,2.21-1.98.69-3.55,1.33-4.72,1.94-1.17.6-2.09,1.37-2.77,2.32-.68.94-1.01,2.17-1.01,3.67,0,1.2.3,2.27.9,3.22.6.95,1.44,1.69,2.52,2.23s2.35.81,3.83.81c1.89,0,3.75-.52,5.58-1.57,1.83-1.05,3.43-2.59,4.79-4.61,1.37-2.02,2.35-4.43,2.95-7.22.15-.42.35-.71.61-.86.25-.15.61-.22,1.06-.22h.32c.39,0,.69.12.9.36.21.24.3.58.27,1.04-.36,3.12-1.39,5.9-3.1,8.35-1.71,2.45-3.8,4.34-6.26,5.69s-4.99,2.03-7.6,2.03c-1.98,0-3.77-.36-5.38-1.08Z"/>
      <path class="cls-1" d="M480.35,120.74c-1.46-.85-2.58-2.05-3.38-3.58s-1.19-3.31-1.19-5.36c0-2.4.49-4.68,1.46-6.84.97-2.16,2.36-3.91,4.16-5.24s3.88-2,6.25-2c1.47,0,2.83.22,4.07.65s2.33,1.01,3.26,1.73c.33.27.5.58.5.94s-.09.68-.27.95c-.27.33-.56.52-.88.56s-.64-.02-.97-.2c-.9-.45-1.8-.83-2.7-1.12-.9-.3-1.83-.45-2.79-.45-1.77,0-3.28.51-4.52,1.53-1.25,1.02-2.18,2.38-2.81,4.07-.63,1.7-.95,3.43-.95,5.2,0,1.53.26,2.84.79,3.94.52,1.1,1.29,1.94,2.29,2.54,1,.6,2.21.9,3.62.9,1.26,0,2.79-.33,4.59-.99.39-.09.73-.07,1.01.05.28.12.49.34.61.67.15.3.14.62-.02.97-.17.35-.46.64-.88.88-.84.45-1.79.81-2.83,1.08-1.05.27-2.16.41-3.33.41-1.95,0-3.65-.43-5.11-1.28Z"/>
      <path class="cls-1" d="M502.96,120.78c-1.53-.82-2.69-2.01-3.49-3.55-.79-1.54-1.19-3.35-1.19-5.42,0-2.43.46-4.72,1.37-6.88.91-2.16,2.27-3.9,4.07-5.22,1.8-1.32,3.94-1.98,6.43-1.98,2.01,0,3.76.41,5.27,1.22,1.5.81,2.66,1.99,3.49,3.53.82,1.54,1.24,3.35,1.24,5.42,0,2.4-.47,4.69-1.39,6.86-.93,2.17-2.29,3.93-4.07,5.26-1.79,1.33-3.92,2-6.41,2-2.01,0-3.78-.41-5.31-1.24ZM512.68,117.34c1.23-1.11,2.14-2.53,2.72-4.25.58-1.72.88-3.46.88-5.2,0-2.22-.53-3.97-1.58-5.24-1.05-1.27-2.58-1.91-4.59-1.91-1.74,0-3.21.56-4.41,1.69s-2.09,2.54-2.68,4.25-.88,3.44-.88,5.18c0,2.22.52,3.97,1.58,5.24,1.05,1.28,2.56,1.91,4.54,1.91,1.71,0,3.18-.55,4.41-1.67Z"/>
      <path class="cls-1" d="M525.17,121.25c-.29-.27-.38-.64-.29-1.12l3.55-20.52c.09-.54.33-.93.72-1.17.39-.24.81-.36,1.26-.36h.22c.51,0,.88.13,1.12.38s.32.64.23,1.15l-.5,2.75h-1.3c1.29-1.44,2.64-2.57,4.05-3.4,1.41-.83,2.98-1.24,4.72-1.24s3.21.37,4.23,1.1c1.02.74,1.69,1.75,2.02,3.04l-.99.45c1.26-1.44,2.62-2.57,4.09-3.38,1.47-.81,3.09-1.22,4.86-1.22,2.88,0,4.79.86,5.72,2.57.93,1.71,1.14,3.96.63,6.75l-2.29,13.09c-.09.51-.32.89-.68,1.15-.36.26-.79.38-1.3.38h-.41c-.51,0-.89-.13-1.15-.41-.25-.27-.34-.64-.25-1.12l2.25-12.96c.33-1.95.26-3.49-.2-4.63-.47-1.14-1.72-1.71-3.76-1.71-1.2,0-2.33.27-3.38.81-1.05.54-2.12,1.31-3.2,2.29l.27-1.03c.18,1.11.15,2.37-.09,3.78l-2.39,13.46c-.09.51-.32.89-.7,1.15-.38.26-.82.38-1.33.38h-.32c-.54,0-.95-.13-1.21-.41-.27-.27-.36-.64-.27-1.12l2.25-12.96c.33-1.98.27-3.53-.18-4.66s-1.71-1.69-3.78-1.69c-1.14,0-2.21.26-3.22.79-1.01.53-2.05,1.28-3.13,2.27l.63-1.21-3.01,17.46c-.09.51-.32.89-.67,1.15-.36.26-.8.38-1.31.38h-.4c-.48,0-.86-.13-1.15-.41Z"/>
      <path class="cls-1" d="M565.17,121.25c-.29-.27-.38-.64-.29-1.12l3.55-20.52c.09-.54.33-.93.72-1.17.39-.24.81-.36,1.26-.36h.22c.51,0,.88.13,1.12.38s.32.64.23,1.15l-.5,2.75h-1.3c1.29-1.44,2.64-2.57,4.05-3.4,1.41-.83,2.98-1.24,4.72-1.24s3.21.37,4.23,1.1c1.02.74,1.69,1.75,2.02,3.04l-.99.45c1.26-1.44,2.62-2.57,4.09-3.38,1.47-.81,3.09-1.22,4.86-1.22,2.88,0,4.79.86,5.72,2.57.93,1.71,1.14,3.96.63,6.75l-2.29,13.09c-.09.51-.32.89-.68,1.15-.36.26-.79.38-1.3.38h-.41c-.51,0-.89-.13-1.15-.41-.25-.27-.34-.64-.25-1.12l2.25-12.96c.33-1.95.26-3.49-.2-4.63-.47-1.14-1.72-1.71-3.76-1.71-1.2,0-2.33.27-3.38.81-1.05.54-2.12,1.31-3.2,2.29l.27-1.03c.18,1.11.15,2.37-.09,3.78l-2.39,13.46c-.09.51-.32.89-.7,1.15-.38.26-.82.38-1.33.38h-.32c-.54,0-.95-.13-1.21-.41-.27-.27-.36-.64-.27-1.12l2.25-12.96c.33-1.98.27-3.53-.18-4.66s-1.71-1.69-3.78-1.69c-1.14,0-2.21.26-3.22.79-1.01.53-2.05,1.28-3.13,2.27l.63-1.21-3.01,17.46c-.09.51-.32.89-.67,1.15-.36.26-.8.38-1.31.38h-.4c-.48,0-.86-.13-1.15-.41Z"/>
      <path class="cls-1" d="M606.87,119.41c-1.05-1.74-1.32-3.99-.81-6.75l2.25-13.05c.09-.54.33-.93.72-1.17.39-.24.84-.36,1.35-.36h.31c.54,0,.93.13,1.17.38.24.25.31.64.22,1.15l-2.25,12.92c-.33,1.92-.2,3.46.41,4.63.6,1.17,1.93,1.75,4,1.75,1.2,0,2.29-.26,3.29-.79.99-.52,2.01-1.28,3.06-2.27l-.63,1.21,3.01-17.46c.09-.51.33-.89.72-1.15.39-.25.84-.38,1.35-.38h.36c.54,0,.94.12,1.19.36.25.24.34.63.25,1.17l-3.55,20.52c-.09.51-.32.89-.7,1.15-.38.26-.79.38-1.24.38h-.27c-.45,0-.82-.13-1.1-.41-.29-.27-.38-.64-.29-1.12l.5-2.79h1.31c-1.2,1.47-2.52,2.62-3.96,3.44-1.44.83-3.02,1.24-4.73,1.24-2.91,0-4.89-.87-5.94-2.61Z"/>
      <path class="cls-1" d="M631.37,121.25c-.29-.27-.38-.64-.29-1.12l3.55-20.52c.09-.54.33-.93.72-1.17.39-.24.81-.36,1.26-.36h.22c.51,0,.88.13,1.12.38s.32.64.23,1.15l-.5,2.75h-1.3c1.29-1.47,2.63-2.61,4.03-3.42,1.39-.81,2.96-1.22,4.7-1.22,2.88,0,4.86.86,5.94,2.59,1.08,1.73,1.35,3.97.81,6.73l-2.25,13.09c-.09.51-.32.89-.7,1.15-.38.26-.82.38-1.33.38h-.32c-.54,0-.95-.13-1.21-.41-.27-.27-.36-.64-.27-1.12l2.25-12.96c.33-1.89.2-3.42-.4-4.59-.6-1.17-1.91-1.75-3.92-1.75-1.23,0-2.34.26-3.33.79-.99.53-2.03,1.28-3.11,2.27l.63-1.21-3.01,17.46c-.09.51-.32.89-.67,1.15-.36.26-.8.38-1.31.38h-.4c-.48,0-.86-.13-1.15-.41Z"/>
      <path class="cls-1" d="M657.56,121.25c-.29-.27-.38-.64-.29-1.12l3.55-20.52c.09-.54.34-.93.77-1.17.42-.24.85-.36,1.3-.36h.41c.54,0,.92.13,1.15.41.22.27.29.65.2,1.12l-3.55,20.52c-.09.51-.32.89-.67,1.15-.36.26-.8.38-1.31.38h-.4c-.48,0-.86-.13-1.15-.41ZM662.48,93.02c-.36-.31-.54-.79-.54-1.42,0-.87.23-1.54.7-2.03.46-.48,1.09-.72,1.87-.72.69,0,1.18.16,1.49.47.3.31.45.8.45,1.46,0,.84-.2,1.5-.61,1.98-.4.48-1.01.72-1.82.72-.66,0-1.17-.16-1.53-.47Z"/>
      <path class="cls-1" d="M671.64,120.11c-.79-1.27-1-3.02-.61-5.24l2.61-15.12,1.08,1.26h-3.65c-.48,0-.83-.11-1.04-.34-.21-.23-.29-.55-.22-.97.06-.33.21-.61.45-.86s.51-.37.81-.4c.99-.09,1.74-.29,2.25-.58.51-.3.95-.82,1.3-1.55.36-.73.71-1.84,1.04-3.31.12-.51.33-.86.63-1.06.3-.19.66-.29,1.08-.29h.14c.42,0,.73.12.94.36.21.24.27.58.18,1.04l-1.04,5.99-1.31-.95h6.75c.51,0,.87.13,1.08.41.21.27.27.62.18,1.04-.12.99-.71,1.48-1.75,1.48h-6.8l1.71-1.26-2.7,15.34c-.18,1.17-.08,2.14.29,2.9.38.77,1.22,1.15,2.54,1.15.18,0,.66-.06,1.44-.18.36-.12.66-.18.9-.18.27,0,.5.04.7.11.2.08.35.23.47.47.12.3.14.58.07.83-.08.26-.26.5-.56.74-.51.33-1.15.59-1.91.79-.77.2-1.63.29-2.59.29-2.19,0-3.68-.64-4.48-1.91Z"/>
      <path class="cls-1" d="M683.14,130.64c-.3-.25-.46-.59-.5-1.01,0-.3.11-.56.34-.79s.55-.35.97-.38c1.62-.24,3.07-.92,4.34-2.03,1.27-1.11,2.18-2.56,2.72-4.36.24-.63.37-1.26.38-1.89.02-.63-.04-1.38-.16-2.25-.03-.18-.06-.34-.09-.5l-3.24-17.64c-.09-.54.01-.96.32-1.26.3-.3.72-.45,1.26-.45h.41c.51,0,.9.1,1.17.29.27.2.45.52.54.97l3.01,18.58h-.63l9.18-18.67c.18-.39.45-.68.81-.88.36-.2.75-.29,1.17-.29h.31c.51,0,.88.15,1.1.45.23.3.17.74-.16,1.3l-11.56,22.95c-.9,1.74-1.9,3.23-2.99,4.48-1.1,1.24-2.25,2.18-3.46,2.81s-2.47.95-3.76.95c-.69,0-1.18-.13-1.48-.38Z"/>
      <path class="cls-1" d="M706.38,121.5c-.38-.34-.56-.85-.56-1.51,0-.75.21-1.38.63-1.89.42-.51.99-.77,1.71-.77s1.3.17,1.67.5c.36.33.54.8.54,1.4,0,.78-.21,1.44-.63,1.98-.42.54-1.04.81-1.84.81-.63,0-1.13-.17-1.51-.52Z"/>
    </g>
  </g>
</svg>