<?xml version="1.0" encoding="UTF-8"?>
<svg id="Layer_2" data-name="Layer 2" xmlns="http://www.w3.org/2000/svg" xmlns:xlink="http://www.w3.org/1999/xlink" viewBox="0 0 971.85 135.93">
  <defs>
    <style>
      .cls-1 {
        fill: none;
        filter: url(#outer-glow-1);
        stroke: #ff0092;
        stroke-miterlimit: 10;
        stroke-width: 4px;
      }

      .cls-2 {
        fill: #fdfbe2;
      }
    </style>
    <filter id="outer-glow-1" x="0" y="0" width="971.85" height="135.93" filterUnits="userSpaceOnUse">
      <feOffset dx="0" dy="0"/>
      <feGaussianBlur result="blur" stdDeviation="2.67"/>
      <feFlood flood-color="#a4509f" flood-opacity="1"/>
      <feComposite in2="blur" operator="in"/>
      <feComposite in="SourceGraphic"/>
    </filter>
  </defs>
  <g id="Telegram_Button" data-name="Telegram Button">
    <g>
      <rect class="cls-1" x="2" y="2" width="967.85" height="131.93" rx="65.96" ry="65.96"/>
      <g>
        <path class="cls-2" d="M279.84,43.45h2.27v-2.27h38.56v2.27h2.27v9.07h-2.27v2.27h-11.34v34.02h-2.27v2.27h-11.34v-2.27h-2.27v-34.02h-11.34v-2.27h-2.27v-9.07ZM282.11,45.72v4.54h2.27v2.27h11.34v18.14h2.27v2.27h2.27v2.27h2.27v-2.27h-2.27v-2.27h-2.27v-2.27h2.27v2.27h2.27v2.27h2.27v2.27h2.27v-2.27h-2.27v-2.27h-2.27v-2.27h2.27v2.27h2.27v-18.14h11.34v-2.27h2.27v-4.54h-2.27v-2.27h-34.02v2.27h-2.27ZM295.71,75.2h2.27v-2.27h-2.27v2.27Z"/>
        <path class="cls-2" d="M334.18,43.45v-2.27h31.75v2.27h2.27v9.07h-2.27v2.27h-18.14v4.54h13.61v2.27h2.27v9.07h-2.27v2.27h-13.61v4.54h18.14v2.27h2.27v9.07h-2.27v2.27h-31.75v-2.27h-2.27v-45.36h2.27ZM334.18,45.72v24.95h2.27v2.27h2.27v2.27h2.27v-2.27h-2.27v-2.27h-2.27v-2.27h2.27v2.27h2.27v2.27h2.27v2.27h2.27v-2.27h-2.27v-2.27h-2.27v-2.27h2.27v2.27h2.27v-2.27h2.27v2.27h2.27v-2.27h2.27v2.27h2.27v-2.27h2.27v2.27h2.27v-2.27h2.27v-4.54h-2.27v-2.27h-13.61v-9.07h18.14v-2.27h2.27v-4.54h-2.27v-2.27h-27.22v2.27h-2.27ZM334.18,75.2h2.27v-2.27h-2.27v2.27Z"/>
        <path class="cls-2" d="M381.73,43.45v-2.27h11.34v2.27h2.27v34.02h13.61v2.27h2.27v9.07h-2.27v2.27h-27.22v-2.27h-2.27v-45.36h2.27ZM381.73,45.72v24.95h2.27v2.27h2.27v2.27h2.27v-2.27h-2.27v-2.27h-2.27v-2.27h2.27v2.27h2.27v2.27h2.27v2.27h2.27v-2.27h-2.27v-2.27h-2.27v-2.27h2.27v2.27h2.27v-24.95h-2.27v-2.27h-6.8v2.27h-2.27ZM381.73,75.2h2.27v-2.27h-2.27v2.27Z"/>
        <path class="cls-2" d="M422.47,43.45v-2.27h31.75v2.27h2.27v9.07h-2.27v2.27h-18.14v4.54h13.61v2.27h2.27v9.07h-2.27v2.27h-13.61v4.54h18.14v2.27h2.27v9.07h-2.27v2.27h-31.75v-2.27h-2.27v-45.36h2.27ZM422.47,45.72v24.95h2.27v2.27h2.27v2.27h2.27v-2.27h-2.27v-2.27h-2.27v-2.27h2.27v2.27h2.27v2.27h2.27v2.27h2.27v-2.27h-2.27v-2.27h-2.27v-2.27h2.27v2.27h2.27v-2.27h2.27v2.27h2.27v-2.27h2.27v2.27h2.27v-2.27h2.27v2.27h2.27v-2.27h2.27v-4.54h-2.27v-2.27h-13.61v-9.07h18.14v-2.27h2.27v-4.54h-2.27v-2.27h-27.22v2.27h-2.27ZM422.47,75.2h2.27v-2.27h-2.27v2.27Z"/>
        <path class="cls-2" d="M472.28,43.45h4.54v-2.27h27.22v2.27h2.27v2.27h2.27v9.07h-2.27v2.27h-4.54v-2.27h-18.14v2.27h-2.27v18.14h2.27v2.27h11.34v-2.27h2.27v-2.27h-9.07v-2.27h-2.27v-6.8h2.27v-2.27h20.41v2.27h2.27v18.14h-2.27v4.54h-2.27v2.27h-4.54v2.27h-24.95v-2.27h-4.54v-2.27h-2.27v-2.27h-2.27v-4.54h-2.27v-27.22h2.27v-4.54h2.27v-2.27h2.27v-2.27ZM474.55,47.98h-2.27v2.27h-2.27v4.54h-2.27v15.88h2.27v2.27h2.27v2.27h2.27v-2.27h-2.27v-2.27h-2.27v-2.27h2.27v2.27h2.27v2.27h2.27v2.27h2.27v-2.27h-2.27v-2.27h-2.27v-2.27h2.27v2.27h2.27v-15.88h2.27v-2.27h24.95v-4.54h-2.27v-2.27h-2.27v-2.27h-22.68v2.27h-4.54v2.27ZM467.74,75.2h2.27v-2.27h-2.27v2.27ZM488.16,66.13v2.27h2.27v2.27h2.27v-2.27h2.27v2.27h2.27v-2.27h2.27v2.27h2.27v2.27h2.27v2.27h2.27v-2.27h-2.27v-2.27h-2.27v-2.27h2.27v2.27h2.27v2.27h2.27v-2.27h-2.27v-2.27h2.27v-2.27h-2.27v-2.27h-15.88v2.27h-2.27ZM501.76,75.2v-2.27h-2.27v2.27h2.27Z"/>
        <path class="cls-2" d="M524.36,43.45v-2.27h29.48v2.27h4.54v2.27h2.27v2.27h2.27v4.54h2.27v11.34h-2.27v4.54h-2.27v2.27h-2.27v4.54h2.27v4.54h2.27v2.27h2.27v6.8h-2.27v2.27h-13.61v-2.27h-2.27v-4.54h-2.27v-4.54h-2.27v-4.54h-4.54v13.61h-2.27v2.27h-11.34v-2.27h-2.27v-45.36h2.27ZM524.36,45.72v24.95h2.27v2.27h2.27v2.27h2.27v-2.27h-2.27v-2.27h-2.27v-2.27h2.27v2.27h2.27v2.27h2.27v2.27h2.27v-2.27h-2.27v-2.27h-2.27v-2.27h2.27v2.27h2.27v2.27h2.27v-2.27h-2.27v-2.27h2.27v2.27h2.27v2.27h2.27v-2.27h-2.27v-2.27h2.27v2.27h2.27v2.27h2.27v2.27h2.27v-2.27h-2.27v-2.27h-2.27v-2.27h2.27v2.27h2.27v2.27h2.27v2.27h2.27v-2.27h-2.27v-2.27h-2.27v-2.27h2.27v2.27h2.27v2.27h2.27v-2.27h-2.27v-2.27h4.54v-2.27h2.27v-4.54h2.27v-6.8h-2.27v-4.54h-2.27v-2.27h-2.27v-2.27h-4.54v-2.27h-24.95v2.27h-2.27ZM524.36,75.2h2.27v-2.27h-2.27v2.27ZM549.31,54.79h2.27v9.07h-2.27v2.27h-13.61v-13.61h13.61v2.27ZM547.04,54.79h-9.07v9.07h9.07v-2.27h2.27v-4.54h-2.27v-2.27Z"/>
        <path class="cls-2" d="M587.78,43.45h2.27v-2.27h15.88v2.27h2.27v2.27h2.27v4.54h2.27v4.54h2.27v6.8h2.27v6.8h2.27v9.07h2.27v11.34h-2.27v2.27h-11.34v-2.27h-2.27v-6.8h-15.88v6.8h-2.27v2.27h-11.34v-2.27h-2.27v-11.34h2.27v-9.07h2.27v-6.8h2.27v-6.8h2.27v-4.54h2.27v-4.54h2.27v-2.27ZM578.71,75.2h2.27v-2.27h-2.27v2.27ZM590.05,47.98h-2.27v4.54h-2.27v4.54h-2.27v6.8h-2.27v4.54h2.27v2.27h2.27v2.27h2.27v2.27h2.27v-2.27h-2.27v-2.27h-2.27v-2.27h2.27v2.27h2.27v2.27h2.27v2.27h2.27v-2.27h-2.27v-2.27h-2.27v-6.8h2.27v-6.8h2.27v-4.54h6.8v4.54h2.27v6.8h2.27v6.8h2.27v2.27h2.27v2.27h2.27v-2.27h-2.27v-2.27h-2.27v-2.27h2.27v2.27h2.27v2.27h2.27v-2.27h-2.27v-2.27h2.27v-4.54h-2.27v-6.8h-2.27v-4.54h-2.27v-4.54h-2.27v-2.27h-2.27v-2.27h-11.34v2.27h-2.27v2.27ZM580.97,72.93h2.27v2.27h2.27v-2.27h-2.27v-2.27h-2.27v2.27ZM599.12,54.79h-2.27v4.54h-2.27v6.8h-2.27v2.27h11.34v-2.27h-2.27v-6.8h-2.27v-4.54ZM594.58,72.93h2.27v2.27h2.27v-2.27h-2.27v-2.27h-2.27v2.27ZM599.12,72.93h2.27v2.27h2.27v-2.27h-2.27v-2.27h-2.27v2.27ZM603.65,72.93h2.27v2.27h2.27v-2.27h-2.27v-2.27h-2.27v2.27ZM614.99,75.2h2.27v-2.27h-2.27v2.27Z"/>
        <path class="cls-2" d="M669.34,75.2v6.8h-2.27v2.27h-11.34v-2.27h-2.27v-6.8h-2.27v-11.34h-2.27v6.8h-2.27v18.14h-2.27v2.27h-11.34v-2.27h-2.27v-15.88h2.27v-11.34h2.27v-9.07h2.27v-6.8h2.27v-2.27h2.27v-2.27h13.61v2.27h2.27v6.8h2.27v6.8h2.27v-6.8h2.27v-6.8h2.27v-2.27h13.61v2.27h2.27v2.27h2.27v6.8h2.27v9.07h2.27v11.34h2.27v15.88h-2.27v2.27h-11.34v-2.27h-2.27v-18.14h-2.27v-6.8h-2.27v11.34h-2.27ZM653.46,61.59v9.07h2.27v2.27h2.27v2.27h2.27v-2.27h-2.27v-2.27h-2.27v-2.27h2.27v2.27h2.27v2.27h2.27v2.27h2.27v-2.27h-2.27v-2.27h-2.27v-2.27h2.27v2.27h2.27v2.27h2.27v-2.27h-2.27v-2.27h2.27v2.27h2.27v-9.07h6.8v6.8h4.54v2.27h2.27v2.27h2.27v2.27h2.27v-2.27h-2.27v-2.27h-2.27v-2.27h2.27v2.27h2.27v-6.8h-2.27v-9.07h-2.27v-6.8h-2.27v-2.27h-2.27v-2.27h-9.07v2.27h-2.27v6.8h-2.27v6.8h-6.8v-6.8h-2.27v-6.8h-2.27v-2.27h-9.07v2.27h-2.27v2.27h-2.27v6.8h-2.27v9.07h-2.27v6.8h2.27v2.27h2.27v2.27h2.27v-2.27h-2.27v-2.27h-2.27v-2.27h2.27v2.27h2.27v2.27h2.27v-2.27h-2.27v-2.27h4.54v-6.8h6.8ZM637.59,72.93h-2.27v2.27h2.27v-2.27ZM678.41,72.93h2.27v2.27h2.27v-2.27h-2.27v-2.27h-2.27v2.27Z"/>
      </g>
    </g>
  </g>
</svg>