<?xml version="1.0" encoding="UTF-8"?>
<svg id="Layer_2" data-name="Layer 2" xmlns="http://www.w3.org/2000/svg" viewBox="0 0 878.4 343.45">
  <defs>
    <style>
      .cls-1 {
        fill: #ff008c;
      }

      .cls-2 {
        fill: #fff;
      }

      .cls-3 {
        fill: #fdfbe2;
      }
    </style>
  </defs>
  <g id="Roadmap">
    <g>
      <g>
        <path class="cls-3" d="M214.02,2.27h2.27V0h38.56v2.27h2.27v9.07h-2.27v2.27h-11.34v34.02h-2.27v2.27h-11.34v-2.27h-2.27V13.61h-11.34v-2.27h-2.27V2.27ZM216.29,4.54v4.54h2.27v2.27h11.34v18.14h2.27v2.27h2.27v2.27h2.27v-2.27h-2.27v-2.27h-2.27v-2.27h2.27v2.27h2.27v2.27h2.27v2.27h2.27v-2.27h-2.27v-2.27h-2.27v-2.27h2.27v2.27h2.27V11.34h11.34v-2.27h2.27v-4.54h-2.27v-2.27h-34.02v2.27h-2.27ZM229.9,34.02h2.27v-2.27h-2.27v2.27Z"/>
        <path class="cls-3" d="M265.01,2.27V0h11.34v2.27h2.27v11.34h2.27v-2.27h15.88v2.27h2.27v2.27h2.27v4.54h2.27v27.22h-2.27v2.27h-11.34v-2.27h-2.27v-22.68h-2.27v-2.27h-2.27v2.27h-4.54v22.68h-2.27v2.27h-11.34v-2.27h-2.27V2.27h2.27ZM265.01,4.54v24.95h2.27v2.27h2.27v2.27h2.27v-2.27h-2.27v-2.27h-2.27v-2.27h2.27v2.27h2.27v2.27h2.27v2.27h2.27v-2.27h-2.27v-2.27h-2.27v-2.27h2.27v2.27h2.27v-6.8h4.54v-2.27h6.8v2.27h2.27v6.8h2.27v2.27h2.27v2.27h2.27v-2.27h-2.27v-2.27h-2.27v-2.27h2.27v2.27h2.27v2.27h2.27v2.27h2.27v-2.27h-2.27v-2.27h-2.27v-2.27h2.27v2.27h2.27v-6.8h-2.27v-4.54h-2.27v-2.27h-2.27v-2.27h-11.34v2.27h-6.8V4.54h-2.27v-2.27h-6.8v2.27h-2.27ZM265.01,34.02h2.27v-2.27h-2.27v2.27ZM289.96,34.02h2.27v-2.27h-2.27v2.27Z"/>
        <path class="cls-3" d="M316,15.88h2.27v-2.27h4.54v-2.27h18.14v2.27h4.54v2.27h2.27v2.27h2.27v11.34h-2.27v2.27h-2.27v2.27h-18.14v2.27h2.27v2.27h13.61v-2.27h4.54v2.27h2.27v9.07h-4.54v2.27h-24.95v-2.27h-4.54v-2.27h-2.27v-4.54h-2.27v-18.14h2.27v-4.54h2.27v-2.27ZM320.53,18.14h-2.27v2.27h-2.27v4.54h-2.27v4.54h2.27v2.27h2.27v2.27h2.27v-2.27h-2.27v-2.27h-2.27v-2.27h2.27v2.27h2.27v2.27h2.27v2.27h2.27v-2.27h-2.27v-2.27h-2.27v-2.27h2.27v2.27h2.27v2.27h2.27v-2.27h-2.27v-9.07h2.27v-2.27h9.07v2.27h2.27v6.8h2.27v2.27h2.27v-2.27h4.54v-6.8h-2.27v-2.27h-2.27v-2.27h-4.54v-2.27h-13.61v2.27h-4.54v2.27ZM313.73,34.02h2.27v-2.27h-2.27v2.27ZM334.14,20.41h-4.54v2.27h-2.27v4.54h6.8v-2.27h2.27v-2.27h-2.27v-2.27ZM329.6,31.75h2.27v-2.27h-2.27v2.27ZM334.14,31.75h2.27v-2.27h-2.27v2.27ZM336.41,27.22v2.27h2.27v2.27h2.27v-2.27h-2.27v-2.27h-2.27Z"/>
        <path class="cls-3" d="M413.44,34.02v6.8h-2.27v2.27h-11.34v-2.27h-2.27v-6.8h-2.27v-11.34h-2.27v6.8h-2.27v18.14h-2.27v2.27h-11.34v-2.27h-2.27v-15.88h2.27v-11.34h2.27v-9.07h2.27v-6.8h2.27v-2.27h2.27V0h13.61v2.27h2.27v6.8h2.27v6.8h2.27v-6.8h2.27V2.27h2.27V0h13.61v2.27h2.27v2.27h2.27v6.8h2.27v9.07h2.27v11.34h2.27v15.88h-2.27v2.27h-11.34v-2.27h-2.27v-18.14h-2.27v-6.8h-2.27v11.34h-2.27ZM397.56,20.41v9.07h2.27v2.27h2.27v2.27h2.27v-2.27h-2.27v-2.27h-2.27v-2.27h2.27v2.27h2.27v2.27h2.27v2.27h2.27v-2.27h-2.27v-2.27h-2.27v-2.27h2.27v2.27h2.27v2.27h2.27v-2.27h-2.27v-2.27h2.27v2.27h2.27v-9.07h6.8v6.8h4.54v2.27h2.27v2.27h2.27v2.27h2.27v-2.27h-2.27v-2.27h-2.27v-2.27h2.27v2.27h2.27v-6.8h-2.27v-9.07h-2.27v-6.8h-2.27v-2.27h-2.27v-2.27h-9.07v2.27h-2.27v6.8h-2.27v6.8h-6.8v-6.8h-2.27v-6.8h-2.27v-2.27h-9.07v2.27h-2.27v2.27h-2.27v6.8h-2.27v9.07h-2.27v6.8h2.27v2.27h2.27v2.27h2.27v-2.27h-2.27v-2.27h-2.27v-2.27h2.27v2.27h2.27v2.27h2.27v-2.27h-2.27v-2.27h4.54v-6.8h6.8ZM381.68,31.75h-2.27v2.27h2.27v-2.27ZM422.51,31.75h2.27v2.27h2.27v-2.27h-2.27v-2.27h-2.27v2.27Z"/>
        <path class="cls-3" d="M446.28,2.27V0h11.34v2.27h2.27v9.07h-2.27v2.27h-11.34v-2.27h-2.27V2.27h2.27ZM446.28,18.14v-2.27h11.34v2.27h2.27v29.48h-2.27v2.27h-11.34v-2.27h-2.27v-29.48h2.27ZM446.28,4.54v4.54h2.27v2.27h6.8v-2.27h2.27v-4.54h-2.27v-2.27h-6.8v2.27h-2.27ZM446.28,20.41v9.07h2.27v2.27h2.27v2.27h2.27v-2.27h-2.27v-2.27h-2.27v-2.27h2.27v2.27h2.27v2.27h2.27v2.27h2.27v-2.27h-2.27v-2.27h-2.27v-2.27h2.27v2.27h2.27v-9.07h-2.27v-2.27h-6.8v2.27h-2.27ZM446.28,34.02h2.27v-2.27h-2.27v2.27Z"/>
        <path class="cls-3" d="M472.32,13.61h4.54v-2.27h20.41v2.27h2.27v9.07h-2.27v2.27h-4.54v-2.27h-9.07v2.27h6.8v2.27h6.8v2.27h2.27v2.27h2.27v11.34h-2.27v2.27h-2.27v2.27h-4.54v2.27h-22.68v-2.27h-2.27v-9.07h2.27v-2.27h4.54v2.27h11.34v-2.27h-9.07v-2.27h-4.54v-2.27h-2.27v-2.27h-2.27v-11.34h2.27v-2.27h2.27v-2.27ZM470.05,20.41v6.8h2.27v2.27h2.27v2.27h2.27v-2.27h-2.27v-2.27h2.27v2.27h2.27v2.27h2.27v2.27h2.27v-2.27h-2.27v-2.27h-2.27v-2.27h2.27v2.27h2.27v2.27h2.27v2.27h2.27v-2.27h-2.27v-2.27h-2.27v-2.27h-2.27v-6.8h15.88v-4.54h-2.27v-2.27h-15.88v2.27h-4.54v2.27h-2.27v2.27h-2.27ZM485.92,29.48h2.27v2.27h2.27v2.27h2.27v-2.27h-2.27v-2.27h-2.27v-2.27h-2.27v2.27ZM492.73,31.75h2.27v2.27h2.27v-2.27h-2.27v-2.27h-2.27v2.27Z"/>
        <path class="cls-3" d="M511.96,13.61h4.54v-2.27h20.41v2.27h2.27v9.07h-2.27v2.27h-4.54v-2.27h-9.07v2.27h6.8v2.27h6.8v2.27h2.27v2.27h2.27v11.34h-2.27v2.27h-2.27v2.27h-4.54v2.27h-22.68v-2.27h-2.27v-9.07h2.27v-2.27h4.54v2.27h11.34v-2.27h-9.07v-2.27h-4.54v-2.27h-2.27v-2.27h-2.27v-11.34h2.27v-2.27h2.27v-2.27ZM509.7,20.41v6.8h2.27v2.27h2.27v2.27h2.27v-2.27h-2.27v-2.27h2.27v2.27h2.27v2.27h2.27v2.27h2.27v-2.27h-2.27v-2.27h-2.27v-2.27h2.27v2.27h2.27v2.27h2.27v2.27h2.27v-2.27h-2.27v-2.27h-2.27v-2.27h-2.27v-6.8h15.88v-4.54h-2.27v-2.27h-15.88v2.27h-4.54v2.27h-2.27v2.27h-2.27ZM525.57,29.48h2.27v2.27h2.27v2.27h2.27v-2.27h-2.27v-2.27h-2.27v-2.27h-2.27v2.27ZM532.38,31.75h2.27v2.27h2.27v-2.27h-2.27v-2.27h-2.27v2.27Z"/>
        <path class="cls-3" d="M551.61,2.27V0h11.34v2.27h2.27v9.07h-2.27v2.27h-11.34v-2.27h-2.27V2.27h2.27ZM551.61,18.14v-2.27h11.34v2.27h2.27v29.48h-2.27v2.27h-11.34v-2.27h-2.27v-29.48h2.27ZM551.61,4.54v4.54h2.27v2.27h6.8v-2.27h2.27v-4.54h-2.27v-2.27h-6.8v2.27h-2.27ZM551.61,20.41v9.07h2.27v2.27h2.27v2.27h2.27v-2.27h-2.27v-2.27h-2.27v-2.27h2.27v2.27h2.27v2.27h2.27v2.27h2.27v-2.27h-2.27v-2.27h-2.27v-2.27h2.27v2.27h2.27v-9.07h-2.27v-2.27h-6.8v2.27h-2.27ZM551.61,34.02h2.27v-2.27h-2.27v2.27Z"/>
        <path class="cls-3" d="M577.65,13.61h4.54v-2.27h22.68v2.27h4.54v2.27h2.27v4.54h2.27v20.41h-2.27v4.54h-2.27v2.27h-4.54v2.27h-22.68v-2.27h-4.54v-2.27h-2.27v-4.54h-2.27v-20.41h2.27v-4.54h2.27v-2.27ZM579.92,18.14h-2.27v4.54h-2.27v6.8h2.27v2.27h2.27v2.27h2.27v-2.27h-2.27v-2.27h-2.27v-2.27h2.27v2.27h2.27v2.27h2.27v2.27h2.27v-2.27h-2.27v-2.27h-2.27v-2.27h2.27v2.27h2.27v-6.8h2.27v-2.27h9.07v2.27h2.27v6.8h2.27v2.27h2.27v2.27h2.27v-2.27h-2.27v-2.27h-2.27v-2.27h2.27v2.27h2.27v2.27h2.27v2.27h2.27v-2.27h-2.27v-2.27h-2.27v-2.27h2.27v2.27h2.27v-6.8h-2.27v-4.54h-2.27v-2.27h-4.54v-2.27h-18.14v2.27h-4.54v2.27ZM575.38,34.02h2.27v-2.27h-2.27v2.27ZM595.79,22.68h-4.54v2.27h-2.27v11.34h2.27v2.27h4.54v-2.27h2.27v-11.34h-2.27v-2.27ZM600.33,34.02h2.27v-2.27h-2.27v2.27Z"/>
        <path class="cls-3" d="M624.1,13.61v-2.27h11.34v2.27h2.27v-2.27h18.14v2.27h2.27v2.27h2.27v4.54h2.27v27.22h-2.27v2.27h-11.34v-2.27h-2.27v-22.68h-2.27v-2.27h-2.27v2.27h-4.54v22.68h-2.27v2.27h-11.34v-2.27h-2.27V13.61h2.27ZM624.1,15.88v13.61h2.27v2.27h2.27v2.27h2.27v-2.27h-2.27v-2.27h-2.27v-2.27h2.27v2.27h2.27v2.27h2.27v2.27h2.27v-2.27h-2.27v-2.27h-2.27v-2.27h2.27v2.27h2.27v-6.8h4.54v-2.27h6.8v2.27h2.27v6.8h2.27v2.27h2.27v2.27h2.27v-2.27h-2.27v-2.27h-2.27v-2.27h2.27v2.27h2.27v2.27h2.27v2.27h2.27v-2.27h-2.27v-2.27h-2.27v-2.27h2.27v2.27h2.27v-6.8h-2.27v-4.54h-2.27v-2.27h-2.27v-2.27h-13.61v2.27h-6.8v-2.27h-6.8v2.27h-2.27ZM624.1,34.02h2.27v-2.27h-2.27v2.27ZM649.05,34.02h2.27v-2.27h-2.27v2.27Z"/>
        <path class="cls-2" d="M53.66,128.38c-2.03-1.23-3.63-2.97-4.8-5.22-1.17-2.25-1.76-4.86-1.76-7.82s.59-5.57,1.76-7.82c1.17-2.25,2.77-3.99,4.8-5.22s4.29-1.84,6.8-1.84c1.63,0,3.18.21,4.66.64,1.48.43,2.77,1.01,3.86,1.76.32.21.52.46.6.74.08.28.03.57-.16.86-.13.21-.34.34-.62.38s-.57-.02-.86-.18c-.27-.16-.55-.31-.84-.44-1.01-.51-2.07-.9-3.18-1.18-1.11-.28-2.21-.42-3.3-.42-2.03,0-3.86.51-5.5,1.54-1.64,1.03-2.93,2.5-3.88,4.42s-1.42,4.16-1.42,6.72.47,4.8,1.42,6.72,2.25,3.4,3.9,4.44,3.49,1.56,5.52,1.56c1.23,0,2.47-.19,3.74-.58s2.47-.91,3.62-1.58c.29-.16.58-.22.86-.18.28.04.49.17.62.38.16.27.21.54.14.82-.07.28-.26.54-.58.78-1.15.8-2.47,1.43-3.98,1.88-1.51.45-3.05.68-4.62.68-2.51,0-4.77-.61-6.8-1.84Z"/>
        <path class="cls-2" d="M75.42,129.64c-.21-.17-.32-.43-.32-.78v-18.88c0-.35.11-.61.32-.78.21-.17.48-.26.8-.26h.2c.32,0,.58.09.78.26.2.17.3.43.3.78v5.56l-.48-.32c.21-1.28.66-2.41,1.34-3.4.68-.99,1.51-1.74,2.5-2.26.99-.52,2.07-.75,3.24-.7.35.03.59.12.74.28s.22.43.22.8c0,.43-.09.75-.28.96-.19.21-.48.32-.88.32-1.23,0-2.31.29-3.26.88s-1.68,1.42-2.2,2.5c-.52,1.08-.78,2.33-.78,3.74v10.52c0,.35-.1.61-.3.78-.2.17-.47.26-.82.26h-.28c-.35,0-.63-.09-.84-.26Z"/>
        <path class="cls-2" d="M92.1,128.86c-1.41-.91-2.5-2.17-3.26-3.8-.76-1.63-1.14-3.51-1.14-5.64s.38-4.05,1.14-5.68c.76-1.63,1.87-2.89,3.32-3.78,1.45-.89,3.18-1.34,5.18-1.34,1.57,0,2.95.29,4.12.86,1.17.57,2.07,1.33,2.7,2.28s.94,1.97.94,3.06c0,1.57-.62,2.79-1.86,3.64-1.24.85-3.07,1.28-5.5,1.28h-8.16v-1.92h7.88c1.81,0,3.13-.25,3.94-.76s1.22-1.28,1.22-2.32c0-1.2-.48-2.2-1.44-3s-2.25-1.2-3.88-1.2c-1.49,0-2.77.35-3.82,1.06-1.05.71-1.85,1.71-2.4,3-.55,1.29-.82,2.81-.82,4.54,0,2.8.64,4.99,1.92,6.56,1.28,1.57,3.04,2.36,5.28,2.36.99,0,1.97-.13,2.94-.38.97-.25,1.93-.59,2.86-1.02.29-.13.56-.17.8-.1s.43.22.56.46.16.48.08.72-.27.45-.56.64c-.93.56-2,1.01-3.2,1.34s-2.51.5-3.92.5c-1.87,0-3.51-.45-4.92-1.36Z"/>
        <path class="cls-2" d="M111.5,128.7c-1.2-1.01-1.8-2.43-1.8-4.24s.69-3.4,2.08-4.52,3.33-1.68,5.84-1.68h5.12v1.92h-4.84c-1.92,0-3.35.37-4.3,1.12-.95.75-1.42,1.79-1.42,3.12s.39,2.25,1.18,2.9c.79.65,1.87.98,3.26.98,1.2,0,2.27-.23,3.2-.7s1.85-1.17,2.76-2.1l-.32.92v-10.4c0-1.89-.43-3.25-1.28-4.08-.85-.83-2.16-1.24-3.92-1.24-.93,0-1.79.14-2.58.42-.79.28-1.62.69-2.5,1.22-.29.16-.56.24-.8.24s-.44-.12-.6-.36c-.16-.24-.21-.49-.16-.74.05-.25.21-.49.48-.7.85-.64,1.83-1.16,2.92-1.56,1.09-.4,2.29-.6,3.6-.6,1.55,0,2.87.25,3.96.76,1.09.51,1.94,1.31,2.54,2.4.6,1.09.9,2.49.9,4.2v12.84c0,.37-.09.65-.28.82-.19.17-.44.26-.76.26-.4,0-.71-.08-.94-.24s-.35-.43-.38-.8l-.12-2.16,1.12-.04c-.93,1.15-2.01,2.03-3.22,2.64-1.21.61-2.55.92-4.02.92-1.95,0-3.52-.51-4.72-1.52Z"/>
        <path class="cls-2" d="M134.12,128.76c-.89-.97-1.34-2.34-1.34-4.1v-14.6l.88.88h-3.32c-.32,0-.57-.08-.74-.24-.17-.16-.26-.37-.26-.64s.07-.48.2-.64c.13-.16.32-.25.56-.28.91-.05,1.56-.19,1.96-.4.4-.21.69-.65.86-1.3.17-.65.29-1.71.34-3.18.03-.32.13-.55.3-.7.17-.15.41-.22.7-.22h.12c.27,0,.49.08.68.24.19.16.28.39.28.68v5.32l-1-.64h6.24c.35,0,.61.09.78.26.17.17.26.42.26.74,0,.67-.35,1-1.04,1h-6.2l.96-.88v14.52c0,1.17.28,2.07.84,2.7.56.63,1.36.94,2.4.94.51,0,1.16-.09,1.96-.28.11,0,.27-.03.48-.08.19-.05.36-.04.52.04.16.08.28.21.36.4.08.21.09.42.02.62-.07.2-.21.37-.42.5-.45.29-.97.5-1.54.62s-1.29.18-2.14.18c-1.57,0-2.81-.49-3.7-1.46Z"/>
        <path class="cls-2" d="M149.34,128.86c-1.41-.91-2.5-2.17-3.26-3.8-.76-1.63-1.14-3.51-1.14-5.64s.38-4.05,1.14-5.68c.76-1.63,1.87-2.89,3.32-3.78,1.45-.89,3.18-1.34,5.18-1.34,1.57,0,2.95.29,4.12.86,1.17.57,2.07,1.33,2.7,2.28s.94,1.97.94,3.06c0,1.57-.62,2.79-1.86,3.64-1.24.85-3.07,1.28-5.5,1.28h-8.16v-1.92h7.88c1.81,0,3.13-.25,3.94-.76s1.22-1.28,1.22-2.32c0-1.2-.48-2.2-1.44-3s-2.25-1.2-3.88-1.2c-1.49,0-2.77.35-3.82,1.06-1.05.71-1.85,1.71-2.4,3-.55,1.29-.82,2.81-.82,4.54,0,2.8.64,4.99,1.92,6.56,1.28,1.57,3.04,2.36,5.28,2.36.99,0,1.97-.13,2.94-.38.97-.25,1.93-.59,2.86-1.02.29-.13.56-.17.8-.1s.43.22.56.46.16.48.08.72-.27.45-.56.64c-.93.56-2,1.01-3.2,1.34s-2.51.5-3.92.5c-1.87,0-3.51-.45-4.92-1.36Z"/>
        <path class="cls-2" d="M179.74,128.7c-1.2-1.01-1.8-2.43-1.8-4.24s.69-3.4,2.08-4.52,3.33-1.68,5.84-1.68h5.12v1.92h-4.84c-1.92,0-3.35.37-4.3,1.12-.95.75-1.42,1.79-1.42,3.12s.39,2.25,1.18,2.9c.79.65,1.87.98,3.26.98,1.2,0,2.27-.23,3.2-.7s1.85-1.17,2.76-2.1l-.32.92v-10.4c0-1.89-.43-3.25-1.28-4.08-.85-.83-2.16-1.24-3.92-1.24-.93,0-1.79.14-2.58.42-.79.28-1.62.69-2.5,1.22-.29.16-.56.24-.8.24s-.44-.12-.6-.36c-.16-.24-.21-.49-.16-.74.05-.25.21-.49.48-.7.85-.64,1.83-1.16,2.92-1.56,1.09-.4,2.29-.6,3.6-.6,1.55,0,2.87.25,3.96.76,1.09.51,1.94,1.31,2.54,2.4.6,1.09.9,2.49.9,4.2v12.84c0,.37-.09.65-.28.82-.19.17-.44.26-.76.26-.4,0-.71-.08-.94-.24s-.35-.43-.38-.8l-.12-2.16,1.12-.04c-.93,1.15-2.01,2.03-3.22,2.64-1.21.61-2.55.92-4.02.92-1.95,0-3.52-.51-4.72-1.52Z"/>
        <path class="cls-2" d="M215.72,129.22c-1.19-.67-2.29-1.63-3.3-2.88l1.2-.08v2.6c0,.35-.11.61-.32.78-.21.17-.47.26-.76.26h-.2c-.32,0-.59-.09-.8-.26-.21-.17-.32-.43-.32-.78v-27.84c0-.35.11-.61.32-.78.21-.17.49-.26.84-.26h.24c.35,0,.63.09.84.26.21.17.32.43.32.78v11.4l-1.16.04c1.01-1.23,2.11-2.17,3.28-2.84,1.17-.67,2.53-1,4.08-1,1.76,0,3.29.45,4.6,1.34,1.31.89,2.3,2.16,2.98,3.8.68,1.64,1.02,3.53,1.02,5.66s-.35,4.01-1.06,5.64c-.71,1.63-1.72,2.89-3.04,3.8-1.32.91-2.87,1.36-4.66,1.36-1.55,0-2.91-.33-4.1-1ZM222.86,127.04c1.01-.71,1.79-1.71,2.32-3.02s.8-2.84.8-4.6c0-2.69-.59-4.81-1.76-6.36-1.17-1.55-2.8-2.32-4.88-2.32-1.15,0-2.18.24-3.1.72-.92.48-1.85,1.19-2.78,2.12l.32-.96v13.52l-.36-.88c.93.93,1.86,1.64,2.78,2.12.92.48,1.95.72,3.1.72,1.36,0,2.55-.35,3.56-1.06Z"/>
        <path class="cls-2" d="M238.1,128.88c-1.41-.89-2.5-2.16-3.26-3.8-.76-1.64-1.14-3.53-1.14-5.66s.38-4.02,1.14-5.66c.76-1.64,1.85-2.91,3.26-3.8,1.41-.89,3.08-1.34,5-1.34s3.59.45,5,1.34c1.41.89,2.49,2.16,3.24,3.8.75,1.64,1.12,3.53,1.12,5.66s-.37,4.02-1.12,5.66c-.75,1.64-1.83,2.91-3.24,3.8-1.41.89-3.08,1.34-5,1.34s-3.59-.45-5-1.34ZM246.72,127.08c1.03-.71,1.81-1.71,2.34-3.02.53-1.31.8-2.85.8-4.64,0-2.69-.6-4.82-1.8-6.38-1.2-1.56-2.85-2.34-4.96-2.34-1.39,0-2.59.35-3.62,1.06-1.03.71-1.81,1.71-2.36,3.02-.55,1.31-.82,2.85-.82,4.64,0,2.69.61,4.82,1.82,6.38,1.21,1.56,2.87,2.34,4.98,2.34,1.39,0,2.59-.35,3.62-1.06Z"/>
        <path class="cls-2" d="M259.02,129.64c-.21-.17-.32-.43-.32-.78v-27.84c0-.35.11-.61.32-.78.21-.17.49-.26.84-.26h.24c.35,0,.63.09.84.26.21.17.32.43.32.78v27.84c0,.35-.11.61-.32.78-.21.17-.49.26-.84.26h-.24c-.35,0-.63-.09-.84-.26Z"/>
        <path class="cls-2" d="M271.5,128.88c-1.31-.89-2.31-2.16-3-3.8-.69-1.64-1.04-3.53-1.04-5.66s.36-4.01,1.08-5.64c.72-1.63,1.74-2.89,3.06-3.8,1.32-.91,2.87-1.36,4.66-1.36,1.55,0,2.91.33,4.1,1,1.19.67,2.29,1.61,3.3,2.84h-1.36v-11.44c0-.37.1-.64.3-.8.2-.16.47-.24.82-.24h.28c.35,0,.63.09.84.26.21.17.32.43.32.78v27.84c0,.35-.1.61-.3.78-.2.17-.46.26-.78.26-.4,0-.71-.09-.92-.26-.21-.17-.35-.43-.4-.78l-.16-2.72,1.16.2c-1.01,1.25-2.11,2.21-3.28,2.88-1.17.67-2.53,1-4.08,1-1.76,0-3.29-.45-4.6-1.34ZM279.84,127.38c.92-.48,1.83-1.19,2.74-2.12l-.28.92v-13.52l.32.92c-.91-.93-1.82-1.64-2.74-2.12-.92-.48-1.97-.72-3.14-.72-1.39,0-2.58.35-3.58,1.06-1,.71-1.77,1.71-2.3,3-.53,1.29-.8,2.83-.8,4.62,0,2.67.59,4.78,1.78,6.34,1.19,1.56,2.82,2.34,4.9,2.34,1.15,0,2.18-.24,3.1-.72Z"/>
        <path class="cls-2" d="M303.46,129.64c-.21-.17-.32-.43-.32-.78v-18.88c0-.35.11-.61.32-.78.21-.17.48-.26.8-.26h.2c.32,0,.58.09.78.26.2.17.3.43.3.78v2.48h-1.12c1.01-1.25,2.1-2.21,3.26-2.86,1.16-.65,2.54-.98,4.14-.98,1.49,0,2.75.29,3.78.86,1.03.57,1.78,1.47,2.26,2.7l-.8.28c1.01-1.25,2.12-2.21,3.32-2.86s2.61-.98,4.24-.98c2.19,0,3.85.61,5,1.84,1.15,1.23,1.72,3.17,1.72,5.84v12.56c0,.35-.1.61-.3.78-.2.17-.47.26-.82.26h-.28c-.35,0-.63-.09-.84-.26-.21-.17-.32-.43-.32-.78v-12.28c0-2.08-.4-3.57-1.2-4.48-.8-.91-2.01-1.36-3.64-1.36-1.23,0-2.3.25-3.22.74-.92.49-1.87,1.23-2.86,2.22l.24-.8c.29.96.44,2.09.44,3.4v12.56c0,.35-.11.61-.32.78s-.49.26-.84.26h-.24c-.35,0-.63-.09-.84-.26s-.32-.43-.32-.78v-12.28c0-2.08-.41-3.57-1.22-4.48-.81-.91-2.04-1.36-3.66-1.36-1.2,0-2.25.23-3.16.7-.91.47-1.83,1.18-2.76,2.14l.52-.96v16.24c0,.35-.1.61-.3.78-.2.17-.47.26-.82.26h-.28c-.35,0-.63-.09-.84-.26Z"/>
        <path class="cls-2" d="M341.78,128.86c-1.41-.91-2.5-2.17-3.26-3.8-.76-1.63-1.14-3.51-1.14-5.64s.38-4.05,1.14-5.68c.76-1.63,1.87-2.89,3.32-3.78,1.45-.89,3.18-1.34,5.18-1.34,1.57,0,2.95.29,4.12.86s2.07,1.33,2.7,2.28c.62.95.94,1.97.94,3.06,0,1.57-.62,2.79-1.86,3.64-1.24.85-3.07,1.28-5.5,1.28h-8.16v-1.92h7.88c1.81,0,3.13-.25,3.94-.76.81-.51,1.22-1.28,1.22-2.32,0-1.2-.48-2.2-1.44-3-.96-.8-2.25-1.2-3.88-1.2-1.49,0-2.77.35-3.82,1.06-1.05.71-1.85,1.71-2.4,3-.55,1.29-.82,2.81-.82,4.54,0,2.8.64,4.99,1.92,6.56,1.28,1.57,3.04,2.36,5.28,2.36.99,0,1.97-.13,2.94-.38.97-.25,1.93-.59,2.86-1.02.29-.13.56-.17.8-.1.24.07.43.22.56.46s.16.48.08.72-.27.45-.56.64c-.93.56-2,1.01-3.2,1.34s-2.51.5-3.92.5c-1.87,0-3.51-.45-4.92-1.36Z"/>
        <path class="cls-2" d="M361.06,129.64c-.21-.17-.32-.43-.32-.78v-18.88c0-.35.11-.61.32-.78.21-.17.48-.26.8-.26h.2c.32,0,.58.09.78.26.2.17.3.43.3.78v2.48h-1.12c1.01-1.25,2.1-2.21,3.26-2.86,1.16-.65,2.54-.98,4.14-.98,1.49,0,2.75.29,3.78.86,1.03.57,1.78,1.47,2.26,2.7l-.8.28c1.01-1.25,2.12-2.21,3.32-2.86s2.61-.98,4.24-.98c2.19,0,3.85.61,5,1.84,1.15,1.23,1.72,3.17,1.72,5.84v12.56c0,.35-.1.61-.3.78-.2.17-.47.26-.82.26h-.28c-.35,0-.63-.09-.84-.26-.21-.17-.32-.43-.32-.78v-12.28c0-2.08-.4-3.57-1.2-4.48-.8-.91-2.01-1.36-3.64-1.36-1.23,0-2.3.25-3.22.74-.92.49-1.87,1.23-2.86,2.22l.24-.8c.29.96.44,2.09.44,3.4v12.56c0,.35-.11.61-.32.78s-.49.26-.84.26h-.24c-.35,0-.63-.09-.84-.26s-.32-.43-.32-.78v-12.28c0-2.08-.41-3.57-1.22-4.48-.81-.91-2.04-1.36-3.66-1.36-1.2,0-2.25.23-3.16.7-.91.47-1.83,1.18-2.76,2.14l.52-.96v16.24c0,.35-.1.61-.3.78-.2.17-.47.26-.82.26h-.28c-.35,0-.63-.09-.84-.26Z"/>
        <path class="cls-2" d="M399.38,128.86c-1.41-.91-2.5-2.17-3.26-3.8-.76-1.63-1.14-3.51-1.14-5.64s.38-4.05,1.14-5.68c.76-1.63,1.87-2.89,3.32-3.78,1.45-.89,3.18-1.34,5.18-1.34,1.57,0,2.95.29,4.12.86s2.07,1.33,2.7,2.28c.62.95.94,1.97.94,3.06,0,1.57-.62,2.79-1.86,3.64-1.24.85-3.07,1.28-5.5,1.28h-8.16v-1.92h7.88c1.81,0,3.13-.25,3.94-.76.81-.51,1.22-1.28,1.22-2.32,0-1.2-.48-2.2-1.44-3-.96-.8-2.25-1.2-3.88-1.2-1.49,0-2.77.35-3.82,1.06-1.05.71-1.85,1.71-2.4,3-.55,1.29-.82,2.81-.82,4.54,0,2.8.64,4.99,1.92,6.56,1.28,1.57,3.04,2.36,5.28,2.36.99,0,1.97-.13,2.94-.38.97-.25,1.93-.59,2.86-1.02.29-.13.56-.17.8-.1.24.07.43.22.56.46s.16.48.08.72-.27.45-.56.64c-.93.56-2,1.01-3.2,1.34s-2.51.5-3.92.5c-1.87,0-3.51-.45-4.92-1.36Z"/>
        <path class="cls-2" d="M431.24,128.76c-.89-.97-1.34-2.34-1.34-4.1v-14.6l.88.88h-3.32c-.32,0-.57-.08-.74-.24s-.26-.37-.26-.64.07-.48.2-.64c.13-.16.32-.25.56-.28.91-.05,1.56-.19,1.96-.4.4-.21.69-.65.86-1.3s.29-1.71.34-3.18c.03-.32.13-.55.3-.7s.41-.22.7-.22h.12c.27,0,.49.08.68.24.19.16.28.39.28.68v5.32l-1-.64h6.24c.35,0,.61.09.78.26.17.17.26.42.26.74,0,.67-.35,1-1.04,1h-6.2l.96-.88v14.52c0,1.17.28,2.07.84,2.7.56.63,1.36.94,2.4.94.51,0,1.16-.09,1.96-.28.11,0,.27-.03.48-.08.19-.05.36-.04.52.04s.28.21.36.4c.08.21.09.42.02.62-.07.2-.21.37-.42.5-.45.29-.97.5-1.54.62-.57.12-1.29.18-2.14.18-1.57,0-2.81-.49-3.7-1.46Z"/>
        <path class="cls-2" d="M446.46,128.88c-1.41-.89-2.5-2.16-3.26-3.8-.76-1.64-1.14-3.53-1.14-5.66s.38-4.02,1.14-5.66c.76-1.64,1.85-2.91,3.26-3.8,1.41-.89,3.08-1.34,5-1.34s3.59.45,5,1.34c1.41.89,2.49,2.16,3.24,3.8.75,1.64,1.12,3.53,1.12,5.66s-.37,4.02-1.12,5.66c-.75,1.64-1.83,2.91-3.24,3.8-1.41.89-3.08,1.34-5,1.34s-3.59-.45-5-1.34ZM455.07,127.08c1.03-.71,1.81-1.71,2.34-3.02s.8-2.85.8-4.64c0-2.69-.6-4.82-1.8-6.38-1.2-1.56-2.85-2.34-4.96-2.34-1.39,0-2.59.35-3.62,1.06-1.03.71-1.81,1.71-2.36,3.02-.55,1.31-.82,2.85-.82,4.64,0,2.69.61,4.82,1.82,6.38,1.21,1.56,2.87,2.34,4.98,2.34,1.39,0,2.59-.35,3.62-1.06Z"/>
        <path class="cls-2" d="M467.37,129.64c-.21-.17-.32-.43-.32-.78v-27.84c0-.35.11-.61.32-.78.21-.17.49-.26.84-.26h.24c.35,0,.63.09.84.26.21.17.32.43.32.78v27.84c0,.35-.11.61-.32.78-.21.17-.49.26-.84.26h-.24c-.35,0-.62-.09-.84-.26ZM479.85,129.72c-.27-.12-.55-.34-.84-.66l-9.64-10.36-.08-.52,9.36-8.44c.32-.32.59-.53.8-.64s.48-.16.8-.16h.24c.29,0,.53.07.7.22.17.15.25.33.24.54-.01.21-.14.43-.38.64l-9.56,8.48.08-1.2,10.08,10.68c.24.24.36.49.36.74s-.09.46-.28.62c-.19.16-.43.24-.72.24h-.28c-.32,0-.62-.06-.88-.18Z"/>
        <path class="cls-2" d="M488.94,128.86c-1.41-.91-2.5-2.17-3.26-3.8-.76-1.63-1.14-3.51-1.14-5.64s.38-4.05,1.14-5.68c.76-1.63,1.87-2.89,3.32-3.78,1.45-.89,3.18-1.34,5.18-1.34,1.57,0,2.95.29,4.12.86s2.07,1.33,2.7,2.28c.62.95.94,1.97.94,3.06,0,1.57-.62,2.79-1.86,3.64-1.24.85-3.07,1.28-5.5,1.28h-8.16v-1.92h7.88c1.81,0,3.13-.25,3.94-.76.81-.51,1.22-1.28,1.22-2.32,0-1.2-.48-2.2-1.44-3-.96-.8-2.25-1.2-3.88-1.2-1.49,0-2.77.35-3.82,1.06-1.05.71-1.85,1.71-2.4,3-.55,1.29-.82,2.81-.82,4.54,0,2.8.64,4.99,1.92,6.56,1.28,1.57,3.04,2.36,5.28,2.36.99,0,1.97-.13,2.94-.38.97-.25,1.93-.59,2.86-1.02.29-.13.56-.17.8-.1.24.07.43.22.56.46s.16.48.08.72-.27.45-.56.64c-.93.56-2,1.01-3.2,1.34s-2.51.5-3.92.5c-1.87,0-3.51-.45-4.92-1.36Z"/>
        <path class="cls-2" d="M508.21,129.64c-.21-.17-.32-.43-.32-.78v-18.88c0-.35.11-.61.32-.78.21-.17.48-.26.8-.26h.2c.32,0,.58.09.78.26.2.17.3.43.3.78v2.48h-1.12c1.01-1.25,2.11-2.21,3.3-2.86,1.19-.65,2.59-.98,4.22-.98,2.24,0,3.96.61,5.18,1.84,1.21,1.23,1.82,3.17,1.82,5.84v12.56c0,.35-.11.61-.32.78-.21.17-.49.26-.84.26h-.24c-.35,0-.63-.09-.84-.26-.21-.17-.32-.43-.32-.78v-12.28c0-2.08-.42-3.57-1.26-4.48s-2.11-1.36-3.82-1.36c-1.25,0-2.35.24-3.3.72-.95.48-1.89,1.19-2.82,2.12l.52-.96v16.24c0,.35-.1.61-.3.78-.2.17-.47.26-.82.26h-.28c-.35,0-.63-.09-.84-.26Z"/>
        <path class="cls-2" d="M546.31,129.22c-1.19-.67-2.29-1.63-3.3-2.88l1.2-.08v2.6c0,.35-.11.61-.32.78-.21.17-.47.26-.76.26h-.2c-.32,0-.59-.09-.8-.26-.21-.17-.32-.43-.32-.78v-27.84c0-.35.11-.61.32-.78.21-.17.49-.26.84-.26h.24c.35,0,.63.09.84.26.21.17.32.43.32.78v11.4l-1.16.04c1.01-1.23,2.11-2.17,3.28-2.84,1.17-.67,2.53-1,4.08-1,1.76,0,3.29.45,4.6,1.34,1.31.89,2.3,2.16,2.98,3.8.68,1.64,1.02,3.53,1.02,5.66s-.35,4.01-1.06,5.64c-.71,1.63-1.72,2.89-3.04,3.8-1.32.91-2.88,1.36-4.66,1.36-1.55,0-2.91-.33-4.1-1ZM553.45,127.04c1.01-.71,1.79-1.71,2.32-3.02s.8-2.84.8-4.6c0-2.69-.59-4.81-1.76-6.36-1.17-1.55-2.8-2.32-4.88-2.32-1.15,0-2.18.24-3.1.72-.92.48-1.85,1.19-2.78,2.12l.32-.96v13.52l-.36-.88c.93.93,1.86,1.64,2.78,2.12.92.48,1.95.72,3.1.72,1.36,0,2.54-.35,3.56-1.06Z"/>
        <path class="cls-2" d="M567.03,128.36c-1.21-1.24-1.82-3.19-1.82-5.86v-12.52c0-.35.11-.61.32-.78.21-.17.49-.26.84-.26h.24c.35,0,.63.09.84.26.21.17.32.43.32.78v12.28c0,2.08.42,3.57,1.26,4.48.84.91,2.11,1.36,3.82,1.36,1.25,0,2.35-.24,3.3-.72.95-.48,1.89-1.19,2.82-2.12l-.52.92v-16.2c0-.37.1-.64.3-.8.2-.16.47-.24.82-.24h.28c.35,0,.62.09.84.26.21.17.32.43.32.78v18.88c0,.35-.11.61-.32.78-.21.17-.48.26-.8.26h-.2c-.32,0-.58-.09-.78-.26-.2-.17-.3-.43-.3-.78v-2.48l1.12-.04c-1.01,1.25-2.11,2.21-3.3,2.88-1.19.67-2.59,1-4.22,1-2.24,0-3.97-.62-5.18-1.86Z"/>
        <path class="cls-2" d="M588.38,103.98c-.27-.29-.4-.71-.4-1.24s.13-.94.4-1.22c.27-.28.65-.42,1.16-.42.53,0,.93.14,1.2.42.27.28.4.69.4,1.22,0,.56-.13.98-.4,1.26-.27.28-.67.42-1.2.42s-.89-.15-1.16-.44ZM588.57,129.64c-.21-.17-.32-.43-.32-.78v-18.88c0-.35.11-.61.32-.78.21-.17.49-.26.84-.26h.28c.35,0,.62.08.82.24.2.16.3.43.3.8v18.88c0,.35-.1.61-.3.78-.2.17-.47.26-.82.26h-.28c-.35,0-.63-.09-.84-.26Z"/>
        <path class="cls-2" d="M598.45,129.64c-.21-.17-.32-.43-.32-.78v-27.84c0-.35.11-.61.32-.78.21-.17.49-.26.84-.26h.24c.35,0,.63.09.84.26.21.17.32.43.32.78v27.84c0,.35-.11.61-.32.78-.21.17-.49.26-.84.26h-.24c-.35,0-.62-.09-.84-.26Z"/>
        <path class="cls-2" d="M610.35,128.76c-.89-.97-1.34-2.34-1.34-4.1v-14.6l.88.88h-3.32c-.32,0-.57-.08-.74-.24s-.26-.37-.26-.64.07-.48.2-.64c.13-.16.32-.25.56-.28.91-.05,1.56-.19,1.96-.4.4-.21.69-.65.86-1.3s.29-1.71.34-3.18c.03-.32.13-.55.3-.7s.41-.22.7-.22h.12c.27,0,.49.08.68.24.19.16.28.39.28.68v5.32l-1-.64h6.24c.35,0,.61.09.78.26.17.17.26.42.26.74,0,.67-.35,1-1.04,1h-6.2l.96-.88v14.52c0,1.17.28,2.07.84,2.7.56.63,1.36.94,2.4.94.51,0,1.16-.09,1.96-.28.11,0,.27-.03.48-.08.19-.05.36-.04.52.04s.28.21.36.4c.08.21.09.42.02.62-.07.2-.21.37-.42.5-.45.29-.97.5-1.54.62-.57.12-1.29.18-2.14.18-1.57,0-2.81-.49-3.7-1.46Z"/>
        <path class="cls-2" d="M637.49,128.88c-1.41-.89-2.5-2.16-3.26-3.8-.76-1.64-1.14-3.53-1.14-5.66s.38-4.02,1.14-5.66c.76-1.64,1.85-2.91,3.26-3.8,1.41-.89,3.08-1.34,5-1.34s3.59.45,5,1.34c1.41.89,2.49,2.16,3.24,3.8.75,1.64,1.12,3.53,1.12,5.66s-.37,4.02-1.12,5.66c-.75,1.64-1.83,2.91-3.24,3.8-1.41.89-3.08,1.34-5,1.34s-3.59-.45-5-1.34ZM646.11,127.08c1.03-.71,1.81-1.71,2.34-3.02s.8-2.85.8-4.64c0-2.69-.6-4.82-1.8-6.38-1.2-1.56-2.85-2.34-4.96-2.34-1.39,0-2.59.35-3.62,1.06-1.03.71-1.81,1.71-2.36,3.02-.55,1.31-.82,2.85-.82,4.64,0,2.69.61,4.82,1.82,6.38,1.21,1.56,2.87,2.34,4.98,2.34,1.39,0,2.59-.35,3.62-1.06Z"/>
        <path class="cls-2" d="M658.37,129.64c-.21-.17-.32-.43-.32-.78v-18.88c0-.35.11-.61.32-.78.21-.17.48-.26.8-.26h.2c.32,0,.58.09.78.26.2.17.3.43.3.78v2.48h-1.12c1.01-1.25,2.11-2.21,3.3-2.86,1.19-.65,2.59-.98,4.22-.98,2.24,0,3.96.61,5.18,1.84,1.21,1.23,1.82,3.17,1.82,5.84v12.56c0,.35-.11.61-.32.78-.21.17-.49.26-.84.26h-.24c-.35,0-.63-.09-.84-.26-.21-.17-.32-.43-.32-.78v-12.28c0-2.08-.42-3.57-1.26-4.48s-2.11-1.36-3.82-1.36c-1.25,0-2.35.24-3.3.72-.95.48-1.89,1.19-2.82,2.12l.52-.96v16.24c0,.35-.1.61-.3.78-.2.17-.47.26-.82.26h-.28c-.35,0-.63-.09-.84-.26Z"/>
        <path class="cls-2" d="M692.71,129.64c-.23-.17-.34-.43-.34-.78v-26.64c0-.45.13-.81.38-1.06.25-.25.61-.38,1.06-.38h6.72c2.05,0,3.8.34,5.24,1.02,1.44.68,2.53,1.65,3.28,2.9.75,1.25,1.12,2.76,1.12,4.52s-.38,3.23-1.14,4.5-1.86,2.25-3.3,2.94c-1.44.69-3.17,1.04-5.2,1.04h-6.04v-2.08h5.6c2.43,0,4.26-.53,5.5-1.6s1.86-2.65,1.86-4.76-.62-3.7-1.86-4.78-3.07-1.62-5.5-1.62h-5.68l.64-.84v26.84c0,.35-.12.61-.34.78s-.51.26-.86.26h-.28c-.35,0-.63-.09-.86-.26Z"/>
        <path class="cls-2" d="M718.21,128.88c-1.41-.89-2.5-2.16-3.26-3.8-.76-1.64-1.14-3.53-1.14-5.66s.38-4.02,1.14-5.66c.76-1.64,1.85-2.91,3.26-3.8,1.41-.89,3.08-1.34,5-1.34s3.59.45,5,1.34c1.41.89,2.49,2.16,3.24,3.8.75,1.64,1.12,3.53,1.12,5.66s-.37,4.02-1.12,5.66c-.75,1.64-1.83,2.91-3.24,3.8-1.41.89-3.08,1.34-5,1.34s-3.59-.45-5-1.34ZM726.83,127.08c1.03-.71,1.81-1.71,2.34-3.02s.8-2.85.8-4.64c0-2.69-.6-4.82-1.8-6.38-1.2-1.56-2.85-2.34-4.96-2.34-1.39,0-2.59.35-3.62,1.06-1.03.71-1.81,1.71-2.36,3.02-.55,1.31-.82,2.85-.82,4.64,0,2.69.61,4.82,1.82,6.38,1.21,1.56,2.87,2.34,4.98,2.34,1.39,0,2.59-.35,3.62-1.06Z"/>
        <path class="cls-2" d="M739.13,129.64c-.21-.17-.32-.43-.32-.78v-27.84c0-.35.11-.61.32-.78.21-.17.49-.26.84-.26h.24c.35,0,.63.09.84.26.21.17.32.43.32.78v27.84c0,.35-.11.61-.32.78-.21.17-.49.26-.84.26h-.24c-.35,0-.62-.09-.84-.26Z"/>
        <path class="cls-2" d="M747.27,138.04c-.2-.15-.33-.37-.38-.66-.03-.21.03-.41.16-.58.13-.17.33-.3.6-.38,1.44-.37,2.64-1.03,3.6-1.96.96-.93,1.63-2.16,2-3.68.16-.61.2-1.19.12-1.72s-.27-1.23-.56-2.08c-.05-.21-.11-.37-.16-.48l-5.72-16.4c-.13-.4-.11-.69.06-.88s.45-.28.82-.28h.28c.35,0,.64.06.88.18s.41.35.52.7l5.88,17.48h-.4l5.68-17.56c.08-.27.21-.47.4-.6.19-.13.43-.2.72-.2h.24c.37,0,.63.09.78.28s.15.48.02.88l-7,21.08c-.48,1.44-1.12,2.69-1.92,3.74s-1.69,1.86-2.66,2.42c-.97.56-1.97.85-2.98.88-.45.03-.78-.03-.98-.18Z"/>
        <path class="cls-2" d="M771.61,138.04c-1.2-.33-2.24-.75-3.12-1.26-.29-.19-.48-.39-.56-.62s-.04-.47.12-.74c.16-.24.35-.38.58-.42s.5,0,.82.14c1.01.4,1.97.71,2.86.94.89.23,1.79.34,2.7.34,2.08,0,3.71-.63,4.9-1.88,1.19-1.25,1.78-3,1.78-5.24v-3.28l1.16-.44c-1.04,1.25-2.14,2.21-3.3,2.86-1.16.65-2.52.98-4.06.98-1.79,0-3.33-.43-4.62-1.28s-2.29-2.06-2.98-3.62c-.7-1.56-1.04-3.38-1.04-5.46s.36-3.91,1.08-5.48c.72-1.57,1.74-2.79,3.06-3.66,1.32-.87,2.87-1.3,4.66-1.3,1.54,0,2.91.33,4.1,1,1.19.67,2.29,1.61,3.3,2.84l-1.2.24v-2.72c0-.35.1-.61.3-.78.2-.17.46-.26.78-.26h.2c.32,0,.59.09.8.26.21.17.32.43.32.78v19.4c0,1.84-.39,3.45-1.16,4.84-.77,1.39-1.85,2.45-3.22,3.2-1.37.75-2.94,1.12-4.7,1.12-1.17,0-2.36-.17-3.56-.5ZM779.25,126.66c.93-.48,1.85-1.19,2.76-2.12l-.32.92v-12.84l.32.92c-.91-.93-1.82-1.64-2.74-2.12-.92-.48-1.97-.72-3.14-.72-1.36,0-2.55.34-3.56,1.02-1.01.68-1.79,1.65-2.32,2.9-.53,1.25-.8,2.73-.8,4.44,0,2.59.59,4.62,1.78,6.1,1.19,1.48,2.82,2.22,4.9,2.22,1.15,0,2.19-.24,3.12-.72Z"/>
        <path class="cls-2" d="M794.81,128.88c-1.41-.89-2.5-2.16-3.26-3.8-.76-1.64-1.14-3.53-1.14-5.66s.38-4.02,1.14-5.66c.76-1.64,1.85-2.91,3.26-3.8,1.41-.89,3.08-1.34,5-1.34s3.59.45,5,1.34c1.41.89,2.49,2.16,3.24,3.8.75,1.64,1.12,3.53,1.12,5.66s-.37,4.02-1.12,5.66c-.75,1.64-1.83,2.91-3.24,3.8-1.41.89-3.08,1.34-5,1.34s-3.59-.45-5-1.34ZM803.43,127.08c1.03-.71,1.81-1.71,2.34-3.02s.8-2.85.8-4.64c0-2.69-.6-4.82-1.8-6.38-1.2-1.56-2.85-2.34-4.96-2.34-1.39,0-2.59.35-3.62,1.06-1.03.71-1.81,1.71-2.36,3.02-.55,1.31-.82,2.85-.82,4.64,0,2.69.61,4.82,1.82,6.38,1.21,1.56,2.87,2.34,4.98,2.34,1.39,0,2.59-.35,3.62-1.06Z"/>
        <path class="cls-2" d="M815.69,129.64c-.21-.17-.32-.43-.32-.78v-18.88c0-.35.11-.61.32-.78.21-.17.48-.26.8-.26h.2c.32,0,.58.09.78.26.2.17.3.43.3.78v2.48h-1.12c1.01-1.25,2.11-2.21,3.3-2.86,1.19-.65,2.59-.98,4.22-.98,2.24,0,3.96.61,5.18,1.84,1.21,1.23,1.82,3.17,1.82,5.84v12.56c0,.35-.11.61-.32.78-.21.17-.49.26-.84.26h-.24c-.35,0-.63-.09-.84-.26-.21-.17-.32-.43-.32-.78v-12.28c0-2.08-.42-3.57-1.26-4.48s-2.11-1.36-3.82-1.36c-1.25,0-2.35.24-3.3.72-.95.48-1.89,1.19-2.82,2.12l.52-.96v16.24c0,.35-.1.61-.3.78-.2.17-.47.26-.82.26h-.28c-.35,0-.63-.09-.84-.26Z"/>
        <path class="cls-2" d="M4.78,176.76c-.89-.97-1.34-2.34-1.34-4.1v-14.6l.88.88H1c-.32,0-.57-.08-.74-.24-.17-.16-.26-.37-.26-.64s.07-.48.2-.64c.13-.16.32-.25.56-.28.91-.05,1.56-.19,1.96-.4.4-.21.69-.65.86-1.3.17-.65.29-1.71.34-3.18.03-.32.13-.55.3-.7.17-.15.41-.22.7-.22h.12c.27,0,.49.08.68.24.19.16.28.39.28.68v5.32l-1-.64h6.24c.35,0,.61.09.78.26.17.17.26.42.26.74,0,.67-.35,1-1.04,1h-6.2l.96-.88v14.52c0,1.17.28,2.07.84,2.7.56.63,1.36.94,2.4.94.51,0,1.16-.09,1.96-.28.11,0,.27-.03.48-.08.19-.05.36-.04.52.04.16.08.28.21.36.4.08.21.09.42.02.62-.07.2-.21.37-.42.5-.45.29-.97.5-1.54.62s-1.29.18-2.14.18c-1.57,0-2.81-.49-3.7-1.46Z"/>
        <path class="cls-2" d="M17.96,177.64c-.21-.17-.32-.43-.32-.78v-27.84c0-.35.11-.61.32-.78.21-.17.49-.26.84-.26h.24c.35,0,.63.09.84.26.21.17.32.43.32.78v11.28l-1.24.16c1.01-1.25,2.1-2.21,3.26-2.86s2.55-.98,4.18-.98c2.24,0,3.97.61,5.18,1.84,1.21,1.23,1.82,3.17,1.82,5.84v12.56c0,.35-.1.61-.3.78s-.47.26-.82.26h-.28c-.35,0-.63-.09-.84-.26-.21-.17-.32-.43-.32-.78v-12.28c0-2.08-.42-3.57-1.26-4.48s-2.11-1.36-3.82-1.36c-1.25,0-2.35.24-3.3.72-.95.48-1.87,1.19-2.78,2.12l.52-.88v16.16c0,.35-.11.61-.32.78-.21.17-.49.26-.84.26h-.24c-.35,0-.63-.09-.84-.26Z"/>
        <path class="cls-2" d="M40.96,176.7c-1.2-1.01-1.8-2.43-1.8-4.24s.69-3.4,2.08-4.52,3.33-1.68,5.84-1.68h5.12v1.92h-4.84c-1.92,0-3.35.37-4.3,1.12-.95.75-1.42,1.79-1.42,3.12s.39,2.25,1.18,2.9c.79.65,1.87.98,3.26.98,1.2,0,2.27-.23,3.2-.7s1.85-1.17,2.76-2.1l-.32.92v-10.4c0-1.89-.43-3.25-1.28-4.08-.85-.83-2.16-1.24-3.92-1.24-.93,0-1.79.14-2.58.42-.79.28-1.62.69-2.5,1.22-.29.16-.56.24-.8.24s-.44-.12-.6-.36c-.16-.24-.21-.49-.16-.74.05-.25.21-.49.48-.7.85-.64,1.83-1.16,2.92-1.56,1.09-.4,2.29-.6,3.6-.6,1.55,0,2.87.25,3.96.76,1.09.51,1.94,1.31,2.54,2.4.6,1.09.9,2.49.9,4.2v12.84c0,.37-.09.65-.28.82-.19.17-.44.26-.76.26-.4,0-.71-.08-.94-.24s-.35-.43-.38-.8l-.12-2.16,1.12-.04c-.93,1.15-2.01,2.03-3.22,2.64-1.21.61-2.55.92-4.02.92-1.95,0-3.52-.51-4.72-1.52Z"/>
        <path class="cls-2" d="M63.58,176.76c-.89-.97-1.34-2.34-1.34-4.1v-14.6l.88.88h-3.32c-.32,0-.57-.08-.74-.24-.17-.16-.26-.37-.26-.64s.07-.48.2-.64c.13-.16.32-.25.56-.28.91-.05,1.56-.19,1.96-.4.4-.21.69-.65.86-1.3.17-.65.29-1.71.34-3.18.03-.32.13-.55.3-.7.17-.15.41-.22.7-.22h.12c.27,0,.49.08.68.24.19.16.28.39.28.68v5.32l-1-.64h6.24c.35,0,.61.09.78.26.17.17.26.42.26.74,0,.67-.35,1-1.04,1h-6.2l.96-.88v14.52c0,1.17.28,2.07.84,2.7.56.63,1.36.94,2.4.94.51,0,1.16-.09,1.96-.28.11,0,.27-.03.48-.08.19-.05.36-.04.52.04.16.08.28.21.36.4.08.21.09.42.02.62-.07.2-.21.37-.42.5-.45.29-.97.5-1.54.62s-1.29.18-2.14.18c-1.57,0-2.81-.49-3.7-1.46Z"/>
        <path class="cls-2" d="M87.76,177.64c-.21-.17-.32-.43-.32-.78v-27.84c0-.35.11-.61.32-.78.21-.17.49-.26.84-.26h.24c.35,0,.63.09.84.26.21.17.32.43.32.78v27.84c0,.35-.11.61-.32.78-.21.17-.49.26-.84.26h-.24c-.35,0-.63-.09-.84-.26Z"/>
        <path class="cls-2" d="M100.6,176.86c-1.41-.91-2.5-2.17-3.26-3.8-.76-1.63-1.14-3.51-1.14-5.64s.38-4.05,1.14-5.68c.76-1.63,1.87-2.89,3.32-3.78,1.45-.89,3.18-1.34,5.18-1.34,1.57,0,2.95.29,4.12.86,1.17.57,2.07,1.33,2.7,2.28s.94,1.97.94,3.06c0,1.57-.62,2.79-1.86,3.64-1.24.85-3.07,1.28-5.5,1.28h-8.16v-1.92h7.88c1.81,0,3.13-.25,3.94-.76s1.22-1.28,1.22-2.32c0-1.2-.48-2.2-1.44-3s-2.25-1.2-3.88-1.2c-1.49,0-2.77.35-3.82,1.06-1.05.71-1.85,1.71-2.4,3-.55,1.29-.82,2.81-.82,4.54,0,2.8.64,4.99,1.92,6.56,1.28,1.57,3.04,2.36,5.28,2.36.99,0,1.97-.13,2.94-.38.97-.25,1.93-.59,2.86-1.02.29-.13.56-.17.8-.1s.43.22.56.46.16.48.08.72-.27.45-.56.64c-.93.56-2,1.01-3.2,1.34s-2.51.5-3.92.5c-1.87,0-3.51-.45-4.92-1.36Z"/>
        <path class="cls-2" d="M124.48,177.68c-.21-.15-.37-.38-.48-.7l-6.72-18.88c-.13-.4-.11-.69.08-.88.19-.19.47-.28.84-.28h.28c.35,0,.63.07.86.2s.39.36.5.68l5.84,17.12-.52-.04,5.84-17.08c.13-.29.29-.51.48-.66.19-.15.43-.22.72-.22h.24c.35,0,.61.09.78.28.17.19.18.48.02.88l-6.68,18.88c-.11.32-.27.55-.48.7-.21.15-.45.22-.72.22h-.16c-.27,0-.51-.07-.72-.22Z"/>
        <path class="cls-2" d="M141.56,176.86c-1.41-.91-2.5-2.17-3.26-3.8-.76-1.63-1.14-3.51-1.14-5.64s.38-4.05,1.14-5.68c.76-1.63,1.87-2.89,3.32-3.78,1.45-.89,3.18-1.34,5.18-1.34,1.57,0,2.95.29,4.12.86,1.17.57,2.07,1.33,2.7,2.28s.94,1.97.94,3.06c0,1.57-.62,2.79-1.86,3.64-1.24.85-3.07,1.28-5.5,1.28h-8.16v-1.92h7.88c1.81,0,3.13-.25,3.94-.76s1.22-1.28,1.22-2.32c0-1.2-.48-2.2-1.44-3s-2.25-1.2-3.88-1.2c-1.49,0-2.77.35-3.82,1.06-1.05.71-1.85,1.71-2.4,3-.55,1.29-.82,2.81-.82,4.54,0,2.8.64,4.99,1.92,6.56,1.28,1.57,3.04,2.36,5.28,2.36.99,0,1.97-.13,2.94-.38.97-.25,1.93-.59,2.86-1.02.29-.13.56-.17.8-.1s.43.22.56.46.16.48.08.72-.27.45-.56.64c-.93.56-2,1.01-3.2,1.34s-2.51.5-3.92.5c-1.87,0-3.51-.45-4.92-1.36Z"/>
        <path class="cls-2" d="M160.84,177.64c-.21-.17-.32-.43-.32-.78v-18.88c0-.35.11-.61.32-.78.21-.17.48-.26.8-.26h.2c.32,0,.58.09.78.26.2.17.3.43.3.78v5.56l-.48-.32c.21-1.28.66-2.41,1.34-3.4.68-.99,1.51-1.74,2.5-2.26.99-.52,2.07-.75,3.24-.7.35.03.59.12.74.28s.22.43.22.8c0,.43-.09.75-.28.96-.19.21-.48.32-.88.32-1.23,0-2.31.29-3.26.88s-1.68,1.42-2.2,2.5c-.52,1.08-.78,2.33-.78,3.74v10.52c0,.35-.1.61-.3.78-.2.17-.47.26-.82.26h-.28c-.35,0-.63-.09-.84-.26Z"/>
        <path class="cls-2" d="M175.2,176.7c-1.2-1.01-1.8-2.43-1.8-4.24s.69-3.4,2.08-4.52,3.33-1.68,5.84-1.68h5.12v1.92h-4.84c-1.92,0-3.35.37-4.3,1.12-.95.75-1.42,1.79-1.42,3.12s.39,2.25,1.18,2.9c.79.65,1.87.98,3.26.98,1.2,0,2.27-.23,3.2-.7s1.85-1.17,2.76-2.1l-.32.92v-10.4c0-1.89-.43-3.25-1.28-4.08-.85-.83-2.16-1.24-3.92-1.24-.93,0-1.79.14-2.58.42-.79.28-1.62.69-2.5,1.22-.29.16-.56.24-.8.24s-.44-.12-.6-.36c-.16-.24-.21-.49-.16-.74.05-.25.21-.49.48-.7.85-.64,1.83-1.16,2.92-1.56,1.09-.4,2.29-.6,3.6-.6,1.55,0,2.87.25,3.96.76,1.09.51,1.94,1.31,2.54,2.4.6,1.09.9,2.49.9,4.2v12.84c0,.37-.09.65-.28.82-.19.17-.44.26-.76.26-.4,0-.71-.08-.94-.24s-.35-.43-.38-.8l-.12-2.16,1.12-.04c-.93,1.15-2.01,2.03-3.22,2.64-1.21.61-2.55.92-4.02.92-1.95,0-3.52-.51-4.72-1.52Z"/>
        <path class="cls-2" d="M199.32,186.04c-1.2-.33-2.24-.75-3.12-1.26-.29-.19-.48-.39-.56-.62s-.04-.47.12-.74c.16-.24.35-.38.58-.42s.5,0,.82.14c1.01.4,1.97.71,2.86.94s1.79.34,2.7.34c2.08,0,3.71-.63,4.9-1.88,1.19-1.25,1.78-3,1.78-5.24v-3.28l1.16-.44c-1.04,1.25-2.14,2.21-3.3,2.86s-2.51.98-4.06.98c-1.79,0-3.33-.43-4.62-1.28-1.29-.85-2.29-2.06-2.98-3.62-.69-1.56-1.04-3.38-1.04-5.46s.36-3.91,1.08-5.48c.72-1.57,1.74-2.79,3.06-3.66,1.32-.87,2.87-1.3,4.66-1.3,1.55,0,2.91.33,4.1,1,1.19.67,2.29,1.61,3.3,2.84l-1.2.24v-2.72c0-.35.1-.61.3-.78.2-.17.46-.26.78-.26h.2c.32,0,.59.09.8.26.21.17.32.43.32.78v19.4c0,1.84-.39,3.45-1.16,4.84-.77,1.39-1.85,2.45-3.22,3.2-1.37.75-2.94,1.12-4.7,1.12-1.17,0-2.36-.17-3.56-.5ZM206.96,174.66c.93-.48,1.85-1.19,2.76-2.12l-.32.92v-12.84l.32.92c-.91-.93-1.82-1.64-2.74-2.12-.92-.48-1.97-.72-3.14-.72-1.36,0-2.55.34-3.56,1.02-1.01.68-1.79,1.65-2.32,2.9-.53,1.25-.8,2.73-.8,4.44,0,2.59.59,4.62,1.78,6.1,1.19,1.48,2.82,2.22,4.9,2.22,1.15,0,2.19-.24,3.12-.72Z"/>
        <path class="cls-2" d="M222.52,176.86c-1.41-.91-2.5-2.17-3.26-3.8-.76-1.63-1.14-3.51-1.14-5.64s.38-4.05,1.14-5.68c.76-1.63,1.87-2.89,3.32-3.78,1.45-.89,3.18-1.34,5.18-1.34,1.57,0,2.95.29,4.12.86,1.17.57,2.07,1.33,2.7,2.28s.94,1.97.94,3.06c0,1.57-.62,2.79-1.86,3.64-1.24.85-3.07,1.28-5.5,1.28h-8.16v-1.92h7.88c1.81,0,3.13-.25,3.94-.76s1.22-1.28,1.22-2.32c0-1.2-.48-2.2-1.44-3s-2.25-1.2-3.88-1.2c-1.49,0-2.77.35-3.82,1.06-1.05.71-1.85,1.71-2.4,3-.55,1.29-.82,2.81-.82,4.54,0,2.8.64,4.99,1.92,6.56,1.28,1.57,3.04,2.36,5.28,2.36.99,0,1.97-.13,2.94-.38.97-.25,1.93-.59,2.86-1.02.29-.13.56-.17.8-.1s.43.22.56.46.16.48.08.72-.27.45-.56.64c-.93.56-2,1.01-3.2,1.34s-2.51.5-3.92.5c-1.87,0-3.51-.45-4.92-1.36Z"/>
        <path class="cls-2" d="M243.14,177.72c-1.13-.33-1.94-.7-2.42-1.1-.27-.21-.43-.43-.5-.66-.07-.23-.03-.46.1-.7.13-.24.32-.37.56-.4.24-.03.51.03.8.16.19.08.31.13.36.16.59.29,1.27.55,2.06.76.79.21,1.63.32,2.54.32,1.52,0,2.73-.38,3.64-1.14.91-.76,1.36-1.71,1.36-2.86,0-.61-.15-1.15-.44-1.62-.29-.47-.78-.89-1.46-1.26-.68-.37-1.58-.72-2.7-1.04l-.72-.2c-1.49-.43-2.67-.91-3.54-1.46s-1.47-1.15-1.82-1.82c-.35-.67-.52-1.44-.52-2.32,0-1.25.3-2.33.9-3.22.6-.89,1.42-1.57,2.46-2.02s2.23-.68,3.56-.68c1.12,0,2.19.15,3.22.46,1.03.31,1.81.66,2.34,1.06.29.21.47.43.54.66.07.23.02.46-.14.7-.16.24-.35.37-.58.4-.23.03-.49-.03-.78-.16-.11-.05-.21-.11-.32-.16-.67-.29-1.36-.53-2.08-.72s-1.44-.28-2.16-.28c-1.39,0-2.49.33-3.3,1-.81.67-1.22,1.55-1.22,2.64,0,.59.13,1.09.38,1.52.25.43.69.81,1.3,1.14.61.33,1.44.65,2.48.94l.72.2c1.55.43,2.78.93,3.7,1.5s1.58,1.22,1.98,1.94c.4.72.6,1.55.6,2.48,0,1.23-.31,2.32-.92,3.28-.61.96-1.47,1.7-2.58,2.22-1.11.52-2.38.78-3.82.78-1.25,0-2.45-.17-3.58-.5Z"/>
        <path class="cls-2" d="M272.86,176.76c-.89-.97-1.34-2.34-1.34-4.1v-14.6l.88.88h-3.32c-.32,0-.57-.08-.74-.24-.17-.16-.26-.37-.26-.64s.07-.48.2-.64c.13-.16.32-.25.56-.28.91-.05,1.56-.19,1.96-.4.4-.21.69-.65.86-1.3.17-.65.29-1.71.34-3.18.03-.32.13-.55.3-.7.17-.15.41-.22.7-.22h.12c.27,0,.49.08.68.24.19.16.28.39.28.68v5.32l-1-.64h6.24c.35,0,.61.09.78.26.17.17.26.42.26.74,0,.67-.35,1-1.04,1h-6.2l.96-.88v14.52c0,1.17.28,2.07.84,2.7.56.63,1.36.94,2.4.94.51,0,1.16-.09,1.96-.28.11,0,.27-.03.48-.08.19-.05.36-.04.52.04.16.08.28.21.36.4.08.21.09.42.02.62-.07.2-.21.37-.42.5-.45.29-.97.5-1.54.62s-1.29.18-2.14.18c-1.57,0-2.81-.49-3.7-1.46Z"/>
        <path class="cls-2" d="M286.04,177.64c-.21-.17-.32-.43-.32-.78v-27.84c0-.35.11-.61.32-.78.21-.17.49-.26.84-.26h.24c.35,0,.63.09.84.26.21.17.32.43.32.78v11.28l-1.24.16c1.01-1.25,2.1-2.21,3.26-2.86,1.16-.65,2.55-.98,4.18-.98,2.24,0,3.96.61,5.18,1.84,1.21,1.23,1.82,3.17,1.82,5.84v12.56c0,.35-.1.61-.3.78s-.47.26-.82.26h-.28c-.35,0-.62-.09-.84-.26s-.32-.43-.32-.78v-12.28c0-2.08-.42-3.57-1.26-4.48s-2.11-1.36-3.82-1.36c-1.25,0-2.36.24-3.3.72-.95.48-1.88,1.19-2.78,2.12l.52-.88v16.16c0,.35-.11.61-.32.78-.21.17-.49.26-.84.26h-.24c-.35,0-.63-.09-.84-.26Z"/>
        <path class="cls-2" d="M311.92,176.86c-1.41-.91-2.5-2.17-3.26-3.8-.76-1.63-1.14-3.51-1.14-5.64s.38-4.05,1.14-5.68c.76-1.63,1.87-2.89,3.32-3.78,1.45-.89,3.18-1.34,5.18-1.34,1.57,0,2.95.29,4.12.86s2.07,1.33,2.7,2.28c.62.95.94,1.97.94,3.06,0,1.57-.62,2.79-1.86,3.64-1.24.85-3.07,1.28-5.5,1.28h-8.16v-1.92h7.88c1.81,0,3.13-.25,3.94-.76.81-.51,1.22-1.28,1.22-2.32,0-1.2-.48-2.2-1.44-3-.96-.8-2.25-1.2-3.88-1.2-1.49,0-2.77.35-3.82,1.06-1.05.71-1.85,1.71-2.4,3-.55,1.29-.82,2.81-.82,4.54,0,2.8.64,4.99,1.92,6.56,1.28,1.57,3.04,2.36,5.28,2.36.99,0,1.97-.13,2.94-.38.97-.25,1.93-.59,2.86-1.02.29-.13.56-.17.8-.1.24.07.43.22.56.46s.16.48.08.72-.27.45-.56.64c-.93.56-2,1.01-3.2,1.34s-2.51.5-3.92.5c-1.87,0-3.51-.45-4.92-1.36Z"/>
        <path class="cls-2" d="M342.23,185.96c-.21-.17-.32-.43-.32-.78v-27.2c0-.35.11-.61.32-.78.21-.17.48-.26.8-.26h.2c.32,0,.58.09.78.26.2.17.3.43.3.78v2.56l-1-.08c1.01-1.23,2.11-2.17,3.28-2.84,1.17-.67,2.53-1,4.08-1,1.76,0,3.29.45,4.6,1.34,1.31.89,2.3,2.16,2.98,3.8.68,1.64,1.02,3.53,1.02,5.66s-.35,4.01-1.06,5.64c-.71,1.63-1.72,2.89-3.04,3.8-1.32.91-2.88,1.36-4.66,1.36-1.55,0-2.91-.33-4.1-1-1.19-.67-2.29-1.63-3.3-2.88l1.36.04v10.8c0,.35-.11.61-.32.78-.21.17-.49.26-.84.26h-.24c-.35,0-.62-.09-.84-.26ZM353.55,175.04c1.01-.71,1.79-1.71,2.32-3.02s.8-2.84.8-4.6c0-2.69-.59-4.81-1.76-6.36-1.17-1.55-2.8-2.32-4.88-2.32-1.15,0-2.18.24-3.1.72-.92.48-1.85,1.19-2.78,2.12l.32-.92v13.52l-.36-.92c.93.93,1.86,1.64,2.78,2.12.92.48,1.95.72,3.1.72,1.36,0,2.54-.35,3.56-1.06Z"/>
        <path class="cls-2" d="M368.79,176.88c-1.41-.89-2.5-2.16-3.26-3.8-.76-1.64-1.14-3.53-1.14-5.66s.38-4.02,1.14-5.66c.76-1.64,1.85-2.91,3.26-3.8,1.41-.89,3.08-1.34,5-1.34s3.59.45,5,1.34c1.41.89,2.49,2.16,3.24,3.8.75,1.64,1.12,3.53,1.12,5.66s-.37,4.02-1.12,5.66c-.75,1.64-1.83,2.91-3.24,3.8-1.41.89-3.08,1.34-5,1.34s-3.59-.45-5-1.34ZM377.41,175.08c1.03-.71,1.81-1.71,2.34-3.02s.8-2.85.8-4.64c0-2.69-.6-4.82-1.8-6.38-1.2-1.56-2.85-2.34-4.96-2.34-1.39,0-2.59.35-3.62,1.06-1.03.71-1.81,1.71-2.36,3.02-.55,1.31-.82,2.85-.82,4.64,0,2.69.61,4.82,1.82,6.38,1.21,1.56,2.87,2.34,4.98,2.34,1.39,0,2.59-.35,3.62-1.06Z"/>
        <path class="cls-2" d="M393.54,177.68c-.2-.15-.35-.37-.46-.66l-5.84-18.92c-.13-.4-.11-.69.08-.88.19-.19.47-.28.84-.28h.24c.37,0,.67.07.88.2.21.13.37.37.48.72l5.04,17.2-.56-.08,4.84-17.28c.08-.27.21-.46.38-.58s.39-.18.66-.18.49.06.66.18.3.31.38.58l4.84,17.28-.52-.08,5.04-17.12c.08-.27.22-.47.42-.62.2-.15.45-.22.74-.22h.24c.35,0,.6.09.76.28s.17.48.04.88l-5.72,18.92c-.19.59-.6.88-1.24.88-.29,0-.55-.07-.76-.22-.21-.15-.38-.37-.48-.66l-4.84-17.16h.68l-4.8,17.16c-.11.29-.27.51-.48.66-.21.15-.47.22-.76.22-.32,0-.58-.07-.78-.22Z"/>
        <path class="cls-2" d="M421.23,176.86c-1.41-.91-2.5-2.17-3.26-3.8-.76-1.63-1.14-3.51-1.14-5.64s.38-4.05,1.14-5.68c.76-1.63,1.87-2.89,3.32-3.78,1.45-.89,3.18-1.34,5.18-1.34,1.57,0,2.95.29,4.12.86s2.07,1.33,2.7,2.28c.62.95.94,1.97.94,3.06,0,1.57-.62,2.79-1.86,3.64-1.24.85-3.07,1.28-5.5,1.28h-8.16v-1.92h7.88c1.81,0,3.13-.25,3.94-.76.81-.51,1.22-1.28,1.22-2.32,0-1.2-.48-2.2-1.44-3-.96-.8-2.25-1.2-3.88-1.2-1.49,0-2.77.35-3.82,1.06-1.05.71-1.85,1.71-2.4,3-.55,1.29-.82,2.81-.82,4.54,0,2.8.64,4.99,1.92,6.56,1.28,1.57,3.04,2.36,5.28,2.36.99,0,1.97-.13,2.94-.38.97-.25,1.93-.59,2.86-1.02.29-.13.56-.17.8-.1.24.07.43.22.56.46s.16.48.08.72-.27.45-.56.64c-.93.56-2,1.01-3.2,1.34s-2.51.5-3.92.5c-1.87,0-3.51-.45-4.92-1.36Z"/>
        <path class="cls-2" d="M440.52,177.64c-.21-.17-.32-.43-.32-.78v-18.88c0-.35.11-.61.32-.78.21-.17.48-.26.8-.26h.2c.32,0,.58.09.78.26.2.17.3.43.3.78v5.56l-.48-.32c.21-1.28.66-2.41,1.34-3.4.68-.99,1.51-1.74,2.5-2.26.99-.52,2.07-.75,3.24-.7.35.03.59.12.74.28s.22.43.22.8c0,.43-.09.75-.28.96-.19.21-.48.32-.88.32-1.23,0-2.31.29-3.26.88-.95.59-1.68,1.42-2.2,2.5s-.78,2.33-.78,3.74v10.52c0,.35-.1.61-.3.78-.2.17-.47.26-.82.26h-.28c-.35,0-.63-.09-.84-.26Z"/>
        <path class="cls-2" d="M468.31,176.88c-1.41-.89-2.5-2.16-3.26-3.8-.76-1.64-1.14-3.53-1.14-5.66s.38-4.02,1.14-5.66c.76-1.64,1.85-2.91,3.26-3.8,1.41-.89,3.08-1.34,5-1.34s3.59.45,5,1.34c1.41.89,2.49,2.16,3.24,3.8.75,1.64,1.12,3.53,1.12,5.66s-.37,4.02-1.12,5.66c-.75,1.64-1.83,2.91-3.24,3.8-1.41.89-3.08,1.34-5,1.34s-3.59-.45-5-1.34ZM476.93,175.08c1.03-.71,1.81-1.71,2.34-3.02s.8-2.85.8-4.64c0-2.69-.6-4.82-1.8-6.38-1.2-1.56-2.85-2.34-4.96-2.34-1.39,0-2.59.35-3.62,1.06-1.03.71-1.81,1.71-2.36,3.02-.55,1.31-.82,2.85-.82,4.64,0,2.69.61,4.82,1.82,6.38,1.21,1.56,2.87,2.34,4.98,2.34,1.39,0,2.59-.35,3.62-1.06Z"/>
        <path class="cls-2" d="M486.87,158.68c-.16-.17-.24-.42-.24-.74,0-.67.35-1,1.04-1h10.12c.37,0,.64.09.8.26.16.17.24.42.24.74,0,.67-.35,1-1.04,1h-10.12c-.38,0-.64-.09-.8-.26ZM490.37,177.64c-.2-.17-.3-.43-.3-.78v-22.68c0-1.36.25-2.53.74-3.52.49-.99,1.19-1.73,2.1-2.24.91-.51,1.97-.76,3.2-.76.56,0,1.12.05,1.68.16.56.11,1,.25,1.32.44.27.16.44.35.52.56.08.21.07.44-.04.68-.08.19-.21.32-.4.4-.19.08-.43.09-.72.04-.05,0-.11,0-.18-.02-.07-.01-.13-.03-.18-.06-.24-.05-.51-.1-.82-.14s-.62-.06-.94-.06c-1.17,0-2.09.37-2.74,1.1-.65.73-.98,1.82-.98,3.26v22.84c0,.35-.11.61-.32.78s-.49.26-.84.26h-.28c-.35,0-.62-.09-.82-.26Z"/>
        <path class="cls-2" d="M516.49,176.86c-1.4-.91-2.48-2.17-3.24-3.8-.76-1.63-1.14-3.51-1.14-5.64s.39-4.01,1.16-5.64c.77-1.63,1.85-2.89,3.24-3.8,1.39-.91,3-1.36,4.84-1.36,1.07,0,2.09.11,3.06.34.97.23,1.88.58,2.74,1.06.29.16.48.37.56.62.08.25.05.5-.08.74-.13.24-.32.39-.56.46s-.51.03-.8-.1c-.8-.32-1.59-.57-2.38-.76-.79-.19-1.54-.28-2.26-.28-1.39,0-2.61.35-3.66,1.06-1.05.71-1.87,1.71-2.44,3.02-.57,1.31-.86,2.84-.86,4.6s.29,3.29.88,4.6c.59,1.31,1.41,2.31,2.48,3.02,1.07.71,2.29,1.06,3.68,1.06s3-.39,4.68-1.16c.29-.13.56-.17.8-.1s.43.22.56.46c.13.24.16.48.08.72s-.27.45-.56.64c-.85.51-1.78.9-2.78,1.18-1,.28-2.06.42-3.18.42-1.81,0-3.42-.45-4.82-1.36Z"/>
        <path class="cls-2" d="M533.63,177.64c-.21-.17-.32-.43-.32-.78v-18.88c0-.35.11-.61.32-.78.21-.17.48-.26.8-.26h.2c.32,0,.58.09.78.26.2.17.3.43.3.78v5.56l-.48-.32c.21-1.28.66-2.41,1.34-3.4.68-.99,1.51-1.74,2.5-2.26.99-.52,2.07-.75,3.24-.7.35.03.59.12.74.28s.22.43.22.8c0,.43-.09.75-.28.96-.19.21-.48.32-.88.32-1.23,0-2.31.29-3.26.88-.95.59-1.68,1.42-2.2,2.5s-.78,2.33-.78,3.74v10.52c0,.35-.1.61-.3.78-.2.17-.47.26-.82.26h-.28c-.35,0-.63-.09-.84-.26Z"/>
        <path class="cls-2" d="M546.73,186.04c-.2-.15-.33-.37-.38-.66-.03-.21.03-.41.16-.58.13-.17.33-.3.6-.38,1.44-.37,2.64-1.03,3.6-1.96.96-.93,1.63-2.16,2-3.68.16-.61.2-1.19.12-1.72s-.27-1.23-.56-2.08c-.05-.21-.11-.37-.16-.48l-5.72-16.4c-.13-.4-.11-.69.06-.88s.45-.28.82-.28h.28c.35,0,.64.06.88.18s.41.35.52.7l5.88,17.48h-.4l5.68-17.56c.08-.27.21-.47.4-.6.19-.13.43-.2.72-.2h.24c.37,0,.63.09.78.28s.15.48.02.88l-7,21.08c-.48,1.44-1.12,2.69-1.92,3.74s-1.69,1.86-2.66,2.42c-.97.56-1.97.85-2.98.88-.45.03-.78-.03-.98-.18Z"/>
        <path class="cls-2" d="M568.15,185.96c-.21-.17-.32-.43-.32-.78v-27.2c0-.35.11-.61.32-.78.21-.17.48-.26.8-.26h.2c.32,0,.58.09.78.26.2.17.3.43.3.78v2.56l-1-.08c1.01-1.23,2.11-2.17,3.28-2.84,1.17-.67,2.53-1,4.08-1,1.76,0,3.29.45,4.6,1.34,1.31.89,2.3,2.16,2.98,3.8.68,1.64,1.02,3.53,1.02,5.66s-.35,4.01-1.06,5.64c-.71,1.63-1.72,2.89-3.04,3.8-1.32.91-2.88,1.36-4.66,1.36-1.55,0-2.91-.33-4.1-1-1.19-.67-2.29-1.63-3.3-2.88l1.36.04v10.8c0,.35-.11.61-.32.78-.21.17-.49.26-.84.26h-.24c-.35,0-.62-.09-.84-.26ZM579.47,175.04c1.01-.71,1.79-1.71,2.32-3.02s.8-2.84.8-4.6c0-2.69-.59-4.81-1.76-6.36-1.17-1.55-2.8-2.32-4.88-2.32-1.15,0-2.18.24-3.1.72-.92.48-1.85,1.19-2.78,2.12l.32-.92v13.52l-.36-.92c.93.93,1.86,1.64,2.78,2.12.92.48,1.95.72,3.1.72,1.36,0,2.54-.35,3.56-1.06Z"/>
        <path class="cls-2" d="M593.49,176.76c-.89-.97-1.34-2.34-1.34-4.1v-14.6l.88.88h-3.32c-.32,0-.57-.08-.74-.24s-.26-.37-.26-.64.07-.48.2-.64c.13-.16.32-.25.56-.28.91-.05,1.56-.19,1.96-.4.4-.21.69-.65.86-1.3s.29-1.71.34-3.18c.03-.32.13-.55.3-.7s.41-.22.7-.22h.12c.27,0,.49.08.68.24.19.16.28.39.28.68v5.32l-1-.64h6.24c.35,0,.61.09.78.26.17.17.26.42.26.74,0,.67-.35,1-1.04,1h-6.2l.96-.88v14.52c0,1.17.28,2.07.84,2.7.56.63,1.36.94,2.4.94.51,0,1.16-.09,1.96-.28.11,0,.27-.03.48-.08.19-.05.36-.04.52.04s.28.21.36.4c.08.21.09.42.02.62-.07.2-.21.37-.42.5-.45.29-.97.5-1.54.62-.57.12-1.29.18-2.14.18-1.57,0-2.81-.49-3.7-1.46Z"/>
        <path class="cls-2" d="M608.71,176.88c-1.41-.89-2.5-2.16-3.26-3.8-.76-1.64-1.14-3.53-1.14-5.66s.38-4.02,1.14-5.66c.76-1.64,1.85-2.91,3.26-3.8,1.41-.89,3.08-1.34,5-1.34s3.59.45,5,1.34c1.41.89,2.49,2.16,3.24,3.8.75,1.64,1.12,3.53,1.12,5.66s-.37,4.02-1.12,5.66c-.75,1.64-1.83,2.91-3.24,3.8-1.41.89-3.08,1.34-5,1.34s-3.59-.45-5-1.34ZM617.33,175.08c1.03-.71,1.81-1.71,2.34-3.02s.8-2.85.8-4.64c0-2.69-.6-4.82-1.8-6.38-1.2-1.56-2.85-2.34-4.96-2.34-1.39,0-2.59.35-3.62,1.06-1.03.71-1.81,1.71-2.36,3.02-.55,1.31-.82,2.85-.82,4.64,0,2.69.61,4.82,1.82,6.38,1.21,1.56,2.87,2.34,4.98,2.34,1.39,0,2.59-.35,3.62-1.06Z"/>
        <path class="cls-2" d="M643.53,177.2c-1.43-.68-2.54-1.65-3.34-2.9-.8-1.25-1.2-2.71-1.2-4.36s.4-3,1.2-4.12c.8-1.12,1.73-1.99,2.8-2.6,1.07-.61,2.45-1.31,4.16-2.08,1.38-.53,2.57-1.07,3.54-1.62.97-.55,1.77-1.21,2.38-2,.61-.79.92-1.7.92-2.74,0-1.28-.43-2.34-1.3-3.18s-1.98-1.26-3.34-1.26-2.51.42-3.38,1.26c-.87.84-1.3,1.93-1.3,3.26,0,1.09.32,2.14.96,3.14.64,1,1.65,2.17,3.04,3.5l14,14.8c.27.29.41.56.44.8s-.05.43-.22.58c-.17.15-.42.22-.74.22h-.28c-.37,0-.71-.07-1-.2-.29-.13-.6-.37-.92-.72l-13.2-14c-1.47-1.55-2.58-2.94-3.34-4.18-.76-1.24-1.14-2.55-1.14-3.94,0-1.23.3-2.33.9-3.3s1.43-1.73,2.5-2.28c1.07-.55,2.28-.82,3.64-.82s2.53.27,3.6.82c1.07.55,1.89,1.3,2.48,2.26.59.96.88,2.04.88,3.24,0,1.39-.39,2.57-1.16,3.56s-1.68,1.78-2.72,2.38c-1.04.6-2.46,1.3-4.24,2.1-1.52.69-2.71,1.29-3.56,1.8-.85.51-1.59,1.18-2.2,2.02-.62.84-.92,1.89-.92,3.14s.3,2.37.9,3.34c.6.97,1.45,1.73,2.54,2.26,1.09.53,2.33.8,3.72.8,1.97,0,3.8-.54,5.48-1.62s3.03-2.67,4.06-4.76c1.03-2.09,1.57-4.57,1.62-7.42.03-.29.12-.51.28-.66s.38-.22.68-.22h.24c.29,0,.53.09.72.28.19.19.28.47.28.84,0,3.17-.63,5.94-1.88,8.3-1.25,2.36-2.93,4.17-5.02,5.42-2.09,1.25-4.34,1.88-6.74,1.88-1.79,0-3.39-.34-4.82-1.02Z"/>
        <path class="cls-2" d="M682.73,176.86c-1.4-.91-2.48-2.17-3.24-3.8-.76-1.63-1.14-3.51-1.14-5.64s.39-4.01,1.16-5.64c.77-1.63,1.85-2.89,3.24-3.8,1.39-.91,3-1.36,4.84-1.36,1.07,0,2.09.11,3.06.34.97.23,1.88.58,2.74,1.06.29.16.48.37.56.62.08.25.05.5-.08.74-.13.24-.32.39-.56.46s-.51.03-.8-.1c-.8-.32-1.59-.57-2.38-.76-.79-.19-1.54-.28-2.26-.28-1.39,0-2.61.35-3.66,1.06-1.05.71-1.87,1.71-2.44,3.02-.57,1.31-.86,2.84-.86,4.6s.29,3.29.88,4.6c.59,1.31,1.41,2.31,2.48,3.02,1.07.71,2.29,1.06,3.68,1.06s3-.39,4.68-1.16c.29-.13.56-.17.8-.1s.43.22.56.46c.13.24.16.48.08.72s-.27.45-.56.64c-.85.51-1.78.9-2.78,1.18-1,.28-2.06.42-3.18.42-1.81,0-3.42-.45-4.82-1.36Z"/>
        <path class="cls-2" d="M702.35,176.88c-1.41-.89-2.5-2.16-3.26-3.8-.76-1.64-1.14-3.53-1.14-5.66s.38-4.02,1.14-5.66c.76-1.64,1.85-2.91,3.26-3.8,1.41-.89,3.08-1.34,5-1.34s3.59.45,5,1.34c1.41.89,2.49,2.16,3.24,3.8.75,1.64,1.12,3.53,1.12,5.66s-.37,4.02-1.12,5.66c-.75,1.64-1.83,2.91-3.24,3.8-1.41.89-3.08,1.34-5,1.34s-3.59-.45-5-1.34ZM710.97,175.08c1.03-.71,1.81-1.71,2.34-3.02s.8-2.85.8-4.64c0-2.69-.6-4.82-1.8-6.38-1.2-1.56-2.85-2.34-4.96-2.34-1.39,0-2.59.35-3.62,1.06-1.03.71-1.81,1.71-2.36,3.02-.55,1.31-.82,2.85-.82,4.64,0,2.69.61,4.82,1.82,6.38,1.21,1.56,2.87,2.34,4.98,2.34,1.39,0,2.59-.35,3.62-1.06Z"/>
        <path class="cls-2" d="M723.23,177.64c-.21-.17-.32-.43-.32-.78v-18.88c0-.35.11-.61.32-.78.21-.17.48-.26.8-.26h.2c.32,0,.58.09.78.26.2.17.3.43.3.78v2.48h-1.12c1.01-1.25,2.1-2.21,3.26-2.86,1.16-.65,2.54-.98,4.14-.98,1.49,0,2.75.29,3.78.86,1.03.57,1.78,1.47,2.26,2.7l-.8.28c1.01-1.25,2.12-2.21,3.32-2.86s2.61-.98,4.24-.98c2.19,0,3.85.61,5,1.84,1.15,1.23,1.72,3.17,1.72,5.84v12.56c0,.35-.1.61-.3.78-.2.17-.47.26-.82.26h-.28c-.35,0-.63-.09-.84-.26-.21-.17-.32-.43-.32-.78v-12.28c0-2.08-.4-3.57-1.2-4.48-.8-.91-2.01-1.36-3.64-1.36-1.23,0-2.3.25-3.22.74-.92.49-1.87,1.23-2.86,2.22l.24-.8c.29.96.44,2.09.44,3.4v12.56c0,.35-.11.61-.32.78s-.49.26-.84.26h-.24c-.35,0-.63-.09-.84-.26s-.32-.43-.32-.78v-12.28c0-2.08-.41-3.57-1.22-4.48-.81-.91-2.04-1.36-3.66-1.36-1.2,0-2.25.23-3.16.7-.91.47-1.83,1.18-2.76,2.14l.52-.96v16.24c0,.35-.1.61-.3.78-.2.17-.47.26-.82.26h-.28c-.35,0-.63-.09-.84-.26Z"/>
        <path class="cls-2" d="M758.55,177.64c-.21-.17-.32-.43-.32-.78v-18.88c0-.35.11-.61.32-.78.21-.17.48-.26.8-.26h.2c.32,0,.58.09.78.26.2.17.3.43.3.78v2.48h-1.12c1.01-1.25,2.1-2.21,3.26-2.86,1.16-.65,2.54-.98,4.14-.98,1.49,0,2.75.29,3.78.86,1.03.57,1.78,1.47,2.26,2.7l-.8.28c1.01-1.25,2.12-2.21,3.32-2.86s2.61-.98,4.24-.98c2.19,0,3.85.61,5,1.84,1.15,1.23,1.72,3.17,1.72,5.84v12.56c0,.35-.1.61-.3.78-.2.17-.47.26-.82.26h-.28c-.35,0-.63-.09-.84-.26-.21-.17-.32-.43-.32-.78v-12.28c0-2.08-.4-3.57-1.2-4.48-.8-.91-2.01-1.36-3.64-1.36-1.23,0-2.3.25-3.22.74-.92.49-1.87,1.23-2.86,2.22l.24-.8c.29.96.44,2.09.44,3.4v12.56c0,.35-.11.61-.32.78s-.49.26-.84.26h-.24c-.35,0-.63-.09-.84-.26s-.32-.43-.32-.78v-12.28c0-2.08-.41-3.57-1.22-4.48-.81-.91-2.04-1.36-3.66-1.36-1.2,0-2.25.23-3.16.7-.91.47-1.83,1.18-2.76,2.14l.52-.96v16.24c0,.35-.1.61-.3.78-.2.17-.47.26-.82.26h-.28c-.35,0-.63-.09-.84-.26Z"/>
        <path class="cls-2" d="M795.21,176.36c-1.21-1.24-1.82-3.19-1.82-5.86v-12.52c0-.35.11-.61.32-.78.21-.17.49-.26.84-.26h.24c.35,0,.63.09.84.26.21.17.32.43.32.78v12.28c0,2.08.42,3.57,1.26,4.48.84.91,2.11,1.36,3.82,1.36,1.25,0,2.35-.24,3.3-.72.95-.48,1.89-1.19,2.82-2.12l-.52.92v-16.2c0-.37.1-.64.3-.8.2-.16.47-.24.82-.24h.28c.35,0,.62.09.84.26.21.17.32.43.32.78v18.88c0,.35-.11.61-.32.78-.21.17-.48.26-.8.26h-.2c-.32,0-.58-.09-.78-.26-.2-.17-.3-.43-.3-.78v-2.48l1.12-.04c-1.01,1.25-2.11,2.21-3.3,2.88-1.19.67-2.59,1-4.22,1-2.24,0-3.97-.62-5.18-1.86Z"/>
        <path class="cls-2" d="M816.75,177.64c-.21-.17-.32-.43-.32-.78v-18.88c0-.35.11-.61.32-.78.21-.17.48-.26.8-.26h.2c.32,0,.58.09.78.26.2.17.3.43.3.78v2.48h-1.12c1.01-1.25,2.11-2.21,3.3-2.86,1.19-.65,2.59-.98,4.22-.98,2.24,0,3.96.61,5.18,1.84,1.21,1.23,1.82,3.17,1.82,5.84v12.56c0,.35-.11.61-.32.78-.21.17-.49.26-.84.26h-.24c-.35,0-.63-.09-.84-.26-.21-.17-.32-.43-.32-.78v-12.28c0-2.08-.42-3.57-1.26-4.48s-2.11-1.36-3.82-1.36c-1.25,0-2.35.24-3.3.72-.95.48-1.89,1.19-2.82,2.12l.52-.96v16.24c0,.35-.1.61-.3.78-.2.17-.47.26-.82.26h-.28c-.35,0-.63-.09-.84-.26Z"/>
        <path class="cls-2" d="M839.43,151.98c-.27-.29-.4-.71-.4-1.24s.13-.94.4-1.22c.27-.28.65-.42,1.16-.42.53,0,.93.14,1.2.42.27.28.4.69.4,1.22,0,.56-.13.98-.4,1.26-.27.28-.67.42-1.2.42s-.89-.15-1.16-.44ZM839.63,177.64c-.21-.17-.32-.43-.32-.78v-18.88c0-.35.11-.61.32-.78.21-.17.49-.26.84-.26h.28c.35,0,.62.08.82.24.2.16.3.43.3.8v18.88c0,.35-.1.61-.3.78-.2.17-.47.26-.82.26h-.28c-.35,0-.63-.09-.84-.26Z"/>
        <path class="cls-2" d="M851.53,176.76c-.89-.97-1.34-2.34-1.34-4.1v-14.6l.88.88h-3.32c-.32,0-.57-.08-.74-.24s-.26-.37-.26-.64.07-.48.2-.64c.13-.16.32-.25.56-.28.91-.05,1.56-.19,1.96-.4.4-.21.69-.65.86-1.3s.29-1.71.34-3.18c.03-.32.13-.55.3-.7s.41-.22.7-.22h.12c.27,0,.49.08.68.24.19.16.28.39.28.68v5.32l-1-.64h6.24c.35,0,.61.09.78.26.17.17.26.42.26.74,0,.67-.35,1-1.04,1h-6.2l.96-.88v14.52c0,1.17.28,2.07.84,2.7.56.63,1.36.94,2.4.94.51,0,1.16-.09,1.96-.28.11,0,.27-.03.48-.08.19-.05.36-.04.52.04s.28.21.36.4c.08.21.09.42.02.62-.07.2-.21.37-.42.5-.45.29-.97.5-1.54.62-.57.12-1.29.18-2.14.18-1.57,0-2.81-.49-3.7-1.46Z"/>
        <path class="cls-2" d="M862.77,186.04c-.2-.15-.33-.37-.38-.66-.03-.21.03-.41.16-.58.13-.17.33-.3.6-.38,1.44-.37,2.64-1.03,3.6-1.96.96-.93,1.63-2.16,2-3.68.16-.61.2-1.19.12-1.72s-.27-1.23-.56-2.08c-.05-.21-.11-.37-.16-.48l-5.72-16.4c-.13-.4-.11-.69.06-.88s.45-.28.82-.28h.28c.35,0,.64.06.88.18s.41.35.52.7l5.88,17.48h-.4l5.68-17.56c.08-.27.21-.47.4-.6.19-.13.43-.2.72-.2h.24c.37,0,.63.09.78.28s.15.48.02.88l-7,21.08c-.48,1.44-1.12,2.69-1.92,3.74s-1.69,1.86-2.66,2.42c-.97.56-1.97.85-2.98.88-.45.03-.78-.03-.98-.18Z"/>
        <path class="cls-2" d="M104.26,224.76c-.89-.97-1.34-2.34-1.34-4.1v-14.6l.88.88h-3.32c-.32,0-.57-.08-.74-.24-.17-.16-.26-.37-.26-.64s.07-.48.2-.64c.13-.16.32-.25.56-.28.91-.05,1.56-.19,1.96-.4.4-.21.69-.65.86-1.3.17-.65.29-1.71.34-3.18.03-.32.13-.55.3-.7.17-.15.41-.22.7-.22h.12c.27,0,.49.08.68.24.19.16.28.39.28.68v5.32l-1-.64h6.24c.35,0,.61.09.78.26.17.17.26.42.26.74,0,.67-.35,1-1.04,1h-6.2l.96-.88v14.52c0,1.17.28,2.07.84,2.7.56.63,1.36.94,2.4.94.51,0,1.16-.09,1.96-.28.11,0,.27-.03.48-.08.19-.05.36-.04.52.04.16.08.28.21.36.4.08.21.09.42.02.62-.07.2-.21.37-.42.5-.45.29-.97.5-1.54.62s-1.29.18-2.14.18c-1.57,0-2.81-.49-3.7-1.46Z"/>
        <path class="cls-2" d="M119.48,224.88c-1.41-.89-2.5-2.16-3.26-3.8-.76-1.64-1.14-3.53-1.14-5.66s.38-4.02,1.14-5.66c.76-1.64,1.85-2.91,3.26-3.8,1.41-.89,3.08-1.34,5-1.34s3.59.45,5,1.34c1.41.89,2.49,2.16,3.24,3.8.75,1.64,1.12,3.53,1.12,5.66s-.37,4.02-1.12,5.66c-.75,1.64-1.83,2.91-3.24,3.8-1.41.89-3.08,1.34-5,1.34s-3.59-.45-5-1.34ZM128.1,223.08c1.03-.71,1.81-1.71,2.34-3.02.53-1.31.8-2.85.8-4.64,0-2.69-.6-4.82-1.8-6.38-1.2-1.56-2.85-2.34-4.96-2.34-1.39,0-2.59.35-3.62,1.06-1.03.71-1.81,1.71-2.36,3.02-.55,1.31-.82,2.85-.82,4.64,0,2.69.61,4.82,1.82,6.38,1.21,1.56,2.87,2.34,4.98,2.34,1.39,0,2.59-.35,3.62-1.06Z"/>
        <path class="cls-2" d="M152.7,225.72c-1.13-.33-1.94-.7-2.42-1.1-.27-.21-.43-.43-.5-.66-.07-.23-.03-.46.1-.7.13-.24.32-.37.56-.4.24-.03.51.03.8.16.19.08.31.13.36.16.59.29,1.27.55,2.06.76.79.21,1.63.32,2.54.32,1.52,0,2.73-.38,3.64-1.14.91-.76,1.36-1.71,1.36-2.86,0-.61-.15-1.15-.44-1.62-.29-.47-.78-.89-1.46-1.26-.68-.37-1.58-.72-2.7-1.04l-.72-.2c-1.49-.43-2.67-.91-3.54-1.46s-1.47-1.15-1.82-1.82c-.35-.67-.52-1.44-.52-2.32,0-1.25.3-2.33.9-3.22.6-.89,1.42-1.57,2.46-2.02s2.23-.68,3.56-.68c1.12,0,2.19.15,3.22.46,1.03.31,1.81.66,2.34,1.06.29.21.47.43.54.66.07.23.02.46-.14.7-.16.24-.35.37-.58.4-.23.03-.49-.03-.78-.16-.11-.05-.21-.11-.32-.16-.67-.29-1.36-.53-2.08-.72s-1.44-.28-2.16-.28c-1.39,0-2.49.33-3.3,1-.81.67-1.22,1.55-1.22,2.64,0,.59.13,1.09.38,1.52.25.43.69.81,1.3,1.14.61.33,1.44.65,2.48.94l.72.2c1.55.43,2.78.93,3.7,1.5s1.58,1.22,1.98,1.94c.4.72.6,1.55.6,2.48,0,1.23-.31,2.32-.92,3.28-.61.96-1.47,1.7-2.58,2.22-1.11.52-2.38.78-3.82.78-1.25,0-2.45-.17-3.58-.5Z"/>
        <path class="cls-2" d="M171.18,224.36c-1.21-1.24-1.82-3.19-1.82-5.86v-12.52c0-.35.11-.61.32-.78.21-.17.49-.26.84-.26h.24c.35,0,.63.09.84.26.21.17.32.43.32.78v12.28c0,2.08.42,3.57,1.26,4.48.84.91,2.11,1.36,3.82,1.36,1.25,0,2.35-.24,3.3-.72.95-.48,1.89-1.19,2.82-2.12l-.52.92v-16.2c0-.37.1-.64.3-.8s.47-.24.82-.24h.28c.35,0,.63.09.84.26.21.17.32.43.32.78v18.88c0,.35-.11.61-.32.78-.21.17-.48.26-.8.26h-.2c-.32,0-.58-.09-.78-.26s-.3-.43-.3-.78v-2.48l1.12-.04c-1.01,1.25-2.11,2.21-3.3,2.88-1.19.67-2.59,1-4.22,1-2.24,0-3.97-.62-5.18-1.86Z"/>
        <path class="cls-2" d="M192.76,233.96c-.21-.17-.32-.43-.32-.78v-27.2c0-.35.11-.61.32-.78.21-.17.48-.26.8-.26h.2c.32,0,.58.09.78.26.2.17.3.43.3.78v2.56l-1-.08c1.01-1.23,2.11-2.17,3.28-2.84,1.17-.67,2.53-1,4.08-1,1.76,0,3.29.45,4.6,1.34,1.31.89,2.3,2.16,2.98,3.8.68,1.64,1.02,3.53,1.02,5.66s-.35,4.01-1.06,5.64c-.71,1.63-1.72,2.89-3.04,3.8-1.32.91-2.87,1.36-4.66,1.36-1.55,0-2.91-.33-4.1-1s-2.29-1.63-3.3-2.88l1.36.04v10.8c0,.35-.11.61-.32.78-.21.17-.49.26-.84.26h-.24c-.35,0-.63-.09-.84-.26ZM204.08,223.04c1.01-.71,1.79-1.71,2.32-3.02s.8-2.84.8-4.6c0-2.69-.59-4.81-1.76-6.36-1.17-1.55-2.8-2.32-4.88-2.32-1.15,0-2.18.24-3.1.72-.92.48-1.85,1.19-2.78,2.12l.32-.92v13.52l-.36-.92c.93.93,1.86,1.64,2.78,2.12.92.48,1.95.72,3.1.72,1.36,0,2.55-.35,3.56-1.06Z"/>
        <path class="cls-2" d="M216.36,233.96c-.21-.17-.32-.43-.32-.78v-27.2c0-.35.11-.61.32-.78.21-.17.48-.26.8-.26h.2c.32,0,.58.09.78.26.2.17.3.43.3.78v2.56l-1-.08c1.01-1.23,2.11-2.17,3.28-2.84,1.17-.67,2.53-1,4.08-1,1.76,0,3.29.45,4.6,1.34,1.31.89,2.3,2.16,2.98,3.8.68,1.64,1.02,3.53,1.02,5.66s-.35,4.01-1.06,5.64c-.71,1.63-1.72,2.89-3.04,3.8-1.32.91-2.87,1.36-4.66,1.36-1.55,0-2.91-.33-4.1-1s-2.29-1.63-3.3-2.88l1.36.04v10.8c0,.35-.11.61-.32.78-.21.17-.49.26-.84.26h-.24c-.35,0-.63-.09-.84-.26ZM227.68,223.04c1.01-.71,1.79-1.71,2.32-3.02s.8-2.84.8-4.6c0-2.69-.59-4.81-1.76-6.36-1.17-1.55-2.8-2.32-4.88-2.32-1.15,0-2.18.24-3.1.72-.92.48-1.85,1.19-2.78,2.12l.32-.92v13.52l-.36-.92c.93.93,1.86,1.64,2.78,2.12.92.48,1.95.72,3.1.72,1.36,0,2.55-.35,3.56-1.06Z"/>
        <path class="cls-2" d="M242.92,224.88c-1.41-.89-2.5-2.16-3.26-3.8-.76-1.64-1.14-3.53-1.14-5.66s.38-4.02,1.14-5.66c.76-1.64,1.85-2.91,3.26-3.8,1.41-.89,3.08-1.34,5-1.34s3.59.45,5,1.34c1.41.89,2.49,2.16,3.24,3.8.75,1.64,1.12,3.53,1.12,5.66s-.37,4.02-1.12,5.66c-.75,1.64-1.83,2.91-3.24,3.8-1.41.89-3.08,1.34-5,1.34s-3.59-.45-5-1.34ZM251.54,223.08c1.03-.71,1.81-1.71,2.34-3.02.53-1.31.8-2.85.8-4.64,0-2.69-.6-4.82-1.8-6.38-1.2-1.56-2.85-2.34-4.96-2.34-1.39,0-2.59.35-3.62,1.06-1.03.71-1.81,1.71-2.36,3.02-.55,1.31-.82,2.85-.82,4.64,0,2.69.61,4.82,1.82,6.38,1.21,1.56,2.87,2.34,4.98,2.34,1.39,0,2.59-.35,3.62-1.06Z"/>
        <path class="cls-2" d="M263.8,225.64c-.21-.17-.32-.43-.32-.78v-18.88c0-.35.11-.61.32-.78.21-.17.48-.26.8-.26h.2c.32,0,.58.09.78.26.2.17.3.43.3.78v5.56l-.48-.32c.21-1.28.66-2.41,1.34-3.4.68-.99,1.51-1.74,2.5-2.26.99-.52,2.07-.75,3.24-.7.35.03.59.12.74.28s.22.43.22.8c0,.43-.09.75-.28.96-.19.21-.48.32-.88.32-1.23,0-2.31.29-3.26.88s-1.68,1.42-2.2,2.5c-.52,1.08-.78,2.33-.78,3.74v10.52c0,.35-.1.61-.3.78-.2.17-.47.26-.82.26h-.28c-.35,0-.63-.09-.84-.26Z"/>
        <path class="cls-2" d="M280.74,224.76c-.89-.97-1.34-2.34-1.34-4.1v-14.6l.88.88h-3.32c-.32,0-.57-.08-.74-.24-.17-.16-.26-.37-.26-.64s.07-.48.2-.64c.13-.16.32-.25.56-.28.91-.05,1.56-.19,1.96-.4.4-.21.69-.65.86-1.3.17-.65.29-1.71.34-3.18.03-.32.13-.55.3-.7.17-.15.41-.22.7-.22h.12c.27,0,.49.08.68.24.19.16.28.39.28.68v5.32l-1-.64h6.24c.34,0,.61.09.78.26.17.17.26.42.26.74,0,.67-.35,1-1.04,1h-6.2l.96-.88v14.52c0,1.17.28,2.07.84,2.7.56.63,1.36.94,2.4.94.51,0,1.16-.09,1.96-.28.11,0,.27-.03.48-.08.19-.05.36-.04.52.04s.28.21.36.4c.08.21.09.42.02.62-.07.2-.21.37-.42.5-.45.29-.96.5-1.54.62-.57.12-1.29.18-2.14.18-1.57,0-2.81-.49-3.7-1.46Z"/>
        <path class="cls-2" d="M309.1,225.22c-1.19-.67-2.29-1.63-3.3-2.88l1.2-.08v2.6c0,.35-.11.61-.32.78-.21.17-.47.26-.76.26h-.2c-.32,0-.59-.09-.8-.26-.21-.17-.32-.43-.32-.78v-27.84c0-.35.11-.61.32-.78.21-.17.49-.26.84-.26h.24c.35,0,.63.09.84.26.21.17.32.43.32.78v11.4l-1.16.04c1.01-1.23,2.11-2.17,3.28-2.84,1.17-.67,2.53-1,4.08-1,1.76,0,3.29.45,4.6,1.34,1.31.89,2.3,2.16,2.98,3.8.68,1.64,1.02,3.53,1.02,5.66s-.35,4.01-1.06,5.64c-.71,1.63-1.72,2.89-3.04,3.8-1.32.91-2.88,1.36-4.66,1.36-1.55,0-2.91-.33-4.1-1ZM316.24,223.04c1.01-.71,1.79-1.71,2.32-3.02s.8-2.84.8-4.6c0-2.69-.59-4.81-1.76-6.36-1.17-1.55-2.8-2.32-4.88-2.32-1.15,0-2.18.24-3.1.72-.92.48-1.85,1.19-2.78,2.12l.32-.96v13.52l-.36-.88c.93.93,1.86,1.64,2.78,2.12.92.48,1.95.72,3.1.72,1.36,0,2.54-.35,3.56-1.06Z"/>
        <path class="cls-2" d="M328.48,225.64c-.21-.17-.32-.43-.32-.78v-18.88c0-.35.11-.61.32-.78.21-.17.48-.26.8-.26h.2c.32,0,.58.09.78.26.2.17.3.43.3.78v5.56l-.48-.32c.21-1.28.66-2.41,1.34-3.4.68-.99,1.51-1.74,2.5-2.26.99-.52,2.07-.75,3.24-.7.35.03.59.12.74.28s.22.43.22.8c0,.43-.09.75-.28.96-.19.21-.48.32-.88.32-1.23,0-2.31.29-3.26.88-.95.59-1.68,1.42-2.2,2.5s-.78,2.33-.78,3.74v10.52c0,.35-.1.61-.3.78-.2.17-.47.26-.82.26h-.28c-.35,0-.63-.09-.84-.26Z"/>
        <path class="cls-2" d="M345.16,224.86c-1.41-.91-2.5-2.17-3.26-3.8-.76-1.63-1.14-3.51-1.14-5.64s.38-4.05,1.14-5.68c.76-1.63,1.87-2.89,3.32-3.78,1.45-.89,3.18-1.34,5.18-1.34,1.57,0,2.95.29,4.12.86s2.07,1.33,2.7,2.28c.62.95.94,1.97.94,3.06,0,1.57-.62,2.79-1.86,3.64-1.24.85-3.07,1.28-5.5,1.28h-8.16v-1.92h7.88c1.81,0,3.13-.25,3.94-.76.81-.51,1.22-1.28,1.22-2.32,0-1.2-.48-2.2-1.44-3-.96-.8-2.25-1.2-3.88-1.2-1.49,0-2.77.35-3.82,1.06-1.05.71-1.85,1.71-2.4,3-.55,1.29-.82,2.81-.82,4.54,0,2.8.64,4.99,1.92,6.56,1.28,1.57,3.04,2.36,5.28,2.36.99,0,1.97-.13,2.94-.38.97-.25,1.93-.59,2.86-1.02.29-.13.56-.17.8-.1.24.07.43.22.56.46s.16.48.08.72-.27.45-.56.64c-.93.56-2,1.01-3.2,1.34s-2.51.5-3.92.5c-1.87,0-3.51-.45-4.92-1.36Z"/>
        <path class="cls-2" d="M364.55,224.7c-1.2-1.01-1.8-2.43-1.8-4.24s.69-3.4,2.08-4.52c1.38-1.12,3.33-1.68,5.84-1.68h5.12v1.92h-4.84c-1.92,0-3.35.37-4.3,1.12-.95.75-1.42,1.79-1.42,3.12s.39,2.25,1.18,2.9c.79.65,1.87.98,3.26.98,1.2,0,2.27-.23,3.2-.7s1.85-1.17,2.76-2.1l-.32.92v-10.4c0-1.89-.43-3.25-1.28-4.08-.85-.83-2.16-1.24-3.92-1.24-.93,0-1.79.14-2.58.42-.79.28-1.62.69-2.5,1.22-.29.16-.56.24-.8.24s-.44-.12-.6-.36c-.16-.24-.21-.49-.16-.74.05-.25.21-.49.48-.7.85-.64,1.83-1.16,2.92-1.56,1.09-.4,2.29-.6,3.6-.6,1.55,0,2.87.25,3.96.76s1.94,1.31,2.54,2.4c.6,1.09.9,2.49.9,4.2v12.84c0,.37-.09.65-.28.82-.19.17-.44.26-.76.26-.4,0-.71-.08-.94-.24s-.35-.43-.38-.8l-.12-2.16,1.12-.04c-.93,1.15-2.01,2.03-3.22,2.64-1.21.61-2.55.92-4.02.92-1.95,0-3.52-.51-4.72-1.52Z"/>
        <path class="cls-2" d="M386.65,225.72c-1.13-.33-1.94-.7-2.42-1.1-.27-.21-.43-.43-.5-.66-.07-.23-.03-.46.1-.7.13-.24.32-.37.56-.4.24-.03.51.03.8.16.19.08.31.13.36.16.59.29,1.27.55,2.06.76.79.21,1.63.32,2.54.32,1.52,0,2.73-.38,3.64-1.14.91-.76,1.36-1.71,1.36-2.86,0-.61-.15-1.15-.44-1.62-.29-.47-.78-.89-1.46-1.26-.68-.37-1.58-.72-2.7-1.04l-.72-.2c-1.49-.43-2.67-.91-3.54-1.46-.87-.55-1.47-1.15-1.82-1.82-.35-.67-.52-1.44-.52-2.32,0-1.25.3-2.33.9-3.22.6-.89,1.42-1.57,2.46-2.02,1.04-.45,2.23-.68,3.56-.68,1.12,0,2.19.15,3.22.46,1.03.31,1.81.66,2.34,1.06.29.21.47.43.54.66s.02.46-.14.7c-.16.24-.35.37-.58.4-.23.03-.49-.03-.78-.16-.11-.05-.21-.11-.32-.16-.67-.29-1.36-.53-2.08-.72s-1.44-.28-2.16-.28c-1.39,0-2.49.33-3.3,1-.81.67-1.22,1.55-1.22,2.64,0,.59.13,1.09.38,1.52.25.43.69.81,1.3,1.14.61.33,1.44.65,2.48.94l.72.2c1.55.43,2.78.93,3.7,1.5s1.58,1.22,1.98,1.94c.4.72.6,1.55.6,2.48,0,1.23-.31,2.32-.92,3.28s-1.47,1.7-2.58,2.22c-1.11.52-2.38.78-3.82.78-1.25,0-2.45-.17-3.58-.5Z"/>
        <path class="cls-2" d="M405.86,224.76c-.89-.97-1.34-2.34-1.34-4.1v-14.6l.88.88h-3.32c-.32,0-.57-.08-.74-.24s-.26-.37-.26-.64.07-.48.2-.64c.13-.16.32-.25.56-.28.91-.05,1.56-.19,1.96-.4.4-.21.69-.65.86-1.3s.29-1.71.34-3.18c.03-.32.13-.55.3-.7s.41-.22.7-.22h.12c.27,0,.49.08.68.24.19.16.28.39.28.68v5.32l-1-.64h6.24c.35,0,.61.09.78.26.17.17.26.42.26.74,0,.67-.35,1-1.04,1h-6.2l.96-.88v14.52c0,1.17.28,2.07.84,2.7.56.63,1.36.94,2.4.94.51,0,1.16-.09,1.96-.28.11,0,.27-.03.48-.08.19-.05.36-.04.52.04s.28.21.36.4c.08.21.09.42.02.62-.07.2-.21.37-.42.5-.45.29-.97.5-1.54.62-.57.12-1.29.18-2.14.18-1.57,0-2.81-.49-3.7-1.46Z"/>
        <path class="cls-2" d="M430.03,225.64c-.21-.17-.32-.43-.32-.78v-27.84c0-.35.11-.61.32-.78.21-.17.49-.26.84-.26h.24c.35,0,.63.09.84.26.21.17.32.43.32.78v11.28l-1.24.16c1.01-1.25,2.1-2.21,3.26-2.86,1.16-.65,2.55-.98,4.18-.98,2.24,0,3.96.61,5.18,1.84,1.21,1.23,1.82,3.17,1.82,5.84v12.56c0,.35-.1.61-.3.78s-.47.26-.82.26h-.28c-.35,0-.63-.09-.84-.26-.21-.17-.32-.43-.32-.78v-12.28c0-2.08-.42-3.57-1.26-4.48s-2.11-1.36-3.82-1.36c-1.25,0-2.35.24-3.3.72-.95.48-1.87,1.19-2.78,2.12l.52-.88v16.16c0,.35-.11.61-.32.78-.21.17-.49.26-.84.26h-.24c-.35,0-.62-.09-.84-.26Z"/>
        <path class="cls-2" d="M455.91,224.86c-1.41-.91-2.5-2.17-3.26-3.8-.76-1.63-1.14-3.51-1.14-5.64s.38-4.05,1.14-5.68c.76-1.63,1.87-2.89,3.32-3.78,1.45-.89,3.18-1.34,5.18-1.34,1.57,0,2.95.29,4.12.86s2.07,1.33,2.7,2.28c.62.95.94,1.97.94,3.06,0,1.57-.62,2.79-1.86,3.64-1.24.85-3.07,1.28-5.5,1.28h-8.16v-1.92h7.88c1.81,0,3.13-.25,3.94-.76.81-.51,1.22-1.28,1.22-2.32,0-1.2-.48-2.2-1.44-3-.96-.8-2.25-1.2-3.88-1.2-1.49,0-2.77.35-3.82,1.06-1.05.71-1.85,1.71-2.4,3-.55,1.29-.82,2.81-.82,4.54,0,2.8.64,4.99,1.92,6.56,1.28,1.57,3.04,2.36,5.28,2.36.99,0,1.97-.13,2.94-.38.97-.25,1.93-.59,2.86-1.02.29-.13.56-.17.8-.1.24.07.43.22.56.46s.16.48.08.72-.27.45-.56.64c-.93.56-2,1.01-3.2,1.34s-2.51.5-3.92.5c-1.87,0-3.51-.45-4.92-1.36Z"/>
        <path class="cls-2" d="M475.31,224.7c-1.2-1.01-1.8-2.43-1.8-4.24s.69-3.4,2.08-4.52c1.38-1.12,3.33-1.68,5.84-1.68h5.12v1.92h-4.84c-1.92,0-3.35.37-4.3,1.12-.95.75-1.42,1.79-1.42,3.12s.39,2.25,1.18,2.9c.79.65,1.87.98,3.26.98,1.2,0,2.27-.23,3.2-.7s1.85-1.17,2.76-2.1l-.32.92v-10.4c0-1.89-.43-3.25-1.28-4.08-.85-.83-2.16-1.24-3.92-1.24-.93,0-1.79.14-2.58.42-.79.28-1.62.69-2.5,1.22-.29.16-.56.24-.8.24s-.44-.12-.6-.36c-.16-.24-.21-.49-.16-.74.05-.25.21-.49.48-.7.85-.64,1.83-1.16,2.92-1.56,1.09-.4,2.29-.6,3.6-.6,1.55,0,2.87.25,3.96.76s1.94,1.31,2.54,2.4c.6,1.09.9,2.49.9,4.2v12.84c0,.37-.09.65-.28.82-.19.17-.44.26-.76.26-.4,0-.71-.08-.94-.24s-.35-.43-.38-.8l-.12-2.16,1.12-.04c-.93,1.15-2.01,2.03-3.22,2.64-1.21.61-2.55.92-4.02.92-1.95,0-3.52-.51-4.72-1.52Z"/>
        <path class="cls-2" d="M496.11,225.64c-.21-.17-.32-.43-.32-.78v-27.84c0-.35.11-.61.32-.78.21-.17.49-.26.84-.26h.24c.35,0,.63.09.84.26.21.17.32.43.32.78v27.84c0,.35-.11.61-.32.78-.21.17-.49.26-.84.26h-.24c-.35,0-.62-.09-.84-.26Z"/>
        <path class="cls-2" d="M508.01,224.76c-.89-.97-1.34-2.34-1.34-4.1v-14.6l.88.88h-3.32c-.32,0-.57-.08-.74-.24s-.26-.37-.26-.64.07-.48.2-.64c.13-.16.32-.25.56-.28.91-.05,1.56-.19,1.96-.4.4-.21.69-.65.86-1.3s.29-1.71.34-3.18c.03-.32.13-.55.3-.7s.41-.22.7-.22h.12c.27,0,.49.08.68.24.19.16.28.39.28.68v5.32l-1-.64h6.24c.35,0,.61.09.78.26.17.17.26.42.26.74,0,.67-.35,1-1.04,1h-6.2l.96-.88v14.52c0,1.17.28,2.07.84,2.7.56.63,1.36.94,2.4.94.51,0,1.16-.09,1.96-.28.11,0,.27-.03.48-.08.19-.05.36-.04.52.04s.28.21.36.4c.08.21.09.42.02.62-.07.2-.21.37-.42.5-.45.29-.97.5-1.54.62-.57.12-1.29.18-2.14.18-1.57,0-2.81-.49-3.7-1.46Z"/>
        <path class="cls-2" d="M521.19,225.64c-.21-.17-.32-.43-.32-.78v-27.84c0-.35.11-.61.32-.78.21-.17.49-.26.84-.26h.24c.35,0,.63.09.84.26.21.17.32.43.32.78v11.28l-1.24.16c1.01-1.25,2.1-2.21,3.26-2.86,1.16-.65,2.55-.98,4.18-.98,2.24,0,3.96.61,5.18,1.84,1.21,1.23,1.82,3.17,1.82,5.84v12.56c0,.35-.1.61-.3.78s-.47.26-.82.26h-.28c-.35,0-.63-.09-.84-.26-.21-.17-.32-.43-.32-.78v-12.28c0-2.08-.42-3.57-1.26-4.48s-2.11-1.36-3.82-1.36c-1.25,0-2.35.24-3.3.72-.95.48-1.87,1.19-2.78,2.12l.52-.88v16.16c0,.35-.11.61-.32.78-.21.17-.49.26-.84.26h-.24c-.35,0-.62-.09-.84-.26Z"/>
        <path class="cls-2" d="M558.01,225.2c-1.43-.68-2.54-1.65-3.34-2.9-.8-1.25-1.2-2.71-1.2-4.36s.4-3,1.2-4.12c.8-1.12,1.73-1.99,2.8-2.6,1.07-.61,2.45-1.31,4.16-2.08,1.38-.53,2.57-1.07,3.54-1.62.97-.55,1.77-1.21,2.38-2,.61-.79.92-1.7.92-2.74,0-1.28-.43-2.34-1.3-3.18s-1.98-1.26-3.34-1.26-2.51.42-3.38,1.26c-.87.84-1.3,1.93-1.3,3.26,0,1.09.32,2.14.96,3.14.64,1,1.65,2.17,3.04,3.5l14,14.8c.27.29.41.56.44.8s-.05.43-.22.58c-.17.15-.42.22-.74.22h-.28c-.37,0-.71-.07-1-.2-.29-.13-.6-.37-.92-.72l-13.2-14c-1.47-1.55-2.58-2.94-3.34-4.18-.76-1.24-1.14-2.55-1.14-3.94,0-1.23.3-2.33.9-3.3s1.43-1.73,2.5-2.28c1.07-.55,2.28-.82,3.64-.82s2.53.27,3.6.82c1.07.55,1.89,1.3,2.48,2.26.59.96.88,2.04.88,3.24,0,1.39-.39,2.57-1.16,3.56s-1.68,1.78-2.72,2.38c-1.04.6-2.46,1.3-4.24,2.1-1.52.69-2.71,1.29-3.56,1.8-.85.51-1.59,1.18-2.2,2.02-.62.84-.92,1.89-.92,3.14s.3,2.37.9,3.34c.6.97,1.45,1.73,2.54,2.26,1.09.53,2.33.8,3.72.8,1.97,0,3.8-.54,5.48-1.62s3.03-2.67,4.06-4.76c1.03-2.09,1.57-4.57,1.62-7.42.03-.29.12-.51.28-.66s.38-.22.68-.22h.24c.29,0,.53.09.72.28.19.19.28.47.28.84,0,3.17-.63,5.94-1.88,8.3-1.25,2.36-2.93,4.17-5.02,5.42-2.09,1.25-4.34,1.88-6.74,1.88-1.79,0-3.39-.34-4.82-1.02Z"/>
        <path class="cls-2" d="M597.23,224.86c-1.41-.91-2.5-2.17-3.26-3.8-.76-1.63-1.14-3.51-1.14-5.64s.38-4.05,1.14-5.68c.76-1.63,1.87-2.89,3.32-3.78,1.45-.89,3.18-1.34,5.18-1.34,1.57,0,2.95.29,4.12.86s2.07,1.33,2.7,2.28c.62.95.94,1.97.94,3.06,0,1.57-.62,2.79-1.86,3.64-1.24.85-3.07,1.28-5.5,1.28h-8.16v-1.92h7.88c1.81,0,3.13-.25,3.94-.76.81-.51,1.22-1.28,1.22-2.32,0-1.2-.48-2.2-1.44-3-.96-.8-2.25-1.2-3.88-1.2-1.49,0-2.77.35-3.82,1.06-1.05.71-1.85,1.71-2.4,3-.55,1.29-.82,2.81-.82,4.54,0,2.8.64,4.99,1.92,6.56,1.28,1.57,3.04,2.36,5.28,2.36.99,0,1.97-.13,2.94-.38.97-.25,1.93-.59,2.86-1.02.29-.13.56-.17.8-.1.24.07.43.22.56.46s.16.48.08.72-.27.45-.56.64c-.93.56-2,1.01-3.2,1.34s-2.51.5-3.92.5c-1.87,0-3.51-.45-4.92-1.36Z"/>
        <path class="cls-2" d="M619.15,224.88c-1.31-.89-2.31-2.16-3-3.8-.7-1.64-1.04-3.53-1.04-5.66s.36-4.01,1.08-5.64c.72-1.63,1.74-2.89,3.06-3.8,1.32-.91,2.87-1.36,4.66-1.36,1.54,0,2.91.33,4.1,1,1.19.67,2.29,1.61,3.3,2.84h-1.36v-11.44c0-.37.1-.64.3-.8.2-.16.47-.24.82-.24h.28c.35,0,.63.09.84.26.21.17.32.43.32.78v27.84c0,.35-.1.61-.3.78-.2.17-.46.26-.78.26-.4,0-.71-.09-.92-.26-.21-.17-.35-.43-.4-.78l-.16-2.72,1.16.2c-1.01,1.25-2.11,2.21-3.28,2.88-1.17.67-2.54,1-4.08,1-1.76,0-3.29-.45-4.6-1.34ZM627.49,223.38c.92-.48,1.83-1.19,2.74-2.12l-.28.92v-13.52l.32.92c-.91-.93-1.82-1.64-2.74-2.12-.92-.48-1.97-.72-3.14-.72-1.39,0-2.58.35-3.58,1.06-1,.71-1.77,1.71-2.3,3-.53,1.29-.8,2.83-.8,4.62,0,2.67.59,4.78,1.78,6.34,1.19,1.56,2.82,2.34,4.9,2.34,1.15,0,2.18-.24,3.1-.72Z"/>
        <path class="cls-2" d="M641.45,224.36c-1.21-1.24-1.82-3.19-1.82-5.86v-12.52c0-.35.11-.61.32-.78.21-.17.49-.26.84-.26h.24c.35,0,.63.09.84.26.21.17.32.43.32.78v12.28c0,2.08.42,3.57,1.26,4.48.84.91,2.11,1.36,3.82,1.36,1.25,0,2.35-.24,3.3-.72.95-.48,1.89-1.19,2.82-2.12l-.52.92v-16.2c0-.37.1-.64.3-.8.2-.16.47-.24.82-.24h.28c.35,0,.62.09.84.26.21.17.32.43.32.78v18.88c0,.35-.11.61-.32.78-.21.17-.48.26-.8.26h-.2c-.32,0-.58-.09-.78-.26-.2-.17-.3-.43-.3-.78v-2.48l1.12-.04c-1.01,1.25-2.11,2.21-3.3,2.88-1.19.67-2.59,1-4.22,1-2.24,0-3.97-.62-5.18-1.86Z"/>
        <path class="cls-2" d="M665.97,224.86c-1.4-.91-2.48-2.17-3.24-3.8-.76-1.63-1.14-3.51-1.14-5.64s.39-4.01,1.16-5.64c.77-1.63,1.85-2.89,3.24-3.8,1.39-.91,3-1.36,4.84-1.36,1.07,0,2.09.11,3.06.34.97.23,1.88.58,2.74,1.06.29.16.48.37.56.62.08.25.05.5-.08.74-.13.24-.32.39-.56.46s-.51.03-.8-.1c-.8-.32-1.59-.57-2.38-.76-.79-.19-1.54-.28-2.26-.28-1.39,0-2.61.35-3.66,1.06-1.05.71-1.87,1.71-2.44,3.02-.57,1.31-.86,2.84-.86,4.6s.29,3.29.88,4.6c.59,1.31,1.41,2.31,2.48,3.02,1.07.71,2.29,1.06,3.68,1.06s3-.39,4.68-1.16c.29-.13.56-.17.8-.1s.43.22.56.46c.13.24.16.48.08.72s-.27.45-.56.64c-.85.51-1.78.9-2.78,1.18-1,.28-2.06.42-3.18.42-1.81,0-3.42-.45-4.82-1.36Z"/>
        <path class="cls-2" d="M683.23,224.7c-1.2-1.01-1.8-2.43-1.8-4.24s.69-3.4,2.08-4.52c1.38-1.12,3.33-1.68,5.84-1.68h5.12v1.92h-4.84c-1.92,0-3.35.37-4.3,1.12-.95.75-1.42,1.79-1.42,3.12s.39,2.25,1.18,2.9c.79.65,1.87.98,3.26.98,1.2,0,2.27-.23,3.2-.7s1.85-1.17,2.76-2.1l-.32.92v-10.4c0-1.89-.43-3.25-1.28-4.08-.85-.83-2.16-1.24-3.92-1.24-.93,0-1.79.14-2.58.42-.79.28-1.62.69-2.5,1.22-.29.16-.56.24-.8.24s-.44-.12-.6-.36c-.16-.24-.21-.49-.16-.74.05-.25.21-.49.48-.7.85-.64,1.83-1.16,2.92-1.56,1.09-.4,2.29-.6,3.6-.6,1.55,0,2.87.25,3.96.76s1.94,1.31,2.54,2.4c.6,1.09.9,2.49.9,4.2v12.84c0,.37-.09.65-.28.82-.19.17-.44.26-.76.26-.4,0-.71-.08-.94-.24s-.35-.43-.38-.8l-.12-2.16,1.12-.04c-.93,1.15-2.01,2.03-3.22,2.64-1.21.61-2.55.92-4.02.92-1.95,0-3.52-.51-4.72-1.52Z"/>
        <path class="cls-2" d="M705.85,224.76c-.89-.97-1.34-2.34-1.34-4.1v-14.6l.88.88h-3.32c-.32,0-.57-.08-.74-.24s-.26-.37-.26-.64.07-.48.2-.64c.13-.16.32-.25.56-.28.91-.05,1.56-.19,1.96-.4.4-.21.69-.65.86-1.3s.29-1.71.34-3.18c.03-.32.13-.55.3-.7s.41-.22.7-.22h.12c.27,0,.49.08.68.24.19.16.28.39.28.68v5.32l-1-.64h6.24c.35,0,.61.09.78.26.17.17.26.42.26.74,0,.67-.35,1-1.04,1h-6.2l.96-.88v14.52c0,1.17.28,2.07.84,2.7.56.63,1.36.94,2.4.94.51,0,1.16-.09,1.96-.28.11,0,.27-.03.48-.08.19-.05.36-.04.52.04s.28.21.36.4c.08.21.09.42.02.62-.07.2-.21.37-.42.5-.45.29-.97.5-1.54.62-.57.12-1.29.18-2.14.18-1.57,0-2.81-.49-3.7-1.46Z"/>
        <path class="cls-2" d="M718.79,199.98c-.27-.29-.4-.71-.4-1.24s.13-.94.4-1.22c.27-.28.65-.42,1.16-.42.53,0,.93.14,1.2.42.27.28.4.69.4,1.22,0,.56-.13.98-.4,1.26-.27.28-.67.42-1.2.42s-.89-.15-1.16-.44ZM718.99,225.64c-.21-.17-.32-.43-.32-.78v-18.88c0-.35.11-.61.32-.78.21-.17.49-.26.84-.26h.28c.35,0,.62.08.82.24.2.16.3.43.3.8v18.88c0,.35-.1.61-.3.78-.2.17-.47.26-.82.26h-.28c-.35,0-.63-.09-.84-.26Z"/>
        <path class="cls-2" d="M731.83,224.88c-1.41-.89-2.5-2.16-3.26-3.8-.76-1.64-1.14-3.53-1.14-5.66s.38-4.02,1.14-5.66c.76-1.64,1.85-2.91,3.26-3.8,1.41-.89,3.08-1.34,5-1.34s3.59.45,5,1.34c1.41.89,2.49,2.16,3.24,3.8.75,1.64,1.12,3.53,1.12,5.66s-.37,4.02-1.12,5.66c-.75,1.64-1.83,2.91-3.24,3.8-1.41.89-3.08,1.34-5,1.34s-3.59-.45-5-1.34ZM740.45,223.08c1.03-.71,1.81-1.71,2.34-3.02s.8-2.85.8-4.64c0-2.69-.6-4.82-1.8-6.38-1.2-1.56-2.85-2.34-4.96-2.34-1.39,0-2.59.35-3.62,1.06-1.03.71-1.81,1.71-2.36,3.02-.55,1.31-.82,2.85-.82,4.64,0,2.69.61,4.82,1.82,6.38,1.21,1.56,2.87,2.34,4.98,2.34,1.39,0,2.59-.35,3.62-1.06Z"/>
        <path class="cls-2" d="M752.71,225.64c-.21-.17-.32-.43-.32-.78v-18.88c0-.35.11-.61.32-.78.21-.17.48-.26.8-.26h.2c.32,0,.58.09.78.26.2.17.3.43.3.78v2.48h-1.12c1.01-1.25,2.11-2.21,3.3-2.86,1.19-.65,2.59-.98,4.22-.98,2.24,0,3.96.61,5.18,1.84,1.21,1.23,1.82,3.17,1.82,5.84v12.56c0,.35-.11.61-.32.78-.21.17-.49.26-.84.26h-.24c-.35,0-.63-.09-.84-.26-.21-.17-.32-.43-.32-.78v-12.28c0-2.08-.42-3.57-1.26-4.48s-2.11-1.36-3.82-1.36c-1.25,0-2.35.24-3.3.72-.95.48-1.89,1.19-2.82,2.12l.52-.96v16.24c0,.35-.1.61-.3.78-.2.17-.47.26-.82.26h-.28c-.35,0-.63-.09-.84-.26Z"/>
        <path class="cls-2" d="M774.97,225.76c-.28-.31-.42-.73-.42-1.26s.14-.95.42-1.24c.28-.29.67-.44,1.18-.44.53,0,.94.15,1.22.44.28.29.42.71.42,1.24s-.14.95-.42,1.26c-.28.31-.69.46-1.22.46s-.9-.15-1.18-.46Z"/>
      </g>
      <g>
        <path class="cls-1" d="M59.5,334.43c-.25-.25-.38-.61-.38-1.06v-26.64c0-.35.11-.61.34-.78.23-.17.51-.26.86-.26h.28c.37,0,.67.08.88.24s.32.43.32.8v27l-1.04-1.04h11.56c.37,0,.64.09.8.26.16.17.24.43.24.78s-.08.61-.24.8c-.16.19-.43.28-.8.28h-11.76c-.45,0-.81-.13-1.06-.38Z"/>
        <path class="cls-1" d="M80,333.77c-1.41-.91-2.5-2.17-3.26-3.8-.76-1.63-1.14-3.51-1.14-5.64s.38-4.05,1.14-5.68c.76-1.63,1.87-2.89,3.32-3.78,1.45-.89,3.18-1.34,5.18-1.34,1.57,0,2.95.29,4.12.86,1.17.57,2.07,1.33,2.7,2.28s.94,1.97.94,3.06c0,1.57-.62,2.79-1.86,3.64-1.24.85-3.07,1.28-5.5,1.28h-8.16v-1.92h7.88c1.81,0,3.13-.25,3.94-.76s1.22-1.28,1.22-2.32c0-1.2-.48-2.2-1.44-3s-2.25-1.2-3.88-1.2c-1.49,0-2.77.35-3.82,1.06-1.05.71-1.85,1.71-2.4,3-.55,1.29-.82,2.81-.82,4.54,0,2.8.64,4.99,1.92,6.56,1.28,1.57,3.04,2.36,5.28,2.36.99,0,1.97-.13,2.94-.38.97-.25,1.93-.59,2.86-1.02.29-.13.56-.17.8-.1s.43.22.56.46.16.48.08.72-.27.45-.56.64c-.93.56-2,1.01-3.2,1.34s-2.51.5-3.92.5c-1.87,0-3.51-.45-4.92-1.36Z"/>
        <path class="cls-1" d="M101.26,333.67c-.89-.97-1.34-2.34-1.34-4.1v-14.6l.88.88h-3.32c-.32,0-.57-.08-.74-.24-.17-.16-.26-.37-.26-.64s.07-.48.2-.64c.13-.16.32-.25.56-.28.91-.05,1.56-.19,1.96-.4.4-.21.69-.65.86-1.3.17-.65.29-1.71.34-3.18.03-.32.13-.55.3-.7.17-.15.41-.22.7-.22h.12c.27,0,.49.08.68.24.19.16.28.39.28.68v5.32l-1-.64h6.24c.35,0,.61.09.78.26.17.17.26.42.26.74,0,.67-.35,1-1.04,1h-6.2l.96-.88v14.52c0,1.17.28,2.07.84,2.7.56.63,1.36.94,2.4.94.51,0,1.16-.09,1.96-.28.11,0,.27-.03.48-.08.19-.05.36-.04.52.04.16.08.28.21.36.4.08.21.09.42.02.62-.07.2-.21.37-.42.5-.45.29-.97.5-1.54.62s-1.29.18-2.14.18c-1.57,0-2.81-.49-3.7-1.46Z"/>
        <path class="cls-1" d="M113.24,314.13c-.05-.21,0-.45.16-.72.43-.77.75-1.57.96-2.4.21-.83.32-1.72.32-2.68,0-.59-.04-1.16-.12-1.72-.03-.32-.07-.64-.12-.96-.03-.35.06-.61.26-.8s.49-.29.86-.32c.37,0,.67.07.88.22.21.15.35.41.4.78.13.8.2,1.65.2,2.56,0,1.23-.19,2.39-.56,3.5-.37,1.11-.91,2.07-1.6,2.9-.19.24-.39.37-.6.38-.21.01-.44-.06-.68-.22-.19-.13-.31-.31-.36-.52Z"/>
        <path class="cls-1" d="M123.58,334.63c-1.13-.33-1.94-.7-2.42-1.1-.27-.21-.43-.43-.5-.66-.07-.23-.03-.46.1-.7.13-.24.32-.37.56-.4.24-.03.51.03.8.16.19.08.31.13.36.16.59.29,1.27.55,2.06.76.79.21,1.63.32,2.54.32,1.52,0,2.73-.38,3.64-1.14.91-.76,1.36-1.71,1.36-2.86,0-.61-.15-1.15-.44-1.62-.29-.47-.78-.89-1.46-1.26-.68-.37-1.58-.72-2.7-1.04l-.72-.2c-1.49-.43-2.67-.91-3.54-1.46s-1.47-1.15-1.82-1.82c-.35-.67-.52-1.44-.52-2.32,0-1.25.3-2.33.9-3.22.6-.89,1.42-1.57,2.46-2.02s2.23-.68,3.56-.68c1.12,0,2.19.15,3.22.46,1.03.31,1.81.66,2.34,1.06.29.21.47.43.54.66.07.23.02.46-.14.7-.16.24-.35.37-.58.4-.23.03-.49-.03-.78-.16-.11-.05-.21-.11-.32-.16-.67-.29-1.36-.53-2.08-.72s-1.44-.28-2.16-.28c-1.39,0-2.49.33-3.3,1-.81.67-1.22,1.55-1.22,2.64,0,.59.13,1.09.38,1.52.25.43.69.81,1.3,1.14.61.33,1.44.65,2.48.94l.72.2c1.55.43,2.78.93,3.7,1.5s1.58,1.22,1.98,1.94c.4.72.6,1.55.6,2.48,0,1.23-.31,2.32-.92,3.28-.61.96-1.47,1.7-2.58,2.22-1.11.52-2.38.78-3.82.78-1.25,0-2.45-.17-3.58-.5Z"/>
        <path class="cls-1" d="M155.08,342.95c-1.2-.33-2.24-.75-3.12-1.26-.29-.19-.48-.39-.56-.62s-.04-.47.12-.74c.16-.24.35-.38.58-.42s.5,0,.82.14c1.01.4,1.97.71,2.86.94s1.79.34,2.7.34c2.08,0,3.71-.63,4.9-1.88,1.19-1.25,1.78-3,1.78-5.24v-3.28l1.16-.44c-1.04,1.25-2.14,2.21-3.3,2.86s-2.51.98-4.06.98c-1.79,0-3.33-.43-4.62-1.28-1.29-.85-2.29-2.06-2.98-3.62-.69-1.56-1.04-3.38-1.04-5.46s.36-3.91,1.08-5.48c.72-1.57,1.74-2.79,3.06-3.66,1.32-.87,2.87-1.3,4.66-1.3,1.55,0,2.91.33,4.1,1,1.19.67,2.29,1.61,3.3,2.84l-1.2.24v-2.72c0-.35.1-.61.3-.78.2-.17.46-.26.78-.26h.2c.32,0,.59.09.8.26.21.17.32.43.32.78v19.4c0,1.84-.39,3.45-1.16,4.84-.77,1.39-1.85,2.45-3.22,3.2-1.37.75-2.94,1.12-4.7,1.12-1.17,0-2.36-.17-3.56-.5ZM162.72,331.57c.93-.48,1.85-1.19,2.76-2.12l-.32.92v-12.84l.32.92c-.91-.93-1.82-1.64-2.74-2.12-.92-.48-1.97-.72-3.14-.72-1.36,0-2.55.34-3.56,1.02-1.01.68-1.79,1.65-2.32,2.9-.53,1.25-.8,2.73-.8,4.44,0,2.59.59,4.62,1.78,6.1,1.19,1.48,2.82,2.22,4.9,2.22,1.15,0,2.19-.24,3.12-.72Z"/>
        <path class="cls-1" d="M175.08,308.89c-.27-.29-.4-.71-.4-1.24s.13-.94.4-1.22.65-.42,1.16-.42c.53,0,.93.14,1.2.42.27.28.4.69.4,1.22,0,.56-.13.98-.4,1.26-.27.28-.67.42-1.2.42s-.89-.15-1.16-.44ZM175.28,334.55c-.21-.17-.32-.43-.32-.78v-18.88c0-.35.11-.61.32-.78.21-.17.49-.26.84-.26h.28c.35,0,.62.08.82.24.2.16.3.43.3.8v18.88c0,.35-.1.61-.3.78-.2.17-.47.26-.82.26h-.28c-.35,0-.63-.09-.84-.26Z"/>
        <path class="cls-1" d="M190.24,334.59c-.21-.15-.37-.38-.48-.7l-6.72-18.88c-.13-.4-.11-.69.08-.88.19-.19.47-.28.84-.28h.28c.35,0,.63.07.86.2s.39.36.5.68l5.84,17.12-.52-.04,5.84-17.08c.13-.29.29-.51.48-.66.19-.15.43-.22.72-.22h.24c.35,0,.61.09.78.28.17.19.18.48.02.88l-6.68,18.88c-.11.32-.27.55-.48.7-.21.15-.45.22-.72.22h-.16c-.27,0-.51-.07-.72-.22Z"/>
        <path class="cls-1" d="M207.32,333.77c-1.41-.91-2.5-2.17-3.26-3.8-.76-1.63-1.14-3.51-1.14-5.64s.38-4.05,1.14-5.68c.76-1.63,1.87-2.89,3.32-3.78,1.45-.89,3.18-1.34,5.18-1.34,1.57,0,2.95.29,4.12.86,1.17.57,2.07,1.33,2.7,2.28s.94,1.97.94,3.06c0,1.57-.62,2.79-1.86,3.64-1.24.85-3.07,1.28-5.5,1.28h-8.16v-1.92h7.88c1.81,0,3.13-.25,3.94-.76s1.22-1.28,1.22-2.32c0-1.2-.48-2.2-1.44-3s-2.25-1.2-3.88-1.2c-1.49,0-2.77.35-3.82,1.06-1.05.71-1.85,1.71-2.4,3-.55,1.29-.82,2.81-.82,4.54,0,2.8.64,4.99,1.92,6.56,1.28,1.57,3.04,2.36,5.28,2.36.99,0,1.97-.13,2.94-.38.97-.25,1.93-.59,2.86-1.02.29-.13.56-.17.8-.1s.43.22.56.46.16.48.08.72-.27.45-.56.64c-.93.56-2,1.01-3.2,1.34s-2.51.5-3.92.5c-1.87,0-3.51-.45-4.92-1.36Z"/>
        <path class="cls-1" d="M241.82,334.13c-1.19-.67-2.29-1.63-3.3-2.88l1.2-.08v2.6c0,.35-.11.61-.32.78-.21.17-.47.26-.76.26h-.2c-.32,0-.59-.09-.8-.26-.21-.17-.32-.43-.32-.78v-27.84c0-.35.11-.61.32-.78.21-.17.49-.26.84-.26h.24c.35,0,.63.09.84.26.21.17.32.43.32.78v11.4l-1.16.04c1.01-1.23,2.11-2.17,3.28-2.84,1.17-.67,2.53-1,4.08-1,1.76,0,3.29.45,4.6,1.34,1.31.89,2.3,2.16,2.98,3.8.68,1.64,1.02,3.53,1.02,5.66s-.35,4.01-1.06,5.64c-.71,1.63-1.72,2.89-3.04,3.8-1.32.91-2.87,1.36-4.66,1.36-1.55,0-2.91-.33-4.1-1ZM248.96,331.95c1.01-.71,1.79-1.71,2.32-3.02s.8-2.84.8-4.6c0-2.69-.59-4.81-1.76-6.36-1.17-1.55-2.8-2.32-4.88-2.32-1.15,0-2.18.24-3.1.72-.92.48-1.85,1.19-2.78,2.12l.32-.96v13.52l-.36-.88c.93.93,1.86,1.64,2.78,2.12.92.48,1.95.72,3.1.72,1.36,0,2.55-.35,3.56-1.06Z"/>
        <path class="cls-1" d="M264.2,333.79c-1.41-.89-2.5-2.16-3.26-3.8-.76-1.64-1.14-3.53-1.14-5.66s.38-4.02,1.14-5.66c.76-1.64,1.85-2.91,3.26-3.8,1.41-.89,3.08-1.34,5-1.34s3.59.45,5,1.34c1.41.89,2.49,2.16,3.24,3.8.75,1.64,1.12,3.53,1.12,5.66s-.37,4.02-1.12,5.66c-.75,1.64-1.83,2.91-3.24,3.8-1.41.89-3.08,1.34-5,1.34s-3.59-.45-5-1.34ZM272.82,331.99c1.03-.71,1.81-1.71,2.34-3.02.53-1.31.8-2.85.8-4.64,0-2.69-.6-4.82-1.8-6.38-1.2-1.56-2.85-2.34-4.96-2.34-1.39,0-2.59.35-3.62,1.06-1.03.71-1.81,1.71-2.36,3.02-.55,1.31-.82,2.85-.82,4.64,0,2.69.61,4.82,1.82,6.38,1.21,1.56,2.87,2.34,4.98,2.34,1.39,0,2.59-.35,3.62-1.06Z"/>
        <path class="cls-1" d="M288.08,333.79c-1.41-.89-2.5-2.16-3.26-3.8-.76-1.64-1.14-3.53-1.14-5.66s.38-4.02,1.14-5.66c.76-1.64,1.85-2.91,3.26-3.8,1.41-.89,3.08-1.34,5-1.34s3.59.45,5,1.34c1.41.89,2.49,2.16,3.24,3.8.75,1.64,1.12,3.53,1.12,5.66s-.37,4.02-1.12,5.66c-.75,1.64-1.83,2.91-3.24,3.8-1.41.89-3.08,1.34-5,1.34s-3.59-.45-5-1.34ZM296.7,331.99c1.03-.71,1.81-1.71,2.34-3.02s.8-2.85.8-4.64c0-2.69-.6-4.82-1.8-6.38-1.2-1.56-2.85-2.34-4.96-2.34-1.39,0-2.59.35-3.62,1.06-1.03.71-1.81,1.71-2.36,3.02-.55,1.31-.82,2.85-.82,4.64,0,2.69.61,4.82,1.82,6.38,1.21,1.56,2.87,2.34,4.98,2.34,1.39,0,2.59-.35,3.62-1.06Z"/>
        <path class="cls-1" d="M313.18,334.13c-1.19-.67-2.29-1.63-3.3-2.88l1.2-.08v2.6c0,.35-.11.61-.32.78-.21.17-.47.26-.76.26h-.2c-.32,0-.59-.09-.8-.26-.21-.17-.32-.43-.32-.78v-27.84c0-.35.11-.61.32-.78.21-.17.49-.26.84-.26h.24c.35,0,.63.09.84.26.21.17.32.43.32.78v11.4l-1.16.04c1.01-1.23,2.11-2.17,3.28-2.84,1.17-.67,2.53-1,4.08-1,1.76,0,3.29.45,4.6,1.34,1.31.89,2.3,2.16,2.98,3.8.68,1.64,1.02,3.53,1.02,5.66s-.35,4.01-1.06,5.64c-.71,1.63-1.72,2.89-3.04,3.8-1.32.91-2.88,1.36-4.66,1.36-1.55,0-2.91-.33-4.1-1ZM320.32,331.95c1.01-.71,1.79-1.71,2.32-3.02s.8-2.84.8-4.6c0-2.69-.59-4.81-1.76-6.36-1.17-1.55-2.8-2.32-4.88-2.32-1.15,0-2.18.24-3.1.72-.92.48-1.85,1.19-2.78,2.12l.32-.96v13.52l-.36-.88c.93.93,1.86,1.64,2.78,2.12.92.48,1.95.72,3.1.72,1.36,0,2.54-.35,3.56-1.06Z"/>
        <path class="cls-1" d="M333.9,334.63c-1.13-.33-1.94-.7-2.42-1.1-.27-.21-.43-.43-.5-.66-.07-.23-.03-.46.1-.7.13-.24.32-.37.56-.4.24-.03.51.03.8.16.19.08.31.13.36.16.59.29,1.27.55,2.06.76.79.21,1.63.32,2.54.32,1.52,0,2.73-.38,3.64-1.14.91-.76,1.36-1.71,1.36-2.86,0-.61-.15-1.15-.44-1.62-.29-.47-.78-.89-1.46-1.26-.68-.37-1.58-.72-2.7-1.04l-.72-.2c-1.49-.43-2.67-.91-3.54-1.46-.87-.55-1.47-1.15-1.82-1.82-.35-.67-.52-1.44-.52-2.32,0-1.25.3-2.33.9-3.22.6-.89,1.42-1.57,2.46-2.02,1.04-.45,2.23-.68,3.56-.68,1.12,0,2.19.15,3.22.46,1.03.31,1.81.66,2.34,1.06.29.21.47.43.54.66s.02.46-.14.7c-.16.24-.35.37-.58.4-.23.03-.49-.03-.78-.16-.11-.05-.21-.11-.32-.16-.67-.29-1.36-.53-2.08-.72s-1.44-.28-2.16-.28c-1.39,0-2.49.33-3.3,1-.81.67-1.22,1.55-1.22,2.64,0,.59.13,1.09.38,1.52.25.43.69.81,1.3,1.14.61.33,1.44.65,2.48.94l.72.2c1.55.43,2.78.93,3.7,1.5s1.58,1.22,1.98,1.94c.4.72.6,1.55.6,2.48,0,1.23-.31,2.32-.92,3.28s-1.47,1.7-2.58,2.22c-1.11.52-2.38.78-3.82.78-1.25,0-2.45-.17-3.58-.5Z"/>
        <path class="cls-1" d="M363.62,333.67c-.89-.97-1.34-2.34-1.34-4.1v-14.6l.88.88h-3.32c-.32,0-.57-.08-.74-.24s-.26-.37-.26-.64.07-.48.2-.64c.13-.16.32-.25.56-.28.91-.05,1.56-.19,1.96-.4.4-.21.69-.65.86-1.3s.29-1.71.34-3.18c.03-.32.13-.55.3-.7s.41-.22.7-.22h.12c.27,0,.49.08.68.24.19.16.28.39.28.68v5.32l-1-.64h6.24c.35,0,.61.09.78.26.17.17.26.42.26.74,0,.67-.35,1-1.04,1h-6.2l.96-.88v14.52c0,1.17.28,2.07.84,2.7.56.63,1.36.94,2.4.94.51,0,1.16-.09,1.96-.28.11,0,.27-.03.48-.08.19-.05.36-.04.52.04s.28.21.36.4c.08.21.09.42.02.62-.07.2-.21.37-.42.5-.45.29-.97.5-1.54.62-.57.12-1.29.18-2.14.18-1.57,0-2.81-.49-3.7-1.46Z"/>
        <path class="cls-1" d="M376.8,334.55c-.21-.17-.32-.43-.32-.78v-27.84c0-.35.11-.61.32-.78.21-.17.49-.26.84-.26h.24c.35,0,.63.09.84.26.21.17.32.43.32.78v11.28l-1.24.16c1.01-1.25,2.1-2.21,3.26-2.86,1.16-.65,2.55-.98,4.18-.98,2.24,0,3.96.61,5.18,1.84,1.21,1.23,1.82,3.17,1.82,5.84v12.56c0,.35-.1.61-.3.78s-.47.26-.82.26h-.28c-.35,0-.63-.09-.84-.26-.21-.17-.32-.43-.32-.78v-12.28c0-2.08-.42-3.57-1.26-4.48s-2.11-1.36-3.82-1.36c-1.25,0-2.35.24-3.3.72-.95.48-1.87,1.19-2.78,2.12l.52-.88v16.16c0,.35-.11.61-.32.78-.21.17-.49.26-.84.26h-.24c-.35,0-.62-.09-.84-.26Z"/>
        <path class="cls-1" d="M402.68,333.77c-1.41-.91-2.5-2.17-3.26-3.8-.76-1.63-1.14-3.51-1.14-5.64s.38-4.05,1.14-5.68c.76-1.63,1.87-2.89,3.32-3.78,1.45-.89,3.18-1.34,5.18-1.34,1.57,0,2.95.29,4.12.86s2.07,1.33,2.7,2.28c.62.95.94,1.97.94,3.06,0,1.57-.62,2.79-1.86,3.64-1.24.85-3.07,1.28-5.5,1.28h-8.16v-1.92h7.88c1.81,0,3.13-.25,3.94-.76.81-.51,1.22-1.28,1.22-2.32,0-1.2-.48-2.2-1.44-3-.96-.8-2.25-1.2-3.88-1.2-1.49,0-2.77.35-3.82,1.06-1.05.71-1.85,1.71-2.4,3-.55,1.29-.82,2.81-.82,4.54,0,2.8.64,4.99,1.92,6.56,1.28,1.57,3.04,2.36,5.28,2.36.99,0,1.97-.13,2.94-.38.97-.25,1.93-.59,2.86-1.02.29-.13.56-.17.8-.1.24.07.43.22.56.46s.16.48.08.72-.27.45-.56.64c-.93.56-2,1.01-3.2,1.34s-2.51.5-3.92.5c-1.87,0-3.51-.45-4.92-1.36Z"/>
        <path class="cls-1" d="M434.3,334.63c-1.13-.33-1.94-.7-2.42-1.1-.27-.21-.43-.43-.5-.66-.07-.23-.03-.46.1-.7.13-.24.32-.37.56-.4.24-.03.51.03.8.16.19.08.31.13.36.16.59.29,1.27.55,2.06.76.79.21,1.63.32,2.54.32,1.52,0,2.73-.38,3.64-1.14.91-.76,1.36-1.71,1.36-2.86,0-.61-.15-1.15-.44-1.62-.29-.47-.78-.89-1.46-1.26-.68-.37-1.58-.72-2.7-1.04l-.72-.2c-1.49-.43-2.67-.91-3.54-1.46-.87-.55-1.47-1.15-1.82-1.82-.35-.67-.52-1.44-.52-2.32,0-1.25.3-2.33.9-3.22.6-.89,1.42-1.57,2.46-2.02,1.04-.45,2.23-.68,3.56-.68,1.12,0,2.19.15,3.22.46,1.03.31,1.81.66,2.34,1.06.29.21.47.43.54.66s.02.46-.14.7c-.16.24-.35.37-.58.4-.23.03-.49-.03-.78-.16-.11-.05-.21-.11-.32-.16-.67-.29-1.36-.53-2.08-.72s-1.44-.28-2.16-.28c-1.39,0-2.49.33-3.3,1-.81.67-1.22,1.55-1.22,2.64,0,.59.13,1.09.38,1.52.25.43.69.81,1.3,1.14.61.33,1.44.65,2.48.94l.72.2c1.55.43,2.78.93,3.7,1.5s1.58,1.22,1.98,1.94c.4.72.6,1.55.6,2.48,0,1.23-.31,2.32-.92,3.28s-1.47,1.7-2.58,2.22c-1.11.52-2.38.78-3.82.78-1.25,0-2.45-.17-3.58-.5Z"/>
        <path class="cls-1" d="M452.78,333.27c-1.21-1.24-1.82-3.19-1.82-5.86v-12.52c0-.35.11-.61.32-.78.21-.17.49-.26.84-.26h.24c.35,0,.63.09.84.26.21.17.32.43.32.78v12.28c0,2.08.42,3.57,1.26,4.48.84.91,2.11,1.36,3.82,1.36,1.25,0,2.35-.24,3.3-.72.95-.48,1.89-1.19,2.82-2.12l-.52.92v-16.2c0-.37.1-.64.3-.8.2-.16.47-.24.82-.24h.28c.35,0,.62.09.84.26.21.17.32.43.32.78v18.88c0,.35-.11.61-.32.78-.21.17-.48.26-.8.26h-.2c-.32,0-.58-.09-.78-.26-.2-.17-.3-.43-.3-.78v-2.48l1.12-.04c-1.01,1.25-2.11,2.21-3.3,2.88-1.19.67-2.59,1-4.22,1-2.24,0-3.97-.62-5.18-1.86Z"/>
        <path class="cls-1" d="M474.35,342.87c-.21-.17-.32-.43-.32-.78v-27.2c0-.35.11-.61.32-.78.21-.17.48-.26.8-.26h.2c.32,0,.58.09.78.26.2.17.3.43.3.78v2.56l-1-.08c1.01-1.23,2.11-2.17,3.28-2.84,1.17-.67,2.53-1,4.08-1,1.76,0,3.29.45,4.6,1.34,1.31.89,2.3,2.16,2.98,3.8.68,1.64,1.02,3.53,1.02,5.66s-.35,4.01-1.06,5.64c-.71,1.63-1.72,2.89-3.04,3.8-1.32.91-2.88,1.36-4.66,1.36-1.55,0-2.91-.33-4.1-1-1.19-.67-2.29-1.63-3.3-2.88l1.36.04v10.8c0,.35-.11.61-.32.78-.21.17-.49.26-.84.26h-.24c-.35,0-.62-.09-.84-.26ZM485.67,331.95c1.01-.71,1.79-1.71,2.32-3.02s.8-2.84.8-4.6c0-2.69-.59-4.81-1.76-6.36-1.17-1.55-2.8-2.32-4.88-2.32-1.15,0-2.18.24-3.1.72-.92.48-1.85,1.19-2.78,2.12l.32-.92v13.52l-.36-.92c.93.93,1.86,1.64,2.78,2.12.92.48,1.95.72,3.1.72,1.36,0,2.54-.35,3.56-1.06Z"/>
        <path class="cls-1" d="M497.95,342.87c-.21-.17-.32-.43-.32-.78v-27.2c0-.35.11-.61.32-.78.21-.17.48-.26.8-.26h.2c.32,0,.58.09.78.26.2.17.3.43.3.78v2.56l-1-.08c1.01-1.23,2.11-2.17,3.28-2.84,1.17-.67,2.53-1,4.08-1,1.76,0,3.29.45,4.6,1.34,1.31.89,2.3,2.16,2.98,3.8.68,1.64,1.02,3.53,1.02,5.66s-.35,4.01-1.06,5.64c-.71,1.63-1.72,2.89-3.04,3.8-1.32.91-2.88,1.36-4.66,1.36-1.55,0-2.91-.33-4.1-1-1.19-.67-2.29-1.63-3.3-2.88l1.36.04v10.8c0,.35-.11.61-.32.78-.21.17-.49.26-.84.26h-.24c-.35,0-.62-.09-.84-.26ZM509.27,331.95c1.01-.71,1.79-1.71,2.32-3.02s.8-2.84.8-4.6c0-2.69-.59-4.81-1.76-6.36-1.17-1.55-2.8-2.32-4.88-2.32-1.15,0-2.18.24-3.1.72-.92.48-1.85,1.19-2.78,2.12l.32-.92v13.52l-.36-.92c.93.93,1.86,1.64,2.78,2.12.92.48,1.95.72,3.1.72,1.36,0,2.54-.35,3.56-1.06Z"/>
        <path class="cls-1" d="M524.51,333.79c-1.41-.89-2.5-2.16-3.26-3.8-.76-1.64-1.14-3.53-1.14-5.66s.38-4.02,1.14-5.66c.76-1.64,1.85-2.91,3.26-3.8,1.41-.89,3.08-1.34,5-1.34s3.59.45,5,1.34c1.41.89,2.49,2.16,3.24,3.8.75,1.64,1.12,3.53,1.12,5.66s-.37,4.02-1.12,5.66c-.75,1.64-1.83,2.91-3.24,3.8-1.41.89-3.08,1.34-5,1.34s-3.59-.45-5-1.34ZM533.13,331.99c1.03-.71,1.81-1.71,2.34-3.02s.8-2.85.8-4.64c0-2.69-.6-4.82-1.8-6.38-1.2-1.56-2.85-2.34-4.96-2.34-1.39,0-2.59.35-3.62,1.06-1.03.71-1.81,1.71-2.36,3.02-.55,1.31-.82,2.85-.82,4.64,0,2.69.61,4.82,1.82,6.38,1.21,1.56,2.87,2.34,4.98,2.34,1.39,0,2.59-.35,3.62-1.06Z"/>
        <path class="cls-1" d="M545.4,334.55c-.21-.17-.32-.43-.32-.78v-18.88c0-.35.11-.61.32-.78.21-.17.48-.26.8-.26h.2c.32,0,.58.09.78.26.2.17.3.43.3.78v5.56l-.48-.32c.21-1.28.66-2.41,1.34-3.4.68-.99,1.51-1.74,2.5-2.26.99-.52,2.07-.75,3.24-.7.35.03.59.12.74.28s.22.43.22.8c0,.43-.09.75-.28.96-.19.21-.48.32-.88.32-1.23,0-2.31.29-3.26.88-.95.59-1.68,1.42-2.2,2.5s-.78,2.33-.78,3.74v10.52c0,.35-.1.61-.3.78-.2.17-.47.26-.82.26h-.28c-.35,0-.63-.09-.84-.26Z"/>
        <path class="cls-1" d="M562.33,333.67c-.89-.97-1.34-2.34-1.34-4.1v-14.6l.88.88h-3.32c-.32,0-.57-.08-.74-.24s-.26-.37-.26-.64.07-.48.2-.64c.13-.16.32-.25.56-.28.91-.05,1.56-.19,1.96-.4.4-.21.69-.65.86-1.3s.29-1.71.34-3.18c.03-.32.13-.55.3-.7s.41-.22.7-.22h.12c.27,0,.49.08.68.24.19.16.28.39.28.68v5.32l-1-.64h6.24c.35,0,.61.09.78.26.17.17.26.42.26.74,0,.67-.35,1-1.04,1h-6.2l.96-.88v14.52c0,1.17.28,2.07.84,2.7.56.63,1.36.94,2.4.94.51,0,1.16-.09,1.96-.28.11,0,.27-.03.48-.08.19-.05.36-.04.52.04s.28.21.36.4c.08.21.09.42.02.62-.07.2-.21.37-.42.5-.45.29-.97.5-1.54.62-.57.12-1.29.18-2.14.18-1.57,0-2.81-.49-3.7-1.46Z"/>
        <path class="cls-1" d="M588.05,333.67c-.89-.97-1.34-2.34-1.34-4.1v-14.6l.88.88h-3.32c-.32,0-.57-.08-.74-.24s-.26-.37-.26-.64.07-.48.2-.64c.13-.16.32-.25.56-.28.91-.05,1.56-.19,1.96-.4.4-.21.69-.65.86-1.3s.29-1.71.34-3.18c.03-.32.13-.55.3-.7s.41-.22.7-.22h.12c.27,0,.49.08.68.24.19.16.28.39.28.68v5.32l-1-.64h6.24c.35,0,.61.09.78.26.17.17.26.42.26.74,0,.67-.35,1-1.04,1h-6.2l.96-.88v14.52c0,1.17.28,2.07.84,2.7.56.63,1.36.94,2.4.94.51,0,1.16-.09,1.96-.28.11,0,.27-.03.48-.08.19-.05.36-.04.52.04s.28.21.36.4c.08.21.09.42.02.62-.07.2-.21.37-.42.5-.45.29-.97.5-1.54.62-.57.12-1.29.18-2.14.18-1.57,0-2.81-.49-3.7-1.46Z"/>
        <path class="cls-1" d="M601.23,334.55c-.21-.17-.32-.43-.32-.78v-27.84c0-.35.11-.61.32-.78.21-.17.49-.26.84-.26h.24c.35,0,.63.09.84.26.21.17.32.43.32.78v11.28l-1.24.16c1.01-1.25,2.1-2.21,3.26-2.86,1.16-.65,2.55-.98,4.18-.98,2.24,0,3.96.61,5.18,1.84,1.21,1.23,1.82,3.17,1.82,5.84v12.56c0,.35-.1.61-.3.78s-.47.26-.82.26h-.28c-.35,0-.63-.09-.84-.26-.21-.17-.32-.43-.32-.78v-12.28c0-2.08-.42-3.57-1.26-4.48s-2.11-1.36-3.82-1.36c-1.25,0-2.35.24-3.3.72-.95.48-1.87,1.19-2.78,2.12l.52-.88v16.16c0,.35-.11.61-.32.78-.21.17-.49.26-.84.26h-.24c-.35,0-.62-.09-.84-.26Z"/>
        <path class="cls-1" d="M627.11,333.77c-1.41-.91-2.5-2.17-3.26-3.8-.76-1.63-1.14-3.51-1.14-5.64s.38-4.05,1.14-5.68c.76-1.63,1.87-2.89,3.32-3.78,1.45-.89,3.18-1.34,5.18-1.34,1.57,0,2.95.29,4.12.86s2.07,1.33,2.7,2.28c.62.95.94,1.97.94,3.06,0,1.57-.62,2.79-1.86,3.64-1.24.85-3.07,1.28-5.5,1.28h-8.16v-1.92h7.88c1.81,0,3.13-.25,3.94-.76.81-.51,1.22-1.28,1.22-2.32,0-1.2-.48-2.2-1.44-3-.96-.8-2.25-1.2-3.88-1.2-1.49,0-2.77.35-3.82,1.06-1.05.71-1.85,1.71-2.4,3-.55,1.29-.82,2.81-.82,4.54,0,2.8.64,4.99,1.92,6.56,1.28,1.57,3.04,2.36,5.28,2.36.99,0,1.97-.13,2.94-.38.97-.25,1.93-.59,2.86-1.02.29-.13.56-.17.8-.1.24.07.43.22.56.46s.16.48.08.72-.27.45-.56.64c-.93.56-2,1.01-3.2,1.34s-2.51.5-3.92.5c-1.87,0-3.51-.45-4.92-1.36Z"/>
        <path class="cls-1" d="M644.17,342.95c-.2-.15-.33-.37-.38-.66-.03-.21.03-.41.16-.58.13-.17.33-.3.6-.38,1.44-.37,2.64-1.03,3.6-1.96.96-.93,1.63-2.16,2-3.68.16-.61.2-1.19.12-1.72s-.27-1.23-.56-2.08c-.05-.21-.11-.37-.16-.48l-5.72-16.4c-.13-.4-.11-.69.06-.88s.45-.28.82-.28h.28c.35,0,.64.06.88.18s.41.35.52.7l5.88,17.48h-.4l5.68-17.56c.08-.27.21-.47.4-.6.19-.13.43-.2.72-.2h.24c.37,0,.63.09.78.28s.15.48.02.88l-7,21.08c-.48,1.44-1.12,2.69-1.92,3.74s-1.69,1.86-2.66,2.42c-.97.56-1.97.85-2.98.88-.45.03-.78-.03-.98-.18Z"/>
        <path class="cls-1" d="M678.51,333.79c-1.31-.89-2.31-2.16-3-3.8-.7-1.64-1.04-3.53-1.04-5.66s.36-4.01,1.08-5.64c.72-1.63,1.74-2.89,3.06-3.8,1.32-.91,2.87-1.36,4.66-1.36,1.54,0,2.91.33,4.1,1,1.19.67,2.29,1.61,3.3,2.84h-1.36v-11.44c0-.37.1-.64.3-.8.2-.16.47-.24.82-.24h.28c.35,0,.63.09.84.26.21.17.32.43.32.78v27.84c0,.35-.1.61-.3.78-.2.17-.46.26-.78.26-.4,0-.71-.09-.92-.26-.21-.17-.35-.43-.4-.78l-.16-2.72,1.16.2c-1.01,1.25-2.11,2.21-3.28,2.88-1.17.67-2.54,1-4.08,1-1.76,0-3.29-.45-4.6-1.34ZM686.85,332.29c.92-.48,1.83-1.19,2.74-2.12l-.28.92v-13.52l.32.92c-.91-.93-1.82-1.64-2.74-2.12-.92-.48-1.97-.72-3.14-.72-1.39,0-2.58.35-3.58,1.06-1,.71-1.77,1.71-2.3,3-.53,1.29-.8,2.83-.8,4.62,0,2.67.59,4.78,1.78,6.34,1.19,1.56,2.82,2.34,4.9,2.34,1.15,0,2.18-.24,3.1-.72Z"/>
        <path class="cls-1" d="M702.47,333.77c-1.41-.91-2.5-2.17-3.26-3.8-.76-1.63-1.14-3.51-1.14-5.64s.38-4.05,1.14-5.68c.76-1.63,1.87-2.89,3.32-3.78,1.45-.89,3.18-1.34,5.18-1.34,1.57,0,2.95.29,4.12.86s2.07,1.33,2.7,2.28c.62.95.94,1.97.94,3.06,0,1.57-.62,2.79-1.86,3.64-1.24.85-3.07,1.28-5.5,1.28h-8.16v-1.92h7.88c1.81,0,3.13-.25,3.94-.76.81-.51,1.22-1.28,1.22-2.32,0-1.2-.48-2.2-1.44-3-.96-.8-2.25-1.2-3.88-1.2-1.49,0-2.77.35-3.82,1.06-1.05.71-1.85,1.71-2.4,3-.55,1.29-.82,2.81-.82,4.54,0,2.8.64,4.99,1.92,6.56,1.28,1.57,3.04,2.36,5.28,2.36.99,0,1.97-.13,2.94-.38.97-.25,1.93-.59,2.86-1.02.29-.13.56-.17.8-.1.24.07.43.22.56.46s.16.48.08.72-.27.45-.56.64c-.93.56-2,1.01-3.2,1.34s-2.51.5-3.92.5c-1.87,0-3.51-.45-4.92-1.36Z"/>
        <path class="cls-1" d="M723.09,334.63c-1.13-.33-1.94-.7-2.42-1.1-.27-.21-.43-.43-.5-.66-.07-.23-.03-.46.1-.7.13-.24.32-.37.56-.4.24-.03.51.03.8.16.19.08.31.13.36.16.59.29,1.27.55,2.06.76.79.21,1.63.32,2.54.32,1.52,0,2.73-.38,3.64-1.14.91-.76,1.36-1.71,1.36-2.86,0-.61-.15-1.15-.44-1.62-.29-.47-.78-.89-1.46-1.26-.68-.37-1.58-.72-2.7-1.04l-.72-.2c-1.49-.43-2.67-.91-3.54-1.46-.87-.55-1.47-1.15-1.82-1.82-.35-.67-.52-1.44-.52-2.32,0-1.25.3-2.33.9-3.22.6-.89,1.42-1.57,2.46-2.02,1.04-.45,2.23-.68,3.56-.68,1.12,0,2.19.15,3.22.46,1.03.31,1.81.66,2.34,1.06.29.21.47.43.54.66s.02.46-.14.7c-.16.24-.35.37-.58.4-.23.03-.49-.03-.78-.16-.11-.05-.21-.11-.32-.16-.67-.29-1.36-.53-2.08-.72s-1.44-.28-2.16-.28c-1.39,0-2.49.33-3.3,1-.81.67-1.22,1.55-1.22,2.64,0,.59.13,1.09.38,1.52.25.43.69.81,1.3,1.14.61.33,1.44.65,2.48.94l.72.2c1.55.43,2.78.93,3.7,1.5s1.58,1.22,1.98,1.94c.4.72.6,1.55.6,2.48,0,1.23-.31,2.32-.92,3.28s-1.47,1.7-2.58,2.22c-1.11.52-2.38.78-3.82.78-1.25,0-2.45-.17-3.58-.5Z"/>
        <path class="cls-1" d="M743.23,333.77c-1.41-.91-2.5-2.17-3.26-3.8-.76-1.63-1.14-3.51-1.14-5.64s.38-4.05,1.14-5.68c.76-1.63,1.87-2.89,3.32-3.78,1.45-.89,3.18-1.34,5.18-1.34,1.57,0,2.95.29,4.12.86s2.07,1.33,2.7,2.28c.62.95.94,1.97.94,3.06,0,1.57-.62,2.79-1.86,3.64-1.24.85-3.07,1.28-5.5,1.28h-8.16v-1.92h7.88c1.81,0,3.13-.25,3.94-.76.81-.51,1.22-1.28,1.22-2.32,0-1.2-.48-2.2-1.44-3-.96-.8-2.25-1.2-3.88-1.2-1.49,0-2.77.35-3.82,1.06-1.05.71-1.85,1.71-2.4,3-.55,1.29-.82,2.81-.82,4.54,0,2.8.64,4.99,1.92,6.56,1.28,1.57,3.04,2.36,5.28,2.36.99,0,1.97-.13,2.94-.38.97-.25,1.93-.59,2.86-1.02.29-.13.56-.17.8-.1.24.07.43.22.56.46s.16.48.08.72-.27.45-.56.64c-.93.56-2,1.01-3.2,1.34s-2.51.5-3.92.5c-1.87,0-3.51-.45-4.92-1.36Z"/>
        <path class="cls-1" d="M762.51,334.55c-.21-.17-.32-.43-.32-.78v-18.88c0-.35.11-.61.32-.78.21-.17.48-.26.8-.26h.2c.32,0,.58.09.78.26.2.17.3.43.3.78v5.56l-.48-.32c.21-1.28.66-2.41,1.34-3.4.68-.99,1.51-1.74,2.5-2.26.99-.52,2.07-.75,3.24-.7.35.03.59.12.74.28s.22.43.22.8c0,.43-.09.75-.28.96-.19.21-.48.32-.88.32-1.23,0-2.31.29-3.26.88-.95.59-1.68,1.42-2.2,2.5s-.78,2.33-.78,3.74v10.52c0,.35-.1.61-.3.78-.2.17-.47.26-.82.26h-.28c-.35,0-.63-.09-.84-.26Z"/>
        <path class="cls-1" d="M782.43,334.59c-.21-.15-.37-.38-.48-.7l-6.72-18.88c-.13-.4-.11-.69.08-.88.19-.19.47-.28.84-.28h.28c.35,0,.63.07.86.2s.39.36.5.68l5.84,17.12-.52-.04,5.84-17.08c.13-.29.29-.51.48-.66.19-.15.43-.22.72-.22h.24c.35,0,.61.09.78.28s.18.48.02.88l-6.68,18.88c-.11.32-.27.55-.48.7-.21.15-.46.22-.72.22h-.16c-.27,0-.51-.07-.72-.22Z"/>
        <path class="cls-1" d="M799.51,333.77c-1.41-.91-2.5-2.17-3.26-3.8-.76-1.63-1.14-3.51-1.14-5.64s.38-4.05,1.14-5.68c.76-1.63,1.87-2.89,3.32-3.78,1.45-.89,3.18-1.34,5.18-1.34,1.57,0,2.95.29,4.12.86s2.07,1.33,2.7,2.28c.62.95.94,1.97.94,3.06,0,1.57-.62,2.79-1.86,3.64-1.24.85-3.07,1.28-5.5,1.28h-8.16v-1.92h7.88c1.81,0,3.13-.25,3.94-.76.81-.51,1.22-1.28,1.22-2.32,0-1.2-.48-2.2-1.44-3-.96-.8-2.25-1.2-3.88-1.2-1.49,0-2.77.35-3.82,1.06-1.05.71-1.85,1.71-2.4,3-.55,1.29-.82,2.81-.82,4.54,0,2.8.64,4.99,1.92,6.56,1.28,1.57,3.04,2.36,5.28,2.36.99,0,1.97-.13,2.94-.38.97-.25,1.93-.59,2.86-1.02.29-.13.56-.17.8-.1.24.07.43.22.56.46s.16.48.08.72-.27.45-.56.64c-.93.56-2,1.01-3.2,1.34s-2.51.5-3.92.5c-1.87,0-3.51-.45-4.92-1.36Z"/>
        <path class="cls-1" d="M818.17,334.67c-.28-.31-.42-.73-.42-1.26s.14-.95.42-1.24c.28-.29.67-.44,1.18-.44.53,0,.94.15,1.22.44.28.29.42.71.42,1.24s-.14.95-.42,1.26c-.28.31-.69.46-1.22.46s-.9-.15-1.18-.46Z"/>
      </g>
    </g>
  </g>
</svg>