<?xml version="1.0" encoding="UTF-8"?>
<svg id="Layer_2" data-name="Layer 2" xmlns="http://www.w3.org/2000/svg" viewBox="0 0 300.13 49.37">
  <defs>
    <style>
      .cls-1 {
        fill: #fff;
      }

      .cls-2 {
        opacity: .1;
      }

      .cls-3 {
        fill: #fdfbe2;
      }
    </style>
  </defs>
  <g id="Logo">
    <g>
      <g class="cls-2">
        <rect class="cls-1" x="0" y="0" width="300.13" height="49.37"/>
      </g>
      <g>
        <path class="cls-3" d="M33.46,37.12c-.26-.19-.39-.49-.39-.87V13.42l1.44,1.41h-7.3c-.43,0-.75-.1-.94-.31-.19-.21-.29-.49-.29-.86,0-.39.1-.69.29-.89.19-.21.51-.31.94-.31h14.85c.41,0,.71.1.91.31.19.21.29.5.29.89,0,.37-.1.65-.29.86-.19.21-.5.31-.91.31h-7.27l1.37-1.41v22.83c0,.39-.13.68-.39.87-.26.19-.59.29-.98.29h-.27c-.43,0-.78-.1-1.05-.29Z"/>
        <path class="cls-3" d="M53.86,36.11c-1.79-1.05-3.2-2.54-4.2-4.47-1.01-1.93-1.51-4.17-1.51-6.7s.5-4.77,1.51-6.7c1-1.93,2.41-3.42,4.2-4.47,1.79-1.05,3.81-1.58,6.05-1.58s4.25.53,6.03,1.58c1.78,1.05,3.18,2.54,4.18,4.47,1,1.93,1.51,4.17,1.51,6.7s-.5,4.77-1.51,6.7c-1.01,1.93-2.4,3.42-4.18,4.47-1.78,1.05-3.79,1.58-6.03,1.58s-4.26-.53-6.05-1.58ZM64.28,34.09c1.31-.82,2.35-2.02,3.1-3.6s1.13-3.43,1.13-5.55-.38-3.98-1.13-5.55-1.79-2.78-3.1-3.6c-1.32-.82-2.77-1.23-4.37-1.23s-3.09.41-4.41,1.23c-1.31.82-2.35,2.02-3.1,3.6-.75,1.58-1.13,3.43-1.13,5.55s.38,3.98,1.13,5.55c.75,1.58,1.79,2.78,3.1,3.6,1.31.82,2.78,1.23,4.41,1.23s3.06-.41,4.37-1.23Z"/>
        <path class="cls-3" d="M81.01,37.12c-.26-.19-.39-.49-.39-.87V13.62c0-.39.13-.68.39-.87.26-.19.59-.29.98-.29h.31c.41,0,.74.1.99.29.25.19.38.49.38.87v22.63c0,.39-.13.68-.38.87-.25.19-.58.29-.99.29h-.31c-.39,0-.71-.1-.98-.29ZM94.9,37.21c-.33-.14-.67-.4-1.01-.79l-10.49-11.59-.1-.62,10.42-10.73c.39-.39.72-.66.99-.81.27-.15.59-.22.96-.22h.27c.37,0,.65.08.84.24.19.16.28.37.26.63-.02.26-.15.52-.38.77l-10.73,10.97-.1-1.89,11.28,12.41c.41.48.52.9.33,1.27s-.58.55-1.15.55h-.27c-.41,0-.78-.07-1.11-.21Z"/>
        <path class="cls-3" d="M105.65,37c-.27-.27-.41-.66-.41-1.17V14.03c0-.48.14-.86.41-1.15.27-.29.66-.43,1.17-.43h11.31c.43,0,.74.1.91.31.17.21.26.5.26.89,0,.37-.09.65-.26.86-.17.21-.47.31-.91.31h-10.9l1.06-1.13v22.25l-.99-.89h11.18c.43,0,.74.1.91.31.17.21.26.49.26.86,0,.39-.09.69-.26.89-.17.21-.47.31-.91.31h-11.66c-.5,0-.89-.14-1.17-.41ZM106.67,23.15h10.42c.43,0,.74.1.91.31.17.21.26.51.26.93,0,.39-.09.68-.26.87-.17.19-.47.29-.91.29h-10.42v-2.4Z"/>
        <path class="cls-3" d="M128.55,37.12c-.21-.19-.31-.47-.31-.84V13.76c0-.43.11-.76.34-.98.23-.22.57-.33,1.03-.33.34,0,.63.08.87.24.24.16.5.45.77.86l13.51,19.85-1.1.45V13.55c0-.37.1-.64.31-.82.21-.18.49-.27.86-.27h.27c.39,0,.68.09.87.27.19.18.29.46.29.82v22.56c0,.39-.12.7-.34.94-.23.24-.57.36-1.03.36-.34,0-.63-.08-.87-.24-.24-.16-.5-.45-.77-.86l-13.51-19.85,1.06-.48v20.3c0,.37-.1.65-.29.84-.19.19-.46.29-.81.29h-.31c-.37,0-.65-.1-.86-.29Z"/>
        <path class="cls-3" d="M160.97,36.11c-1.79-1.05-3.2-2.54-4.2-4.47-1.01-1.93-1.51-4.17-1.51-6.7s.5-4.77,1.51-6.7c1-1.93,2.41-3.42,4.2-4.47,1.79-1.05,3.81-1.58,6.05-1.58s4.25.53,6.03,1.58c1.78,1.05,3.18,2.54,4.18,4.47,1,1.93,1.51,4.17,1.51,6.7s-.5,4.77-1.51,6.7c-1.01,1.93-2.4,3.42-4.18,4.47-1.78,1.05-3.79,1.58-6.03,1.58s-4.26-.53-6.05-1.58ZM171.39,34.09c1.31-.82,2.35-2.02,3.1-3.6s1.13-3.43,1.13-5.55-.38-3.98-1.13-5.55-1.79-2.78-3.1-3.6c-1.32-.82-2.77-1.23-4.37-1.23s-3.09.41-4.41,1.23c-1.31.82-2.35,2.02-3.1,3.6-.75,1.58-1.13,3.43-1.13,5.55s.38,3.98,1.13,5.55c.75,1.58,1.79,2.78,3.1,3.6,1.31.82,2.78,1.23,4.41,1.23s3.06-.41,4.37-1.23Z"/>
        <path class="cls-3" d="M188.03,37.11c-.21-.21-.31-.49-.31-.86V13.76c0-.43.12-.76.36-.98.24-.22.58-.33,1.01-.33.41,0,.75.09,1.01.27.26.18.54.5.84.96l8.81,14.85h-2.02l8.81-14.85c.3-.46.58-.78.86-.96.27-.18.62-.27,1.03-.27s.74.11.98.33c.24.22.36.54.36.98v22.49c0,.39-.12.68-.36.87-.24.19-.55.29-.94.29h-.31c-.41,0-.74-.1-.98-.29-.24-.19-.36-.49-.36-.87v-20.13l1.44-.41-8.71,14.74c-.14.23-.28.39-.43.48s-.33.14-.53.14c-.23,0-.42-.05-.57-.14-.15-.09-.3-.25-.46-.48l-8.67-14.74,1.41.41v20.13c0,.37-.1.65-.29.86s-.46.31-.81.31h-.31c-.37,0-.65-.1-.86-.31Z"/>
        <path class="cls-3" d="M220.25,37.12c-.26-.19-.39-.49-.39-.87V13.62c0-.39.13-.68.39-.87.26-.19.59-.29.98-.29h.31c.41,0,.74.1.99.29.25.19.38.49.38.87v22.63c0,.39-.13.68-.38.87-.25.19-.58.29-.99.29h-.31c-.39,0-.71-.1-.98-.29Z"/>
        <path class="cls-3" d="M237.59,36.11c-1.77-1.05-3.17-2.54-4.18-4.47-1.02-1.93-1.53-4.17-1.53-6.7s.51-4.77,1.53-6.7c1.02-1.93,2.41-3.42,4.18-4.47,1.77-1.05,3.75-1.58,5.95-1.58,1.39,0,2.74.2,4.05.6,1.3.4,2.42.93,3.36,1.59.32.23.52.49.6.77.08.29.03.58-.15.87-.14.23-.35.37-.65.43-.3.06-.61,0-.93-.19-.21-.11-.43-.23-.69-.34-.87-.39-1.75-.7-2.66-.94-.9-.24-1.8-.36-2.69-.36-1.67,0-3.17.41-4.51,1.23s-2.38,2.01-3.14,3.57c-.75,1.55-1.13,3.37-1.13,5.45s.38,3.93,1.15,5.49c.77,1.55,1.82,2.75,3.15,3.58,1.34.83,2.84,1.25,4.51,1.25,1,0,2.03-.16,3.09-.48,1.05-.32,2.06-.75,3.02-1.3.34-.14.65-.18.93-.14s.49.18.65.41c.16.27.2.55.12.84s-.27.55-.57.81c-.98.73-2.14,1.31-3.48,1.73-1.34.42-2.68.63-4.03.63-2.19,0-4.18-.53-5.95-1.58Z"/>
        <path class="cls-3" d="M262.11,37.07c-1.2-.41-2.25-.97-3.14-1.68-.25-.21-.39-.43-.43-.69-.03-.25.03-.5.19-.75.14-.25.34-.39.62-.43.27-.03.56.02.86.15.98.55,1.95.97,2.92,1.27.96.3,1.89.45,2.78.45,1.03,0,1.92-.19,2.67-.58.75-.39,1.34-.91,1.75-1.58.41-.66.62-1.42.62-2.26,0-1.01-.38-1.9-1.15-2.67-.77-.78-1.97-1.47-3.62-2.09l-.82-.27c-1.44-.5-2.63-1.07-3.57-1.7-.94-.63-1.64-1.37-2.11-2.23-.47-.86-.7-1.85-.7-2.97,0-1.37.34-2.58,1.01-3.62.67-1.04,1.59-1.84,2.76-2.4,1.17-.56,2.46-.84,3.88-.84,1.23,0,2.39.17,3.48.51s2.03.83,2.83,1.47c.25.21.39.43.43.67.03.24-.03.49-.19.74-.14.25-.34.41-.62.46-.27.06-.55,0-.82-.19-.8-.41-1.61-.74-2.43-.99-.82-.25-1.65-.38-2.47-.38-1.42,0-2.57.37-3.46,1.11-.89.74-1.34,1.75-1.34,3.03,0,.96.33,1.79.99,2.5s1.77,1.34,3.33,1.89l.82.31c2.29.8,3.99,1.77,5.11,2.91,1.12,1.14,1.68,2.58,1.68,4.32,0,1.42-.34,2.66-1.03,3.74-.69,1.07-1.63,1.91-2.85,2.5-1.21.59-2.57.89-4.08.89-1.39,0-2.69-.21-3.89-.62Z"/>
      </g>
    </g>
  </g>
</svg>