<?xml version="1.0" encoding="UTF-8"?>
<svg id="Layer_2" data-name="Layer 2" xmlns="http://www.w3.org/2000/svg" viewBox="0 0 300.13 49.37">
  <defs>
    <style>
      .cls-1 {
        fill: #fff;
      }

      .cls-2 {
        opacity: .1;
      }

      .cls-3 {
        fill: #fdfbe2;
      }
    </style>
  </defs>
  <g id="Logo">
    <g>
      <g class="cls-2">
        <rect class="cls-1" x="0" y="0" width="300.13" height="49.37"/>
      </g>
      <g>
        <path class="cls-3" d="M26.32,37.12c-.26-.19-.39-.49-.39-.87V13.42l1.44,1.41h-7.3c-.43,0-.75-.1-.94-.31-.19-.21-.29-.49-.29-.86,0-.39.1-.69.29-.89.19-.21.51-.31.94-.31h14.85c.41,0,.71.1.91.31.19.21.29.5.29.89,0,.37-.1.65-.29.86-.19.21-.5.31-.91.31h-7.27l1.37-1.41v22.83c0,.39-.13.68-.39.87-.26.19-.59.29-.98.29h-.27c-.43,0-.78-.1-1.05-.29Z"/>
        <path class="cls-3" d="M46.72,36.11c-1.79-1.05-3.2-2.54-4.2-4.47-1.01-1.93-1.51-4.17-1.51-6.7s.5-4.77,1.51-6.7c1-1.93,2.41-3.42,4.2-4.47,1.79-1.05,3.81-1.58,6.05-1.58s4.25.53,6.03,1.58c1.78,1.05,3.18,2.54,4.18,4.47,1,1.93,1.51,4.17,1.51,6.7s-.5,4.77-1.51,6.7c-1.01,1.93-2.4,3.42-4.18,4.47-1.78,1.05-3.79,1.58-6.03,1.58s-4.26-.53-6.05-1.58ZM57.15,34.09c1.31-.82,2.35-2.02,3.1-3.6s1.13-3.43,1.13-5.55-.38-3.98-1.13-5.55-1.79-2.78-3.1-3.6c-1.32-.82-2.77-1.23-4.37-1.23s-3.09.41-4.41,1.23c-1.31.82-2.35,2.02-3.1,3.6-.75,1.58-1.13,3.43-1.13,5.55s.38,3.98,1.13,5.55c.75,1.58,1.79,2.78,3.1,3.6,1.31.82,2.78,1.23,4.41,1.23s3.06-.41,4.37-1.23Z"/>
        <path class="cls-3" d="M76.9,37.12c-.26-.19-.39-.49-.39-.87V13.42l1.44,1.41h-7.3c-.43,0-.75-.1-.94-.31-.19-.21-.29-.49-.29-.86,0-.39.1-.69.29-.89.19-.21.51-.31.94-.31h14.85c.41,0,.71.1.91.31.19.21.29.5.29.89,0,.37-.1.65-.29.86-.19.21-.5.31-.91.31h-7.27l1.37-1.41v22.83c0,.39-.13.68-.39.87-.26.19-.59.29-.98.29h-.27c-.43,0-.78-.1-1.05-.29Z"/>
        <path class="cls-3" d="M89.65,37.06c-.19-.24-.2-.6-.02-1.08l8.26-22.32c.3-.8.82-1.2,1.58-1.2h.17c.73,0,1.25.4,1.54,1.2l8.3,22.32c.18.48.15.84-.09,1.08-.24.24-.58.36-1.01.36h-.34c-.46,0-.83-.09-1.11-.27-.29-.18-.49-.49-.6-.93l-7.58-20.95,1.3-.41-7.78,21.36c-.16.43-.36.74-.6.93-.24.18-.53.27-.88.27h-.31c-.37,0-.65-.12-.84-.36ZM93.88,28.57h10.94v2.16h-10.94v-2.16Z"/>
        <path class="cls-3" d="M118.16,37c-.27-.27-.41-.66-.41-1.17V13.62c0-.39.13-.68.39-.87.26-.19.59-.29.98-.29h.31c.41,0,.74.1.99.29.25.19.38.49.38.87v22.59l-1.17-1.17h9.5c.43,0,.74.1.91.31.17.21.26.49.26.86,0,.39-.09.69-.26.89-.17.21-.47.31-.91.31h-9.81c-.5,0-.89-.14-1.17-.41Z"/>
        <path class="cls-3" d="M151.84,37.07c-1.2-.41-2.25-.97-3.14-1.68-.25-.21-.39-.43-.43-.69-.03-.25.03-.5.19-.75.14-.25.34-.39.62-.43.27-.03.56.02.86.15.98.55,1.95.97,2.92,1.27.96.3,1.89.45,2.78.45,1.03,0,1.92-.19,2.67-.58.75-.39,1.34-.91,1.75-1.58.41-.66.62-1.42.62-2.26,0-1.01-.38-1.9-1.15-2.67-.77-.78-1.97-1.47-3.62-2.09l-.82-.27c-1.44-.5-2.63-1.07-3.57-1.7-.94-.63-1.64-1.37-2.11-2.23-.47-.86-.7-1.85-.7-2.97,0-1.37.34-2.58,1.01-3.62.67-1.04,1.59-1.84,2.76-2.4,1.17-.56,2.46-.84,3.88-.84,1.23,0,2.39.17,3.48.51s2.03.83,2.83,1.47c.25.21.39.43.43.67.03.24-.03.49-.19.74-.14.25-.34.41-.62.46-.27.06-.55,0-.82-.19-.8-.41-1.61-.74-2.43-.99-.82-.25-1.65-.38-2.47-.38-1.42,0-2.57.37-3.46,1.11-.89.74-1.34,1.75-1.34,3.03,0,.96.33,1.79.99,2.5s1.77,1.34,3.33,1.89l.82.31c2.29.8,3.99,1.77,5.11,2.91,1.12,1.14,1.68,2.58,1.68,4.32,0,1.42-.34,2.66-1.03,3.74-.69,1.07-1.63,1.91-2.85,2.5-1.21.59-2.57.89-4.08.89-1.39,0-2.69-.21-3.89-.62Z"/>
        <path class="cls-3" d="M176.19,36.52c-1.32-.78-2.3-1.87-2.95-3.27-.65-1.41-.98-3.06-.98-4.95v-14.67c0-.39.13-.68.39-.87.26-.19.59-.29.98-.29h.31c.41,0,.74.1.99.29.25.19.38.49.38.87v14.91c0,2.1.51,3.75,1.54,4.95,1.03,1.2,2.51,1.8,4.46,1.8s3.45-.59,4.44-1.78c.99-1.19,1.49-2.85,1.49-4.97v-14.91c0-.39.1-.68.31-.87.21-.19.48-.29.82-.29h.34c.34,0,.62.1.82.29.21.19.31.49.31.87v14.67c0,2.86-.75,5.14-2.25,6.84s-3.67,2.55-6.53,2.55c-1.94,0-3.57-.39-4.89-1.17Z"/>
        <path class="cls-3" d="M200.12,37.12c-.26-.19-.39-.49-.39-.87V14.03c0-.48.14-.86.41-1.15.27-.29.66-.43,1.17-.43h5.9c1.76,0,3.27.3,4.54.91,1.27.61,2.23,1.46,2.88,2.57s.98,2.43.98,3.96-.34,2.82-1.01,3.94c-.67,1.12-1.64,1.98-2.9,2.59-1.26.61-2.75.91-4.49.91h-4.94v-2.3h4.35c1.92,0,3.37-.42,4.35-1.27.98-.85,1.47-2.13,1.47-3.84s-.49-3.01-1.47-3.87c-.98-.87-2.43-1.3-4.35-1.3h-4.56l.72-.96v22.46c0,.39-.13.68-.38.87-.25.19-.58.29-.99.29h-.31c-.39,0-.71-.1-.98-.29Z"/>
        <path class="cls-3" d="M224.32,37.12c-.26-.19-.39-.49-.39-.87V14.03c0-.48.14-.86.41-1.15.27-.29.66-.43,1.17-.43h5.9c1.76,0,3.27.3,4.54.91,1.27.61,2.23,1.46,2.88,2.57s.98,2.43.98,3.96-.34,2.82-1.01,3.94c-.67,1.12-1.64,1.98-2.9,2.59-1.26.61-2.75.91-4.49.91h-4.94v-2.3h4.35c1.92,0,3.37-.42,4.35-1.27.98-.85,1.47-2.13,1.47-3.84s-.49-3.01-1.47-3.87c-.98-.87-2.43-1.3-4.35-1.3h-4.56l.72-.96v22.46c0,.39-.13.68-.38.87-.25.19-.58.29-.99.29h-.31c-.39,0-.71-.1-.98-.29Z"/>
        <path class="cls-3" d="M248.55,37c-.27-.27-.41-.66-.41-1.17V13.62c0-.39.13-.68.39-.87.26-.19.59-.29.98-.29h.31c.41,0,.74.1.99.29.25.19.38.49.38.87v22.59l-1.17-1.17h9.5c.43,0,.74.1.91.31.17.21.26.49.26.86,0,.39-.09.69-.26.89-.17.21-.47.31-.91.31h-9.81c-.5,0-.89-.14-1.17-.41Z"/>
        <path class="cls-3" d="M263.7,12.8c.25-.23.61-.34,1.06-.34h.27c.46,0,.83.09,1.11.26.29.17.52.47.7.91l6.72,13.65-1.78.34,6.89-13.99c.21-.43.43-.74.67-.91.24-.17.54-.26.91-.26h.31c.39,0,.69.11.89.34.21.23.19.58-.03,1.06l-7.71,15.43h-2.26l-7.78-15.43c-.23-.48-.22-.83.03-1.06ZM271.43,37.12c-.26-.19-.39-.49-.39-.87v-9.5h3.05v9.5c0,.39-.13.68-.38.87-.25.19-.58.29-.99.29h-.27c-.41,0-.75-.1-1.01-.29Z"/>
      </g>
    </g>
  </g>
</svg>