<?xml version="1.0" encoding="UTF-8"?>
<svg id="Layer_2" data-name="Layer 2" xmlns="http://www.w3.org/2000/svg" xmlns:xlink="http://www.w3.org/1999/xlink" viewBox="0 0 971.85 135.93">
  <defs>
    <style>
      .cls-1 {
        fill: none;
        filter: url(#outer-glow-1);
        stroke: #ff0092;
        stroke-miterlimit: 10;
        stroke-width: 4px;
      }

      .cls-2 {
        fill: #fdfbe2;
      }
    </style>
    <filter id="outer-glow-1" x="0" y="0" width="971.85" height="135.93" filterUnits="userSpaceOnUse">
      <feOffset dx="0" dy="0"/>
      <feGaussianBlur result="blur" stdDeviation="2.67"/>
      <feFlood flood-color="#a4509f" flood-opacity="1"/>
      <feComposite in2="blur" operator="in"/>
      <feComposite in="SourceGraphic"/>
    </filter>
  </defs>
  <g id="Telegram_Button" data-name="Telegram Button">
    <g>
      <rect class="cls-1" x="2" y="2" width="967.85" height="131.93" rx="65.96" ry="65.96"/>
      <g>
        <path class="cls-2" d="M270.81,43.45h2.27v-2.27h38.56v2.27h2.27v9.07h-2.27v2.27h-11.34v34.02h-2.27v2.27h-11.34v-2.27h-2.27v-34.02h-11.34v-2.27h-2.27v-9.07ZM273.08,45.72v4.54h2.27v2.27h11.34v18.14h2.27v2.27h2.27v2.27h2.27v-2.27h-2.27v-2.27h-2.27v-2.27h2.27v2.27h2.27v2.27h2.27v2.27h2.27v-2.27h-2.27v-2.27h-2.27v-2.27h2.27v2.27h2.27v-18.14h11.34v-2.27h2.27v-4.54h-2.27v-2.27h-34.02v2.27h-2.27ZM286.69,75.2h2.27v-2.27h-2.27v2.27Z"/>
        <path class="cls-2" d="M325.16,43.45v-2.27h11.34v2.27h2.27v13.61h2.27v13.61h2.27v-9.07h2.27v-11.34h2.27v-6.8h2.27v-2.27h11.34v2.27h2.27v6.8h2.27v11.34h2.27v9.07h2.27v-13.61h2.27v-13.61h2.27v-2.27h11.34v2.27h2.27v13.61h-2.27v13.61h-2.27v9.07h-2.27v6.8h-2.27v2.27h-2.27v2.27h-13.61v-2.27h-2.27v-2.27h-2.27v-6.8h-2.27v-6.8h-2.27v6.8h-2.27v6.8h-2.27v2.27h-2.27v2.27h-13.61v-2.27h-2.27v-2.27h-2.27v-6.8h-2.27v-9.07h-2.27v-13.61h-2.27v-13.61h2.27ZM325.16,45.72v9.07h2.27v13.61h2.27v2.27h2.27v2.27h2.27v2.27h2.27v-2.27h-2.27v-2.27h-2.27v-2.27h2.27v2.27h2.27v2.27h2.27v2.27h2.27v-2.27h-2.27v-2.27h-2.27v-2.27h2.27v-9.07h-2.27v-13.61h-2.27v-2.27h-6.8v2.27h-2.27ZM329.69,75.2h2.27v-2.27h-2.27v2.27ZM343.3,75.2h2.27v-2.27h-2.27v2.27ZM350.1,45.72v6.8h-2.27v11.34h-2.27v4.54h2.27v2.27h2.27v2.27h2.27v-2.27h-2.27v-2.27h2.27v2.27h2.27v-2.27h2.27v2.27h2.27v2.27h2.27v2.27h2.27v-2.27h-2.27v-2.27h-2.27v-2.27h2.27v2.27h2.27v2.27h2.27v2.27h2.27v-2.27h-2.27v-2.27h-2.27v-2.27h2.27v-4.54h-2.27v-11.34h-2.27v-6.8h-2.27v-2.27h-6.8v2.27h-2.27ZM345.57,72.93h2.27v2.27h2.27v-2.27h-2.27v-2.27h-2.27v2.27ZM370.52,75.2h2.27v-2.27h-2.27v2.27ZM375.05,45.72v13.61h-2.27v9.07h2.27v2.27h2.27v2.27h2.27v2.27h2.27v-2.27h-2.27v-2.27h-2.27v-2.27h2.27v2.27h2.27v-2.27h2.27v-13.61h2.27v-9.07h-2.27v-2.27h-6.8v2.27h-2.27ZM372.78,72.93h2.27v2.27h2.27v-2.27h-2.27v-2.27h-2.27v2.27Z"/>
        <path class="cls-2" d="M399.92,43.45v-2.27h11.34v2.27h2.27v45.36h-2.27v2.27h-11.34v-2.27h-2.27v-45.36h2.27ZM399.92,45.72v24.95h2.27v2.27h2.27v2.27h2.27v-2.27h-2.27v-2.27h-2.27v-2.27h2.27v2.27h2.27v2.27h2.27v2.27h2.27v-2.27h-2.27v-2.27h-2.27v-2.27h2.27v2.27h2.27v-24.95h-2.27v-2.27h-6.8v2.27h-2.27ZM399.92,75.2h2.27v-2.27h-2.27v2.27Z"/>
        <path class="cls-2" d="M422.51,43.45h2.27v-2.27h38.56v2.27h2.27v9.07h-2.27v2.27h-11.34v34.02h-2.27v2.27h-11.34v-2.27h-2.27v-34.02h-11.34v-2.27h-2.27v-9.07ZM424.78,45.72v4.54h2.27v2.27h11.34v18.14h2.27v2.27h2.27v2.27h2.27v-2.27h-2.27v-2.27h-2.27v-2.27h2.27v2.27h2.27v2.27h2.27v2.27h2.27v-2.27h-2.27v-2.27h-2.27v-2.27h2.27v2.27h2.27v-18.14h11.34v-2.27h2.27v-4.54h-2.27v-2.27h-34.02v2.27h-2.27ZM438.39,75.2h2.27v-2.27h-2.27v2.27Z"/>
        <path class="cls-2" d="M474.59,43.45h2.27v-2.27h38.56v2.27h2.27v9.07h-2.27v2.27h-11.34v34.02h-2.27v2.27h-11.34v-2.27h-2.27v-34.02h-11.34v-2.27h-2.27v-9.07ZM476.86,45.72v4.54h2.27v2.27h11.34v18.14h2.27v2.27h2.27v2.27h2.27v-2.27h-2.27v-2.27h-2.27v-2.27h2.27v2.27h2.27v2.27h2.27v2.27h2.27v-2.27h-2.27v-2.27h-2.27v-2.27h2.27v2.27h2.27v-18.14h11.34v-2.27h2.27v-4.54h-2.27v-2.27h-34.02v2.27h-2.27ZM490.46,75.2h2.27v-2.27h-2.27v2.27Z"/>
        <path class="cls-2" d="M528.94,43.45v-2.27h31.75v2.27h2.27v9.07h-2.27v2.27h-18.14v4.54h13.61v2.27h2.27v9.07h-2.27v2.27h-13.61v4.54h18.14v2.27h2.27v9.07h-2.27v2.27h-31.75v-2.27h-2.27v-45.36h2.27ZM528.94,45.72v24.95h2.27v2.27h2.27v2.27h2.27v-2.27h-2.27v-2.27h-2.27v-2.27h2.27v2.27h2.27v2.27h2.27v2.27h2.27v-2.27h-2.27v-2.27h-2.27v-2.27h2.27v2.27h2.27v-2.27h2.27v2.27h2.27v-2.27h2.27v2.27h2.27v-2.27h2.27v2.27h2.27v-2.27h2.27v-4.54h-2.27v-2.27h-13.61v-9.07h18.14v-2.27h2.27v-4.54h-2.27v-2.27h-27.22v2.27h-2.27ZM528.94,75.2h2.27v-2.27h-2.27v2.27Z"/>
        <path class="cls-2" d="M576.48,43.45v-2.27h29.48v2.27h4.54v2.27h2.27v2.27h2.27v4.54h2.27v11.34h-2.27v4.54h-2.27v2.27h-2.27v4.54h2.27v4.54h2.27v2.27h2.27v6.8h-2.27v2.27h-13.61v-2.27h-2.27v-4.54h-2.27v-4.54h-2.27v-4.54h-4.54v13.61h-2.27v2.27h-11.34v-2.27h-2.27v-45.36h2.27ZM576.48,45.72v24.95h2.27v2.27h2.27v2.27h2.27v-2.27h-2.27v-2.27h-2.27v-2.27h2.27v2.27h2.27v2.27h2.27v2.27h2.27v-2.27h-2.27v-2.27h-2.27v-2.27h2.27v2.27h2.27v2.27h2.27v-2.27h-2.27v-2.27h2.27v2.27h2.27v2.27h2.27v-2.27h-2.27v-2.27h2.27v2.27h2.27v2.27h2.27v2.27h2.27v-2.27h-2.27v-2.27h-2.27v-2.27h2.27v2.27h2.27v2.27h2.27v2.27h2.27v-2.27h-2.27v-2.27h-2.27v-2.27h2.27v2.27h2.27v2.27h2.27v-2.27h-2.27v-2.27h4.54v-2.27h2.27v-4.54h2.27v-6.8h-2.27v-4.54h-2.27v-2.27h-2.27v-2.27h-4.54v-2.27h-24.95v2.27h-2.27ZM576.48,75.2h2.27v-2.27h-2.27v2.27ZM601.43,54.79h2.27v9.07h-2.27v2.27h-13.61v-13.61h13.61v2.27ZM599.16,54.79h-9.07v9.07h9.07v-2.27h2.27v-4.54h-2.27v-2.27Z"/>
        <path class="cls-2" d="M653.42,43.45v-2.27h13.61v2.27h2.27v6.8h2.27v4.54h2.27v2.27h2.27v-2.27h2.27v-4.54h2.27v-6.8h2.27v-2.27h13.61v2.27h2.27v11.34h-2.27v2.27h-2.27v2.27h-2.27v2.27h-2.27v2.27h-2.27v2.27h2.27v2.27h2.27v2.27h2.27v2.27h2.27v4.54h2.27v11.34h-2.27v2.27h-13.61v-2.27h-2.27v-6.8h-2.27v-4.54h-2.27v-2.27h-2.27v2.27h-2.27v4.54h-2.27v6.8h-2.27v2.27h-13.61v-2.27h-2.27v-11.34h2.27v-2.27h2.27v-2.27h2.27v-2.27h2.27v-2.27h2.27v-2.27h-2.27v-2.27h-2.27v-2.27h-2.27v-2.27h-2.27v-4.54h-2.27v-11.34h2.27ZM653.42,45.72v6.8h2.27v4.54h2.27v2.27h2.27v2.27h2.27v2.27h2.27v6.8h2.27v2.27h2.27v2.27h2.27v-2.27h-2.27v-2.27h-2.27v-2.27h2.27v2.27h2.27v2.27h2.27v-2.27h-2.27v-2.27h2.27v2.27h2.27v2.27h2.27v2.27h2.27v-2.27h-2.27v-2.27h-2.27v-2.27h2.27v2.27h2.27v2.27h2.27v2.27h2.27v-2.27h-2.27v-2.27h-2.27v-2.27h2.27v2.27h2.27v2.27h2.27v2.27h2.27v-2.27h-2.27v-2.27h-2.27v-9.07h2.27v-2.27h2.27v-2.27h2.27v-2.27h2.27v-2.27h2.27v-6.8h-2.27v-2.27h-9.07v2.27h-2.27v6.8h-2.27v4.54h-2.27v2.27h-6.8v-2.27h-2.27v-4.54h-2.27v-6.8h-2.27v-2.27h-9.07v2.27h-2.27ZM660.23,75.2h2.27v-2.27h-2.27v2.27ZM662.49,72.93h2.27v2.27h2.27v-2.27h-2.27v-2.27h-2.27v2.27Z"/>
      </g>
    </g>
  </g>
</svg>