<?xml version="1.0" encoding="UTF-8"?>
<svg id="Layer_2" data-name="Layer 2" xmlns="http://www.w3.org/2000/svg" xmlns:xlink="http://www.w3.org/1999/xlink" viewBox="0 0 971.85 135.93">
  <defs>
    <style>
      .cls-1 {
        fill: none;
        filter: url(#outer-glow-1);
        stroke: #ff0092;
        stroke-miterlimit: 10;
        stroke-width: 4px;
      }

      .cls-2 {
        fill: #fdfbe2;
      }
    </style>
    <filter id="outer-glow-1" x="0" y="0" width="971.85" height="135.93" filterUnits="userSpaceOnUse">
      <feOffset dx="0" dy="0"/>
      <feGaussianBlur result="blur" stdDeviation="2.67"/>
      <feFlood flood-color="#a4509f" flood-opacity="1"/>
      <feComposite in2="blur" operator="in"/>
      <feComposite in="SourceGraphic"/>
    </filter>
  </defs>
  <g id="Telegram_Button" data-name="Telegram Button">
    <g>
      <rect class="cls-1" x="2" y="2" width="967.85" height="131.93" rx="65.96" ry="65.96"/>
      <g>
        <path class="cls-2" d="M224.4,42.45v-2.27h11.34v2.27h2.27v13.61h2.27v13.61h2.27v-9.07h2.27v-11.34h2.27v-6.8h2.27v-2.27h11.34v2.27h2.27v6.8h2.27v11.34h2.27v9.07h2.27v-13.61h2.27v-13.61h2.27v-2.27h11.34v2.27h2.27v13.61h-2.27v13.61h-2.27v9.07h-2.27v6.8h-2.27v2.27h-2.27v2.27h-13.61v-2.27h-2.27v-2.27h-2.27v-6.8h-2.27v-6.8h-2.27v6.8h-2.27v6.8h-2.27v2.27h-2.27v2.27h-13.61v-2.27h-2.27v-2.27h-2.27v-6.8h-2.27v-9.07h-2.27v-13.61h-2.27v-13.61h2.27ZM224.4,44.72v9.07h2.27v13.61h2.27v2.27h2.27v2.27h2.27v2.27h2.27v-2.27h-2.27v-2.27h-2.27v-2.27h2.27v2.27h2.27v2.27h2.27v2.27h2.27v-2.27h-2.27v-2.27h-2.27v-2.27h2.27v-9.07h-2.27v-13.61h-2.27v-2.27h-6.8v2.27h-2.27ZM228.93,74.2h2.27v-2.27h-2.27v2.27ZM242.54,74.2h2.27v-2.27h-2.27v2.27ZM249.35,44.72v6.8h-2.27v11.34h-2.27v4.54h2.27v2.27h2.27v2.27h2.27v-2.27h-2.27v-2.27h2.27v2.27h2.27v-2.27h2.27v2.27h2.27v2.27h2.27v2.27h2.27v-2.27h-2.27v-2.27h-2.27v-2.27h2.27v2.27h2.27v2.27h2.27v2.27h2.27v-2.27h-2.27v-2.27h-2.27v-2.27h2.27v-4.54h-2.27v-11.34h-2.27v-6.8h-2.27v-2.27h-6.8v2.27h-2.27ZM244.81,71.93h2.27v2.27h2.27v-2.27h-2.27v-2.27h-2.27v2.27ZM269.76,74.2h2.27v-2.27h-2.27v2.27ZM274.3,44.72v13.61h-2.27v9.07h2.27v2.27h2.27v2.27h2.27v2.27h2.27v-2.27h-2.27v-2.27h-2.27v-2.27h2.27v2.27h2.27v-2.27h2.27v-13.61h2.27v-9.07h-2.27v-2.27h-6.8v2.27h-2.27ZM272.03,71.93h2.27v2.27h2.27v-2.27h-2.27v-2.27h-2.27v2.27Z"/>
        <path class="cls-2" d="M299.16,42.45v-2.27h11.34v2.27h2.27v15.88h11.34v-15.88h2.27v-2.27h11.34v2.27h2.27v45.36h-2.27v2.27h-11.34v-2.27h-2.27v-15.88h-11.34v15.88h-2.27v2.27h-11.34v-2.27h-2.27v-45.36h2.27ZM299.16,44.72v24.95h2.27v2.27h2.27v2.27h2.27v-2.27h-2.27v-2.27h-2.27v-2.27h2.27v2.27h2.27v2.27h2.27v2.27h2.27v-2.27h-2.27v-2.27h-2.27v-2.27h2.27v2.27h2.27v-2.27h2.27v2.27h2.27v-2.27h2.27v2.27h2.27v-2.27h2.27v2.27h2.27v-2.27h2.27v2.27h2.27v2.27h2.27v2.27h2.27v-2.27h-2.27v-2.27h-2.27v-2.27h2.27v2.27h2.27v2.27h2.27v2.27h2.27v-2.27h-2.27v-2.27h-2.27v-2.27h2.27v2.27h2.27v-24.95h-2.27v-2.27h-6.8v2.27h-2.27v15.88h-15.88v-15.88h-2.27v-2.27h-6.8v2.27h-2.27ZM299.16,74.2h2.27v-2.27h-2.27v2.27ZM328.64,74.2v-2.27h-2.27v2.27h2.27Z"/>
        <path class="cls-2" d="M353.51,42.45v-2.27h11.34v2.27h2.27v45.36h-2.27v2.27h-11.34v-2.27h-2.27v-45.36h2.27ZM353.51,44.72v24.95h2.27v2.27h2.27v2.27h2.27v-2.27h-2.27v-2.27h-2.27v-2.27h2.27v2.27h2.27v2.27h2.27v2.27h2.27v-2.27h-2.27v-2.27h-2.27v-2.27h2.27v2.27h2.27v-24.95h-2.27v-2.27h-6.8v2.27h-2.27ZM353.51,74.2h2.27v-2.27h-2.27v2.27Z"/>
        <path class="cls-2" d="M376.1,42.45h2.27v-2.27h38.56v2.27h2.27v9.07h-2.27v2.27h-11.34v34.02h-2.27v2.27h-11.34v-2.27h-2.27v-34.02h-11.34v-2.27h-2.27v-9.07ZM378.37,44.72v4.54h2.27v2.27h11.34v18.14h2.27v2.27h2.27v2.27h2.27v-2.27h-2.27v-2.27h-2.27v-2.27h2.27v2.27h2.27v2.27h2.27v2.27h2.27v-2.27h-2.27v-2.27h-2.27v-2.27h2.27v2.27h2.27v-18.14h11.34v-2.27h2.27v-4.54h-2.27v-2.27h-34.02v2.27h-2.27ZM391.98,74.2h2.27v-2.27h-2.27v2.27Z"/>
        <path class="cls-2" d="M430.45,42.45v-2.27h31.75v2.27h2.27v9.07h-2.27v2.27h-18.14v4.54h13.61v2.27h2.27v9.07h-2.27v2.27h-13.61v4.54h18.14v2.27h2.27v9.07h-2.27v2.27h-31.75v-2.27h-2.27v-45.36h2.27ZM430.45,44.72v24.95h2.27v2.27h2.27v2.27h2.27v-2.27h-2.27v-2.27h-2.27v-2.27h2.27v2.27h2.27v2.27h2.27v2.27h2.27v-2.27h-2.27v-2.27h-2.27v-2.27h2.27v2.27h2.27v-2.27h2.27v2.27h2.27v-2.27h2.27v2.27h2.27v-2.27h2.27v2.27h2.27v-2.27h2.27v-4.54h-2.27v-2.27h-13.61v-9.07h18.14v-2.27h2.27v-4.54h-2.27v-2.27h-27.22v2.27h-2.27ZM430.45,74.2h2.27v-2.27h-2.27v2.27Z"/>
        <path class="cls-2" d="M500.59,42.45v-2.27h29.48v2.27h4.54v2.27h2.27v2.27h2.27v4.54h2.27v13.61h-2.27v4.54h-2.27v2.27h-2.27v2.27h-4.54v2.27h-15.88v11.34h-2.27v2.27h-11.34v-2.27h-2.27v-45.36h2.27ZM500.59,44.72v24.95h2.27v2.27h2.27v2.27h2.27v-2.27h-2.27v-2.27h-2.27v-2.27h2.27v2.27h2.27v2.27h2.27v2.27h2.27v-2.27h-2.27v-2.27h-2.27v-2.27h2.27v2.27h2.27v2.27h2.27v2.27h2.27v-2.27h-2.27v-2.27h-2.27v-2.27h2.27v2.27h2.27v2.27h2.27v2.27h2.27v-2.27h-2.27v-2.27h-2.27v-2.27h2.27v2.27h2.27v2.27h2.27v2.27h2.27v-2.27h-2.27v-2.27h-2.27v-2.27h2.27v2.27h2.27v2.27h2.27v-2.27h-2.27v-2.27h2.27v2.27h2.27v2.27h2.27v-2.27h-2.27v-2.27h2.27v2.27h2.27v-2.27h2.27v-4.54h2.27v-9.07h-2.27v-4.54h-2.27v-2.27h-2.27v-2.27h-4.54v-2.27h-24.95v2.27h-2.27ZM500.59,74.2h2.27v-2.27h-2.27v2.27ZM525.53,53.79h2.27v9.07h-2.27v2.27h-13.61v-13.61h13.61v2.27ZM523.27,53.79h-9.07v9.07h9.07v-2.27h2.27v-4.54h-2.27v-2.27Z"/>
        <path class="cls-2" d="M561.74,42.45h2.27v-2.27h15.88v2.27h2.27v2.27h2.27v4.54h2.27v4.54h2.27v6.8h2.27v6.8h2.27v9.07h2.27v11.34h-2.27v2.27h-11.34v-2.27h-2.27v-6.8h-15.88v6.8h-2.27v2.27h-11.34v-2.27h-2.27v-11.34h2.27v-9.07h2.27v-6.8h2.27v-6.8h2.27v-4.54h2.27v-4.54h2.27v-2.27ZM552.67,74.2h2.27v-2.27h-2.27v2.27ZM564.01,46.98h-2.27v4.54h-2.27v4.54h-2.27v6.8h-2.27v4.54h2.27v2.27h2.27v2.27h2.27v2.27h2.27v-2.27h-2.27v-2.27h-2.27v-2.27h2.27v2.27h2.27v2.27h2.27v2.27h2.27v-2.27h-2.27v-2.27h-2.27v-6.8h2.27v-6.8h2.27v-4.54h6.8v4.54h2.27v6.8h2.27v6.8h2.27v2.27h2.27v2.27h2.27v-2.27h-2.27v-2.27h-2.27v-2.27h2.27v2.27h2.27v2.27h2.27v-2.27h-2.27v-2.27h2.27v-4.54h-2.27v-6.8h-2.27v-4.54h-2.27v-4.54h-2.27v-2.27h-2.27v-2.27h-11.34v2.27h-2.27v2.27ZM554.93,71.93h2.27v2.27h2.27v-2.27h-2.27v-2.27h-2.27v2.27ZM573.08,53.79h-2.27v4.54h-2.27v6.8h-2.27v2.27h11.34v-2.27h-2.27v-6.8h-2.27v-4.54ZM568.54,71.93h2.27v2.27h2.27v-2.27h-2.27v-2.27h-2.27v2.27ZM573.08,71.93h2.27v2.27h2.27v-2.27h-2.27v-2.27h-2.27v2.27ZM577.61,71.93h2.27v2.27h2.27v-2.27h-2.27v-2.27h-2.27v2.27ZM588.95,74.2h2.27v-2.27h-2.27v2.27Z"/>
        <path class="cls-2" d="M607.01,42.45v-2.27h29.48v2.27h4.54v2.27h2.27v2.27h2.27v4.54h2.27v13.61h-2.27v4.54h-2.27v2.27h-2.27v2.27h-4.54v2.27h-15.88v11.34h-2.27v2.27h-11.34v-2.27h-2.27v-45.36h2.27ZM607.01,44.72v24.95h2.27v2.27h2.27v2.27h2.27v-2.27h-2.27v-2.27h-2.27v-2.27h2.27v2.27h2.27v2.27h2.27v2.27h2.27v-2.27h-2.27v-2.27h-2.27v-2.27h2.27v2.27h2.27v2.27h2.27v2.27h2.27v-2.27h-2.27v-2.27h-2.27v-2.27h2.27v2.27h2.27v2.27h2.27v2.27h2.27v-2.27h-2.27v-2.27h-2.27v-2.27h2.27v2.27h2.27v2.27h2.27v2.27h2.27v-2.27h-2.27v-2.27h-2.27v-2.27h2.27v2.27h2.27v2.27h2.27v-2.27h-2.27v-2.27h2.27v2.27h2.27v2.27h2.27v-2.27h-2.27v-2.27h2.27v2.27h2.27v-2.27h2.27v-4.54h2.27v-9.07h-2.27v-4.54h-2.27v-2.27h-2.27v-2.27h-4.54v-2.27h-24.95v2.27h-2.27ZM607.01,74.2h2.27v-2.27h-2.27v2.27ZM631.96,53.79h2.27v9.07h-2.27v2.27h-13.61v-13.61h13.61v2.27ZM629.69,53.79h-9.07v9.07h9.07v-2.27h2.27v-4.54h-2.27v-2.27Z"/>
        <path class="cls-2" d="M659.09,42.45v-2.27h31.75v2.27h2.27v9.07h-2.27v2.27h-18.14v4.54h13.61v2.27h2.27v9.07h-2.27v2.27h-13.61v4.54h18.14v2.27h2.27v9.07h-2.27v2.27h-31.75v-2.27h-2.27v-45.36h2.27ZM659.09,44.72v24.95h2.27v2.27h2.27v2.27h2.27v-2.27h-2.27v-2.27h-2.27v-2.27h2.27v2.27h2.27v2.27h2.27v2.27h2.27v-2.27h-2.27v-2.27h-2.27v-2.27h2.27v2.27h2.27v-2.27h2.27v2.27h2.27v-2.27h2.27v2.27h2.27v-2.27h2.27v2.27h2.27v-2.27h2.27v-4.54h-2.27v-2.27h-13.61v-9.07h18.14v-2.27h2.27v-4.54h-2.27v-2.27h-27.22v2.27h-2.27ZM659.09,74.2h2.27v-2.27h-2.27v2.27Z"/>
        <path class="cls-2" d="M706.64,42.45v-2.27h29.48v2.27h4.54v2.27h2.27v2.27h2.27v4.54h2.27v11.34h-2.27v4.54h-2.27v2.27h-2.27v4.54h2.27v4.54h2.27v2.27h2.27v6.8h-2.27v2.27h-13.61v-2.27h-2.27v-4.54h-2.27v-4.54h-2.27v-4.54h-4.54v13.61h-2.27v2.27h-11.34v-2.27h-2.27v-45.36h2.27ZM706.64,44.72v24.95h2.27v2.27h2.27v2.27h2.27v-2.27h-2.27v-2.27h-2.27v-2.27h2.27v2.27h2.27v2.27h2.27v2.27h2.27v-2.27h-2.27v-2.27h-2.27v-2.27h2.27v2.27h2.27v2.27h2.27v-2.27h-2.27v-2.27h2.27v2.27h2.27v2.27h2.27v-2.27h-2.27v-2.27h2.27v2.27h2.27v2.27h2.27v2.27h2.27v-2.27h-2.27v-2.27h-2.27v-2.27h2.27v2.27h2.27v2.27h2.27v2.27h2.27v-2.27h-2.27v-2.27h-2.27v-2.27h2.27v2.27h2.27v2.27h2.27v-2.27h-2.27v-2.27h4.54v-2.27h2.27v-4.54h2.27v-6.8h-2.27v-4.54h-2.27v-2.27h-2.27v-2.27h-4.54v-2.27h-24.95v2.27h-2.27ZM706.64,74.2h2.27v-2.27h-2.27v2.27ZM731.58,53.79h2.27v9.07h-2.27v2.27h-13.61v-13.61h13.61v2.27ZM729.32,53.79h-9.07v9.07h9.07v-2.27h2.27v-4.54h-2.27v-2.27Z"/>
      </g>
    </g>
  </g>
</svg>